<?xml version="1.0" encoding="utf-8"?>
<!-- Generator: Adobe Illustrator 24.1.2, SVG Export Plug-In . SVG Version: 6.00 Build 0)  -->
<svg version="1.1" id="Capa_1" xmlns="http://www.w3.org/2000/svg" xmlns:xlink="http://www.w3.org/1999/xlink" x="0px" y="0px"
	 viewBox="0 0 600 600" style="enable-background:new 0 0 600 600;" xml:space="preserve">
<style type="text/css">
	.st0{fill:#FFFFFF;}
	.st1{fill:#7F7F7F;}
</style>
<rect class="st0" width="600" height="600"/>
<path class="st1" d="M519.65,236.27h2.19l2.51,4.18h1.69l-2.64-4.29c1.45-0.21,2.37-1.29,2.37-2.8c0-1.9-1.22-2.83-3.72-2.83h-3.81
	v9.92h1.4V236.27z M519.65,231.79h2.42c1.25,0,2.37,0.13,2.37,1.64c0,1.43-1.19,1.63-2.36,1.63h-2.43V231.79z M109.74,302.91h14.91
	c0,0,1.17,7.15,1.64,10.3c0.47,3.15-1.64,3.93-1.64,3.93l27.78-0.01c0,0-1.17-0.54-3.16-9.76c0,0-16.79-72.49-17.17-74.2
	c-0.73-3.26,0.97-4.35,0.97-4.35H101.3c0,0,1.7,1.09,0.97,4.35c-0.38,1.71-17.16,74.2-17.16,74.2c-1.99,9.24-4.6,9.76-4.6,9.76
	l29.22,0.01c0,0-2.11-0.78-1.64-3.93C108.56,310.06,109.74,302.91,109.74,302.91z M117.19,251.6l5.08,35.06h-10.17L117.19,251.6z
	 M341.49,317.15h44.95v-21.5c0,0-0.44,0.86-1.61,1.28c-0.54,0.19-1.19,0.26-1.98,0.28h-14.6v-64.85c0.03-0.78,0.08-1.43,0.28-1.95
	c0.42-1.17,1.28-1.61,1.28-1.61h-28.3c0,0,0.86,0.44,1.28,1.61c0.15,0.42,0.22,0.92,0.26,1.5l0.01,81.68
	c-0.03,0.78-0.08,1.43-0.28,1.95C342.36,316.7,341.49,317.15,341.49,317.15z M164.08,335.71c-0.14,0-0.44-0.14-0.65-0.29
	c-0.36-0.14-0.58-0.22-0.94-0.22c-0.58,0-1.95,0.08-2.89,0.14l-1.44,0.14c-0.5,0.08-1.08,0.08-1.22,0.08
	c-0.22,0-0.86,0.08-1.37,0.08l-1.01,0.08l-0.22-0.43c-0.22-0.44-0.65-0.86-1.01-1.01c-0.14-0.08-0.36-0.14-0.44-0.22
	c-0.43-0.14-0.5-0.29-0.94-0.29h-0.39c0,0.08-0.08,0.08-0.22,0c-0.36-0.08-0.44,0.22-0.5,1.3c0,0.72-0.07,0.94-0.14,1.01
	c-0.08,0-0.29,0.08-0.58,0.08c-0.22,0.08-0.86,0.14-1.37,0.22c-0.5,0.08-1.22,0.22-1.59,0.22c-2.09,0.36-4.9,1.08-5.4,1.37
	l-0.5,0.29c-0.22,0.08-0.22,0.36-0.08,0.72c0.08,0.14,0.14,0.29,0.14,0.36c0,0.08,0.08,0.14,0.14,0.22
	c0.07,0.08,0.29,0.36,0.36,0.58c0.29,0.43,1.01,1.22,1.22,1.3c0.07,0,0.14,0.08,0.14,0.14l0.29,0.14c0.22,0.08,0.44,0.29,0.65,0.36
	c0.14,0.14,0.58,0.29,0.86,0.36c0.58,0.14,1.59,0.22,2.52,0.22c0.5,0,1.01,0,1.44-0.08c0.44-0.08,0.72-0.08,0.72,0
	c0.08,0,0,0.36-0.14,1.01c-0.08,0.5-0.22,1.01-0.22,1.16c-0.08,0.43-0.44,2.02-0.5,2.23c-0.08,0.29-0.44,1.8-0.94,4.4
	c-0.29,1.3-0.58,3.17-0.72,3.82c-0.08,0.29-0.14,0.65-0.14,0.86c-0.29,1.08-0.79,4.76-0.79,5.84c-0.08,1.59-0.14,2.02-0.36,2.89
	c-0.14,0.58-0.22,1.08-0.22,1.8c-0.08,0.58-0.08,1.22-0.14,1.51c-0.08,0.22-0.14,0.8-0.14,1.22c-0.08,0.44-0.08,1.08-0.14,1.44
	c-0.08,0.79-0.14,1.59-0.14,2.09v0.29c0.08,0,0.08,0.08,0,0.08c0,0.08-0.07,0.29-0.07,0.58c0,0.22-0.08,0.86-0.08,1.3
	c-0.08,0.5-0.14,1.16-0.14,1.44c0.08,0.58,0,1.44-0.08,1.8c-0.08,0.08-0.08,0.65-0.08,1.3c-0.08,0.58-0.08,1.08-0.08,1.16
	c-0.08,0-0.08,0.5-0.14,1.01c0,0.94,0,1.01,0.14,1.3l0.22,0.5c0,0.14,0.29,0.5,0.43,0.5l0.22,0.14c0.14,0.14,0.29,0.22,0.36,0.22
	c0.08,0,0.29,0.08,0.58,0.22c0.36,0.18,0.5,0.18,0.58,0.1c0.07,0,0.22-0.08,0.22,0c0.08,0,0.14,0,0.22-0.08c0,0,0.08-0.07,0.14,0
	c0,0,0.14-0.07,0.22-0.07c0.08-0.14,0.22-0.14,0.43-0.08c0.22,0,0.36,0,0.36-0.08c0,0,0.14-0.14,0.36-0.22
	c0.22-0.08,0.29-0.14,0.29-0.29c0-0.14,0-0.22,0.14-0.14c0.14,0,0.22-0.08,0.29-0.22c0.08-0.22,0.22-0.29,0.43-0.36
	c0.29-0.08,0.44-0.29,0.65-0.94c0.08-0.29,0.14-0.58,0.14-0.94c0-0.29-0.07-0.58-0.07-1.01c-0.08-0.44-0.08-0.79-0.08-0.86
	c0-0.08,0-0.5,0.08-1.01c0-0.5,0-1.3,0.07-1.73c0-0.44,0-1.37,0.08-2.09l0.14-1.73c0.08-0.5,0.08-1.22,0.36-2.31
	c0.08-0.44,0.22-1.01,0.22-1.22c0.08-0.14,0.08-0.5,0.14-0.65c0.07-0.22,0.07-0.79,0.07-1.3c0-1.44,0.08-3.1,0.22-3.89l0.29-1.37
	c0.22-1.01,0.36-1.37,0.36-2.23v-1.51c0.07-0.36,0.07-0.65,0.07-0.72c0.08,0,0.08-0.14,0.08-0.29c0-0.08,0-0.22,0.08-0.22
	c0-0.08,0.08-0.22,0.08-0.36c0-0.22,0.14-0.65,0.22-1.08c0.36-1.01,0.5-1.66,0.5-2.16c0-0.44,0.22-1.16,0.36-1.51
	c0.08,0,0.08-0.22,0.14-0.43c0-0.14,0.08-0.36,0.08-0.44c0,0,0.08-0.08,0.08-0.14c0-0.5,0.08-0.86,0.14-0.94l0.14-0.65
	c0.07-0.29,0.07-0.65,0.14-0.72c0.36-1.88,0.5-2.23,0.58-2.31c0-0.08,0-0.14,0.08-0.29l0.08-0.5c0-0.22,0.08-0.8,0.14-1.37
	c0-0.5,0-1.08,0.07-1.3l0.08-0.58c-0.08-0.22,0-0.5,0-0.65c0.08-0.22,0.14-0.29,0.29-0.29l0.29-0.08c0.08-0.08,0.43-0.08,0.79-0.14
	c0.79,0,1.16-0.08,1.44-0.29c0.08-0.08,0.29-0.08,0.5-0.08c0.43,0,1.22-0.14,1.37-0.29c0-0.08,0.14-0.08,0.29-0.08
	c0.29,0,1.22-0.22,1.59-0.36c0.14-0.08,0.5-0.22,0.65-0.22c0.22,0,0.43-0.08,0.43-0.14c0.08-0.08,0.14-0.08,0.29-0.08
	c0.22,0,0.29-0.22,0.29-0.5c-0.08-0.14,0-0.22,0.08-0.29c0.08,0,0.08-0.08,0.08-0.14c0-0.08,0.08-0.22,0.14-0.36
	c0.08-0.14,0.14-0.29,0.14-0.36c0-0.14,0.29-0.29,0.44-0.22c0.08,0,0.08-0.08-0.14-0.29l-0.22-0.22l0.22-0.22
	c0.14-0.14,0.22-0.22,0.5-0.22c0.22-0.08,0.29-0.08,0.29-0.22C165.53,336.43,165.45,336.36,164.08,335.71z M136.86,336.19
	c0-0.08-0.5-0.65-0.65-0.65c-0.08,0-0.14-0.08-0.22-0.14c-0.08-0.08-0.22-0.22-0.36-0.29c-0.14-0.08-0.5-0.22-0.72-0.36
	c-0.43-0.22-0.65-0.29-0.79-0.29c-0.08,0-0.14,0.08-0.22,0.08c-0.08,0.08-0.36,0.08-0.5,0.08c-0.94,0-1.8,0.14-1.66,0.36l-0.14,0.14
	c-0.22,0.08-0.29,0.29-0.22,0.58c0.08,0.36,0,1.3-0.14,1.73c-0.08,0.5-0.14,0.58-0.22,1.22c0,0.22-0.08,0.58-0.14,0.8
	c-0.07,0.14-0.07,0.5-0.14,0.72c0,0.29-0.08,0.58-0.08,0.65c-0.08,0.08-0.08,0.29-0.14,0.43c0,0.14-0.08,0.58-0.14,0.94
	c-0.22,0.65-0.36,1.51-0.44,1.95c0,0.08,0,0.29-0.07,0.44c-0.22,0.86-0.65,2.81-0.72,3.46c0,0.22,0,0.44-0.08,0.5
	c0,0.08-0.14,0.5-0.22,1.01c-0.22,1.44-0.36,2.02-0.44,2.16c-0.08,0-0.08,0.07-0.08,0.07c0.08,0,0,0.29-0.08,0.65
	c-0.08,0.36-0.22,0.79-0.22,1.01c-0.08,0.22-0.08,0.43-0.08,0.43c-0.07,0-0.07,0.29-0.14,0.5c0,0.29-0.14,0.94-0.29,1.51
	c-0.14,0.58-0.22,1.22-0.29,1.44c0,0.29-0.08,0.72-0.08,1.08l-0.22,1.37c-0.08,0.44-0.14,0.86-0.22,1.08
	c-0.08,0.5-0.22,1.16-0.29,2.09c-0.08,0.5-0.22,1.44-0.36,2.02c-0.14,0.65-0.22,1.44-0.22,1.73c-0.08,0.65-0.22,1.37-0.36,1.8
	l-0.08,0.58c0,0.29-0.08,0.5-0.36,2.09c0,0.29-0.14,0.94-0.14,1.44c-0.08,0.58-0.22,1.51-0.36,2.09c-0.08,0.65-0.14,1.37-0.14,1.73
	c-0.08,0.29-0.14,0.8-0.14,1.08c-0.08,0.22-0.14,0.65-0.14,0.8c-0.08,0.86-0.29,2.38-0.36,2.67c0,0.22-0.08,1.01,0,1.73
	c0,0.22,0.29,0.72,0.43,0.94c0.22,0.22,0.8,0.5,1.08,0.5l0.08-0.08c0.08-0.08,0.08-0.08,0.08,0c-0.13,0.09-0.05,0.16,0.02,0.16
	c0,0,0.08-0.08,0.08-0.14c0-0.07,0.08-0.08,0.14-0.08c0.14,0,0.29,0,0.36-0.08c0.08,0,0.29-0.08,0.44-0.08c0.15,0,0.29,0,0.36-0.08
	c0.14-0.14,0.22-0.14,0.22-0.08c0.14,0.08,0.58,0.14,0.86,0.14h0.14l0.29-0.08c0.08-0.14,0.29-0.22,0.86-0.29
	c0.14-0.08,0.29-0.14,0.36-0.14c0-0.08,0.14-0.14,0.22-0.22l0.14-0.14c-0.08-0.08,0-0.08,0,0c0.14,0,0.44-0.43,0.29-0.5
	c-0.08-0.08,0.08-0.5,0.14-0.5c0.14-0.08,0.14-0.36,0.14-1.01c0-0.14,0.08-0.36,0.08-0.36c0.08,0,0.14-0.22,0.14-0.36l0.22-0.58
	c0-0.14,0.08-0.58,0.08-0.94c0.08-0.5,0.08-0.58,0.22-0.72c0.14-0.08,0.14-0.14,0.14-0.43l0.08-0.58c0.14-0.36,0.29-0.86,0.29-1.08
	c0.07-0.08,0.14-0.36,0.22-0.65c0.08-0.29,0.08-0.5,0.08-0.58c0.08-0.08,0.08-0.14,0.14-0.29c0-0.08,0.08-0.36,0.08-0.65v-0.58
	c0,0,0.08-0.22,0.08-0.43c0-1.08,0.08-1.59,0.14-1.66c0-0.08,0-0.44,0.08-0.86c0-0.43,0-0.79,0.08-0.79
	c0.08-0.08,0.08-0.22,0.08-0.43c0-0.14,0.07-0.29,0.14-0.36c0.14-0.14,0.22-0.5,0.29-1.44c0-0.14,0-0.29,0.08-0.36
	c0.08-0.14,0.14-0.94,0.14-1.44v-0.29c-0.08-0.29-0.08-0.44,0.08-0.44c0-0.08,0.08-0.14,0-0.36c0-0.14,0-0.29,0.08-0.36
	c0.08,0,0.08-0.29,0.14-0.58c0-0.29,0-0.58,0.08-0.65c0.07-0.08,0.07-0.22,0.07-0.22c-0.07-0.08-0.07-0.08,0-0.08
	c0,0,0.08-0.22,0-0.43c0-0.29,0-0.44,0.14-0.5c0-0.08,0.08-0.22,0.14-0.36c0-0.14,0.08-0.29,0.08-0.36
	c0.08-0.08,0.14-0.58,0.08-0.65c-0.07-0.07-0.08-0.08,0-0.14c0.14-0.08,0.14-0.22,0.14-0.36c-0.08-0.14,0-0.29,0.08-0.36
	c0.08-0.14,0.14-0.44,0.14-0.58c0-0.14,0-0.29-0.08-0.29c-0.08,0-0.08-0.08,0.08-0.14c0.14-0.14,0.22-0.65,0.22-1.01v-0.14
	c-0.08-0.08-0.08-0.22,0-0.29v-0.29c-0.08-0.14-0.08-0.22,0.08-0.29c0.08-0.08,0.08-0.29,0.14-0.58c0-0.22,0-0.43,0.08-0.5
	c0-0.08,0.14-0.72,0.22-1.3c0-0.14,0-0.36,0.08-0.36c0-0.08,0-0.5,0.08-1.01c0-0.5,0-1.08,0.08-1.3c0-0.22,0-0.72,0.08-1.16
	c0-0.36,0.08-0.72,0.08-0.8c0.07,0,0.07-0.22,0.07-0.43c0-0.14,0.08-0.36,0.08-0.44c0.08,0,0.08-0.36,0.14-0.65
	c0-0.36,0-0.72,0.08-0.8c0-0.14,0.08-0.36,0.08-0.58c0-0.36,0-0.43,0.08-0.58c0.14-0.14,0.08-0.22,0.08-1.16
	c0-0.14,0.08-0.29,0.14-0.44c0.08-0.22,0.08-0.58,0.08-1.08c0-0.5,0-0.79,0.08-0.94c0.14-0.22,0.36-1.3,0.36-1.66v-0.65v-1.51
	c-0.08-0.22-0.08-0.43,0-0.58c0.14-0.22,0.14-0.5,0.14-0.72c0-0.22,0-0.44-0.14-0.58C136.86,336.4,136.8,336.26,136.86,336.19z
	 M153.74,230.42c0.37,1.03,0.29,2.44,0.29,4.56v75.98c0,4.88-0.75,6.17-0.75,6.17l31.85,0.01c19.94,0,29.75-9.76,29.75-24.46
	c0-12.57-9.14-20.63-19.1-21.34h-0.19c8.59-0.21,16.21-8.96,15.75-19.96c-0.65-15.75-12.37-22.57-32.12-22.57l-26.75-0.01
	C152.46,228.81,153.32,229.25,153.74,230.42z M178.61,246.74h1.68c4.93,0,9.48,2.52,9.14,8.9c-0.32,5.82-4.37,8.25-9.14,8.25h-1.68
	V246.74z M178.5,299.24v-19.35h1.59c6.66,0,10.61,3.62,10.67,9.35c0.08,7.34-4.56,10.01-10.67,10.01L178.5,299.24L178.5,299.24z
	 M305.1,319.23h0.03h0.03c22.66-0.11,33.28-17.28,33.52-44.97h0.01v-2.23h-0.01c-0.23-27.69-10.86-44.87-33.52-44.98h-0.03h-0.03
	c-22.66,0.11-33.28,17.28-33.52,44.98h-0.01v2.23h0.01C271.83,301.95,282.45,319.13,305.1,319.23z M297.48,272.02
	c0.02-12.03,0.35-25.22,7.65-25.45c7.3,0.23,7.63,13.41,7.65,25.45v2.23c-0.02,12.04-0.35,25.03-7.65,25.27
	c-7.3-0.23-7.63-13.23-7.65-25.27V272.02z M387.78,230.42c0.19,0.54,0.26,1.19,0.28,1.98l0.02,58.66c0,15.63,9.55,28.16,30.83,28.16
	h1.09c21.28,0,30.83-12.53,30.83-28.16l0.02-58.66c0.03-0.8,0.08-1.45,0.28-1.98c0.4-1.17,1.27-1.61,1.27-1.61h-28.3
	c0,0,0.86,0.44,1.28,1.61c0.19,0.54,0.26,1.19,0.28,1.98v57.62c0,3.38-0.4,5.54-1.58,7.11c-1.11,1.49-2.77,2.23-4.62,2.23
	s-3.51-0.74-4.62-2.23c-1.17-1.58-1.58-3.73-1.58-7.11V232.4c0.03-0.8,0.08-1.45,0.28-1.98c0.42-1.17,1.28-1.61,1.28-1.61h-28.3
	C386.5,228.81,387.36,229.25,387.78,230.42z M521.74,244.38c4.85,0,8.77-3.92,8.77-8.73c0-4.81-3.93-8.72-8.77-8.72
	c-4.84,0-8.77,3.91-8.77,8.72C512.98,240.47,516.9,244.38,521.74,244.38z M521.74,227.84c4.34,0,7.85,3.51,7.85,7.82
	c0,4.31-3.51,7.81-7.85,7.81c-4.34,0-7.86-3.5-7.86-7.81C513.88,231.34,517.41,227.84,521.74,227.84z M453.87,336.19
	c0-0.08-0.5-0.65-0.65-0.65c-0.08,0-0.14-0.08-0.22-0.14c-0.08-0.08-0.22-0.22-0.36-0.29c-0.14-0.08-0.5-0.22-0.72-0.36
	c-0.44-0.22-0.65-0.29-0.8-0.29c-0.08,0-0.14,0.08-0.22,0.08c-0.07,0.08-0.36,0.08-0.5,0.08c-0.94,0-1.8,0.14-1.66,0.36l-0.14,0.14
	c-0.22,0.08-0.29,0.29-0.22,0.58c0.08,0.36,0,1.3-0.14,1.73c-0.08,0.5-0.14,0.58-0.22,1.22c0,0.22-0.07,0.58-0.14,0.8
	c-0.08,0.14-0.08,0.5-0.14,0.72c0,0.29-0.08,0.58-0.08,0.65c-0.08,0.08-0.08,0.29-0.14,0.43c0,0.14-0.08,0.58-0.14,0.94
	c-0.22,0.65-0.36,1.51-0.44,1.95c0,0.08,0,0.29-0.08,0.44c-0.22,0.86-0.65,2.81-0.72,3.46c0,0.22,0,0.44-0.08,0.5
	c0,0.08-0.14,0.5-0.22,1.01c-0.22,1.44-0.36,2.02-0.44,2.16c-0.08,0-0.08,0.07-0.08,0.07c0.08,0,0,0.29-0.08,0.65
	c-0.08,0.36-0.22,0.79-0.22,1.01c-0.08,0.22-0.08,0.43-0.08,0.43c-0.08,0-0.08,0.29-0.14,0.5c0,0.29-0.14,0.94-0.29,1.51
	c-0.14,0.58-0.22,1.22-0.29,1.44c0,0.29-0.08,0.72-0.08,1.08l-0.22,1.37c-0.08,0.44-0.14,0.86-0.22,1.08
	c-0.08,0.5-0.22,1.16-0.29,2.09c-0.08,0.5-0.22,1.44-0.36,2.02c-0.14,0.65-0.22,1.44-0.22,1.73c-0.08,0.65-0.22,1.37-0.36,1.8
	l-0.08,0.58c0,0.29-0.08,0.5-0.36,2.09c0,0.29-0.14,0.94-0.14,1.44c-0.08,0.58-0.22,1.51-0.36,2.09c-0.08,0.65-0.14,1.37-0.14,1.73
	c-0.08,0.29-0.14,0.8-0.14,1.08c-0.08,0.22-0.14,0.65-0.14,0.8c-0.08,0.86-0.29,2.38-0.36,2.67c0,0.22-0.08,1.01,0,1.73
	c0,0.22,0.29,0.72,0.44,0.94c0.22,0.22,0.8,0.5,1.08,0.5l0.08-0.08c0.08-0.08,0.08-0.08,0.08,0c-0.13,0.09-0.05,0.16,0.02,0.16
	c0,0,0.08-0.08,0.08-0.14c0-0.07,0.08-0.08,0.14-0.08c0.14,0,0.29,0,0.36-0.08c0.08,0,0.29-0.08,0.44-0.08c0.15,0,0.29,0,0.36-0.08
	c0.14-0.14,0.22-0.14,0.22-0.08c0.14,0.08,0.58,0.14,0.86,0.14h0.14l0.29-0.08c0.08-0.14,0.29-0.22,0.86-0.29
	c0.14-0.08,0.29-0.14,0.36-0.14c0-0.08,0.14-0.14,0.22-0.22l0.14-0.14c-0.08-0.08,0-0.08,0,0c0.14,0,0.44-0.43,0.29-0.5
	c-0.08-0.08,0.08-0.5,0.14-0.5c0.14-0.08,0.14-0.36,0.14-1.01c0-0.14,0.08-0.36,0.08-0.36c0.08,0,0.14-0.22,0.14-0.36l0.22-0.58
	c0-0.14,0.08-0.58,0.08-0.94c0.08-0.5,0.08-0.58,0.22-0.72c0.14-0.08,0.14-0.14,0.14-0.43l0.08-0.58c0.14-0.36,0.29-0.86,0.29-1.08
	c0.08-0.08,0.14-0.36,0.22-0.65c0.08-0.29,0.08-0.5,0.08-0.58c0.08-0.08,0.08-0.14,0.14-0.29c0-0.08,0.08-0.36,0.08-0.65v-0.58
	c0,0,0.08-0.22,0.08-0.43c0-1.08,0.08-1.59,0.14-1.66c0-0.08,0-0.44,0.08-0.86c0-0.43,0-0.79,0.08-0.79
	c0.08-0.08,0.08-0.22,0.08-0.43c0-0.14,0.08-0.29,0.14-0.36c0.14-0.14,0.22-0.5,0.29-1.44c0-0.14,0-0.29,0.08-0.36
	c0.08-0.14,0.14-0.94,0.14-1.44v-0.29c-0.08-0.29-0.08-0.44,0.08-0.44c0-0.08,0.08-0.14,0-0.36c0-0.14,0-0.29,0.08-0.36
	c0.08,0,0.08-0.29,0.14-0.58c0-0.29,0-0.58,0.08-0.65c0.08-0.07,0.08-0.22,0.08-0.22c-0.08-0.08-0.08-0.08,0-0.08
	c0,0,0.07-0.22,0-0.43c0-0.29,0-0.44,0.14-0.5c0-0.08,0.08-0.22,0.14-0.36c0-0.14,0.08-0.29,0.08-0.36
	c0.08-0.08,0.14-0.58,0.08-0.65c-0.07-0.07-0.08-0.08,0-0.14c0.14-0.08,0.14-0.22,0.14-0.36c-0.08-0.14,0-0.29,0.08-0.36
	c0.08-0.14,0.14-0.44,0.14-0.58c0-0.14,0-0.29-0.08-0.29c-0.08,0-0.08-0.08,0.08-0.14c0.14-0.14,0.22-0.65,0.22-1.01v-0.14
	c-0.08-0.08-0.08-0.22,0-0.29v-0.29c-0.08-0.14-0.08-0.22,0.07-0.29c0.08-0.08,0.08-0.29,0.14-0.58c0-0.22,0-0.43,0.08-0.5
	c0-0.08,0.14-0.72,0.22-1.3c0-0.14,0-0.36,0.08-0.36c0-0.08,0-0.5,0.08-1.01c0-0.5,0-1.08,0.08-1.3c0-0.22,0-0.72,0.08-1.16
	c0-0.36,0.08-0.72,0.08-0.8c0.08,0,0.08-0.22,0.08-0.43c0-0.14,0.08-0.36,0.08-0.44c0.08,0,0.08-0.36,0.14-0.65
	c0-0.36,0-0.72,0.08-0.8c0-0.14,0.08-0.36,0.08-0.58c0-0.36,0-0.43,0.08-0.58c0.14-0.14,0.08-0.22,0.08-1.16
	c0-0.14,0.08-0.29,0.14-0.44c0.08-0.22,0.08-0.58,0.08-1.08c0-0.5,0-0.79,0.08-0.94c0.14-0.22,0.36-1.3,0.36-1.66v-0.65v-1.51
	c-0.08-0.22-0.08-0.43,0-0.58c0.14-0.22,0.14-0.5,0.14-0.72c0-0.22,0-0.44-0.14-0.58C453.87,336.4,453.8,336.26,453.87,336.19z
	 M413.64,336.19c0-0.08-0.5-0.65-0.65-0.65c-0.08,0-0.14-0.08-0.22-0.14c-0.08-0.08-0.22-0.22-0.36-0.29
	c-0.14-0.08-0.5-0.22-0.72-0.36c-0.43-0.22-0.65-0.29-0.8-0.29c-0.08,0-0.14,0.08-0.22,0.08c-0.07,0.08-0.36,0.08-0.5,0.08
	c-0.94,0-1.8,0.14-1.66,0.36l-0.14,0.14c-0.22,0.08-0.29,0.29-0.22,0.58c0.08,0.36,0,1.3-0.14,1.73c-0.08,0.5-0.14,0.58-0.22,1.22
	c0,0.22-0.08,0.58-0.14,0.8c-0.08,0.14-0.08,0.5-0.14,0.72c0,0.29-0.08,0.58-0.08,0.65c-0.08,0.08-0.08,0.29-0.14,0.43
	c0,0.14-0.08,0.58-0.14,0.94c-0.22,0.65-0.36,1.51-0.44,1.95c0,0.08,0,0.29-0.08,0.44c-0.22,0.86-0.65,2.81-0.72,3.46
	c0,0.22,0,0.44-0.08,0.5c0,0.08-0.14,0.5-0.22,1.01c-0.22,1.44-0.36,2.02-0.44,2.16c-0.08,0-0.08,0.07-0.08,0.07
	c0.08,0,0,0.29-0.08,0.65c-0.08,0.36-0.22,0.79-0.22,1.01c-0.08,0.22-0.08,0.43-0.08,0.43c-0.08,0-0.08,0.29-0.14,0.5
	c0,0.29-0.14,0.94-0.29,1.51c-0.14,0.58-0.22,1.22-0.29,1.44c0,0.29-0.08,0.72-0.08,1.08l-0.22,1.37c-0.08,0.44-0.14,0.86-0.22,1.08
	c-0.08,0.5-0.22,1.16-0.29,2.09c-0.08,0.5-0.22,1.44-0.36,2.02c-0.14,0.65-0.22,1.44-0.22,1.73c-0.08,0.65-0.22,1.37-0.36,1.8
	l-0.08,0.58c0,0.29-0.08,0.5-0.36,2.09c0,0.29-0.14,0.94-0.14,1.44c-0.08,0.58-0.22,1.51-0.36,2.09c-0.08,0.65-0.14,1.37-0.14,1.73
	c-0.08,0.29-0.14,0.8-0.14,1.08c-0.08,0.22-0.14,0.65-0.14,0.8c-0.08,0.86-0.29,2.38-0.36,2.67c0,0.22-0.08,1.01,0,1.73
	c0,0.22,0.29,0.72,0.44,0.94c0.22,0.22,0.8,0.5,1.08,0.5l0.08-0.08c0.08-0.08,0.08-0.08,0.08,0c-0.12,0.09-0.05,0.16,0.03,0.16
	c0,0,0.08-0.08,0.08-0.14c0-0.07,0.08-0.08,0.14-0.08c0.14,0,0.29,0,0.36-0.08c0.08,0,0.29-0.08,0.44-0.08c0.15,0,0.29,0,0.36-0.08
	c0.14-0.14,0.22-0.14,0.22-0.08c0.14,0.08,0.58,0.14,0.86,0.14h0.14l0.29-0.08c0.08-0.14,0.29-0.22,0.86-0.29
	c0.14-0.08,0.29-0.14,0.36-0.14c0-0.08,0.14-0.14,0.22-0.22l0.14-0.14c-0.08-0.08,0-0.08,0,0c0.14,0,0.44-0.43,0.29-0.5
	c-0.08-0.08,0.08-0.5,0.14-0.5c0.14-0.08,0.14-0.36,0.14-1.01c0-0.14,0.08-0.36,0.08-0.36c0.08,0,0.14-0.22,0.14-0.36l0.22-0.58
	c0-0.14,0.08-0.58,0.08-0.94c0.08-0.5,0.08-0.58,0.22-0.72c0.14-0.08,0.14-0.14,0.14-0.43l0.08-0.58c0.14-0.36,0.29-0.86,0.29-1.08
	c0.08-0.08,0.14-0.36,0.22-0.65c0.08-0.29,0.08-0.5,0.08-0.58c0.08-0.08,0.08-0.14,0.14-0.29c0-0.08,0.08-0.36,0.08-0.65v-0.58
	c0,0,0.08-0.22,0.08-0.43c0-1.08,0.08-1.59,0.14-1.66c0-0.08,0-0.44,0.08-0.86c0-0.43,0-0.79,0.08-0.79
	c0.08-0.08,0.08-0.22,0.08-0.43c0-0.14,0.08-0.29,0.14-0.36c0.14-0.14,0.22-0.5,0.29-1.44c0-0.14,0-0.29,0.08-0.36
	c0.08-0.14,0.14-0.94,0.14-1.44v-0.29c-0.08-0.29-0.08-0.44,0.08-0.44c0-0.08,0.08-0.14,0-0.36c0-0.14,0-0.29,0.08-0.36
	c0.08,0,0.08-0.29,0.14-0.58c0-0.29,0-0.58,0.08-0.65c0.08-0.07,0.08-0.22,0.08-0.22c-0.08-0.08-0.08-0.08,0-0.08
	c0,0,0.07-0.22,0-0.43c0-0.29,0-0.44,0.14-0.5c0-0.08,0.08-0.22,0.14-0.36c0-0.14,0.08-0.29,0.08-0.36
	c0.08-0.08,0.14-0.58,0.08-0.65c-0.07-0.07-0.08-0.08,0-0.14c0.14-0.08,0.14-0.22,0.14-0.36c-0.08-0.14,0-0.29,0.08-0.36
	c0.08-0.14,0.14-0.44,0.14-0.58c0-0.14,0-0.29-0.08-0.29c-0.08,0-0.08-0.08,0.08-0.14c0.14-0.14,0.22-0.65,0.22-1.01v-0.14
	c-0.08-0.08-0.08-0.22,0-0.29v-0.29c-0.08-0.14-0.08-0.22,0.07-0.29c0.08-0.08,0.08-0.29,0.14-0.58c0-0.22,0-0.43,0.08-0.5
	c0-0.08,0.14-0.72,0.22-1.3c0-0.14,0-0.36,0.08-0.36c0-0.08,0-0.5,0.08-1.01c0-0.5,0-1.08,0.08-1.3c0-0.22,0-0.72,0.08-1.16
	c0-0.36,0.08-0.72,0.08-0.8c0.08,0,0.08-0.22,0.08-0.43c0-0.14,0.07-0.36,0.07-0.44c0.08,0,0.08-0.36,0.14-0.65
	c0-0.36,0-0.72,0.08-0.8c0-0.14,0.08-0.36,0.08-0.58c0-0.36,0-0.43,0.08-0.58c0.14-0.14,0.08-0.22,0.08-1.16
	c0-0.14,0.08-0.29,0.14-0.44c0.08-0.22,0.08-0.58,0.08-1.08c0-0.5,0-0.79,0.08-0.94c0.14-0.22,0.36-1.3,0.36-1.66v-0.65v-1.51
	c-0.08-0.22-0.08-0.43,0-0.58c0.14-0.22,0.14-0.5,0.14-0.72c0-0.22,0-0.44-0.14-0.58C413.64,336.4,413.58,336.26,413.64,336.19z
	 M400.59,344.65v-0.29c0-0.14,0-0.22-0.07-0.29c-0.08,0-0.14-0.07-0.14-0.22c0-0.29-0.14-0.86-0.22-1.01c0-0.08-0.08-0.29-0.14-0.44
	c0-0.22-0.29-0.8-0.5-1.22c0-0.08-0.14-0.29-0.22-0.43c-0.08-0.22-0.22-0.44-0.29-0.44c0,0-0.08-0.14-0.08-0.22
	c-0.08-0.29-0.43-1.01-0.5-1.08c-0.08,0-0.14-0.14-0.22-0.29l-0.44-0.44l-0.36-0.36c-0.08-0.08-0.14-0.14-0.22-0.14l-0.08-0.08
	c0-0.08-0.08-0.08-0.14-0.14c-0.08,0-0.22-0.14-0.36-0.29c-0.14-0.14-0.29-0.22-0.36-0.22c0,0-0.22-0.14-0.36-0.29
	c-0.14-0.14-0.36-0.29-0.44-0.29c-0.08,0-0.29-0.14-0.44-0.29c-0.29-0.29-1.01-0.72-1.73-1.08c-0.5-0.22-1.3-0.44-2.23-0.58
	c-0.44-0.08-2.31-0.08-2.45-0.08c-0.08,0.08-0.36,0.08-0.65,0.14c-1.44,0.22-2.45,0.72-2.59,1.22l-0.22,0.22
	c-0.14,0.08-0.22,0.14-0.14,0.29c0,0.08-0.08,0.22-0.14,0.36c-0.08,0.08-0.14,0.22-0.14,0.29c0,0.07-0.08,0.36-0.22,0.65
	c-0.14,0.22-0.22,0.5-0.22,0.5c0,0.08,0,0.14-0.08,0.14c0,0.08-0.14,0.36-0.22,0.65c-0.14,0.36-0.22,0.72-0.29,0.79
	c-0.14,0.5-0.58,2.09-0.58,2.23l-0.14,0.58c-0.14,0.44-0.44,1.59-0.44,2.02c-0.08,0.08-0.08,0.36-0.14,0.58
	c-0.08,0.29-0.22,0.94-0.29,1.52c-0.14,0.65-0.22,1.22-0.29,1.3c-0.08,0.22-0.22,0.8-0.36,1.8c-0.14,0.8-0.22,1.22-0.65,2.38
	c0,0.22-0.08,0.36,0,0.44c0,0,0,0.08-0.08,0.08c-0.08,0-0.22,0.65-0.29,1.37c0,0.22-0.08,0.86-0.22,1.3
	c-0.14,0.5-0.29,1.22-0.29,1.73c-0.08,0.44-0.22,0.94-0.29,1.16c-0.14,0.58-0.22,0.94-0.36,1.8c-0.14,1.08-0.29,2.02-0.58,3.1
	c-0.08,0.14-0.08,0.36-0.08,0.5c-0.08,0.22-0.08,0.36-0.08,0.44c-0.14,0.72-0.14,1.01-0.14,1.01c-0.08,0-0.14,0.5-0.22,0.72
	c0,0.08-0.08,0.36-0.08,0.65c-0.29,1.16-0.44,2.23-0.44,2.81c-0.08,0.36-0.08,1.3-0.14,2.09c-0.14,2.95-0.29,3.82-1.01,6.27
	c-0.14,0.43-0.22,1.01-0.29,1.44c0,0.44-0.08,1.01-0.14,1.16c-0.08,0.22-0.08,0.86-0.08,1.44c-0.08,1.3,0,1.37,0.58,1.66
	c0.22,0.08,0.44,0.22,0.5,0.29c0.08,0.05,0.44,0.12,1.17,0.19c1.22,0.08,1.8,0,2.16-0.22c0.14,0,0.29-0.08,0.36-0.08
	c0.08,0,0.14,0,0.14-0.08c0-0.08,0.08-0.08,0.22-0.14c0.08,0,0.29-0.08,0.44-0.14c0.08-0.14,0.29-0.22,0.36-0.29
	c0.43-0.22,0.86-0.72,0.86-1.01c0.08-0.22,0.14-0.36,0.29-0.43c0.14-0.14,0.22-0.29,0.29-0.44c0-0.22,0.08-0.36,0.08-0.5
	c0.08-0.08,0.14-0.36,0.14-0.65l0.08-0.86c0.22-0.43,0.08-0.58,0.08-0.79c0-0.08,0-0.22,0.08-0.29c0-0.14,0.08-0.44,0.08-0.65
	c0-0.29,0.07-0.5,0.07-0.58c0.08,0,0.08-0.14,0.08-0.36c0-0.22,0.08-0.43,0.08-0.58c0.08-0.08,0.08-0.36,0.08-0.58
	c0-0.22,0.08-0.43,0.08-0.5c0.08-0.14,0.14-0.36,0.14-0.58s0-0.5,0.08-0.65c0-0.08,0-0.43,0.08-0.8c0-0.36,0.08-0.72,0.08-0.94
	c0.08-0.14,0.08-0.36,0.08-0.58c0.08-0.22,0.08-0.29,0.22-0.44c0.14-0.08,0.29-0.5,0.36-1.08c0-0.72,0.08-1.08,0.22-1.51l0.22-1.08
	v-0.86c0.08-0.14,0.08-0.36,0.14-0.44c0.08-0.08,0.08-0.22,0-0.22c0-0.08,0.08-0.29,0.08-0.43c0.08-0.22,0.14-0.29,0.08-0.36
	c-0.08-0.14-0.08-0.22,0-0.22c0.08-0.08,0.08-0.14,0.08-0.22c-0.08-0.08-0.08-0.14-0.08-0.22c0-0.08,0.08-0.5,0.08-1.16
	c0.08-0.22,0.08-0.44,0.14-0.5c0.08-0.08,0.08-0.36,0.08-0.5c0.08-0.22,0.08-0.5,0.14-0.58c0-0.08,0.08-0.22,0.14-0.29
	c0-0.14,0.08-0.22,0.22-0.22c0.08,0,0.14,0,0.14,0.08c0,0.08,0.44,0.22,0.58,0.22c0.08,0,0.22,0.08,0.36,0.14
	c0.14,0.08,0.58,0.14,0.94,0.14c0.14,0,0.29,0,0.36-0.08c0.08,0,0.36,0,0.65-0.08c0.29,0,0.5-0.08,0.5-0.14
	c0.08-0.08,0.14-0.08,0.29-0.08c0.14,0.08,0.29,0,0.58-0.22c0.44-0.29,0.5-0.29,0.72-0.29c0.22,0.08,0.29,0.08,0.29,0
	c0-0.08,0.14-0.14,0.29-0.14c0.5,0,0.94-0.08,1.08-0.14c0.22-0.14,0.58-0.5,0.58-0.58c0,0,0.08-0.08,0.14-0.08
	c0.14-0.08,0.14-0.14,0.14-0.29c0-0.22,0-0.22,0.14-0.14c0.14,0.14,0.14,0.14,0.22,0c0.08-0.08,0.14-0.14,0.22-0.14
	c0.08,0,0.08-0.14,0.14-0.29c0-0.22,0.08-0.29,0.22-0.36c0.14-0.08,0.29-0.22,0.36-0.36c0.08-0.14,0.22-0.29,0.29-0.29
	c0,0,0.08-0.08,0.08-0.14c0-0.14,0.14-0.44,0.29-0.44c0.08,0,0.08-0.08,0.08-0.22c-0.08-0.22,0-0.29,0.08-0.29
	c0-0.08,0.07-0.14,0.07-0.22c0-0.08,0.08-0.22,0.22-0.29c0.29-0.14,0.5-0.5,0.5-0.86c0-0.14,0.08-0.36,0.08-0.44
	c0.08-0.08,0.14-0.29,0.22-0.44c0.08-0.22,0.14-0.29,0.22-0.29c0.14,0.08,0.22,0,0.29-0.72c0-0.22,0.08-0.5,0.14-0.65
	c0.08-0.14,0.14-0.29,0.14-0.36c-0.08,0,0-0.08,0-0.08c0.08-0.08,0.14-0.14,0.14-0.29c0-0.14,0.08-0.29,0.14-0.36
	c0.08-0.08,0.08-0.14,0-0.14c0-0.08,0-0.14,0.08-0.29c0-0.14,0.08-0.22,0.08-0.22c-0.08-0.08,0-0.08,0.08-0.14
	c0-0.07,0.08-0.14,0.08-0.22c0,0,0.08-0.14,0.22-0.22c0.22-0.14,0.36-0.44,0.36-0.65v-0.14c-0.08-0.08-0.08-0.22,0-0.29
	c0.08-0.08,0.08-0.22,0-0.36c0-0.14,0-0.22,0.14-0.43c0.08-0.14,0.14-0.29,0.14-0.36l0.08-0.08c0.08,0,0.08-0.22,0.08-0.43
	c0.08-0.22,0.14-0.44,0.22-0.44c0.08-0.08,0.08-0.14,0-0.29c0-0.07,0-0.22,0.08-0.22c0.08,0,0.08-0.22,0.14-0.5
	c0-0.22,0.07-0.65,0.07-0.94C400.67,344.93,400.67,344.71,400.59,344.65z M394.57,344.63c-0.22,1.3-0.94,4.18-1.22,5.12
	c-0.08,0.22-0.22,0.65-0.29,1.01l-0.36,0.94c-0.36,0.86-0.94,2.09-1.16,2.31c-0.22,0.36-1.08,1.3-1.08,1.22c0-0.08-0.08,0-0.22,0.08
	c-0.14,0.14-0.5,0.29-0.8,0.43c-0.29,0.14-0.58,0.29-0.65,0.36c-0.08,0.08-0.22,0.08-0.29,0.08c-0.14,0-0.29,0.08-0.44,0.22
	c-0.15,0.14-0.29,0.22-0.29,0.22s-0.14,0-0.29,0.08h-0.22v-0.44h-0.02c0-0.29,0-0.58-0.08-0.65c-0.08-0.14-0.08-0.22,0.08-0.58
	c0.14-0.29,0.22-0.65,0.22-0.86v-0.08c0-0.08,0-0.29,0.08-0.5c0.08-0.29,0.08-0.72,0.08-1.01c0.08-0.86,0.22-1.59,0.36-1.66
	c0.08-0.08,0.14-0.36,0-0.43c-0.08,0,0-0.08,0.08-0.22c0.14-0.22,0.14-0.22,0.08-0.58c-0.08-0.29-0.08-0.36,0-0.44
	c0.08-0.08,0-0.08,0-0.43c0-0.22,0.08-0.44,0.22-0.72c0.08-0.14,0.14-0.29,0.14-0.36c-0.08,0,0-0.08,0-0.14
	c0.08,0,0.14-0.44,0.22-1.08c0-0.72,0.08-1.08,0.29-1.3c0.14-0.14,0.22-0.29,0.22-0.94c0-0.5,0-0.79,0.08-0.79
	c0.08,0,0.08-0.08,0.08-0.14c0-0.07,0.14-0.29,0.29-0.5c0.14-0.22,0.22-0.44,0.29-0.58c0.08-0.43,0.29-0.86,0.5-0.94
	c0.14-0.08,0.22-0.14,0.22-0.5c0.08-0.36,0.29-0.8,0.36-0.8c0.08,0,0.14-0.14,0.29-0.36c0.14-0.14,0.29-0.36,0.36-0.36
	c0.14-0.08,0.44-0.08,0.8,0h0.94c0.72,0.08,0.72,0.08,1.08,1.87c0.14,0.65,0.14,1.37,0.14,2.02
	C394.64,343.76,394.64,344.27,394.57,344.63z M376.78,341.94c0.03-0.19,0.03-0.26-0.04-0.4c-0.14-0.14-0.14-0.5-0.14-1.01
	c0-0.72-0.22-1.95-0.36-2.09c0-0.08-0.08-0.22-0.08-0.43c-0.14-0.65-2.09-2.52-2.67-2.52c-0.08,0-0.14-0.08-0.22-0.14
	c-0.14-0.14-1.01-0.58-1.44-0.65c-0.29-0.08-0.58-0.14-0.72-0.22c-0.08-0.08-0.22-0.14-0.29-0.14c-0.07,0-0.29-0.08-0.44-0.14
	c-0.36-0.22-1.15-0.5-2.02-0.72c-0.5-0.08-0.72-0.08-1.51,0c-0.29,0.08-0.72,0.08-0.94,0.08c-0.22-0.08-0.36,0-0.36,0
	c0,0.08-0.08,0.08-0.22,0.08c-0.14,0-0.36,0.08-0.44,0.14c-0.5,0.29-1.08,0.79-1.16,0.94l-0.14,0.22c-0.14,0-1.95,2.81-1.95,3.1
	c0,0.08-0.08,0.14-0.08,0.14c-0.08,0-0.5,0.94-0.5,1.08l-0.14,0.29c-0.14,0.29-0.29,0.72-0.29,0.94c-0.08,0.08-0.14,0.29-0.22,0.44
	l-0.14,0.5c0,0.08-0.14,0.58-0.22,1.08c-0.29,1.16-0.5,2.16-0.58,2.81c0,0.22,0,0.65-0.08,0.94v2.45c0.08,0.22,0.08,0.5,0.14,0.72
	c0,0.29,0.08,0.72,0.08,1.08c0.08,0.36,0.14,1.01,0.14,1.37c0.22,2.38,0.44,4.03,0.86,5.55c0.22,0.72,0.44,1.66,0.5,2.02
	c0,0.14,0.08,0.29,0.08,0.29c0.08,0,0.08,0.08,0.08,0.22l0.14,0.58c0.22,0.72,0.36,1.08,0.58,1.95c0.08,0.5,0.22,1.16,0.29,1.44
	c0.08,0.36,0.14,0.72,0.22,0.79c0,0.14,0,0.29,0.08,0.36c0.08,0.08,0.08,0.14,0,0.14c0,0.08,0,0.14,0.08,0.22
	c0,0.08,0.08,0.22,0.08,0.44c0.08,0.44,0.14,0.65,0.22,0.8c0.08,0,0.08,0.08,0.08,0.14c-0.08,0,0,0.08,0,0.22
	c0.14,0.36,0.29,1.16,0.44,2.38c0.36,3.03,0.44,4.03,0.44,4.54c0,0.86-0.29,3.03-0.58,3.31c0,0.08-0.08,0.22-0.08,0.36l-0.14,0.22
	c-0.08,0-0.08,0,0,0.08c0.08,0.07,0.08,0.14,0,0.14c-0.08,0.08-0.14,0.08-0.14,0.14l-0.08,0.29c-0.08,0.08-0.14,0.36-0.22,0.5
	c-0.08,0.22-0.22,0.44-0.29,0.5c0,0.08-0.08,0.14-0.08,0.14c0,0.08-0.08,0.22-0.14,0.36c-0.14,0.29-0.22,0.44-0.5,0.5
	c-0.29,0.22-0.94,0.43-1.22,0.5c-0.44,0.08-0.72,0.08-0.94,0.08c-0.44,0-0.58-0.14-0.94-0.5c-0.29-0.29-0.5-0.58-0.58-0.72
	c-0.08-0.14-0.14-0.29-0.22-0.36c0-0.08-0.08-0.22-0.14-0.29c0-0.14-0.08-0.36-0.22-0.5c-0.08-0.22-0.14-0.36-0.14-0.44
	c0-0.08,0-0.14-0.08-0.14c0,0-0.08-0.08-0.08-0.22c0-0.14,0-0.5-0.08-0.86c-0.08-0.29-0.08-0.5-0.08-0.58v-0.14
	c0,0,0-0.08-0.08-0.08c0-0.08-0.08-0.22-0.14-0.43c0-0.29-0.07-0.29-0.22-0.36c-0.14-0.08-0.22-0.14-0.22-0.22
	c0,0-0.14-0.08-0.29-0.08c-0.36-0.08-0.94-0.08-0.94,0c0,0.08-0.14,0.08-0.29,0.08c-0.14-0.08-0.22-0.08-0.22,0
	c0.08,0.14-0.08,0.22-0.5,0.36c-0.08,0-0.22,0.08-0.29,0.14c-0.14,0.08-0.29,0.14-0.36,0.14c-0.22,0-0.29,0.08-0.29,0.22
	c0,0.14,0,0.22-0.08,0.22l-0.29,0.58c-0.08,0-0.14,0.14-0.14,0.22v0.8l0.14,0.72c0.08,0.29,0.08,0.5,0.14,0.58
	c0.14,0.08,0.14,0.65,0,0.72c-0.08,0.08,0.14,0.86,0.22,0.86l0.14,0.29c0.08,0.14,0.14,0.22,0.08,0.29c0,0,0,0.08,0.08,0.08
	c0.08,0,0.08-0.08,0.08-0.14c0-0.07,0.08,0,0.08,0.14c0.08,0.22,0.14,0.29,0.22,0.29c0-0.08,0.07,0,0.14,0c0,0.08,0,0.08-0.08,0.08
	c0.08,0.07,0.14,0.14,0.14,0.22c0,0.08,0.36,0.36,0.65,0.5c0.08,0,0.14,0.08,0.29,0.22c0.08,0.08,0.29,0.14,0.44,0.14
	c0.14,0.08,0.29,0.14,0.43,0.14c0.08,0.08,0.29,0.22,0.72,0.44c0.14,0,0.29,0.08,0.36,0.08c0.08,0,0.14,0.08,0.22,0.08
	c0.08,0.08,0.08,0.08,0-0.08h0.14c0,0.14,0.08,0.22,0.5,0.36c0.29,0,0.58,0.08,0.72,0.08c0.08-0.08,0.36,0,0.65,0.14
	c0.36,0.08,0.58,0.14,0.58,0.08c0-0.07,0.08-0.08,0.08-0.08c0.08,0,0.08,0,0.08,0.08c-0.08,0.08,0,0.08,0.08,0.08
	c0.14,0,0.22,0,0.36,0.08c0.08,0.08,0.22,0.08,0.36,0.08c0.14-0.08,0.22,0,0.29,0c0,0,0.08,0.08,0.14,0.08
	c0.14,0.08,0.14,0,0.14-0.08c-0.08,0-0.08-0.08,0-0.08c0.08,0,0.5,0.29,0.36,0.14c-0.08-0.14-0.08-0.14,0-0.08
	c0.08,0,0.14,0.08,0.14,0.08l0.08,0.08c0.08,0,0.14-0.08,0.08-0.08c0-0.08,0-0.08,0.08-0.14c0.08,0,0.08,0,0.08,0.08
	c0,0.08,0.08,0.08,0.22,0.08c0.14,0,0.22-0.08,0.22-0.08c0-0.14,0.22-0.22,0.29-0.14c0.07,0.08,0.08,0.08,0.08-0.08
	c-0.08-0.08-0.08-0.14,0.14-0.14c0.08,0,0.22,0.08,0.22,0.08c0.08,0.08,0.08,0.08,0.14-0.08c0.08-0.08,0.14-0.08,0.14-0.08
	c0,0.08,0.08,0.08,0.08,0c0.08,0,0.22-0.08,0.36-0.14c0.14,0,0.22-0.08,0.29-0.14c0-0.08,0.08-0.08,0.14,0
	c0.14,0.08,0.29,0.08,0.58-0.08h0.22c0.08,0,0.29-0.08,0.65-0.22c0.29-0.08,0.65-0.14,0.8-0.22c0.14,0,0.36-0.08,0.5-0.14
	c0.14-0.07,0.36-0.14,0.44-0.08c0.08,0,0.08-0.08,0.08-0.14c0-0.08,0.08-0.22,0.14-0.22c0.14-0.14,0.22-0.36,0.29-0.44
	c0.14,0,0.58-0.29,0.65-0.5l0.22-0.14c0.14,0,0.36-0.44,0.36-0.5c0-0.07,0.08-0.08,0.08-0.08c0.14,0.08,0.58-0.29,0.86-0.58
	c0.14-0.14,0.29-0.29,0.36-0.29c0.14,0,0.44-0.36,0.58-0.72c0.08-0.29,0.14-0.36,0.22-0.36c0.08,0,0.14,0,0.14-0.08
	c0,0,0-0.14,0.08-0.22c0.08-0.08,0.08-0.29,0.08-0.5c0-0.36,0.08-0.8,0.14-0.8c0.07,0,0.08-1.01,0-1.16
	c-0.08-0.08-0.08-0.29-0.14-0.58c0-0.29,0-0.58-0.08-0.58c-0.08-0.14-0.08-0.36,0.08-0.43c0-0.08,0.08-0.22,0-0.22
	c0-0.08,0-0.29-0.08-0.43c0-0.22-0.08-0.5-0.14-0.72c-0.14-0.29-0.22-0.72-0.22-1.01c0-0.14,0-0.22,0.07-0.22
	c0.22,0,0.36-0.44,0.44-1.44c0-0.29,0-0.58,0.08-0.58c0-0.08-0.08-0.22-0.08-0.5c-0.14-0.29-0.14-0.43-0.08-0.5
	c0.14-0.14,0.14-0.29,0.14-1.22c0-0.58,0-0.94-0.08-1.22c-0.14-0.58-0.22-0.86-0.22-1.16v-0.29c0.08-0.22,0.08-0.36,0-0.44
	c-0.08-0.08-0.08-0.22-0.08-0.29c0-0.08-0.08-0.22-0.14-0.29c-0.07-0.08-0.14-0.29-0.22-0.44c-0.14-0.29-0.22-0.94-0.22-1.22v-0.14
	c0-0.08,0-0.08-0.08-0.14c0,0-0.08-0.08,0-0.08c0-0.08-0.22-0.5-0.44-0.94c-0.22-0.44-0.43-0.86-0.43-0.94c0-0.08,0-0.14-0.08-0.14
	c0-0.08-0.08-0.29-0.08-0.5c-0.08-0.43-0.29-1.15-0.44-1.22c-0.08,0-0.08-0.08-0.08-0.14c0-0.07-0.08-0.36-0.22-0.58
	c-0.14-0.22-0.22-0.5-0.22-0.65l-0.14-0.58c-0.08-0.22-0.14-0.5-0.14-0.72l-0.22-0.5l-0.08-0.29c0-0.08,0-0.14-0.08-0.22
	c-0.08,0-0.08-0.08-0.08-0.22c0-0.08-0.08-0.36-0.22-0.65c-0.14-0.29-0.22-0.58-0.22-0.94c-0.08-0.36-0.36-1.37-0.44-1.37
	c-0.08,0-0.08-0.08-0.08-0.14c0-0.07-0.08-0.22-0.14-0.36l-0.14-0.29c0.08-0.08,0.14-0.44,0.14-0.72c0-0.14-0.08-0.36-0.08-0.36
	c-0.08-0.08-0.08-0.29-0.08-0.36c-0.08-0.43-0.22-1.16-0.29-1.3c-0.08-0.14-0.08-0.22,0-0.29c0.08-0.14,0.08-0.58-0.08-1.22
	c-0.08-0.29-0.14-0.72-0.14-1.01c0-0.22,0-0.58-0.08-0.79c-0.08-0.29,0-0.36,0.08-0.58c0.08-0.14,0.08-0.36,0.14-0.58v-0.5
	c0.08,0,0.08-0.22,0.14-0.36c0.14-0.44,0.5-1.51,0.65-1.8c0.08-0.14,0.14-0.36,0.14-0.5c0-0.08,0.08-0.14,0.14-0.22
	c0.08-0.08,0.22-0.22,0.36-0.44c0.08-0.14,0.22-0.44,0.29-0.5c0.29-0.22,0.44-0.43,0.44-0.5c0-0.08,0.08-0.08,0.08-0.08
	c0.08,0,0.94-0.86,0.94-0.94c0,0,0.08-0.14,0.22-0.22c0.22-0.14,0.36-0.14,0.72-0.14c0.44,0,0.58,0.08,0.58,0.22v0.08
	c0,0.08,0.07,0.14,0.22,0.22c0.14,0.08,0.22,0.14,0.22,0.22c0,0.08,0.08,0.14,0.22,0.22c0.14,0.14,0.14,0.22,0.08,0.36
	c0,0.22,0.08,0.36,0.22,0.72c0.08,0.29,0.22,0.65,0.22,0.86c0.08,0.58,0.29,1.22,0.36,1.22c0.08,0,0.14,0.08,0.22,0.22
	c0.08,0.08,0.14,0.14,0.22,0.14c0-0.08,0.07,0,0.07,0c0,0.08,0.08,0.22,0.22,0.29c0.14,0.08,0.44,0.36,0.72,0.65
	c0.22,0.22,0.5,0.43,0.5,0.43c0.08,0,0.14,0.08,0.22,0.08c0.08,0.08,0.29,0.14,0.58,0.14c0.36,0.08,0.44,0.08,0.72-0.14
	C376.5,342.88,376.78,342.38,376.78,341.94z M438.88,348.33c-0.08-0.14-0.08-0.44-0.08-0.58v-1.66c0-1.01,0.08-1.37-0.08-1.66
	c-0.08-0.22-0.08-0.65-0.14-0.94c0-0.22-0.08-0.5-0.08-0.5c-0.08-0.08-0.08-0.14-0.14-0.29c0-0.08-0.08-0.29-0.14-0.36l-0.36-0.72
	c-0.14-0.22-0.29-0.44-0.36-0.44l-0.14-0.22c0-0.14-0.14-0.36-0.22-0.58c-0.14-0.14-0.22-0.29-0.22-0.43c0-0.22-0.22-0.58-0.5-0.86
	c-0.36-0.44-0.8-0.86-0.8-0.94l-0.14-0.14c-0.14-0.08-0.22-0.14-0.29-0.22c-0.08-0.22-0.58-0.86-0.8-1.01
	c-0.14-0.08-0.22-0.14-0.22-0.22c-0.08-0.14-0.58-0.5-0.72-0.5c-0.08,0-0.22-0.08-0.29-0.22l-0.22-0.14c-0.08,0-0.14-0.08-0.22-0.14
	c-0.22-0.43-2.81-1.22-3.75-1.22c-0.22,0-0.65,0.08-0.94,0.08c-0.44,0.08-1.3,0.44-1.87,0.8c-0.72,0.43-1.22,0.72-1.37,0.86
	c-0.36,0.36-0.8,0.86-0.8,1.01c0,0.08-0.08,0.22-0.22,0.36c-0.29,0.29-0.36,0.5-0.36,0.8c-0.08,0.14-0.14,0.44-0.29,0.65
	c-0.58,0.94-1.16,2.52-1.37,3.89l-0.29,1.66c-0.08,0.44-0.22,1.01-0.29,1.3c0,0.29-0.08,0.58-0.14,0.72c0,0.14-0.14,0.65-0.22,1.08
	c-0.29,1.59-0.44,2.38-0.58,2.73c0,0.14-0.14,0.72-0.14,1.16c-0.08,0.5-0.14,1.01-0.22,1.22c-0.08,0.5-0.36,2.02-0.44,2.73
	c0,0.36-0.14,1.01-0.22,1.44c-0.08,0.44-0.14,1.01-0.14,1.3c-0.14,0.94-0.29,2.09-0.36,2.31c-0.08,0.14-0.22,0.94-0.36,1.73
	c-0.08,0.86-0.22,1.66-0.29,1.73c0,0.29,0,0.5-0.14,1.66l-0.36,3.1c-0.14,1.16-0.29,1.66-0.44,2.81c-0.08,1.08-0.22,2.09-0.58,4.18
	c-0.29,1.44-0.5,3.53-0.5,4.61c0,1.22-0.08,1.66-0.36,1.95c-0.14,0.14-0.14,0.14,0.08,0.36c0.14,0.14,0.36,0.29,0.5,0.36
	c0.14,0,0.36,0.08,0.65,0.22c0.14,0.08,0.65,0.08,1.15,0.08c1.08,0.08,1.66-0.08,2.38-0.36c0.44-0.14,1.08-0.79,1.16-1.08
	c0-0.08,0.08-0.36,0.22-0.65c0.22-0.5,0.29-0.72,0.29-0.86c0-0.08-0.08-0.08-0.08-0.14c-0.08,0-0.08-0.08,0-0.08
	c0.14-0.08,0.36-1.08,0.36-1.22c-0.08-0.08,0-0.29,0.08-0.44l0.14-0.5l0.14-0.65c0.14-0.58,0.22-1.16,0.29-1.59
	c0-0.72,0.08-0.86,0.08-0.94c0.08-0.08,0.14-0.5,0.14-1.01c0.08-0.5,0.08-1.08,0.14-1.3c0-0.14,0-0.86,0.08-1.51
	c0.08-0.72,0.08-1.22,0.14-1.37c0.22-0.36,0.29-0.65,0.43-1.08c0-0.29,0.08-0.65,0.14-0.86l0.08-0.36l0.22,0.43
	c0.14,0.22,0.43,0.72,0.65,1.16l0.94,1.8c0.29,0.58,0.8,1.44,1.08,1.95c0.29,0.5,0.5,1.01,0.58,1.08l0.5,0.94
	c0.22,0.44,0.44,0.94,0.58,1.16c0.14,0.43,0.29,0.72,0.72,1.59c0.08,0.22,0.22,0.65,0.36,0.94c0.14,0.29,0.29,0.72,0.44,0.86
	l0.29,0.86c0.22,0.65,0.29,0.86,0.72,1.37c0.36,0.58,1.37,1.44,1.44,1.3c0-0.08,0.08,0,0.14,0.14c0.08,0.08,0.14,0.22,0.29,0.36
	l0.36,0.44c0.22,0.29,0.29,0.29,0.44,0.22c0.14,0,0.22,0,0.22,0.08c0.08,0.08,0.08,0.14,0.14,0.08c0.08,0,0.08,0,0.08,0.08
	c0,0.08,0.08,0.08,0.08,0.08c0.07-0.05,0.14,0.03,0.14,0.03c0.08,0.08,0.14,0.08,0.29-0.08c0.14-0.08,0.29-0.22,0.36-0.5
	c0.08-0.22,0.22-0.36,0.29-0.44c0,0,0.22,0.08,0.36,0.22c0.29,0.22,0.58,0.22,0.58,0.14v-0.36c0.08-0.14,0.08-0.22,0.36-0.14
	c0.22,0,0.29,0,0.29-0.08c0-0.08,0-0.14-0.08-0.14l-0.14-0.22c-0.08-0.29,0-0.29,0-0.72c0-0.22-0.08-0.29-0.22-0.29
	c-0.08,0-0.08,0,0-0.08c0.14-0.14,0.08-0.36-0.08-0.44c-0.08-0.08-0.14-0.22-0.14-0.29c-0.08-0.36-0.22-0.8-0.5-1.3
	c-0.14-0.29-0.44-0.72-0.5-0.94l-0.72-1.22c-0.08,0-0.36-0.58-0.72-1.22c-0.29-0.58-0.65-1.15-0.65-1.22c0,0-0.08-0.14-0.08-0.22
	l-0.14-0.22c-0.08,0-0.14-0.14-0.14-0.22c-0.08-0.14-0.14-0.29-0.22-0.29c0-0.08-0.08-0.14-0.08-0.22c0-0.08-0.08-0.14-0.08-0.14
	c-0.08-0.08-0.22-0.22-0.29-0.44l-0.44-0.72c-0.14-0.14-0.44-0.65-0.72-1.08c-0.22-0.43-0.5-0.79-0.58-0.94l-0.22-0.29
	c-0.14-0.44-0.5-0.94-0.8-1.3c-0.14-0.14-0.36-0.44-0.44-0.65c-0.44-0.8-1.16-1.95-1.3-1.95c-0.14-0.14-0.08-0.29,0.08-0.44
	l0.14-0.14c0-0.08,0.14-0.14,0.22-0.22c0.14-0.08,0.29-0.22,0.36-0.29c0-0.08,0.14-0.22,0.29-0.22c0.08-0.08,0.29-0.14,0.36-0.22
	l0.14-0.14c0.08,0,0.72-0.58,1.01-0.86c0.22-0.14,0.36-0.29,0.36-0.29c0.08,0,0.5-0.22,0.58-0.29c0-0.08,0.14-0.08,0.29-0.14
	l0.39-0.42c0.08-0.14,0.14-0.29,0.22-0.29c0.14,0,1.08-1.01,1.08-1.16c-0.08-0.08,0-0.22,0.14-0.29c0.22-0.22,0.36-0.58,0.5-1.01
	c0.14-0.43,0.65-1.08,0.86-1.08h0.08l0.14-0.14c0.08-0.14,0.08-0.22,0.14-0.29c0.08,0,0.08-0.08,0.08-0.14
	c0-0.07,0.08-0.22,0.36-0.36c0.14-0.08,0.22-0.22,0.22-0.29c0-0.22,0.29-0.94,0.36-1.08c0.08,0,0.08-0.08,0.08-0.14
	c-0.08-0.08,0-0.14,0.14-0.22c0.14-0.08,0.22-0.22,0.29-0.29c0-0.14,0.08-0.22,0.22-0.29c0.08-0.14,0.14-0.29,0.22-0.58
	c0-0.58,0.08-0.72,0.22-0.86c0.14-0.14,0.58-1.16,0.58-1.37l0.14-0.14c0.08-0.14,0.29-0.58,0.29-0.72c0-0.07,0.08-0.29,0.22-0.5
	c0.08-0.22,0.14-0.44,0.14-0.8s0-0.44,0.14-0.44c0.14-0.08,0.14-0.08,0.14-0.36c-0.08-0.14-0.08-0.44-0.14-0.72
	C439.03,348.76,438.95,348.47,438.88,348.33z M433.44,347.26c-0.44,1.73-1.73,4.97-2.16,5.84l-0.8,1.59
	c-0.29,0.65-0.65,1.22-0.8,1.37c-0.14,0.14-0.22,0.36-0.22,0.36l-0.29,0.5c-0.5,0.94-1.95,2.52-2.38,2.67
	c-0.07,0-0.22,0.08-0.29,0.14c0,0.08-0.14,0.14-0.14,0.14c-0.11-0.03-0.25,0.05-0.33,0.19c-0.22,0.22-0.29,0.14-0.14-0.36l0.14-0.65
	c0.14-0.5,0.14-1.37,0.14-1.87c0.08-0.36,0.08-0.65,0.08-0.72c0.08,0,0.08-0.22,0-0.36c0-0.22,0-0.36,0.08-0.5
	c0.08-0.14,0.14-0.5,0.14-0.72c0.08-0.72,0.29-1.87,0.44-2.09c0.08-0.08,0.08-0.14,0.08-0.14c-0.08,0,0-0.14,0.08-0.22
	c0.08-0.14,0.08-0.44,0.08-0.65c0-0.22,0-0.36,0.08-0.43c0.08,0,0.08-0.08,0.08-0.22s0.08-0.36,0.14-0.5l0.14-0.5
	c0-0.08,0.08-0.36,0.22-0.65c0.22-0.5,0.22-0.65,0.22-1.22c0-0.72,0.14-1.22,0.44-2.09c0.08-0.08,0.08-0.29,0.08-0.36
	c0-0.14,0.08-0.36,0.08-0.44c0.08-0.08,0.14-0.22,0.14-0.29l0.08-0.29c0.14-0.08,0.8-1.01,0.8-1.08c0-0.08,0.08-0.14,0.14-0.29
	c0.08-0.08,0.08-0.29,0.08-0.36c0-0.07,0.08-0.22,0.14-0.29c0.08-0.08,0.14-0.22,0.22-0.5c0.08-0.5,0.22-0.8,0.36-0.94
	c0.08-0.08,0.14-0.14,0.14-0.22c-0.08-0.08,0-0.14,0.08-0.22c0-0.08,0.08-0.14,0.08-0.22c0-0.08,0.08-0.14,0.14-0.14
	c0.14-0.08,0.36-0.22,0.58-0.43c0.14-0.22,0.44-0.36,0.5-0.44l0.22-0.14c0-0.08,0.14-0.08,0.29-0.08c0.22,0,0.29,0.08,0.5,0.44
	c0.29,0.5,0.44,1.22,0.5,2.31c0,0.44,0.08,1.3,0.14,1.95C433.87,345.53,433.8,346.03,433.44,347.26z M515.78,290.77
	c-7.69,0-13.92,6.23-13.92,13.92c0,7.69,6.23,13.93,13.92,13.93c7.69,0,13.92-6.24,13.92-13.93
	C529.71,297,523.47,290.77,515.78,290.77z M170.6,344.79c0.08,0.08,0.14-0.08,0.29-0.14c0.08-0.14,0.22-0.22,0.29-0.22
	c0.07,0,0.72-0.65,0.72-0.8c0-0.08,0.08-0.14,0.08-0.14c0.08,0,0.22-0.14,0.36-0.36c0.29-0.5,0.36-0.65,0.36-0.72
	c-0.08-0.14,0.36-0.65,0.5-0.58c0.08,0,0.14-0.08,0.22-0.14c0-0.08,0.14-0.14,0.22-0.22c0.14-0.14,0.22-0.43,0.36-1.01
	c0.14-0.72,0.36-1.37,0.44-1.44c0.14-0.14,0.36-0.8,0.43-1.3c0-0.14,0.08-0.44,0.14-0.5c0.08-0.08,0.14-0.22,0.14-0.29
	c0.08-0.14,0.14-0.29,0.29-0.44c0.14-0.08,0.22-0.29,0.22-0.36c0-0.08,0-0.14,0.08-0.14c0.08-0.14,0.29-0.72,0.22-0.86
	c0,0,0-0.08,0.08-0.08c0.08,0,0.08-0.08,0.08-0.14c-0.08,0,0-0.08,0.08-0.14c0.08,0,0.22-0.36,0.36-1.08
	c0.08-0.14,0.14-0.36,0.14-0.43c0.08,0,0.14-0.29,0.22-0.58c0.08-0.29,0.22-0.58,0.29-0.65c0-0.08,0.08-0.22,0.08-0.36
	c0-0.14,0-0.36,0.08-0.43l-0.14-0.5l-0.22-0.5c0-0.14-0.5-0.58-0.86-0.94c-0.36-0.22-1.37-0.5-1.59-0.44c-0.14,0.08-0.29,0-0.44,0
	c-0.14-0.08-0.14-0.08-0.22,0c0,0.08-0.5,0.08-0.5,0c-0.08-0.08-0.14-0.08-0.44,0c-0.14,0.14-0.22,0.14-0.36,0.08
	c-0.08-0.08-0.14-0.08-0.14-0.08v0.44c0,0.29-0.14,0.58-0.29,0.94l-0.29,0.65c0,0.08,0,0.14-0.08,0.14c0,0.08-0.14,0.29-0.22,0.58
	l-0.29,0.79c-0.29,0.5-0.72,1.44-0.94,2.09c-0.08,0.36-0.29,0.86-0.44,1.16c-0.14,0.36-0.29,0.72-0.29,0.86l-0.22,0.58l-0.36,1.22
	c-0.14,0.44-0.36,1.16-0.43,1.51c-0.14,0.36-0.29,0.86-0.36,1.08c-0.08,0.22-0.14,0.5-0.14,0.65c-0.08,0.22-0.08,0.58-0.08,0.94
	c0,0.58,0,0.72,0.14,1.01c0.14,0.22,0.22,0.36,0.29,0.36c0,0,0.14,0.08,0.22,0.22c0.08,0.08,0.22,0.14,0.29,0.14h0.14
	c0.14,0,0.36,0.22,0.36,0.29c0,0.07-0.08,0.08-0.08,0c-0.14,0-0.22,0.08-0.08,0.14l0.22,0.36c0.14,0.22,0.22,0.36,0.29,0.36
	l0.44-0.29C170.38,344.93,170.6,344.79,170.6,344.79z M494.52,315.54c-0.19-0.53-0.25-1.17-0.28-1.95l-0.02-64.85h11.03
	c0.8,0.02,1.44,0.08,1.98,0.28c1.17,0.42,1.61,1.28,1.61,1.28v-21.5H454.4v21.5c0,0,0.44-0.86,1.61-1.28
	c0.54-0.19,1.19-0.26,1.98-0.28h11.02l0.02,65.3c-0.03,0.58-0.1,1.07-0.26,1.5c-0.42,1.17-1.28,1.61-1.28,1.61h28.3
	C495.8,317.15,494.94,316.7,494.52,315.54z M481.13,335.71c-0.14,0-0.44-0.14-0.65-0.29c-0.36-0.14-0.58-0.22-0.94-0.22
	c-0.58,0-1.95,0.08-2.89,0.14l-1.44,0.14c-0.5,0.08-1.08,0.08-1.22,0.08c-0.22,0-0.86,0.08-1.37,0.08l-1.01,0.08l-0.22-0.43
	c-0.22-0.44-0.65-0.86-1.01-1.01c-0.14-0.08-0.36-0.14-0.44-0.22c-0.44-0.14-0.5-0.29-0.94-0.29h-0.44c0,0.08-0.08,0.08-0.22,0
	c-0.36-0.08-0.44,0.22-0.5,1.3c0,0.72-0.08,0.94-0.14,1.01c-0.08,0-0.29,0.08-0.58,0.08c-0.22,0.08-0.86,0.14-1.37,0.22
	c-0.5,0.08-1.22,0.22-1.59,0.22c-2.09,0.36-4.9,1.08-5.4,1.37l-0.5,0.29c-0.22,0.08-0.22,0.36-0.08,0.72
	c0.08,0.14,0.14,0.29,0.14,0.36c0,0.08,0.08,0.14,0.14,0.22c0.07,0.08,0.29,0.36,0.36,0.58c0.29,0.43,1.01,1.22,1.22,1.3
	c0.08,0,0.14,0.08,0.14,0.14l0.29,0.14c0.22,0.08,0.44,0.29,0.65,0.36c0.14,0.14,0.58,0.29,0.86,0.36c0.58,0.14,1.59,0.22,2.52,0.22
	c0.5,0,1.01,0,1.44-0.08c0.43-0.08,0.72-0.08,0.72,0c0.08,0,0,0.36-0.14,1.01c-0.08,0.5-0.22,1.01-0.22,1.16
	c-0.08,0.43-0.44,2.02-0.5,2.23c-0.08,0.29-0.44,1.8-0.94,4.4c-0.29,1.3-0.58,3.17-0.72,3.82c-0.07,0.29-0.14,0.65-0.14,0.86
	c-0.29,1.08-0.8,4.76-0.8,5.84c-0.08,1.59-0.14,2.02-0.36,2.89c-0.14,0.58-0.22,1.08-0.22,1.8c-0.08,0.58-0.08,1.22-0.14,1.51
	c-0.08,0.22-0.14,0.8-0.14,1.22c-0.08,0.44-0.08,1.08-0.14,1.44c-0.07,0.79-0.14,1.59-0.14,2.09v0.29c0.08,0,0.08,0.08,0,0.08
	c0,0.08-0.08,0.29-0.08,0.58c0,0.22-0.08,0.86-0.08,1.3c-0.08,0.5-0.14,1.16-0.14,1.44c0.08,0.58,0,1.44-0.08,1.8
	c-0.08,0.08-0.08,0.65-0.08,1.3c-0.08,0.58-0.08,1.08-0.08,1.16c-0.08,0-0.08,0.5-0.14,1.01c0,0.94,0,1.01,0.14,1.3l0.22,0.5
	c0,0.14,0.29,0.5,0.43,0.5l0.22,0.14c0.14,0.14,0.29,0.22,0.36,0.22c0.08,0,0.29,0.08,0.58,0.22c0.37,0.18,0.51,0.18,0.59,0.1
	c0.08,0,0.22-0.08,0.22,0c0.08,0,0.14,0,0.22-0.08c0,0,0.08-0.07,0.14,0c0,0,0.14-0.07,0.22-0.07c0.08-0.14,0.22-0.14,0.44-0.08
	c0.22,0,0.36,0,0.36-0.08c0,0,0.14-0.14,0.36-0.22c0.22-0.08,0.29-0.14,0.29-0.29c0-0.14,0-0.22,0.14-0.14
	c0.14,0,0.22-0.08,0.29-0.22c0.08-0.22,0.22-0.29,0.44-0.36c0.29-0.08,0.44-0.29,0.65-0.94c0.08-0.29,0.14-0.58,0.14-0.94
	c0-0.29-0.08-0.58-0.08-1.01c-0.08-0.44-0.08-0.79-0.08-0.86c0-0.08,0-0.5,0.08-1.01c0-0.5,0-1.3,0.08-1.73c0-0.44,0-1.37,0.08-2.09
	l0.14-1.73c0.08-0.5,0.08-1.22,0.36-2.31c0.08-0.44,0.22-1.01,0.22-1.22c0.08-0.14,0.08-0.5,0.14-0.65c0.08-0.22,0.08-0.79,0.08-1.3
	c0-1.44,0.08-3.1,0.22-3.89l0.29-1.37c0.22-1.01,0.36-1.37,0.36-2.23v-1.51c0.08-0.36,0.08-0.65,0.08-0.72
	c0.08,0,0.08-0.14,0.08-0.29c0-0.08,0-0.22,0.08-0.22c0-0.08,0.08-0.22,0.08-0.36c0-0.22,0.14-0.65,0.22-1.08
	c0.36-1.01,0.5-1.66,0.5-2.16c0-0.44,0.22-1.16,0.36-1.51c0.08,0,0.08-0.22,0.14-0.43c0-0.14,0.08-0.36,0.08-0.44
	c0,0,0.08-0.08,0.08-0.14c0-0.5,0.08-0.86,0.14-0.94l0.14-0.65c0.08-0.29,0.08-0.65,0.14-0.72c0.36-1.88,0.5-2.23,0.58-2.31
	c0-0.08,0-0.14,0.08-0.29l0.08-0.5c0-0.22,0.08-0.8,0.14-1.37c0-0.5,0-1.08,0.08-1.3l0.08-0.58c-0.08-0.22,0-0.5,0-0.65
	c0.08-0.22,0.14-0.29,0.29-0.29l0.29-0.08c0.08-0.08,0.44-0.08,0.8-0.14c0.8,0,1.16-0.08,1.44-0.29c0.08-0.08,0.29-0.08,0.5-0.08
	c0.44,0,1.22-0.14,1.37-0.29c0-0.08,0.14-0.08,0.29-0.08c0.29,0,1.22-0.22,1.59-0.36c0.14-0.08,0.5-0.22,0.65-0.22
	c0.22,0,0.44-0.08,0.44-0.14c0.08-0.08,0.14-0.08,0.29-0.08c0.22,0,0.29-0.22,0.29-0.5c-0.08-0.14,0-0.22,0.08-0.29
	c0.08,0,0.08-0.08,0.08-0.14c0-0.08,0.08-0.22,0.14-0.36c0.07-0.14,0.14-0.29,0.14-0.36c0-0.14,0.29-0.29,0.43-0.22
	c0.08,0,0.08-0.08-0.14-0.29l-0.22-0.22l0.22-0.22c0.14-0.14,0.22-0.22,0.5-0.22c0.22-0.08,0.29-0.08,0.29-0.22
	C482.57,336.43,482.5,336.36,481.13,335.71z M341.9,348.31c-0.08-0.14-0.08-0.44-0.08-0.58v-1.66c0-1.01,0.08-1.37-0.08-1.66
	c-0.08-0.22-0.08-0.65-0.14-0.94c0-0.22-0.08-0.5-0.08-0.5c-0.08-0.08-0.08-0.14-0.14-0.29c0-0.08-0.08-0.29-0.14-0.36l-0.36-0.72
	c-0.14-0.22-0.29-0.44-0.36-0.44l-0.14-0.22c0-0.14-0.14-0.36-0.22-0.58c-0.14-0.14-0.22-0.29-0.22-0.43c0-0.22-0.22-0.58-0.5-0.86
	c-0.36-0.44-0.8-0.86-0.8-0.94l-0.14-0.14c-0.14-0.08-0.22-0.14-0.29-0.22c-0.08-0.22-0.58-0.86-0.8-1.01
	c-0.14-0.08-0.22-0.14-0.22-0.22c-0.08-0.14-0.58-0.5-0.72-0.5c-0.08,0-0.22-0.08-0.29-0.22l-0.22-0.14c-0.08,0-0.14-0.08-0.22-0.14
	c-0.22-0.43-2.81-1.22-3.75-1.22c-0.22,0-0.65,0.08-0.94,0.08c-0.44,0.08-1.3,0.44-1.87,0.8c-0.72,0.43-1.22,0.72-1.37,0.86
	c-0.36,0.36-0.8,0.86-0.8,1.01c0,0.08-0.08,0.22-0.22,0.36c-0.29,0.29-0.36,0.5-0.36,0.8c-0.08,0.14-0.14,0.44-0.29,0.65
	c-0.58,0.94-1.16,2.52-1.37,3.89l-0.29,1.66c-0.08,0.44-0.22,1.01-0.29,1.3c0,0.29-0.08,0.58-0.14,0.72c0,0.14-0.14,0.65-0.22,1.08
	c-0.29,1.59-0.44,2.38-0.58,2.73c0,0.14-0.14,0.72-0.14,1.16c-0.08,0.5-0.14,1.01-0.22,1.22c-0.08,0.5-0.36,2.02-0.44,2.73
	c0,0.36-0.14,1.01-0.22,1.44c-0.08,0.44-0.14,1.01-0.14,1.3c-0.14,0.94-0.29,2.09-0.36,2.31c-0.08,0.14-0.22,0.94-0.36,1.73
	c-0.08,0.86-0.22,1.66-0.29,1.73c0,0.29,0,0.5-0.14,1.66l-0.36,3.1c-0.14,1.16-0.29,1.66-0.44,2.81c-0.08,1.08-0.22,2.09-0.58,4.18
	c-0.29,1.44-0.5,3.53-0.5,4.61c0,1.22-0.08,1.66-0.36,1.95c-0.14,0.14-0.14,0.14,0.08,0.36c0.14,0.14,0.36,0.29,0.5,0.36
	c0.14,0,0.36,0.08,0.65,0.22c0.14,0.08,0.65,0.08,1.16,0.08c1.08,0.08,1.66-0.08,2.38-0.36c0.44-0.14,1.08-0.79,1.15-1.08
	c0-0.08,0.08-0.36,0.22-0.65c0.22-0.5,0.29-0.72,0.29-0.86c0-0.08-0.08-0.08-0.08-0.14c-0.08,0-0.08-0.08,0-0.08
	c0.14-0.08,0.36-1.08,0.36-1.22c-0.08-0.08,0-0.29,0.08-0.44l0.14-0.5l0.14-0.65c0.14-0.58,0.22-1.16,0.29-1.59
	c0-0.72,0.08-0.86,0.08-0.94c0.08-0.08,0.14-0.5,0.14-1.01c0.08-0.5,0.08-1.08,0.14-1.3c0-0.14,0-0.86,0.08-1.51
	c0.08-0.72,0.08-1.22,0.14-1.37c0.22-0.36,0.29-0.65,0.44-1.08c0-0.29,0.08-0.65,0.14-0.86l0.08-0.36l0.22,0.43
	c0.14,0.22,0.44,0.72,0.65,1.16l0.94,1.8c0.29,0.58,0.8,1.44,1.08,1.95c0.29,0.5,0.5,1.01,0.58,1.08l0.5,0.94
	c0.22,0.44,0.44,0.94,0.58,1.16c0.14,0.43,0.29,0.72,0.72,1.59c0.08,0.22,0.22,0.65,0.36,0.94c0.14,0.29,0.29,0.72,0.44,0.86
	l0.29,0.86c0.22,0.65,0.29,0.86,0.72,1.37c0.36,0.58,1.37,1.44,1.44,1.3c0-0.08,0.08,0,0.14,0.14c0.08,0.08,0.14,0.22,0.29,0.36
	l0.36,0.44c0.22,0.29,0.29,0.29,0.44,0.22c0.14,0,0.22,0,0.22,0.08c0.08,0.08,0.08,0.14,0.14,0.08c0.08,0,0.08,0,0.08,0.08
	c0,0.08,0.08,0.08,0.08,0.08c0.09-0.03,0.17,0.04,0.17,0.04c0.08,0.08,0.14,0.08,0.29-0.08c0.14-0.08,0.29-0.22,0.36-0.5
	c0.08-0.22,0.22-0.36,0.29-0.44c0,0,0.22,0.08,0.36,0.22c0.29,0.22,0.58,0.22,0.58,0.14v-0.36c0.08-0.14,0.08-0.22,0.36-0.14
	c0.22,0,0.29,0,0.29-0.08c0-0.08,0-0.14-0.08-0.14l-0.14-0.22c-0.08-0.29,0-0.29,0-0.72c0-0.22-0.08-0.29-0.22-0.29
	c-0.08,0-0.08,0,0-0.08c0.14-0.14,0.08-0.36-0.08-0.44c-0.08-0.08-0.14-0.22-0.14-0.29c-0.08-0.36-0.22-0.8-0.5-1.3
	c-0.14-0.29-0.44-0.72-0.5-0.94l-0.72-1.22c-0.08,0-0.36-0.58-0.72-1.22c-0.29-0.58-0.65-1.15-0.65-1.22c0,0-0.08-0.14-0.08-0.22
	l-0.14-0.22c-0.08,0-0.14-0.14-0.14-0.22c-0.08-0.14-0.14-0.29-0.22-0.29c0-0.08-0.08-0.14-0.08-0.22c0-0.08-0.08-0.14-0.08-0.14
	c-0.08-0.08-0.22-0.22-0.29-0.44l-0.44-0.72c-0.14-0.14-0.44-0.65-0.72-1.08c-0.22-0.43-0.5-0.79-0.58-0.94l-0.22-0.29
	c-0.14-0.44-0.5-0.94-0.8-1.3c-0.14-0.14-0.36-0.44-0.44-0.65c-0.43-0.8-1.15-1.95-1.3-1.95c-0.14-0.14-0.08-0.29,0.08-0.44
	l0.14-0.14c0-0.08,0.14-0.14,0.22-0.22c0.14-0.08,0.29-0.22,0.36-0.29c0-0.08,0.14-0.22,0.29-0.22c0.08-0.08,0.29-0.14,0.36-0.22
	l0.14-0.14c0.08,0,0.72-0.58,1.01-0.86c0.22-0.14,0.36-0.29,0.36-0.29c0.08,0,0.5-0.22,0.58-0.29c0-0.08,0.14-0.08,0.29-0.14
	l0.36-0.44c0.08-0.14,0.14-0.29,0.22-0.29c0.14,0,1.08-1.01,1.08-1.16c-0.08-0.08,0-0.22,0.14-0.29c0.22-0.22,0.36-0.58,0.5-1.01
	c0.14-0.43,0.65-1.08,0.86-1.08h0.08l0.14-0.14c0.08-0.14,0.08-0.22,0.14-0.29c0.08,0,0.08-0.08,0.08-0.14
	c0-0.07,0.08-0.22,0.36-0.36c0.14-0.08,0.22-0.22,0.22-0.29c0-0.22,0.29-0.94,0.36-1.08c0.08,0,0.08-0.08,0.08-0.14
	c-0.08-0.08,0-0.14,0.14-0.22c0.14-0.08,0.22-0.22,0.29-0.29c0-0.14,0.08-0.22,0.22-0.29c0.08-0.14,0.14-0.29,0.22-0.58
	c0-0.58,0.08-0.72,0.22-0.86c0.14-0.14,0.58-1.16,0.58-1.37l0.14-0.14c0.08-0.14,0.29-0.58,0.29-0.72c0-0.07,0.08-0.29,0.22-0.5
	c0.08-0.22,0.14-0.44,0.14-0.8c0-0.36,0-0.44,0.14-0.44c0.14-0.08,0.14-0.08,0.14-0.36c-0.08-0.14-0.08-0.44-0.14-0.72
	C342.05,348.74,341.97,348.45,341.9,348.31z M336.49,347.26c-0.44,1.73-1.73,4.97-2.16,5.84l-0.8,1.59
	c-0.29,0.65-0.65,1.22-0.8,1.37c-0.14,0.14-0.22,0.36-0.22,0.36l-0.29,0.5c-0.5,0.94-1.95,2.52-2.38,2.67
	c-0.08,0-0.22,0.08-0.29,0.14c0,0.08-0.14,0.14-0.14,0.14c-0.1-0.03-0.25,0.05-0.32,0.19c-0.22,0.22-0.29,0.14-0.14-0.36l0.14-0.65
	c0.14-0.5,0.14-1.37,0.14-1.87c0.08-0.36,0.08-0.65,0.08-0.72c0.08,0,0.08-0.22,0-0.36c0-0.22,0-0.36,0.08-0.5
	c0.07-0.14,0.14-0.5,0.14-0.72c0.08-0.72,0.29-1.87,0.44-2.09c0.08-0.08,0.08-0.14,0.08-0.14c-0.08,0,0-0.14,0.08-0.22
	c0.08-0.14,0.08-0.44,0.08-0.65c0-0.22,0-0.36,0.08-0.43c0.08,0,0.08-0.08,0.08-0.22s0.07-0.36,0.14-0.5l0.14-0.5
	c0-0.08,0.08-0.36,0.22-0.65c0.22-0.5,0.22-0.65,0.22-1.22c0-0.72,0.14-1.22,0.43-2.09c0.08-0.08,0.08-0.29,0.08-0.36
	c0-0.14,0.08-0.36,0.08-0.44c0.08-0.08,0.14-0.22,0.14-0.29l0.08-0.29c0.14-0.08,0.8-1.01,0.8-1.08c0-0.08,0.08-0.14,0.14-0.29
	c0.08-0.08,0.08-0.29,0.08-0.36c0-0.07,0.08-0.22,0.14-0.29c0.08-0.08,0.14-0.22,0.22-0.5c0.07-0.5,0.22-0.8,0.36-0.94
	c0.08-0.08,0.14-0.14,0.14-0.22c-0.08-0.08,0-0.14,0.08-0.22c0-0.08,0.08-0.14,0.08-0.22c0-0.08,0.08-0.14,0.14-0.14
	c0.14-0.08,0.36-0.22,0.58-0.43c0.14-0.22,0.44-0.36,0.5-0.44l0.22-0.14c0-0.08,0.14-0.08,0.29-0.08c0.22,0,0.29,0.08,0.5,0.44
	c0.29,0.5,0.44,1.22,0.5,2.31c0,0.44,0.08,1.3,0.14,1.95C336.92,345.53,336.85,346.03,336.49,347.26z M220.27,336.19
	c0-0.08-0.5-0.65-0.65-0.65c-0.08,0-0.14-0.08-0.22-0.14c-0.08-0.08-0.22-0.22-0.36-0.29c-0.14-0.08-0.5-0.22-0.72-0.36
	c-0.43-0.22-0.65-0.29-0.8-0.29c-0.08,0-0.14,0.08-0.22,0.08c-0.08,0.08-0.36,0.08-0.5,0.08c-0.94,0-1.8,0.14-1.66,0.36l-0.14,0.14
	c-0.22,0.08-0.29,0.29-0.22,0.58c0.08,0.36,0,1.3-0.14,1.73c-0.08,0.5-0.14,0.58-0.22,1.22c0,0.22-0.08,0.58-0.14,0.8
	c-0.08,0.14-0.08,0.5-0.14,0.72c0,0.29-0.08,0.58-0.08,0.65c-0.07,0.08-0.07,0.29-0.14,0.43c0,0.14-0.08,0.58-0.14,0.94
	c-0.22,0.65-0.36,1.51-0.44,1.95c0,0.08,0,0.29-0.08,0.44c-0.22,0.86-0.65,2.81-0.72,3.46c0,0.22,0,0.44-0.08,0.5
	c0,0.08-0.14,0.5-0.22,1.01c-0.22,1.44-0.36,2.02-0.43,2.16c-0.08,0-0.08,0.07-0.08,0.07c0.08,0,0,0.29-0.08,0.65
	c-0.08,0.36-0.22,0.79-0.22,1.01c-0.08,0.22-0.08,0.43-0.08,0.43c-0.08,0-0.08,0.29-0.14,0.5c0,0.29-0.14,0.94-0.29,1.51
	c-0.14,0.58-0.22,1.22-0.29,1.44c0,0.29-0.08,0.72-0.08,1.08l-0.22,1.37c-0.08,0.44-0.14,0.86-0.22,1.08
	c-0.07,0.5-0.22,1.16-0.29,2.09c-0.08,0.5-0.22,1.44-0.36,2.02c-0.14,0.65-0.22,1.44-0.22,1.73c-0.08,0.65-0.22,1.37-0.36,1.8
	l-0.08,0.58c0,0.29-0.08,0.5-0.36,2.09c0,0.29-0.14,0.94-0.14,1.44c-0.08,0.58-0.22,1.51-0.36,2.09c-0.08,0.65-0.14,1.37-0.14,1.73
	c-0.08,0.29-0.14,0.8-0.14,1.08c-0.08,0.22-0.14,0.65-0.14,0.8c-0.08,0.86-0.29,2.38-0.36,2.67c0,0.22-0.08,1.01,0,1.73
	c0,0.22,0.29,0.72,0.43,0.94c0.22,0.22,0.8,0.5,1.08,0.5l0.08-0.08c0.08-0.08,0.08-0.08,0.08,0c-0.13,0.09-0.06,0.16,0.02,0.16
	c0,0,0.08-0.08,0.08-0.14c0-0.07,0.08-0.08,0.14-0.08c0.14,0,0.29,0,0.36-0.08c0.08,0,0.29-0.08,0.44-0.08c0.14,0,0.29,0,0.36-0.08
	c0.14-0.14,0.22-0.14,0.22-0.08c0.14,0.08,0.58,0.14,0.86,0.14h0.14l0.29-0.08c0.08-0.14,0.29-0.22,0.86-0.29
	c0.14-0.08,0.29-0.14,0.36-0.14c0-0.08,0.14-0.14,0.22-0.22l0.14-0.14c-0.08-0.08,0-0.08,0,0c0.14,0,0.44-0.43,0.29-0.5
	c-0.08-0.08,0.08-0.5,0.14-0.5c0.14-0.08,0.14-0.36,0.14-1.01c0-0.14,0.07-0.36,0.07-0.36c0.08,0,0.14-0.22,0.14-0.36l0.22-0.58
	c0-0.14,0.08-0.58,0.08-0.94c0.08-0.5,0.08-0.58,0.22-0.72c0.14-0.08,0.14-0.14,0.14-0.43l0.08-0.58c0.14-0.36,0.29-0.86,0.29-1.08
	c0.08-0.08,0.14-0.36,0.22-0.65c0.08-0.29,0.08-0.5,0.08-0.58c0.08-0.08,0.08-0.14,0.14-0.29c0-0.08,0.08-0.36,0.08-0.65v-0.58
	c0,0,0.08-0.22,0.08-0.43c0-1.08,0.08-1.59,0.14-1.66c0-0.08,0-0.44,0.08-0.86c0-0.43,0-0.79,0.08-0.79
	c0.08-0.08,0.08-0.22,0.08-0.43c0-0.14,0.08-0.29,0.14-0.36c0.14-0.14,0.22-0.5,0.29-1.44c0-0.14,0-0.29,0.08-0.36
	c0.08-0.14,0.14-0.94,0.14-1.44v-0.29c-0.08-0.29-0.08-0.44,0.08-0.44c0-0.08,0.08-0.14,0-0.36c0-0.14,0-0.29,0.08-0.36
	c0.08,0,0.08-0.29,0.14-0.58c0-0.29,0-0.58,0.08-0.65c0.08-0.07,0.08-0.22,0.08-0.22c-0.08-0.08-0.08-0.08,0-0.08
	c0,0,0.08-0.22,0-0.43c0-0.29,0-0.44,0.14-0.5c0-0.08,0.08-0.22,0.14-0.36c0-0.14,0.08-0.29,0.08-0.36
	c0.08-0.08,0.14-0.58,0.08-0.65c-0.07-0.07-0.08-0.08,0-0.14c0.14-0.08,0.14-0.22,0.14-0.36c-0.08-0.14,0-0.29,0.08-0.36
	c0.07-0.14,0.14-0.44,0.14-0.58c0-0.14,0-0.29-0.08-0.29c-0.07,0-0.07-0.08,0.08-0.14c0.14-0.14,0.22-0.65,0.22-1.01v-0.14
	c-0.08-0.08-0.08-0.22,0-0.29v-0.29c-0.08-0.14-0.08-0.22,0.08-0.29c0.08-0.08,0.08-0.29,0.14-0.58c0-0.22,0-0.43,0.08-0.5
	c0-0.08,0.14-0.72,0.22-1.3c0-0.14,0-0.36,0.08-0.36c0-0.08,0-0.5,0.08-1.01c0-0.5,0-1.08,0.08-1.3c0-0.22,0-0.72,0.08-1.16
	c0-0.36,0.08-0.72,0.08-0.8c0.08,0,0.08-0.22,0.08-0.43c0-0.14,0.08-0.36,0.08-0.44c0.08,0,0.08-0.36,0.14-0.65
	c0-0.36,0-0.72,0.08-0.8c0-0.14,0.08-0.36,0.08-0.58c0-0.36,0-0.43,0.08-0.58c0.14-0.14,0.08-0.22,0.08-1.16
	c0-0.14,0.08-0.29,0.14-0.44c0.08-0.22,0.08-0.58,0.08-1.08c0-0.5,0-0.79,0.08-0.94c0.14-0.22,0.36-1.3,0.36-1.66v-0.65v-1.51
	c-0.08-0.22-0.08-0.43,0-0.58c0.14-0.22,0.14-0.5,0.14-0.72c0-0.22,0-0.44-0.14-0.58C220.27,336.4,220.2,336.26,220.27,336.19z
	 M194.1,340.54c0-0.72-0.22-1.95-0.36-2.09c0-0.08-0.08-0.22-0.08-0.43c-0.14-0.65-2.09-2.52-2.67-2.52c-0.08,0-0.14-0.08-0.22-0.14
	c-0.14-0.14-1.01-0.58-1.44-0.65c-0.29-0.08-0.58-0.14-0.72-0.22c-0.08-0.08-0.22-0.14-0.29-0.14c-0.08,0-0.29-0.08-0.43-0.14
	c-0.36-0.22-1.16-0.5-2.02-0.72c-0.5-0.08-0.72-0.08-1.51,0c-0.29,0.08-0.72,0.08-0.94,0.08c-0.22-0.08-0.36,0-0.36,0
	c0,0.08-0.08,0.08-0.22,0.08c-0.14,0-0.36,0.08-0.43,0.14c-0.5,0.29-1.08,0.79-1.16,0.94l-0.14,0.22c-0.14,0-1.95,2.81-1.95,3.1
	c0,0.08-0.08,0.14-0.08,0.14c-0.08,0-0.5,0.94-0.5,1.08l-0.14,0.29c-0.14,0.29-0.29,0.72-0.29,0.94c-0.08,0.08-0.14,0.29-0.22,0.44
	l-0.14,0.5c0,0.08-0.14,0.58-0.22,1.08c-0.29,1.16-0.5,2.16-0.58,2.81c0,0.22,0,0.65-0.08,0.94v2.45c0.08,0.22,0.08,0.5,0.14,0.72
	c0,0.29,0.08,0.72,0.08,1.08c0.08,0.36,0.14,1.01,0.14,1.37c0.22,2.38,0.43,4.03,0.86,5.55c0.22,0.72,0.44,1.66,0.5,2.02
	c0,0.14,0.08,0.29,0.08,0.29c0.08,0,0.08,0.08,0.08,0.22l0.14,0.58c0.22,0.72,0.36,1.08,0.58,1.95c0.07,0.5,0.22,1.16,0.29,1.44
	c0.08,0.36,0.14,0.72,0.22,0.79c0,0.14,0,0.29,0.08,0.36c0.08,0.08,0.08,0.14,0,0.14c0,0.08,0,0.14,0.08,0.22
	c0,0.08,0.08,0.22,0.08,0.44c0.08,0.44,0.14,0.65,0.22,0.8c0.08,0,0.08,0.08,0.08,0.14c-0.08,0,0,0.08,0,0.22
	c0.14,0.36,0.29,1.16,0.44,2.38c0.36,3.03,0.44,4.03,0.44,4.54c0,0.86-0.29,3.03-0.58,3.31c0,0.08-0.08,0.22-0.08,0.36l-0.14,0.22
	c-0.08,0-0.08,0,0,0.08c0.08,0.07,0.08,0.14,0,0.14c-0.08,0.08-0.14,0.08-0.14,0.14l-0.08,0.29c-0.08,0.08-0.14,0.36-0.22,0.5
	c-0.08,0.22-0.22,0.44-0.29,0.5c0,0.08-0.08,0.14-0.08,0.14c0,0.08-0.08,0.22-0.14,0.36c-0.14,0.29-0.22,0.44-0.5,0.5
	c-0.29,0.22-0.94,0.43-1.22,0.5c-0.43,0.08-0.72,0.08-0.94,0.08c-0.43,0-0.58-0.14-0.94-0.5c-0.29-0.29-0.5-0.58-0.58-0.72
	c-0.08-0.14-0.14-0.29-0.22-0.36c0-0.08-0.08-0.22-0.14-0.29c0-0.14-0.08-0.36-0.22-0.5c-0.08-0.22-0.14-0.36-0.14-0.44
	c0-0.08,0-0.14-0.07-0.14c0,0-0.08-0.08-0.08-0.22c0-0.14,0-0.5-0.08-0.86c-0.08-0.29-0.08-0.5-0.08-0.58v-0.14
	c0,0,0-0.08-0.08-0.08c0-0.08-0.08-0.22-0.14-0.43c0-0.29-0.08-0.29-0.22-0.36c-0.14-0.08-0.22-0.14-0.22-0.22
	c0,0-0.14-0.08-0.29-0.08c-0.36-0.08-0.94-0.08-0.94,0c0,0.08-0.14,0.08-0.29,0.08c-0.14-0.08-0.22-0.08-0.22,0
	c0.08,0.14-0.08,0.22-0.5,0.36c-0.08,0-0.22,0.08-0.29,0.14c-0.14,0.08-0.29,0.14-0.36,0.14c-0.22,0-0.29,0.08-0.29,0.22
	c0,0.14,0,0.22-0.08,0.22l-0.29,0.58c-0.08,0-0.14,0.14-0.14,0.22v0.8l0.14,0.72c0.08,0.29,0.08,0.5,0.14,0.58
	c0.14,0.08,0.14,0.65,0,0.72c-0.08,0.08,0.14,0.86,0.22,0.86l0.14,0.29c0.07,0.14,0.14,0.22,0.07,0.29c0,0,0,0.08,0.08,0.08
	c0.08,0,0.08-0.08,0.08-0.14c0-0.07,0.08,0,0.08,0.14c0.08,0.22,0.14,0.29,0.22,0.29c0-0.08,0.08,0,0.14,0c0,0.08,0,0.08-0.08,0.08
	c0.08,0.07,0.14,0.14,0.14,0.22c0,0.08,0.36,0.36,0.65,0.5c0.08,0,0.14,0.08,0.29,0.22c0.08,0.08,0.29,0.14,0.43,0.14
	c0.14,0.08,0.29,0.14,0.44,0.14c0.08,0.08,0.29,0.22,0.72,0.44c0.14,0,0.29,0.08,0.36,0.08c0.08,0,0.14,0.08,0.22,0.08
	c0.08,0.08,0.08,0.08,0-0.08h0.14c0,0.14,0.08,0.22,0.5,0.36c0.29,0,0.58,0.08,0.72,0.08c0.08-0.08,0.36,0,0.65,0.14
	c0.36,0.08,0.58,0.14,0.58,0.08c0-0.07,0.08-0.08,0.08-0.08c0.08,0,0.08,0,0.08,0.08c-0.08,0.08,0,0.08,0.08,0.08
	c0.14,0,0.22,0,0.36,0.08c0.08,0.08,0.22,0.08,0.36,0.08c0.14-0.08,0.22,0,0.29,0c0,0,0.08,0.08,0.14,0.08
	c0.14,0.08,0.14,0,0.14-0.08c-0.08,0-0.08-0.08,0-0.08c0.08,0,0.5,0.29,0.36,0.14c-0.08-0.14-0.08-0.14,0-0.08
	c0.08,0,0.14,0.08,0.14,0.08l0.08,0.08c0.08,0,0.14-0.08,0.08-0.08c0-0.08,0-0.08,0.08-0.14c0.08,0,0.08,0,0.08,0.08
	c0,0.08,0.07,0.08,0.22,0.08c0.14,0,0.22-0.08,0.22-0.08c0-0.14,0.22-0.22,0.29-0.14c0.08,0.08,0.08,0.08,0.08-0.08
	c-0.08-0.08-0.08-0.14,0.14-0.14c0.08,0,0.22,0.08,0.22,0.08c0.08,0.08,0.08,0.08,0.14-0.08c0.08-0.08,0.14-0.08,0.14-0.08
	c0,0.08,0.08,0.08,0.08,0c0.08,0,0.22-0.08,0.36-0.14c0.14,0,0.22-0.08,0.29-0.14c0-0.08,0.08-0.08,0.14,0
	c0.14,0.08,0.29,0.08,0.58-0.08h0.22c0.08,0,0.29-0.08,0.65-0.22c0.29-0.08,0.65-0.14,0.79-0.22c0.14,0,0.36-0.08,0.5-0.14
	c0.14-0.08,0.36-0.14,0.44-0.08c0.08,0,0.08-0.08,0.08-0.14c0-0.08,0.08-0.22,0.14-0.22c0.14-0.14,0.22-0.36,0.29-0.44
	c0.14,0,0.58-0.29,0.65-0.5l0.22-0.14c0.14,0,0.36-0.44,0.36-0.5c0-0.07,0.08-0.08,0.08-0.08c0.14,0.08,0.58-0.29,0.86-0.58
	c0.14-0.14,0.29-0.29,0.36-0.29c0.14,0,0.43-0.36,0.58-0.72c0.08-0.29,0.14-0.36,0.22-0.36c0.08,0,0.14,0,0.14-0.08
	c0,0,0-0.14,0.08-0.22c0.08-0.08,0.08-0.29,0.08-0.5c0-0.36,0.08-0.8,0.14-0.8c0.08,0,0.08-1.01,0-1.16
	c-0.08-0.08-0.08-0.29-0.14-0.58c0-0.29,0-0.58-0.08-0.58c-0.08-0.14-0.08-0.36,0.08-0.43c0-0.08,0.08-0.22,0-0.22
	c0-0.08,0-0.29-0.08-0.43c0-0.22-0.08-0.5-0.14-0.72c-0.14-0.29-0.22-0.72-0.22-1.01c0-0.14,0-0.22,0.08-0.22
	c0.22,0,0.36-0.44,0.44-1.44c0-0.29,0-0.58,0.08-0.58c0-0.08-0.08-0.22-0.08-0.5c-0.14-0.29-0.14-0.43-0.08-0.5
	c0.14-0.14,0.14-0.29,0.14-1.22c0-0.58,0-0.94-0.08-1.22c-0.14-0.58-0.22-0.86-0.22-1.16v-0.29c0.08-0.22,0.08-0.36,0-0.44
	c-0.08-0.08-0.08-0.22-0.08-0.29c0-0.08-0.08-0.22-0.14-0.29c-0.08-0.08-0.14-0.29-0.22-0.44c-0.14-0.29-0.22-0.94-0.22-1.22v-0.14
	c0-0.08,0-0.08-0.08-0.14c0,0-0.08-0.08,0-0.08c0-0.08-0.22-0.5-0.44-0.94c-0.22-0.44-0.44-0.86-0.44-0.94c0-0.08,0-0.14-0.08-0.14
	c0-0.08-0.07-0.29-0.07-0.5c-0.08-0.43-0.29-1.15-0.44-1.22c-0.08,0-0.08-0.08-0.08-0.14c0-0.07-0.08-0.36-0.22-0.58
	c-0.14-0.22-0.22-0.5-0.22-0.65l-0.14-0.58c-0.08-0.22-0.14-0.5-0.14-0.72l-0.22-0.5l-0.08-0.29c0-0.08,0-0.14-0.08-0.22
	c-0.08,0-0.08-0.08-0.08-0.22c0-0.08-0.08-0.36-0.22-0.65c-0.14-0.29-0.22-0.58-0.22-0.94c-0.08-0.36-0.36-1.37-0.44-1.37
	c-0.08,0-0.08-0.08-0.08-0.14c0-0.07-0.08-0.22-0.14-0.36l-0.14-0.29c0.07-0.08,0.14-0.44,0.14-0.72c0-0.14-0.08-0.36-0.08-0.36
	c-0.07-0.08-0.07-0.29-0.07-0.36c-0.08-0.43-0.22-1.16-0.29-1.3c-0.08-0.14-0.08-0.22,0-0.29c0.08-0.14,0.08-0.58-0.08-1.22
	c-0.08-0.29-0.14-0.72-0.14-1.01c0-0.22,0-0.58-0.08-0.79c-0.08-0.29,0-0.36,0.08-0.58c0.08-0.14,0.08-0.36,0.14-0.58v-0.5
	c0.08,0,0.08-0.22,0.14-0.36c0.14-0.44,0.5-1.51,0.65-1.8c0.08-0.14,0.14-0.36,0.14-0.5c0-0.08,0.08-0.14,0.14-0.22
	c0.08-0.08,0.22-0.22,0.36-0.44c0.08-0.14,0.22-0.44,0.29-0.5c0.29-0.22,0.44-0.43,0.44-0.5c0-0.08,0.08-0.08,0.08-0.08
	c0.08,0,0.94-0.86,0.94-0.94c0,0,0.08-0.14,0.22-0.22c0.22-0.14,0.36-0.14,0.72-0.14c0.43,0,0.58,0.08,0.58,0.22v0.08
	c0,0.08,0.08,0.14,0.22,0.22c0.14,0.08,0.22,0.14,0.22,0.22c0,0.08,0.08,0.14,0.22,0.22c0.14,0.14,0.14,0.22,0.08,0.36
	c0,0.22,0.08,0.36,0.22,0.72c0.08,0.29,0.22,0.65,0.22,0.86c0.08,0.58,0.29,1.22,0.36,1.22c0.08,0,0.14,0.08,0.22,0.22
	c0.08,0.08,0.14,0.14,0.22,0.14c0-0.08,0.08,0,0.08,0c0,0.08,0.08,0.22,0.22,0.29c0.14,0.08,0.43,0.36,0.72,0.65
	c0.22,0.22,0.5,0.43,0.5,0.43c0.08,0,0.14,0.08,0.22,0.08c0.08,0.08,0.29,0.14,0.58,0.14c0.36,0.08,0.43,0.08,0.72-0.14
	c0.36-0.36,0.65-0.86,0.65-1.3c0-0.19,0-0.26-0.08-0.4C194.1,341.4,194.1,341.04,194.1,340.54z M252.8,334.89
	c-0.08-0.08-0.14-0.14-0.14-0.29c0-0.29,0-0.29-0.36-0.22c-0.36,0-0.5-0.14-0.58-0.36c0-0.14-0.36-0.36-0.5-0.29
	c0,0-0.22-0.08-0.36-0.22l-0.36-0.14l-0.14,0.22c-0.14,0.14-0.22,0.22-0.29,0.22l-0.29,0.14c-0.22,0.22-0.29,0.22-0.29,0.08
	c0-0.08,0.08-0.14,0.14-0.22c0.14-0.08,0.14-0.22,0.14-0.22c0-0.08-0.65,0.5-1.51,1.3c-0.22,0.22-0.5,0.58-0.65,0.94
	c-0.36,0.65-0.36,0.65-0.43,1.51c0,0.44-0.08,1.22-0.14,1.66c-0.08,0.58-0.08,0.94,0,0.94c0.08,0.14,0.08,0.22,0,0.14
	c-0.14,0-0.14,0.07-0.29,1.22l-0.14,0.94l-0.14,0.65c0,0.29-0.08,0.58-0.08,0.58c-0.08,0.08-0.08,0.14-0.08,0.22
	c0,0.22-0.44,2.16-0.72,3.39c-0.29,1.08-0.36,1.66-0.5,2.89c0,0.36-0.08,0.94-0.14,1.22c0,0.29-0.08,0.72-0.08,0.86
	c0,0.22-0.08,0.44-0.08,0.5c-0.08,0.22-0.14,0.5-0.22,1.22c0,0.44-0.08,1.08-0.14,1.44l-0.22,1.51c0,0.44-0.08,0.86-0.08,1.08
	c-0.22,0.86-0.43,2.02-0.5,3.03c0,0.65-0.08,1.16-0.08,1.22c0,0.07-0.08,0.5-0.08,1.01c0,0.5-0.08,1.08-0.14,1.37
	c-0.08,0.5-0.14,1.51-0.29,3.17c-0.14,1.52-0.14,1.73-0.29,1.66c-0.08-0.08-0.14-1.66-0.14-1.8c0,0,0-0.14-0.08-0.29
	c0-0.14-0.08-0.36-0.08-0.58c0-0.14-0.08-0.36-0.14-0.43v-0.22c0.08-0.22,0.08-0.44,0-0.79c0-0.22-0.08-1.01-0.08-1.8
	c0-0.8-0.08-1.51-0.08-1.59c-0.08-0.08-0.14-0.43-0.14-0.72c0-0.22-0.08-0.58-0.08-0.65c-0.08-0.08-0.08-0.36-0.08-0.58
	c0-0.43-0.14-1.44-0.29-2.31c-0.08-0.29-0.14-0.72-0.14-0.94l-0.44-2.45c-0.08-0.22-0.14-0.58-0.14-0.79v-0.5
	c0-0.14-0.08-0.36-0.14-0.36c-0.08-0.08-0.14-0.29-0.14-0.58c0-0.22-0.08-0.5-0.14-0.65c-0.07-0.14-0.08-0.22-0.08-0.29
	c0.14-0.22,0-1.44-0.22-2.02c-0.08-0.29-0.22-0.72-0.22-0.86c0-0.14,0-0.5-0.08-0.72l-0.36-1.01c-0.08-0.29-0.14-0.5-0.22-0.5v-0.8
	c0-0.65,0-0.94-0.08-1.3c-0.08-0.22-0.14-0.65-0.14-0.86c0-0.22,0-0.5-0.08-0.65c-0.08-0.08-0.14-0.43-0.22-0.65
	c0-0.29-0.14-0.65-0.22-0.79c-0.08-0.22-0.14-0.58-0.29-0.86c-0.08-0.22-0.22-0.65-0.36-0.86c-0.08-0.14-0.22-0.58-0.36-0.86
	c-0.14-0.36-0.29-0.65-0.5-0.8c-0.14-0.22-0.29-0.36-0.29-0.36c0-0.22-0.14-0.44-0.36-0.58c-0.14-0.08-0.44-0.36-0.58-0.5
	c-0.22-0.22-0.44-0.36-0.5-0.44c-0.08,0-0.29-0.14-0.5-0.22c-0.22-0.14-0.44-0.22-0.58-0.22c-0.43,0-0.5,0-1.01,0.22
	c-0.14,0-0.43,0.08-0.65,0.14c-0.65,0-0.94,0.14-1.37,0.65c-0.36,0.36-1.15,1.8-1.3,2.31c0,0.08-0.08,0.29-0.14,0.36
	c-0.94,2.31-1.3,3.67-1.95,7.06c-0.14,1.15-0.36,2.23-0.36,2.31c0,0.14-0.14,0.72-0.29,1.3c-0.36,1.95-0.44,2.09-0.58,3.03
	l-0.29,1.66c-0.14,0.8-0.29,1.22-0.58,3.1c-0.14,1.01-0.44,1.95-0.65,3.17l-0.22,1.37c-0.08,0.36-0.22,1.16-0.29,1.73
	c-0.08,0.58-0.29,1.52-0.36,2.09l-0.5,2.45l-0.14,1.51l-0.22,2.23c-0.07,0.65-0.22,1.3-0.22,1.51c-0.08,1.01-0.36,2.95-0.44,3.46
	c0,0.36-0.08,0.72-0.08,0.79l-0.08,0.5c-0.08,0.5-0.29,1.16-0.36,2.09c-0.08,0.5-0.14,1.16-0.22,1.44l-0.14,0.58l0.29,0.29
	c0.14,0.14,0.29,0.29,0.29,0.22c0.08,0,0.14,0.08,0.22,0.14c0.08,0.07,0.29,0.22,0.44,0.22c0.14,0.08,0.29,0.22,0.29,0.29
	c0,0,0.14,0.08,0.29,0.08l0.29,0.08c0.14,0.14,0.43,0.22,0.58,0.22h0.22c0.14,0,0.5-0.14,0.94-0.22c0.36-0.14,0.86-0.29,1.08-0.44
	c0.36-0.14,0.36-0.14,0.65-0.94c0.08-0.14,0.14-0.36,0.22-0.43c0.08-0.07,0.14-0.22,0.14-0.36c0-0.14,0.08-0.29,0.14-0.44
	c0.08-0.08,0.14-0.43,0.22-0.8c0.14-0.36,0.29-0.94,0.44-1.22l0.14-0.72c0-0.14,0.08-0.36,0.14-0.58c0.08-0.22,0.14-0.72,0.22-1.08
	c0.14-0.44,0.29-1.01,0.43-1.37c0.14-0.36,0.22-0.79,0.29-1.08c0-0.43,0.22-1.3,0.43-1.8c0.14-0.43,0.29-1.37,0.36-1.95
	c0-0.43,0.08-0.72,0.14-0.86c0.29-0.5,0.72-2.73,0.5-3.03v-0.43c0-0.79,0.08-1.37,0.08-1.59c-0.08-0.22-0.08-0.29,0.08-0.43
	c0.08-0.22,0.08-0.29,0-0.36c-0.08-0.08-0.08-0.14,0-0.29c0.08-0.08,0.08-0.36,0.08-0.65c0-0.29,0.08-0.72,0.14-1.01
	c0.08-0.29,0.08-0.65,0.08-0.86c0-0.79,0.14-1.87,0.22-2.23c0.22-0.79,0.22-1.01,0.22-1.66c0-0.36,0.08-0.58,0.08-0.58
	c0.08,0,0.08-0.14,0.08-0.29c0-0.14,0.08-0.29,0.08-0.36c0.08-0.14,0.22-0.5,0.29-1.37c0.14-0.58,0.22-1.08,0.36-1.8
	c0.08-0.22,0.08-0.58,0.08-0.65c0-0.07,0-0.22,0.07-0.29c0-0.08,0-0.5,0.08-1.01c0-0.58,0.08-1.01,0.08-1.01
	c0.08-0.08,0.08-0.08,0.22,0.65c0.08,0.14,0.14,0.58,0.22,0.8c0.08,0.29,0.14,0.94,0.22,1.37c0.14,0.5,0.22,1.16,0.29,1.37
	c0.29,1.66,0.36,2.23,0.36,2.74c0,0.29,0.08,0.72,0.08,0.94c0.14,0.65,0.29,1.8,0.29,2.37c-0.08,0.36,0,1.01,0.08,1.52l0.14,1.08
	c0,0.14,0.08,0.5,0.08,0.79c0,0.29,0.08,0.72,0.08,0.94c0.08,0.29,0.14,0.65,0.14,0.94l0.14,0.65c0,0.14,0.08,0.44,0.08,0.72
	c0.08,0.29,0.14,0.86,0.22,1.37l0.14,1.22c0,0.22,0.08,0.72,0.14,1.01c0.08,0.36,0.14,0.94,0.14,1.3c0,0.36,0.08,0.86,0.08,1.16
	l0.44,2.73c0.08,0.36,0.14,0.72,0.14,0.86c0,0.14,0.07,0.36,0.07,0.36c0.08,0.08,0.08,0.14,0.08,0.14c0,0.08,0,0.22,0.08,0.43
	c0.08,0.22,0.22,0.86,0.29,1.44s0.29,1.22,0.36,1.44c0.08,0.22,0.29,0.72,0.36,1.16c0.22,0.94,0.29,1.22,0.65,1.73
	c0.68,0.93,1.04,1.15,2.42,1.15c0.29,0,0.58-0.08,0.72-0.14c0.5-0.22,0.58-0.22,1.16-0.29c0.29,0,0.5-0.08,0.5-0.08
	c0.08,0,0.29-0.22,0.5-0.36c0.65-0.36,0.94-0.65,0.94-0.79l0.08-0.08c0.08,0,0.94-1.08,1.16-1.51c0.22-0.29,0.43-1.08,0.43-1.44
	c0-0.08,0-0.36,0.22-1.22c0.08-0.29,0.08-0.43,0.22-1.44l0.14-1.01c0.08-0.22,0.08-0.36,0.08-0.44c-0.08-0.22-0.08-0.79,0.14-2.52
	c0.07-1.01,0.14-1.59,0.29-1.87c0.14-0.22,0.36-0.94,0.36-1.16c0-0.14,0-0.29,0.08-0.43c0.08-0.08,0.08-0.14,0.08-0.22
	c0-0.08,0.08-0.36,0.22-0.72c0.14-0.44,0.36-0.86,0.5-0.94c0.22-0.14,0.29-0.36,0.14-0.65c-0.08-0.43-0.08-1.16,0-1.44
	c0.08-0.14,0.14-0.29,0.14-0.58c0-0.29-0.08-0.65-0.08-1.16c0-0.43,0.08-0.72,0.14-0.94c0.14-0.29,0.29-0.86,0.29-1.15v-0.08
	c0,0,0.08-0.14,0.08-0.22c0.36-0.79,0.36-0.94,0.36-1.66c0-0.5,0.08-0.86,0.14-1.16c0.08-0.22,0.14-0.65,0.14-1.15
	c0-0.44,0-0.8,0.08-0.8c0-0.08,0.08-0.14,0.08-0.22l0.08-0.29c0.08-0.08,0.14-0.43,0.14-1.44c0-0.72,0.08-1.51,0.08-1.66
	c0.08-0.29,0.08-0.8,0.08-2.09c-0.08-0.08,0-0.5,0-0.94c0.08-0.44,0.14-1.08,0.14-1.52c0.08-0.94,0-0.79,0.14-1.44
	c0.14-0.65,0.14-1.3,0.22-2.16l0.07-1.01c0-0.22,0-0.44,0.08-0.5c0-0.07,0.08-0.29,0.08-0.43c0-0.22,0.14-0.58,0.22-0.79
	c0.14-0.29,0.14-0.5,0.22-0.86c0-0.5,0-1.01,0.22-2.09c0.08-0.36,0.14-0.79,0.14-0.94c0-0.22,0.14-0.65,0.22-1.01
	c0.14-0.36,0.29-0.72,0.29-0.86c0-0.14,0.14-0.36,0.14-0.44C253.09,335.39,252.94,334.89,252.8,334.89z M270.35,289.79
	c-0.54-6.46-3.02-11.91-7.85-17.08c-4.61-4.92-10-9.27-15.39-13.34c-4.64-3.5-6.84-5.94-5.8-9.35c0.75-2.47,2.89-3.46,5.69-3.46
	c4.95,0,11.94,3.1,16.87,6.54v-23.25c0,0-0.89,1.11-2.51,1.11c-0.43,0-0.91-0.08-1.44-0.28c-4.36-1.62-8-3.61-15.6-3.64
	c-0.04,0-0.09,0-0.14,0c-17.31,0-27.02,12.75-27.12,25.12c-0.08,8.79,2.49,15.17,9.63,21.46c5.43,4.78,11.49,9.24,15.26,12.78
	c2.71,2.54,4.52,6.18,3.2,9.31c-0.84,2.01-2.88,3.23-5.92,3.23c-4.87,0-12.31-3.1-21.61-11.06v26.25c0,0,0.96-0.87,2.47-0.87
	c0.58,0,1.23,0.13,1.95,0.48c4.31,2.12,11.52,5.44,18.92,5.53c0.2,0,0.41,0,0.6,0C261.48,319.25,271.72,306.08,270.35,289.79z
	 M317.56,340.17c-0.08-0.14-0.14-0.36-0.14-0.43l-0.14-0.14c-0.07,0,0-0.08,0-0.14c0.14-0.14,0.08-0.29-0.07-0.29
	c-0.14,0-0.14-0.07-0.14-0.14c0.08-0.14-0.22-0.58-0.5-0.58c-0.22-0.08-0.36-0.22-0.29-0.36l-0.14-0.22
	c-0.14-0.14-0.29-0.22-0.58-0.29c-0.29-0.08-0.5-0.14-0.58-0.22c-0.08-0.14-0.22-0.08-0.22,0.14c0,0.14-0.14,0.22-0.14,0.08
	c-0.08,0-0.14-0.08-0.22,0c-0.08,0-0.08,0,0-0.14c0.08-0.08,0.08-0.08,0-0.08c-0.08,0.08-0.22,0.08-0.22,0.08
	c-0.08,0-0.08,0.08-0.08,0.14c0,0,0,0.08-0.08,0c-0.08,0-0.58,0.44-0.65,0.58c0,0.08,0,0.08-0.08,0.08c0,0-0.08,0.08,0,0.08
	c0,0.08,0,0.14-0.08,0.14l-0.14,0.29c-0.08,0.14-0.14,0.29-0.14,0.36c-0.08,0-0.08,0.07-0.08,0.14c0.08,0,0,0.08-0.08,0.14
	c-0.29,0.08-0.36,0.58-0.65,1.66l-0.36,1.3c0,0.14-0.08,0.44-0.08,0.65c0,0.14,0,0.29-0.08,0.29c-0.08,0.08-0.08,0.08-0.08,0.14
	c0.08,0,0,0.22-0.08,0.44c-0.08,0.36-0.36,1.51-0.44,2.09c0,0.22-0.08,0.43-0.08,0.43l-0.08,0.29c0,0.14-0.08,0.29-0.14,0.36
	c-0.08,0.08-0.08,0.08,0,0.14c0.08,0,0,0.36-0.14,0.58c0.14,0,0.14,0,0.14,0.14c0,0.08-0.08,0.08-0.14,0.08c0,0-0.08,0.08,0,0.14
	c0,0.08,0,0.22-0.08,0.22c-0.08,0.08-0.14,0.22-0.14,0.29c0,0.07,0,0.08,0.08,0c0.08-0.08,0.08-0.08,0.08,0c0,0,0,0.08-0.08,0.08
	c-0.08,0.08-0.14,0.29-0.14,0.86c-0.08,0.14-0.08,0.36-0.08,0.43c-0.08,0.08-0.08,0.22-0.08,0.36c-0.08,0.14-0.08,0.36-0.08,0.44
	c-0.08,0.29-0.44,1.73-0.58,2.16c0,0.14-0.14,0.5-0.14,0.8c-0.22,0.8-0.22,0.94-0.5,1.88c-0.29,1.01-0.58,2.59-0.72,3.31
	c-0.08,0.65-0.14,0.65-0.29,1.44l-0.5,2.45c-0.29,1.44-0.44,2.02-0.58,2.67c-0.29,0.8-0.72,2.74-0.94,3.53
	c-0.08,0.36-0.22,1.01-0.36,1.44c-0.14,0.44-0.29,1.01-0.29,1.22c-0.08,0.29-0.22,0.65-0.22,0.79c-0.08,0.14-0.22,0.58-0.29,0.86
	l-0.22,0.72l-0.36,0.8c-0.08,0.36-0.22,0.65-0.22,0.72c-0.08,0.14-0.22,0.22-0.22,0c0.08,0,0-0.08,0-0.08c-0.07,0-0.07-0.08,0-0.14
	c0-0.08,0-0.14-0.07-0.14c-0.08,0-0.08,0-0.08-0.08c0.08-0.08-0.08-0.79-0.14-0.72c-0.08,0-0.08-0.08-0.08-0.22
	c0.08-0.14,0.08-0.22,0-0.22c-0.08,0-0.14,0-0.14-0.08c-0.08-0.08,0-0.08,0,0c0.14,0,0.14,0,0.14-0.14c0-0.14,0-0.22-0.08-0.22
	c0,0.08-0.08,0,0-0.08c0-0.14,0-0.29,0.08-0.5c0-0.22,0-0.29-0.14-0.44c-0.08,0-0.08-0.08,0-0.08c0.08,0,0.08-0.94,0-0.94
	c-0.08,0-0.08-0.08,0-0.08c0.08-0.08,0.08-0.14,0-0.14v-0.36c0.08-0.29,0.08-0.36-0.14-0.5v-0.08c0.14,0.14,0.14,0,0.14-0.14
	c-0.08-0.14-0.08-0.29,0-0.29v-0.36c0-0.5,0-0.72,0.08-1.01c0-0.29,0-0.29-0.14-0.22c-0.08,0-0.08,0,0.08-0.14
	c0.14-0.14,0.22-0.58,0.08-0.58v-0.36c0.14-0.58,0.22-4.18,0.14-4.32c-0.08-0.08-0.08-0.08,0-0.08c0.08,0,0.08-0.22,0.08-0.5
	c-0.08-0.29,0-0.8,0.08-1.16c0-0.36,0.08-1.01,0.08-1.59c-0.08-0.58-0.08-2.16-0.08-3.46c-0.08-1.3-0.08-2.45-0.14-2.52
	c0-0.08,0-0.22,0.08-0.29c0.08-0.07,0.08-0.44,0.14-0.72c0.07-0.29,0.07-0.72,0.14-0.94v-1.01c0-0.14,0.08-0.44,0.08-0.65
	c0.08-0.14,0.14-0.5,0.14-0.86c0-0.36,0-0.65,0.08-0.72c0.08-0.08,0.14-0.44,0.22-0.8c0.22-1.59,0.36-2.31,0.44-2.67
	c0.08-0.43,0.14-1.22,0.14-2.01v-0.86c-0.08-1.22,0-2.59,0.08-3.67c0.08-1.08,0.08-1.3,0-1.51c-0.08-0.08-0.14-0.22-0.14-0.36
	c0-0.14,0-0.43-0.08-0.65c-0.08-0.36-0.14-0.5-0.5-0.86c-0.65-0.58-0.86-0.79-1.51-0.94c-0.36-0.08-0.58-0.14-0.8-0.14
	c-0.14,0-0.36,0.08-0.58,0.08c-0.36,0.14-0.44,0.14-0.8,0.65c-0.22,0.29-0.36,0.65-0.36,1.01c0,0.22-0.08,0.72-0.14,1.16
	c-0.08,0.43-0.22,1.08-0.22,1.44c-0.08,0.36-0.29,1.08-0.44,1.59c-0.29,1.01-0.58,2.16-0.8,3.25c0,0.44-0.22,1.3-0.36,1.87
	c-0.14,0.65-0.29,1.8-0.44,2.45c-0.22,1.51-0.5,2.81-0.72,3.97c-0.22,0.94-0.36,1.22-0.65,3.1l-0.5,2.95
	c-0.44,2.67-0.58,3.25-0.65,4.03c-0.08,1.16-0.22,1.8-0.43,3.17c-0.22,1.73-0.29,2.45-0.36,4.83c0,2.67,0.14,5.04,0.5,6.78
	c0.29,1.22,0.65,2.59,0.72,2.67c0.08,0,0.08,0.08,0,0.14c0,0.08,0,0.14,0.08,0.14c0.08,0.08,0.08,0.14,0.08,0.22
	c0,0.08,0.08,0.14,0.08,0.22c0.08,0.08,0.14,0.14,0.08,0.14c0,0.08,0,0.14,0.08,0.22c0.08,0.08,0.14,0.29,0.22,0.44
	c0.08,0.22,0.14,0.36,0.14,0.29c0,0,0.08,0.08,0,0.14c0,0.14,0.36,0.72,0.36,0.8l0.14,0.14c0,0.08,0.08,0.14,0.08,0.22
	c0,0.08,0.86,1.01,1.22,1.22c0.36,0.29,0.58,0.44,0.8,0.44c0.08,0,0.22,0.08,0.29,0.14c0.07,0.07,0.14,0.08,0.14,0
	c0,0,0.14-0.08,0.22-0.08c0.14,0,0.22,0.08,0.14,0.08c-0.14,0.14-0.08,0.22,0.14,0.22s0.29-0.14,0.14-0.14
	c-0.08,0-0.08-0.08-0.08-0.08c0-0.08,0.72,0.08,0.72,0.14c0,0.07,0.07,0.08,0.36,0c0.65-0.08,1.08-0.14,1.22-0.29
	c0.14-0.08,0.29-0.14,0.36-0.14c0.14,0,0.58-0.29,0.58-0.36c0-0.08,0.08-0.14,0.14-0.14c0-0.08,0.36-0.08,0.43-0.08
	c0,0,0.08,0.08,0.08,0.14c0,0.08,0.08,0.08,0.22-0.08l0.14-0.14c0,0.08,0.14,0,0.22,0l0.58-0.22c0.22,0,0.36-0.08,0.36-0.08
	c0-0.08,0.22-0.14,0.5-0.14c0.58-0.08,1.01-0.36,1.51-0.86c0.44-0.44,1.15-1.37,1.15-1.52l0.36-0.5c0.14-0.22,0.29-0.5,0.36-0.58
	c0-0.08,0.08-0.22,0.14-0.29c0.08-0.14,0.14-0.22,0.14-0.29c0-0.22,0.14-0.72,0.22-0.8c0.08,0,0.08-0.08,0.08-0.14l0.14-0.29
	c0.22-0.22,0.44-0.94,0.44-1.22v-0.08c-0.08-0.08-0.08-0.08,0-0.08c0.14,0,0.14-0.08,0.08-0.14c0-0.08,0-0.14,0.08-0.14
	c0.08,0.08,0.14-0.08,0.14-0.36c0-0.14,0.08-0.36,0.14-0.5l0.14-0.5c-0.08,0,0-0.08,0-0.14c0.14-0.07,0.22-0.22,0.08-0.36
	c-0.08-0.08,0-0.22,0.08-0.22c0,0.08,0.08,0,0.14,0c0-0.08,0-0.08-0.08-0.08c0,0.08-0.08,0.08-0.08,0c0,0,0.08-0.08,0.14-0.08
	c0-0.08,0.08-0.08,0.08-0.14c0-0.07,0-0.08-0.08,0c-0.08,0-0.08,0,0-0.14c0-0.08,0.08-0.14,0-0.14c0-0.08,0.08-0.08,0.14-0.14
	c0.14,0,0.29-0.22,0.22-0.5c0-0.08,0.08-0.14,0.14-0.22c0.14-0.14,0.14-0.5,0.14-0.58c0.08,0,0-0.08,0.08-0.14
	c0.08-0.07,0.58-1.51,0.65-1.8l-0.08-0.36c0.14,0,0.14,0,0.14-0.08c-0.08-0.08,0-0.14,0.08-0.14v-0.08
	c-0.08-0.08-0.08-0.29,0.08-0.29l0.08-0.29c0.14-0.22,0.14-0.29,0-0.5c-0.08-0.29-0.08-0.36,0.08-0.5c0.08-0.14,0.08-0.14,0-0.14
	c-0.08,0-0.14,0-0.14-0.08c0-0.08,0.08-0.08,0.14-0.08c0.14,0,0.14,0,0.14-0.22c-0.08-0.14-0.08-0.22,0-0.29
	c0.14-0.08,0.22-0.5,0.08-0.5c-0.08,0-0.08-0.08,0.08-0.08c0.08-0.08,0.08-0.22,0.08-0.5c0-0.29,0-0.36,0.14-0.36l0.14-0.22
	l0.08-0.29c0.14-0.14,0.22-0.5,0.22-0.65v-0.08c-0.08,0-0.08-0.08,0-0.14c0.14-0.14,0.22-0.29,0.08-0.29c0,0-0.08-0.22-0.08-0.43
	c0-0.21,0.08-0.44,0.08-0.36c0.08,0,0.08,0,0.08-0.08c-0.08-0.08,0-0.22,0-0.29c0.08-0.08,0.08-0.08,0-0.14
	c-0.08,0,0-0.08,0.08-0.22c0.08-0.08,0.14-0.29,0.22-0.43c0-0.14,0-0.44,0.08-0.65c0-0.14,0.08-0.43,0-0.5c0-0.08,0-0.22,0.08-0.22
	c0.08,0,0.08-0.22,0.08-0.36c0.08-0.22,0.08-0.36,0.08-0.43c0.08-0.22,0.14-0.58,0.14-0.79v-0.08c-0.08-0.08-0.08-0.08,0-0.14
	c0.08-0.07,0.22-0.5,0.22-0.94l0.36-1.66c0.08-0.14,0.08-0.5,0.14-0.86c0-0.29,0.08-0.58,0.08-0.65c0.08,0,0.08-0.08,0.08-0.14
	c-0.08,0-0.08-0.08,0-0.14c0.08,0,0.08-0.08,0.08-0.22c0-0.08,0.08-0.14,0.14-0.22c0.08,0,0.14-0.36,0-0.36
	c-0.08-0.08,0-0.36,0.08-0.36c0.08,0,0.08-0.08,0.08-0.22c-0.08-0.08,0-0.36,0-0.58c0.08-0.14,0.14-0.36,0.08-0.36v0.08
	c0,0.08,0,0.08-0.08,0c-0.08-0.14-0.08-0.22,0.08-0.22c0.08,0.08,0.14,0,0.14-0.08c0.08,0,0-0.08-0.07-0.08
	c-0.08,0-0.08-0.08-0.08-0.08c0.08-0.08,0-0.14,0-0.14c-0.08-0.08-0.08-0.08,0-0.14l0.08-0.08c-0.08,0-0.08-0.07,0-0.07
	c0-0.08,0.07-0.14,0.07-0.22c0-0.08,0.08-0.29,0.14-0.36c0.14-0.14,0.22-0.36,0.22-0.43c0.08-0.14,0.08-0.14,0-0.14
	c-0.08,0.08-0.14,0-0.14,0c0-0.08,0.08-0.08,0.08-0.08c0.08,0,0.14-0.08,0.14-0.14l0.08-1.95c0.08-0.08,0-0.22,0-0.29
	c-0.08-0.08-0.08-0.08,0-0.08c0,0,0.08-0.14,0-0.36c0-0.22,0.08-0.5,0.08-0.65c0.08-0.14,0.08-0.43,0.08-0.65s0.08-0.36,0.14-0.44
	l0.14-0.5v-0.36c0-0.36,0-0.43,0.08-0.29c0.08,0,0.08,0,0-0.08l0.08-0.08c0.08-0.08,0.08-0.08,0-0.14c0-0.08-0.08-0.14,0-0.22
	c0,0,0-0.08-0.08-0.08l-0.08-0.08c0-0.08,0.08-0.08,0.14-0.08c0.07,0,0.08,0,0-0.08c-0.08-0.07-0.08-0.07,0-0.14
	c0.14-0.08,0.08-0.22,0-0.29c0.08,0,0.08,0,0.08-0.14v-0.31h-0.07c0.08-0.08,0.14-0.29,0.14-0.5c0-0.36,0-0.44-0.08-0.5
	c-0.14,0-0.14,0,0-0.14C317.7,340.96,317.7,340.46,317.56,340.17z M290.14,346.72v-0.65c0-0.86,0-1.08-0.08-1.37
	c-0.08-0.22-0.08-0.36-0.08-0.44c0.08,0,0.08-2.31,0-2.37c-0.08,0-0.08-0.08-0.08-0.22c0-0.08,0-0.14-0.08-0.22
	c-0.08,0-0.08-0.22-0.08-0.43c-0.08-0.36-0.14-0.72-0.22-0.72v0.08c0,0.08-0.08,0-0.08-0.22c-0.08-0.22-0.14-0.36-0.36-0.58
	c-0.29-0.29-0.29-0.36-0.29-0.72c-0.08-0.44-0.29-0.72-0.36-0.72c-0.08,0-0.08-0.08-0.08-0.14c0-0.07,0-0.08-0.14,0.08
	c-0.14,0.14-0.36,0.14-0.58-0.08c-0.22-0.14-0.22-0.14-0.14-0.29c0.08-0.14,0.08-0.14-0.08,0c-0.14,0.22-0.22,0.14-0.29-0.22
	c0-0.08,0-0.08-0.08-0.08c-0.08,0.08-0.08,0.08,0,0.14c0,0-0.08,0.08-0.08,0c-0.08,0-0.14-0.08-0.08-0.22c0-0.14,0-0.14-0.14,0.08
	c-0.08,0.08-0.14,0.14-0.22,0.08c0-0.08-0.08-0.14-0.08-0.22c0-0.08,0-0.08,0.08,0c0,0.08,0.14,0.08,0.14,0
	c0-0.08-0.14-0.22-0.29-0.29c-0.22-0.14-0.36-0.36-0.44-0.44c0-0.22-0.14-0.29-0.29-0.36c-0.08,0-0.22-0.08-0.22-0.08
	c0-0.08-0.08-0.08-0.22-0.14c-0.08,0-0.14-0.08-0.14-0.08c0-0.08-0.08-0.08-0.22-0.08s-0.29-0.08-0.43-0.14
	c-0.08-0.08-0.14-0.08-0.22-0.08c-0.08,0.08-0.14,0-0.29-0.08c-0.14-0.08-0.36-0.08-0.8-0.08c-0.36,0-0.65,0-0.72-0.08
	c-0.14-0.08-0.22-0.08-0.36,0c-0.36,0.08-0.86,0.08-1.08-0.08c-0.29-0.07-0.36-0.14-0.36,0c0,0.08-0.14,0.14-0.58,0.22
	c-0.22,0.08-0.58,0.22-0.86,0.36c-0.29,0.14-0.58,0.36-0.72,0.43c-0.14,0.08-0.44,0.36-0.65,0.5c-0.14,0.22-0.44,0.5-0.5,0.65
	l-0.65,0.8l-1.08,1.73c-0.08,0.08-0.94,1.3-1.01,1.51c-0.44,0.58-0.72,1.22-1.08,2.23c-0.5,1.08-0.65,1.51-1.22,2.67
	c-0.36,0.8-0.58,1.37-0.58,1.59c0,0.08,0,0.22-0.08,0.29c-0.08,0-0.14,0.22-0.22,0.44c0,0.22-0.22,0.8-0.36,1.37
	c-0.14,0.5-0.36,1.08-0.36,1.22c-0.08,0.22-0.08,0.36-0.08,0.36c-0.08,0.07-0.08,0.22-0.08,0.36l-0.22,0.58
	c0,0.22-0.08,0.43-0.08,0.58c-0.08,0.14-0.08,0.29-0.14,0.44c0,0.08,0,0.14,0.08,0.14c0.08,0,0.08,0,0,0.08
	c-0.14,0.08-0.14,0.22-0.14,0.36c0,0.14-0.08,0.29-0.08,0.29s-0.08,0.36-0.08,0.72c0,0.14-0.08,0.22-0.08,0.22
	c-0.08,0-0.14,0.43-0.14,0.65v0.08c0,0,0,0.08-0.08,0.08c-0.08,0-0.08,0.08-0.08,0.08c0.08,0.08,0,0.14,0,0.14
	c-0.08,0-0.08,0.22-0.08,0.43c0,0.22-0.08,0.36-0.08,0.36s-0.08,0.14-0.08,0.29c0,0.14-0.08,0.5-0.14,0.86
	c-0.36,1.44-0.5,2.23-0.65,3.1c0,0.5-0.14,1.01-0.14,1.16c-0.08,0.08-0.08,0.29-0.08,0.36c0,0.14-0.08,0.5-0.14,0.8
	c-0.29,1.22-0.44,2.59-0.44,5.48c0,4.9,0,5.04,0.08,5.98c0.14,0.8,0.58,2.81,0.8,3.17c0.08,0.08,0.08,0.22,0.08,0.29
	c0,0,0.08,0.29,0.22,0.5c0.14,0.22,0.22,0.5,0.22,0.58c0,0.08,0.29,0.58,0.43,0.72l0.14,0.29c0.22,0.36,1.51,1.95,2.02,2.45
	c0.29,0.29,0.58,0.5,0.8,0.58l0.29,0.14c0.08,0.08,0.58,0.22,0.72,0.22c0.1,0.03,0.17,0.03,0.24,0.11c0,0.08,0.79,0,0.94-0.08
	c0-0.08,0.08-0.08,0.08,0c0.08,0.08,0.65-0.08,0.86-0.22c0.14-0.08,0.22-0.14,0.29-0.14c0,0.08-0.08,0.08-0.14,0.14
	c-0.14,0-0.22,0.08-0.22,0.08c0,0.08,0.86,0,1.3,0c0.14-0.08,0.36-0.08,0.58-0.08c0.14,0,0.29-0.08,0.36-0.08l0.22-0.14
	c0.44,0,1.51-0.43,1.51-0.65c0.08,0,0.14-0.08,0.14-0.08c0.08,0.08,0.14,0,0.29-0.08c0.08-0.08,0.29-0.14,0.44-0.22
	c0.36-0.14,1.16-0.8,1.37-1.08c0.08-0.14,0.22-0.22,0.22-0.22c0.08,0,0.14-0.08,0.29-0.22c0.08-0.08,0.22-0.14,0.29-0.14l0.29-0.29
	c0.14-0.14,0.29-0.29,0.36-0.29c0,0,0.14-0.08,0.22-0.22c0.08-0.14,0.22-0.29,0.29-0.36c0.14-0.14,0.86-1.44,0.94-1.59v-0.14
	c0.08,0,0.22-0.58,0.29-0.65c0,0,0-0.14,0.08-0.22c0.14-0.14,0.14-0.29,0.14-0.5c-0.08-0.22,0-0.36,0.08-0.58
	c0.08-0.22,0.14-0.36,0.08-0.36c0-0.08,0.08-0.14,0.08-0.29c0.08-0.14,0.14-0.5,0.22-0.8c0.08-0.22,0.14-0.58,0.22-0.72
	c0.08-0.08,0.14-0.29,0.14-0.36c0-0.08,0.08-0.22,0.14-0.36c0.14-0.08,0.22-0.29,0.29-0.36c0-0.08,0.08-0.22,0.14-0.36
	c0.14-0.14,0.58-0.79,0.58-0.86l0.22-0.22c0.08-0.08,0.14-0.22,0.14-0.36c0-0.08,0.08-0.22,0.14-0.29c0.07-0.08,0.07-0.29,0.07-0.44
	c0-0.08,0.08-0.22,0.08-0.22c0.08,0,0.22-0.5,0.14-0.65c0,0,0.08-0.22,0.08-0.36c0.08-0.14,0.14-0.36,0.08-0.43
	c0,0,0.08-0.14,0.08-0.29c0.08-0.08,0.14-0.22,0.14-0.29c0-0.08,0-0.14,0.08-0.22c0.08-0.08,0.29-0.86,0.36-1.51
	c0.08-0.36,0.14-0.8,0.22-0.94c0-0.22,0.08-0.58,0.14-0.94c0-0.36,0-0.72,0.08-0.86c0.08-0.14,0.08-0.22,0.08-0.29
	c-0.08,0,0-0.08,0-0.22v-0.44c-0.08-0.08-0.08-0.22-0.08-0.29c0.08-0.08,0.08-0.22,0.08-0.36c0-0.14,0-0.5,0.08-0.79
	c0.08-0.36,0.08-0.65,0.08-0.65c-0.08-0.08-0.08-0.14,0-0.22l0.14-0.8c0-0.86,0.08-1.01,0.22-1.16c0.08,0,0.08-0.14,0.14-0.22
	c0-0.14,0-0.36,0.08-0.58c0.08-0.29,0.08-0.8,0.08-1.16v-0.29c-0.08-0.08-0.08-0.22,0-0.36c0.08-0.29,0.08-0.72,0.08-0.94v-0.22
	c-0.08-0.14,0-0.65-0.08-1.87l-0.08-1.73c0-0.5,0-0.8,0.08-0.86c0.08-0.14,0.08-0.29,0-0.79c-0.08-0.36-0.08-0.5-0.08-0.65
	c0-0.14,0-0.29,0.08-0.5l0.14-0.44c-0.08,0,0-0.14,0.08-0.22c0.08-0.22,0.08-0.29,0-0.44C290.14,347.29,290.14,347.08,290.14,346.72
	z M285.01,345.95v0.36c0,0.36,0,4.33-0.08,4.61v0.36c0,0.08,0,0.44-0.08,0.79c0,0.29-0.14,1.08-0.14,1.66
	c-0.08,0.58-0.14,1.16-0.22,1.22c-0.22,2.09-0.36,2.73-0.44,2.89c-0.08,0.08-0.14,0.58-0.14,0.79c0,0,0,0.08-0.08,0.08
	c-0.08,0-0.14,0.5-0.29,1.37c-0.08,0.36-0.14,0.72-0.22,0.72c0,0.08-0.08,0.29-0.08,0.65c-0.14,0.43-0.29,1.15-0.5,2.16l-0.29,1.37
	c0,0.08-0.08,0.14-0.08,0.22c-0.08,0-0.08,0.29-0.14,0.5c0,0.29-0.08,0.5-0.08,0.58c-0.08,0-0.08,0.22-0.14,0.43
	c-0.08,0.22-0.14,0.58-0.14,0.86c-0.08,0.29-0.08,0.5-0.08,0.5s0,0.08-0.08,0.08c0,0.08-0.08,0.22-0.08,0.36
	c-0.08,0.14-0.08,0.44-0.14,0.5c0,0.14-0.14,0.5-0.22,0.79c0,0.29-0.14,0.72-0.22,0.94c-0.36,1.3-0.58,1.87-0.79,2.59
	c-0.14,0.5-0.36,1.16-0.43,1.51c-0.22,0.58-1.01,3.1-1.3,3.82l-0.29,0.72c-0.08,0.22-0.23,0.37-0.23,0.37
	c-0.14,0-0.43-0.29-0.43-0.36c0-0.08-0.08-0.14-0.14-0.22l-0.22-0.58c-0.08-0.29-0.14-0.5-0.29-0.58c-0.08-0.08-0.14-0.14-0.14-0.22
	c0-0.08-0.08-0.29-0.22-0.5c-0.22-0.43-0.29-0.72-0.29-1.01v-0.14c0.08-0.08,0.08-0.22,0-0.22c0-0.08-0.08-0.22-0.08-0.36
	c-0.08-0.14-0.14-0.29-0.14-0.36c-0.08-0.08-0.36-1.16-0.36-1.22c0.08,0,0-0.08,0-0.14c-0.08-0.14-0.08-0.44-0.14-0.79
	c0-0.29,0-0.8-0.08-1.08c-0.08-0.94,0-2.59,0.14-2.81c0-0.08,0-0.44,0.08-0.86c0-0.5,0.08-1.01,0.08-1.15
	c0.29-0.86,0.29-2.02,0.29-3.39c0-0.58,0.08-1.01,0.14-1.08c0-0.08,0-0.58,0.08-1.22c0-0.58,0-1.16,0.08-1.16
	c0.08-0.08,0.14-0.58,0.14-0.94c0-0.08,0.08-0.22,0.14-0.29c0-0.14,0.08-0.36,0.14-0.65c0-0.22,0.08-0.44,0.08-0.5
	c0.08,0,0.08-0.36,0.08-0.65c0.08-0.44,0.14-0.72,0.22-0.94c0.14-0.22,0.22-0.8,0.22-1.01v-0.14c0-0.08,0.08-0.22,0.14-0.29
	c0.08-0.14,0.14-0.43,0.22-0.72c0.08-0.22,0.22-0.5,0.22-0.65c0.08-0.08,0.14-0.22,0.14-0.29c0-0.08,0.08-0.29,0.14-0.36
	c0.08-0.14,0.14-0.43,0.14-0.58c0.08-0.22,0.08-0.44,0.14-0.5c0.08-0.07,0.08-0.22,0.08-0.36l0.08-0.36c0.22-0.43,0.43-1.22,0.5-1.8
	c0.14-1.01,0.44-1.87,0.58-2.02l0.14-0.22c0-0.14,0.14-0.5,0.22-0.79c0.14-0.22,0.29-0.58,0.36-0.72l0.43-1.16
	c0.08-0.14,0.22-0.5,0.36-0.72c0.08-0.29,0.29-0.72,0.44-1.01c0.08-0.22,0.22-0.5,0.22-0.58c0.08-0.08,0.14-0.14,0.29-0.22
	c0.29-0.08,0.5-0.29,0.8-0.65c0.36-0.43,0-0.36,0.36-0.5c0.22,0.14,0.36,0.5,0.36,0.72c-0.07,0.08,0,0.14,0,0.14
	c0.08,0,0.22,0.14,0.29,0.36l0.14,0.29c0.08,0,0.36,0.5,0.36,0.65c0,0.08,0.08,0.14,0.14,0.22c0,0.08,0.08,0.22,0.08,0.36
	c0,0.14,0.08,0.44,0.08,0.65c0.08,0.58,0.14,1.3,0.14,1.66V345.95z"/>
</svg>
