<?xml version="1.0" encoding="utf-8"?>
<!-- Generator: Adobe Illustrator 24.1.2, SVG Export Plug-In . SVG Version: 6.00 Build 0)  -->
<svg version="1.1" id="Capa_1" xmlns="http://www.w3.org/2000/svg" xmlns:xlink="http://www.w3.org/1999/xlink" x="0px" y="0px"
	 viewBox="0 0 600 600" style="enable-background:new 0 0 600 600;" xml:space="preserve">
<style type="text/css">
	.st0{fill:#FFFFFF;}
	.st1{fill:#7F7F7F;}
</style>
<rect class="st0" width="600" height="600"/>
<path class="st1" d="M511.76,360.97c0-3.16,2.38-5.54,5.43-5.54c3.02,0,5.4,2.38,5.4,5.54c0,3.21-2.38,5.58-5.4,5.58
	C514.14,366.55,511.76,364.18,511.76,360.97z M517.19,367.66c3.64,0,6.74-2.82,6.74-6.69c0-3.83-3.1-6.65-6.74-6.65
	c-3.67,0-6.78,2.82-6.78,6.65C510.41,364.83,513.52,367.66,517.19,367.66z M515.78,361.5h1.34l2.03,3.34h1.31l-2.19-3.39
	c1.13-0.14,1.99-0.74,1.99-2.12c0-1.52-0.9-2.19-2.72-2.19h-2.93v7.69h1.17V361.5z M515.78,360.51v-2.38h1.59
	c0.81,0,1.68,0.18,1.68,1.13c0,1.18-0.88,1.25-1.87,1.25H515.78z"/>
<g>
	<g>
		<g>
			<path class="st1" d="M216.42,234.26c-4.78,1.54-9.09,4.22-11.54,5.67c-7.5-6.35-17.95-8.11-25.63-8.11
				c-22.46,0-74.65,13.81-89.99,55.82c-5.96,16.33,0.79,30.88,16.82,30.92c6.93,0.02,18.3-3.75,29.19-17.16
				c1.43-1.76,0.13-3.12-1.37-1.4c-12.16,13.94-25.62,18.34-33.49,14.81c-19.06-8.56-0.91-40.49,16.91-55.46
				c16.85-14.15,43.23-25.93,63.23-25.22c9.44,0.33,17.51,3.57,21.56,7.57c-13.34,8.87-33.07,25.48-54.93,60.96
				c-29.5,47.89-39.83,56.03-54.23,56.43c-12.01,0.33-15.87-5.47-15.87-11.04c0-5.36,2.7-9.41,7.21-11.41
				c0.75-0.33,0.97-0.87,0.82-1.32c-0.19-0.57-0.98-0.5-1.66-0.25c-5.19,1.97-8.82,6.52-9.3,11.8
				c-0.99,10.87,8.88,15.24,15.61,15.62c7.3,0.42,36.08,4.65,68.87-55.95c16.2-29.93,32.09-51.56,45.27-62.65
				c1.77,2.65,2.42,5.95,2.15,10.72c-0.8,14.2-9.48,31.8-19.6,37.85c-2.2-2.04-4.87-3.05-7.06-3.14c-4.18-0.17-7.01,1.46-7.29,3.74
				c-0.24,1.94,0.86,4.62,6.48,4.56c2.79-0.04,6.62-1.56,6.62-1.56c0.6,2.4,0.71,4.73,0.22,11.07
				c-1.53,19.77-21.95,52.07-34.77,52.07c-6.64,0-7.4-5.49-7.1-9.22c0.45-5.55,5.29-20.87,25.29-25.26
				c0.81-0.14,2.08-2.23-2.75-1.14c-6.71,1.51-14.04,5.61-20.12,13.2c-6.93,8.65-9.87,24.7,5.13,25.74
				c17.03,1.18,40.39-19.01,42.85-46.23c1.16-12.82-3.23-19.34-5.28-21.6c3.37-1.45,23.4-8.95,25.45-30.48
				c0.97-10.11-2.56-17.42-7.37-22.52c3.49-2.61,7.81-4.77,10.93-5.9C219.56,235.12,218.17,233.69,216.42,234.26z M178.22,295.33
				c-2.73-0.07-3.51-1.15-3.25-2.25c0.2-0.83,1.34-1.58,3.42-1.58c2.19,0,4.23,0.48,5.75,2.31
				C182.46,294.68,179.99,295.38,178.22,295.33z"/>
			<g>
				<path class="st1" d="M425.83,292.09c3.12-0.01,6.16-2.54,6.75-5.65c0.61-3.11-1.43-5.62-4.56-5.61
					c-3.12,0.01-6.16,2.54-6.76,5.65C420.66,289.59,422.7,292.1,425.83,292.09z"/>
				<path class="st1" d="M505,297.11c0.52,0,0.37,0.1,0.87-0.05c-0.53,2.61-2.61,4.84-4.6,6.24c-0.69,0.48-0.4,1.15,0.95,0.77
					c2.39-0.67,8.59-4.71,9.1-11.63c0.22-2.9-1.99-5.36-4.53-5.36c-2.81,0-5.29,2.04-5.84,4.84
					C500.42,294.71,502.19,297.12,505,297.11z"/>
			</g>
			<path class="st1" d="M279.58,338.76c-3.17,4.73-7.04,10.37-10.57,13.7c-3.32,3.14-6.37,4.37-7.92,3.39
				c-0.94-0.58-1.77-3.26,1.25-8.13l56.67-92.07h-10.12l-49.25,80.2c-3.75,5.5-8.95,13.24-12.68,16.75
				c-3.32,3.13-6.49,4.43-7.91,3.39c-0.96-0.7-1.54-3.55,1.28-8.26l56.66-92.07h-10.12l-48.66,79.23
				c-2.85,4.64-9.5,14.66-12.66,17.72c-3,2.91-5.59,4.49-7.45,3.42c-1.25-0.72-1.27-3.33,1.66-8.5l24.02-39.91h-9.11l-4.6,7.61
				c2.52-5.41-0.33-7.94-3.88-7.84c-4.8,0.14-17.84,6.17-28.63,23.38c-9.65,15.4-6.79,28.19,0.82,28.19
				c6.67,0,12.88-9.73,16.75-16.09c-2.61,6.11-3.12,11.23-0.99,14.09c2.18,2.92,6.24,2.03,8.96,0.51c4.25-2.38,9.6-9,12.52-14.59
				c-2.85,6.56-2.62,12.03-0.62,14.38c2.55,2.99,6.98,1.57,9.99-0.24c4.05-2.43,7.26-5.56,12.68-14.14
				c-2.85,6.56-2.75,11.91-0.64,14.38c2.57,2.99,7.01,1.57,10.02-0.24c3.67-2.2,6.87-5.34,10.88-11.37
				c-1.28,7.99,1.93,13.29,6.53,13.29c6.9,0,13.36-10.26,16.89-15.96c-2.32,6.1-3.29,11.15-1.13,14.05c2.03,2.74,5.64,2.19,8.27,0.5
				c4.53-2.89,13.99-14.74,18.52-21.04c0.46-0.65,1.31-1.58-0.55,1.18l-12.99,20.15h9.41c0,0,12.9-20.24,15.53-23.78
				c10.04-13.59,21.26-25.08,23.62-22.95c1.12,1.02-0.14,3.12-1.75,5.85c-6.49,10.93-11.99,15.93-15.72,24.21
				c-3.12,6.94-2.72,13.31-0.6,16.16c2.22,2.98,6.45,1.82,9.59-0.04c4.23-2.49,7.49-6.15,12.92-14.32c-2.56,6.09-3.24,11.83-1,14.41
				c2.34,2.71,6.72,1.73,9.88-0.1c4.46-2.59,9.77-7.3,14.37-14.35c-2.37,5.63-3.17,11.23-0.79,14.14c2.65,3.25,6.34,2.03,9.22,0.31
				c6.2-3.71,11.79-11.32,19.21-20.93c0.53-0.64,1.21-1.41-0.57,1.2l-12.96,20.15h9.41c0,0,12.77-19.95,15.34-23.53
				c7.84-10.89,20.9-25.21,23.43-23.27c1.4,1.07-0.05,3.67-1.36,5.92c-6.4,10.99-12.08,15.9-15.73,24.21
				c-3.54,8.06-2.63,13.16-0.5,16.01c2.22,2.98,6.77,1.88,9.53,0.35c3.98-2.19,7.88-5.92,12.94-14.21c-0.31,2.44-0.5,4.28-0.09,7.03
				c0.69,4.71,3.02,8.78,8.59,8.78c6.43,0,13.3-5.83,15.45-7.96c0.54,4.69,3.46,7.95,9.1,7.95c14.37,0,23.5-13.29,24.58-26.57
				c0.58-7.13-1.04-20.22,0.04-23.23c0.89-2.47,5.52-5.48,7.89-9.32c2.25-3.65,1.92-6.4,0.68-6.93c-1.9-0.8-4.6,1.57-6.37,4.52
				c-2.97,4.94-5.45,9.94-5.74,10.71c-0.92,2.42-17.5,25.64-20.24,28.19c-1.43-0.47-4.14-0.14-6.51,2.72
				c-3.37,4.08-3.37,7.33-3.45,8.62c-3.02,3.21-11.02,9.52-15.38,8.48c-8.29-1.97,3.04-19.23,3.79-20.36
				c0.55-0.83,2.26-1.04,3.07-1.17c11.35-1.81,18.11-7.96,20.85-13.05c3.01-5.58,2.58-11.72-0.74-13.29
				c-2.76-1.3-7.59-0.28-11.38,2.03c-6.2,3.77-12.91,10.04-18.04,17.99c-3.41,5.29-3.73,7.64-6.72,11.77
				c-2.25,3.09-5.55,8.59-9.34,12.25c-3,2.9-6.97,4.73-8.47,3.53c-1.13-0.92-0.83-4.04,1.6-8.15c4.83-8.17,12.53-16.66,16.28-25.26
				c3.48-7.97,3.21-13.22-0.29-14.81c-6.75-3.08-17.81,10.08-24.9,19.21c0.03-0.07,11.88-19.32,11.88-19.32h-9l-6.95,11.53
				c-3.31,5.48-20.73,27.9-25.01,31.98c-2.71,2.6-6.93,5.87-9.07,4.7c-0.98-0.54-1.4-3.4,1.42-8.11l24.91-40.11h-10.15l-18.48,29.8
				c-3.32,4.78-7.63,10.34-12.18,14.44c-3.85,3.47-8,5.42-9.38,3.78c-1.02-1.21,0.05-4.29,2.12-7.92l28.94-46.63H418
				c12.92-0.11,17.66-3.42,19.87-6.18c0.68-0.85,0.4-1.93-1.04-0.76c-2.43,2-8.4,4.23-17.52,4.23H402l15.9-25.44h-9.75l-16.06,25.44
				h-9.24c-4.27,0-8.45,0.51-11.11,2.21c-1.98,1.27-0.84,1.67,0.78,1.13c1.63-0.55,4.97-0.61,7.33-0.61h10.4l-24.6,38.68
				c-3.81,5.58-7.21,9.86-10.24,12.77c-2.71,2.6-5.79,4.36-7.37,3.5c-1.27-0.7-1.21-3.49,1.61-8.2c4.88-8.14,12.42-16.4,16.32-25.26
				c3.35-7.58,3.52-13.14-0.18-14.85c-6.49-2.98-17.18,9.32-25.03,19.25c0.04-0.07,11.97-19.38,11.97-19.38h-9.02l-6.87,11.38
				c-3.31,5.81-20.65,28.45-26.68,34.05c-2.38,2.21-4.85,3.99-6.4,2.82c-1.15-0.88-0.26-4.62,1.92-8.13l24.27-40.12h-9.1l-4.6,7.59
				c2.51-5.41,0.11-7.94-3.87-7.85c-4.79,0.11-18.05,6.46-28.65,23.36C282.99,331.92,281.22,334.72,279.58,338.76z M488.98,309.92
				c2.98,0-0.11,6.95-2.77,11.06c-2,3.11-5.47,9.86-12.38,10.81c-2.01,0.27-2.74,0.51-2.74,0.51
				C473.12,328.64,483.78,309.92,488.98,309.92z M205.11,352.45c-2.73,3.16-5.66,4.44-7.1,3.74c-1.53-0.73-3.82-4.62,9.04-24.29
				c14.9-22.79,18.84-22.76,20.45-21.77c1.56,0.97,0.5,5.7-2.05,10.79c-2.68,5.37-4.06,7.98-8.59,14.99
				C213.62,340.91,210.45,346.27,205.11,352.45z M291.36,352.45c-2.8,3.1-5.61,4.41-6.9,3.73c-1.89-0.99-4.02-4.6,8.83-24.28
				c14.91-22.79,18.85-22.76,20.45-21.77c1.56,0.97,0.53,5.35-1.79,10.17c-2.59,5.41-4.39,8.55-8.86,15.61
				C300.92,339.38,294.55,348.91,291.36,352.45z M487.85,356.16c-3.53-0.8-4.08-4.67-4.13-6.35c1.35-0.61,3.15-1.29,5.15-3.01
				c3.12-2.68,4.93-6.09,4.08-8.89c3.27-3.4,15.74-21.24,18.15-24.97C511.07,326.77,498.52,358.57,487.85,356.16z"/>
		</g>
	</g>
	<path class="st1" d="M92.88,313.28c-2.65-3.04-5.83-8-4.89-17.18c1.42-13.62,12.27-26.72,20.35-34.86
		c13.71-13.8,41.88-26.82,65.72-28.53c12.23-0.87,22.98,1.43,30.6,7.97c-4.7-3.45-9.48-5.65-14.68-6.75
		c-13.71-2.9-28.21,0.98-31.3,1.8c-25.23,6.68-41.95,18.45-48.12,24.98c-2.75,2.91-20.6,19.21-21.86,37.09
		c-0.76,10.77,4.38,15.03,5.83,16.33c2.25,2.02,0.88,1.38-1.07-0.31"/>
	<path class="st1" d="M217.48,234.5c-4.98,1.42-11.17,5.95-11.17,5.95l-0.3-0.26c5.13-3.59,9.3-5.23,11.42-5.69H217.48z"/>
	<path class="st1" d="M89.98,360.58c3.17-0.27,15.45,0.57,26.83-12c23.19-25.61,29.47-45.85,49.24-70.22
		c12.52-15.44,22.26-26.93,36.7-36.26l0.29,0.23c-17.94,12.14-29.51,28.69-36.45,37.51c-16.2,20.59-31.09,50.96-48.09,68.89
		C109.71,358,100.02,361.35,89.98,360.58"/>
	<path class="st1" d="M229.13,309.45c-1.33-2.55-6.81-1.63-13.54,3.41c-6.22,4.69-12.13,11.91-15.4,17.09
		c-6.32,10.05-10.79,23.78-4,27.91c-5.05-1.68-6.71-13.74,3.37-28.79c4.09-6.1,9.98-12.6,15.43-16.5c7.99-5.71,13-5.79,14.06-3.16
		L229.13,309.45z"/>
	<path class="st1" d="M201.37,356.18c2.97-1.34,10.28-10.33,16.95-21.48c7.31-12.21,10.09-17.94,10.37-22.89
		c0.65,4.55-2.74,11.59-5.45,16.56C221.64,331.28,208.41,353.38,201.37,356.18"/>
	<path class="st1" d="M281.86,336.58c1.06-2.39,2.55-4.96,4.26-7.51c5.61-8.36,12.99-15.39,19.9-19.27
		c5.19-2.92,8.66-2.35,9.37-0.61c-0.74-1.19-3.68-1.84-7.9,0.52c-7.23,4.05-16.48,13.48-20.75,20.24
		c-6.32,10.05-10.79,23.78-3.99,27.91c-3.81-1.27-5.84-8.39-2.2-18.3l-0.06,0.08c-1.83,2.92-6.53,8.55-7.98,10.26
		c-4.22,4.94-7.39,7.07-9.92,6.99c5.89-1.44,13.71-11.86,17.97-18.42C280.55,338.47,281.86,336.55,281.86,336.58z"/>
	<polyline class="st1" points="317.82,313.89 316.94,316.78 321.42,309.21 326.44,309.25 326.84,308.49 320.91,308.49 
		317.82,313.89 	"/>
	<path class="st1" d="M362.79,314.64c-2.46,6.13-12.72,18.47-15.54,23.64c-2.31,4.23-4.94,12.35-2.72,17.85
		c-0.69-2.16-0.94-9.52,2.93-16.46c4.32-7.73,15.48-20.08,16.2-26.22C363.55,313.07,363.32,313.52,362.79,314.64"/>
	<path class="st1" d="M492.67,309.27c-3.31-2.13-8.6,0.61-10.89,2.24c-3.81,2.71-10.88,8.39-16.7,17.63
		c-10.11,16.06-5.35,25.86-4.12,27.34c-3.34-3.4-3.28-12.11-1.9-16.84c0.11-0.33,0.09-0.62,0.09-0.62s-5.31,7.38-8.71,11.34
		c-4.23,4.92-7.9,7.35-10.08,7.21c6.44-0.66,15.95-15.61,19.28-20.29c0,0,0.25-0.32,0.32-0.5c1.21-3.06,2.88-6.12,4.07-7.91
		c7.23-10.89,15.04-16.94,20.71-19.59C488.18,307.69,491.99,307.9,492.67,309.27"/>
	<path class="st1" d="M472.39,332.87c1.58-0.29,4.34-0.26,8.19-2.59c3.11-1.87,7.39-8.43,9.04-11.76c1.32-2.65,2.36-5.09,2.29-7.96
		c0.6,1.2,0.63,4.4-1.21,8.38c-1.2,2.59-5.98,9.07-9.31,11.24c-4.93,3.23-8.78,2.82-10.56,3.1
		C470.38,333.35,471.6,333.1,472.39,332.87"/>
	<path class="st1" d="M509.68,288.71c-0.27-0.58-1.02-1.07-2.1-1.16c-2.03-0.17-3.45,0.7-4.65,2.52c-0.92,1.4-1.21,4.13,0.69,5.37
		c-0.98-1.15-1.55-3.16-0.3-5.1c1.08-1.69,2.43-2.48,4.01-2.49C507.79,287.85,509.07,288.02,509.68,288.71"/>
	<path class="st1" d="M507.28,296.79c-0.81,2.94-3.32,5.71-4.84,6.37c1.2-0.12,3.82-2.17,5.31-6.43L507.28,296.79"/>
	<path class="st1" d="M379.5,299.19c-5.06,0-6.82,1.38-6.82,1.38c3.49-1.13,6.91-0.9,6.91-0.9h14.15l15.86-25.04h4.48l0.48-0.72
		c-0.04,0.05-5.61,0.02-5.63,0c-0.01-0.01-13.84,21.88-15.99,25.28L379.5,299.19"/>
	<path class="st1" d="M401.31,299.19h19.61c1.13,0,11.2-0.21,16.22-4.82c-1.91,3.01-10.44,5.32-16.27,5.32l-19.89-0.03
		L401.31,299.19"/>
	<path class="st1" d="M84.35,335.53c0,0-0.21-0.04-1.02,0.26c-1.03,0.37-7.67,3.42-8.51,10.92c-0.82,7.39,3.59,11.58,6.05,12.78
		c-4.01-3.08-5.61-6.8-5.68-10.21c-0.07-3.65,0.83-9.73,8.01-13.17C84.1,335.69,84.35,335.53,84.35,335.53"/>
	<path class="st1" d="M186.13,294.24c0,0-3.87,1.9-7.13,1.57c3.39-0.04,6.52-1.66,6.52-1.66s-0.41-0.84-1.86-1.82
		C185.04,292.66,186.13,294.24,186.13,294.24"/>
	<path class="st1" d="M183.97,291.12c-2.12-0.8-3.42-1.15-6.13-0.94c-1.72,0.12-3.57,1.12-4.09,2.5c-0.46,1.2,0.03,2.57,0.81,3.31
		c-1.13-0.59-1.67-2.19-1.31-3.38c0.43-1.41,2.13-2.65,4.72-2.82C178.58,289.75,181.57,289.4,183.97,291.12"/>
	<path class="st1" d="M143.89,359.29c-5.21-6.3-1.27-16.09,1.92-20.66c2.55-3.62,6.39-7.34,10.06-9.73
		c5.35-3.51,10.53-4.82,13.08-4.89c-8.28,1.12-15.03,6.41-18.53,9.93c-3.38,3.4-8.25,9.75-8.71,17.34
		c-0.22,4.01,1.76,7.69,3.31,8.95L143.89,359.29z"/>
	<path class="st1" d="M293.38,256.5c-0.54,0-6.33-0.03-6.34,0l-45.82,74.64c0,0-0.83,1.65-2.13,3.56
		c-3.6,5.27-14.48,22.38-19.81,22.19c2.19,0.53,5.4-2.05,9.63-6.99c2.13-2.48,9.65-13.12,9.65-13.12s0.97-1.52,1.64-2.47
		c0.46-0.67,47.35-77.1,47.35-77.1l5.3-0.01L293.38,256.5"/>
	<path class="st1" d="M315.48,256.5c-0.54,0-6.31-0.03-6.33,0l-45.81,74.64c0,0-0.84,1.65-2.14,3.56
		c-3.61,5.27-13.93,21.54-20.74,22.34c2.07,0.53,6.17-2.48,10.36-7.43c5.12-6.08,9.57-12.37,9.57-12.37s1.26-1.98,1.92-2.93
		c0.46-0.67,47.34-77.1,47.34-77.1l5.31-0.01L315.48,256.5"/>
	<path class="st1" d="M372.43,333c0,0,9.06-13.94,20.44-31.88h-1.11c-10.75,16.94-19.05,29.86-19.02,29.85l-3.52,5.22
		c-3.34,4.68-13.14,20.03-19.58,20.7c2.18,0.14,5.86-2.29,10.09-7.21c3.4-3.97,9.29-12.04,9.29-12.04S372.23,333.24,372.43,333"/>
	<path class="st1" d="M369.44,338.53c-3.64,6.7-4.63,11.56-4.4,14.42c0.2,2.56,1.16,4.04,2.4,4.74c-0.6-0.46-2.16-2.44-1.6-7.04
		c0.37-3.23,1.31-6.03,1.99-7.85C368.62,340.69,369.03,339.57,369.44,338.53"/>
	<path class="st1" d="M393.23,338.43c-3.64,6.71-4.74,11.57-4.51,14.43c0.19,2.56,1.27,4.05,2.51,4.74
		c-0.59-0.46-2.45-2.45-1.91-7.05c0.39-3.23,1.51-6.03,2.2-7.84C392.3,340.6,392.81,339.47,393.23,338.43"/>
	<path class="st1" d="M339.1,316.39l4.77-7.67l5.77,0.05l-0.45,0.6l-4.81,0.07l-5.99,9.54c-0.13,0.19-0.55,0.89-0.69,1.07
		c-1.46,2.63-13.69,18.34-14.71,19.54c-1.82,2.13-6.02,7.57-8.72,10.46c-4.74,5.07-7.07,6.86-9.36,6.64
		c2.18-0.46,3.12-1.35,4.78-2.78c4.7-4.1,11.33-12.67,14.25-16.4c1.79-2.26,8.89-11.03,14.28-19.69
		C338.37,317.54,338.83,316.8,339.1,316.39"/>
	<polygon class="st1" points="315.31,356.54 331.12,332.13 326.42,340.71 316.23,356.54 	"/>
	<path class="st1" d="M481.28,349.6c-6.37,5.77-10.73,7.89-14.67,7.7c5.15-0.34,10.53-4.49,14.76-8.71
		C481.36,348.9,481.29,349.21,481.28,349.6"/>
	<path class="st1" d="M492,337.78c-0.08-0.12,0.49-0.73,0.49-0.73c0.49-0.5,10.46-13.37,18.4-25.27c1.96-2.92,3.11-5.57,3.71-6.82
		c0.91-1.76,2.18-4.04,2.62-4.76c1.93-3.2,3.67-5.6,5.25-6.27c0.62-0.27,0.9-0.19,1.22,0.19c0.15-0.55-0.43-0.83-1.01-0.73
		c-2.41,0.41-5.56,5.39-8.5,11.32c0,0-0.5,1.17-2.52,4.9c-3.12,4.78-15.12,21.91-19.58,27.16c0,0-0.56,0.72-0.64,0.67
		c-0.23-0.11-0.48-0.21-0.75-0.26c-4.76-0.95-8.95,6.93-8.69,10.12c0.47-2.3,2.78-7.99,6.47-9.29c1.93-0.68,3.12-0.18,3.61,0.62
		c0.36,0.58,0.34,0.18,0.22-0.19C492.22,338.21,492.1,337.93,492,337.78z"/>
	<path class="st1" d="M343.31,325.42c3.33-4.12,7.8-9.06,11.36-12.28c6.21-5.61,7.45-4.51,9.08-4.59c1.64,0.1,2.1,0.67,2.64,1.26
		c-0.3-1.28-2.16-1.87-3.15-1.77c-0.98,0.1-2.44-0.78-8.34,4.13c-3.13,2.62-7.22,7.26-10.16,10.75
		C342.13,326.05,338.14,331.8,343.31,325.42z"/>
	<path class="st1" d="M135.67,300.64c0.25-0.26,0.14-1.24-0.57-0.65c-0.7,0.58-18.84,22.41-35.4,15.4c0.59,0.59,2.58,1.31,4.46,1.59
		c14.2,2.18,29.08-14.44,29.97-15.46C135.12,300.37,135.66,299.69,135.67,300.64"/>
	<path class="st1" d="M205.31,243.25c2.08,2.18,5.43,11.82-0.83,27.61c-5.83,14.68-13.92,19.84-17.46,22.33
		c0.18,0.2,0.11,0.15,0.19,0.27c2.93-1.84,11.43-5.43,18.1-20.87c7.04-16.32,2.23-28.36,0.2-29.54L205.31,243.25"/>
	<path class="st1" d="M231.03,314.64l-0.49,2.24l4.69-7.77l4.36-0.01c0-0.03,0.41-0.75,0.41-0.75c0,0.04-5.27,0.01-5.29,0.04
		L231.03,314.64"/>
	<path class="st1" d="M215.48,342.63c-1.71,3.81-2.64,7.52-2.41,10.38c0.2,2.56,1.17,3.99,2.4,4.68c-0.59-0.46-2.45-2.44-1.91-7.04
		c0.38-3.23,1.41-6.03,2.09-7.85C216.45,340.69,215.48,342.63,215.48,342.63z"/>
	<path class="st1" d="M236.22,342.63c-1.7,3.81-2.64,7.52-2.41,10.38c0.2,2.56,1.17,3.99,2.41,4.68c-0.6-0.46-2.45-2.44-1.91-7.04
		c0.39-3.23,1.41-6.03,2.1-7.85C237.2,340.69,236.22,342.63,236.22,342.63z"/>
	<path class="st1" d="M258.43,342.43c-1.7,3.81-2.64,7.52-2.4,10.38c0.2,2.56,1.16,3.99,2.4,4.69c-0.6-0.46-2.44-2.44-1.91-7.05
		c0.39-3.23,1.41-6.03,2.09-7.84C259.41,340.5,258.43,342.43,258.43,342.43z"/>
	<path class="st1" d="M302.46,342.43c-1.69,3.81-2.64,7.52-2.41,10.38c0.2,2.56,1.18,3.99,2.41,4.69c-0.6-0.46-2.45-2.44-1.9-7.05
		c0.38-3.23,1.4-6.03,2.08-7.84C303.44,340.5,302.46,342.43,302.46,342.43z"/>
	<path class="st1" d="M287.68,356.18c2.96-1.34,10.28-10.33,16.94-21.48c7.33-12.21,10.1-17.94,10.39-22.89
		c0.64,4.55-2.75,11.59-5.46,16.56C307.96,331.28,294.72,353.38,287.68,356.18"/>
	<polygon class="st1" points="406.28,356.54 422.08,332.13 417.36,340.71 407.19,356.54 	"/>
	<path class="st1" d="M392.57,336.85l17.45-28.13c0.02,0.01,6.36,0,6.36,0c0.02,0-0.47,0.72-0.48,0.72l-5.38,0
		c0.38-0.38-12.21,19.64-16.99,27.35l-0.53,0.77c0,0-0.64,0.67-1.57,1.96c-1.96,2.7-4.59,5.99-7.49,8.94
		c-4.87,4.97-9.16,8.01-11.08,7.89c7.4-2.43,15.78-14.03,19.44-19.12C392.41,337.11,392.57,336.85,392.57,336.85"/>
	<path class="st1" d="M453.43,314.64c-2.47,6.13-12.71,18.47-15.54,23.64c-2.31,4.23-4.93,12.35-2.71,17.85
		c-0.7-2.16-0.94-9.52,2.93-16.46c4.31-7.73,15.47-20.08,16.19-26.22C454.19,313.07,453.95,313.52,453.43,314.64"/>
	<path class="st1" d="M430.11,316.39l4.76-7.67l5.79,0.05l-0.46,0.69l-4.82-0.02l-5.99,9.54c-0.13,0.19-0.54,0.89-0.7,1.07
		c-1.44,2.63-13.67,18.34-14.71,19.54c-1.82,2.13-6.02,7.57-8.73,10.46c-4.74,5.07-7.08,6.86-9.36,6.64
		c2.18-0.46,3.12-1.35,4.78-2.78c4.7-4.1,11.33-12.67,14.24-16.4c1.79-2.26,9.67-12.6,14.29-19.69
		C429.38,317.55,429.84,316.8,430.11,316.39"/>
	<path class="st1" d="M433.93,325.42c3.33-4.12,7.71-9.06,11.27-12.28c6.21-5.61,7.61-4.41,9.24-4.49c1.65,0.1,2.11,0.68,2.65,1.25
		c-0.3-1.28-2.16-1.87-3.15-1.77c-0.98,0.1-2.6-0.88-8.5,4.03c-3.13,2.62-7.13,7.26-10.07,10.75
		C432.75,326.05,428.78,331.8,433.93,325.42z"/>
	<path class="st1" d="M488.99,357.14c5.53,0.66,11.1-4.59,17.2-17.9c4.5-9.83,6.49-21.04,6.49-25.47c0-0.74,0.04-1.66,0.19,0
		c0.48,5.18-1.88,18.39-5.71,26.46C503.69,347.5,496.75,359.41,488.99,357.14"/>
	<path class="st1" d="M430.3,282c0-0.05-0.71-0.56-1.57-0.65c-1.93-0.19-4,0.91-5.11,2.5c-1.28,1.82-1.57,4.77-0.2,6.4
		c-0.52-1.14-1.14-3.14,0.64-6.06c0.94-1.57,3.14-2.92,5.06-2.53C429.95,281.83,430.3,282,430.3,282z"/>
	<path class="st1" d="M186.08,295.87c0.54,1.79,3.09,14.69-4.29,31.21c-7.39,16.58-20.34,32.91-30.36,34
		c3.21,0.27,17.08-3.92,30.78-31.25c8.21-16.4,5.3-31.02,4.15-34.1C186.11,295.87,186.3,295.72,186.08,295.87"/>
</g>
</svg>
