<?xml version="1.0" encoding="utf-8"?>
<!-- Generator: Adobe Illustrator 24.1.2, SVG Export Plug-In . SVG Version: 6.00 Build 0)  -->
<svg version="1.1" id="Capa_1" xmlns="http://www.w3.org/2000/svg" xmlns:xlink="http://www.w3.org/1999/xlink" x="0px" y="0px"
	 viewBox="0 0 600 600" style="enable-background:new 0 0 600 600;" xml:space="preserve">
<style type="text/css">
	.st0{fill:#FFFFFF;}
	.st1{fill:#7F7F7F;}
</style>
<rect class="st0" width="600" height="600"/>
<g>
	<path class="st1" d="M425.34,242.93l-1.19,0.4c-1.89,0.6-2.49,1.39-4.08,5.27c0,0-21.66,54.04-22,54.84
		c-0.4,0.96-0.77,1.89-1.54,2.51c-0.68,0.56-1.3,0.71-2.28,0.71c-0.53,0-3.44-0.01-4.23,0c-0.78,0.01-1.58-0.26-2.14-0.76
		c-0.58-0.51-0.91-1.08-1.48-2.47c-0.43-1.05-20.8-53.58-21.75-55.94c-0.99-2.45-1.65-3.4-2.91-4.06c-0.37-0.2-0.68-0.29-1.12-0.46
		c-0.68-0.26-1.13-0.66-1.13-1.49c0-1.19,0.59-1.74,2.28-1.74l23.35,0.01c1.69,0,2.29,0.5,2.29,1.69c0,1.09-0.4,1.39-2.09,1.79
		c-1.99,0.6-2.78,1.29-2.78,2.78c0,0.6,0.21,1.43,0.5,2.19c0.29,0.76,12.59,33.34,12.59,33.34s12.03-31.98,12.55-33.37
		c0.36-0.95,0.5-1.59,0.5-2.19c0-1.49-0.8-2.18-2.78-2.78c-1.69-0.4-2.09-0.69-2.09-1.79c0-1.19,0.6-1.69,2.29-1.69l18.04,0
		c1.69,0,2.29,0.5,2.29,1.69C426.44,242.23,426.14,242.73,425.34,242.93L425.34,242.93z M220.04,302.41
		c8.74,0.13,14.9-4.58,19.5-14.01c0.88-1.8,1.5-2.4,3.14-2.12c1.67,0.29,1.96,1.49,1.6,3.34c-0.31,1.58-1.6,8.74-2.06,11.15
		c-0.19,0.99-0.58,2.14-1.84,3.11c-3.73,2.88-12.67,5.02-21.74,5.02c-23.61,0-37.7-13.31-37.7-35.61
		c0-21.14,14.69-35.81,35.77-35.81c8.09,0,15.53,1.51,21.39,3.99c2.56,1.08,3.17,1.86,3.45,4.67c0.29,2.85,1.06,9.48,1.29,11.7
		c0.2,1.95-0.67,2.71-1.99,2.84c-1.34,0.13-1.88-0.63-2.77-2.62c-3.61-8.09-10.74-14.22-19.8-14.25
		c-12.49-0.04-19.37,11.4-19.61,27.79C198.38,291.75,206.46,302.21,220.04,302.41L220.04,302.41z M477.52,306.68l-23.64,0.02
		c-1.69,0-2.29-0.5-2.29-1.69c0-1.09,0.4-1.39,2.09-1.79c1.99-0.6,2.75-1.29,2.78-2.78c0.01-0.6-0.26-1.59-0.5-2.19
		c-0.07-0.19-1.37-3.69-3.12-8.45l-21.97,0c-1.37,3.73-2.38,6.48-2.56,6.98c-0.5,1.38-0.81,2.63-0.8,3.35
		c0.03,1.69,0.89,2.49,3.58,3.08c1.69,0.4,2.09,0.7,2.09,1.79c0,1.19-0.6,1.69-2.19,1.69l-20.03-0.02c-1.59,0-2.2-0.46-2.2-1.65
		c0-0.79,0.41-1.33,1.11-1.53c0,0,1.13-0.29,1.83-0.61c1.67-0.76,2.72-1.84,3.51-3.76c1.21-2.89,22.11-54.94,22.82-56.73
		c0.26-0.67,0.76-1.51,1.2-1.87c0.58-0.48,1.3-0.76,1.94-0.76c0.66,0,5.79,0,6.56,0c1.38,0,1.92,0.23,2.5,0.69
		c0.67,0.54,1.11,1.4,1.37,2.02c0.25,0.6,20.13,51.35,21.85,55.35c1.59,3.71,2.19,4.67,4.07,5.27c0,0,0.56,0.17,1.19,0.4
		c0.78,0.27,1.09,0.7,1.09,1.49C479.81,306.18,479.21,306.68,477.52,306.68L477.52,306.68z M441.84,260.01
		c0,0-4.94,13.32-8.49,23.21l16.93,0.05C446.64,273.37,441.84,260.01,441.84,260.01L441.84,260.01z M318.3,243.24
		c-3.28,0.8-4.28,2.68-4.28,7.76v44.44c0,5.17,1,6.96,4.28,7.76c1.69,0.4,2.09,0.8,2.09,1.89c0,1.19-0.7,1.59-2.29,1.59h-24.65
		c-1.59,0-2.29-0.4-2.29-1.69c0-0.99,0.4-1.39,2.09-1.79c3.28-0.8,4.27-2.58,4.27-7.76v-19.58h-25.25v19.58
		c0,5.17,0.99,6.96,4.27,7.76c1.69,0.4,2.09,0.8,2.09,1.89c0,1.19-0.7,1.59-2.29,1.59h-24.66c-1.59,0-2.28-0.5-2.29-1.69
		c0-0.99,0.4-1.39,2.09-1.79c3.28-0.8,4.27-2.58,4.27-7.76V251c0-5.07-1-6.96-4.27-7.76c-1.69-0.4-2.09-0.69-2.09-1.79
		c0-1.19,0.67-1.7,2.29-1.69h24.66c1.59,0,2.33,0.52,2.29,1.69c-0.04,1.09-0.4,1.39-2.09,1.79c-3.28,0.8-4.27,2.68-4.27,7.76v18.29
		h25.25V251c0-5.07-0.99-6.96-4.27-7.76c-1.69-0.4-2.09-0.69-2.09-1.79c0-1.19,0.7-1.69,2.29-1.69h24.65c1.59,0,2.29,0.5,2.29,1.69
		C320.39,242.55,319.99,242.85,318.3,243.24L318.3,243.24z M349.68,251v44.44c0,5.17,0.99,6.96,4.27,7.76
		c1.69,0.4,2.09,0.72,2.09,1.89c0,1.19-0.81,1.59-2.29,1.59H329.1c-1.59,0-2.29-0.43-2.29-1.69c0-1.04,0.4-1.39,2.09-1.79
		c3.28-0.8,4.28-2.58,4.28-7.76V251c0-5.07-1-6.96-4.28-7.76c-1.69-0.4-2.09-0.69-2.09-1.79c0-1.19,0.69-1.69,2.29-1.69h23.63
		c1.59,0,2.27,0.42,2.27,1.67c0,1.15-0.49,1.25-2.11,1.92C350.42,244.39,349.68,245.92,349.68,251L349.68,251z M524.54,259.79
		c-1.21,0.03-1.79-0.57-2.68-2.3c-1.08-2.1-2.03-3.82-2.97-5.23c-3.47-5.53-7.74-8.22-13.04-8.22c-5.54,0-9.13,3.22-9.13,8.2
		c0,4.1,2.25,6.95,8,9.58c3.38,1.55,6.01,2.82,10.25,4.62c11,4.65,15.53,10.88,15.53,20.61c0,12.67-10.11,21.62-25.34,21.62
		c-8.88,0-14.33-1.86-18.11-3.76c-2.23-1.12-3.52-2.33-4.16-5.77c-0.41-2.2-1.72-10.12-2.17-12.57c-0.33-1.82,0.77-2.68,2.15-2.73
		c1.09-0.04,1.93,0.7,2.58,1.87c0.54,0.97,2.23,4.1,3.08,5.57c3.59,6.22,9.37,10.43,16.57,10.5c5.75,0.06,10.31-3.36,10.48-9.06
		c0.15-5.01-2.81-8.35-7.91-10.54c-3.14-1.35-6.94-3.2-12.02-5.36c-9-3.82-13.79-10.54-13.79-18.62c0-12.33,9.87-20.62,24.57-20.62
		c4.83,0,10.32,0.99,14.69,2.69c1.7,0.66,2.65,1.32,3.36,2.14c0.88,0.95,1.43,2.33,1.57,4.63c0.1,1.77,0.57,8.6,0.66,10.45
		C526.81,258.92,525.94,259.75,524.54,259.79L524.54,259.79z M126.58,271.74l11.61,11.61c0.18,0.18,0.16,0.49,0.01,0.64
		c-1.6,1.6-3.49,3.28-5.69,4.98c-0.1,0.07-0.39,0.15-0.59-0.06c-1.68-1.68-11.25-11.3-11.25-11.3c-0.17-0.17-0.16-0.47,0.01-0.64
		l5.23-5.23C126.12,271.53,126.42,271.58,126.58,271.74z M127.7,253.57l-29.78,29.78c-0.18,0.18-0.16,0.49-0.01,0.64
		c1.6,1.6,3.49,3.28,5.69,4.98c0.1,0.07,0.38,0.15,0.59-0.06c0,0,19.98-20.16,22.45-22.12c3.46-2.63,6.91-3.75,9.98-3.75
		c6.05,0,10.56,4.47,10.56,10.52c0,13.87-29.08,28.12-29.13,28.12c-0.04,0-29.13-14.25-29.13-28.12c0-6.1,4.57-10.52,10.71-10.52
		c3.03,0,6.42,1.16,9.83,3.75c0.22,0.17,0.45,0.14,0.62-0.02c0.1-0.1,5.43-5.43,5.43-5.43c0.23-0.23,0.13-0.53,0-0.66
		c-2.83-2.83-7-7-7.11-7.12c-0.79-0.79-1.21-1.59-1.21-2.37c0-0.82,0.69-1.56,1.97-1.56c0,0,17.05,0,17.78,0
		c1.28,0,1.97,0.74,1.97,1.56C128.91,251.98,128.49,252.78,127.7,253.57z M146.26,257.37c-2.2-1.14-4.63-1.97-4.63-4.16
		c0-1.45,2.27-3.94,3.94-5.67c0.22-0.22,0.21-0.51,0.02-0.7l-4.97-4.97c-0.46-0.47-0.79-0.6-1.34-0.6h-11.91
		c-2.59,0-3.22-0.27-5.24-2.3l-3.1-3.1c-0.27-0.27-0.67-0.41-0.99-0.41c-0.32,0-0.71,0.14-0.98,0.41l-3.1,3.1
		c-2.02,2.02-2.65,2.3-5.24,2.3H96.82c-0.55,0-0.88,0.13-1.34,0.6l-4.96,4.97c-0.18,0.18-0.2,0.47,0.02,0.7
		c1.67,1.73,3.94,4.22,3.94,5.67c0,2.19-2.44,3.02-4.64,4.16h0.01c-5.49,2.76-9.34,8.2-9.34,16.2c0,5.4,2.32,10.45,5.8,14.97
		c1.12,1.51,1.76,2.58,1.76,3.4c0,0.94-0.77,2-2.08,3.34l-2.3,2.3c-0.18,0.18-0.18,0.48,0,0.66l5.26,5.26
		c0.18,0.18,0.48,0.18,0.66,0l2.94-2.94c1-1,2.03-1.35,3.08-1.35c1.25,0,2.3,0.42,4.22,1.73c6.16,4.08,16.9,10,18.21,10l0,0h0h0h0
		c0.39-0.01,6.26-2.09,18.21-10h0.02c1.92-1.32,2.97-1.73,4.22-1.73c1.05,0,2.08,0.36,3.08,1.35l2.94,2.94
		c0.18,0.18,0.48,0.18,0.66,0l5.26-5.26c0.18-0.18,0.18-0.48,0-0.66l-2.3-2.3c-1.31-1.34-2.07-2.4-2.08-3.34
		c0-0.82,0.63-1.89,1.76-3.4c3.3-4.42,5.78-9.74,5.78-14.97C155.59,265.56,151.75,260.13,146.26,257.37L146.26,257.37 M88.38,375.57
		h-7.87v-24.83h6.82c5.03,0,7.52,3.23,7.52,6.6c0,1.79-0.83,3.94-2.84,5.12c2.97,1.49,3.98,4.02,3.98,6.29
		C95.99,372.99,92.75,375.57,88.38,375.57z M86.89,352.92h-3.8v8.7h5.73c1.75,0,3.32-1.75,3.37-4.15
		C92.23,354.59,90.26,352.92,86.89,352.92z M87.24,363.77h-4.15v9.53h4.9c3.02,0,5.33-1.79,5.33-4.76
		C93.32,365.87,91.14,363.77,87.24,363.77z M101.84,375.57v-24.83h2.58v22.52h12.64v2.32H101.84z M121.35,375.57v-24.83h13.95v2.32
		h-11.37v8.83h8.75v2.27h-8.75v9.1h11.94v2.32H121.35z M158.6,375.57v-5.16l-15.17-15.17v20.33h-2.58v-24.83h1.57l16.18,16.18
		v-16.18h2.58v24.83H158.6z M176.1,375.57h-7.74v-24.83h7.52c7.13,0,13.95,4.5,13.95,12.5C189.83,371.33,183.19,375.57,176.1,375.57
		z M176.01,353.06h-5.07v20.11h5.29c6.03,0,10.93-3.58,10.93-9.93C187.17,356.95,182.05,353.06,176.01,353.06z M195.46,375.57
		v-24.83h13.95v2.32h-11.37v8.83h8.75v2.27h-8.75v9.1h11.94v2.32H195.46z M222.71,375.57h-7.74v-24.83h7.52
		c7.13,0,13.95,4.5,13.95,12.5C236.43,371.33,229.79,375.57,222.71,375.57z M222.62,353.06h-5.07v20.11h5.29
		c6.03,0,10.93-3.58,10.93-9.93C233.77,356.95,228.65,353.06,222.62,353.06z M256.05,376.27c-2.32,0-4.68-0.7-6.69-1.79v-2.84
		c1.09,0.66,4.07,2.32,6.69,2.32c2.89,0,5.16-1.53,5.16-4.11c0-2.01-2.05-3.63-3.58-4.63l-3.8-2.49c-1.88-1.23-4.15-3.06-4.15-6.21
		c0-4.24,3.1-6.47,7.04-6.47c2.62,0,4.55,0.87,5.69,1.44v2.62c-1.36-0.79-3.5-1.79-5.69-1.79c-2.71,0-4.5,1.66-4.5,3.98
		c0,2.06,1.75,3.33,3.45,4.46l3.63,2.41c1.84,1.23,4.55,3.15,4.55,6.6C263.83,373.78,260.55,376.27,256.05,376.27z M286.77,375.4
		c-1.4,0.48-3.32,0.92-5.86,0.92c-6.91,0-13.21-5.42-13.21-13.12c0-7.7,6.43-13.21,13.21-13.21c4.02,0,7.3,1.49,8.48,2.1l-0.04,2.67
		c-1.22-0.66-4.37-2.49-8.39-2.49c-5.51,0-10.58,4.59-10.58,10.89c0,6.21,4.81,10.89,10.58,10.89c4.24,0,7.22-1.75,8.53-2.49v2.58
		C289,374.39,288.12,374.92,286.77,375.4z M306.44,376.32c-7.7,0-13.42-5.9-13.42-13.16c0-7.26,5.73-13.16,13.42-13.16
		s13.42,5.9,13.42,13.16C319.86,370.41,314.13,376.32,306.44,376.32z M306.44,352.27c-6.17,0-10.76,4.9-10.76,10.89
		c0,5.99,4.59,10.89,10.76,10.89s10.76-4.9,10.76-10.89C317.19,357.16,312.6,352.27,306.44,352.27z M332.91,353.01v22.56h-2.58
		v-22.56h-8.74v-2.27h20.07v2.27H332.91z M362.38,375.4c-1.4,0.48-3.32,0.92-5.86,0.92c-6.91,0-13.2-5.42-13.2-13.12
		c0-7.7,6.43-13.21,13.2-13.21c4.02,0,7.3,1.49,8.48,2.1l-0.04,2.67c-1.23-0.66-4.37-2.49-8.4-2.49c-5.51,0-10.58,4.59-10.58,10.89
		c0,6.21,4.81,10.89,10.58,10.89c4.24,0,7.21-1.75,8.53-2.49v2.58C364.61,374.39,363.74,374.92,362.38,375.4z M386.92,375.57v-11.41
		h-13.64v11.41h-2.58v-24.83h2.58v11.15h13.64v-11.15h2.58v24.83H386.92z M413.75,368.97l1.93-5.51l-4.55-12.72h2.58l3.28,9.88
		l3.28-9.88h2.58l-4.55,12.72l1.92,5.51l1.14,3.5l1.14-3.5l6.3-18.23h2.75l-8.83,24.83h-2.49l-3.23-9.18l-3.24,9.18h-2.49
		l-8.83-24.83h2.76l6.3,18.23l1.09,3.5L413.75,368.97z M452.09,375.57v-11.41h-13.64v11.41h-2.58v-24.83h2.58v11.15h13.64v-11.15
		h2.58v24.83H452.09z M461.95,375.57v-24.83h2.58v24.83H461.95z M477.18,376.27c-2.32,0-4.68-0.7-6.69-1.79v-2.84
		c1.09,0.66,4.07,2.32,6.69,2.32c2.89,0,5.16-1.53,5.16-4.11c0-2.01-2.06-3.63-3.59-4.63l-3.8-2.49c-1.88-1.23-4.15-3.06-4.15-6.21
		c0-4.24,3.1-6.47,7.04-6.47c2.62,0,4.55,0.87,5.69,1.44v2.62c-1.36-0.79-3.5-1.79-5.69-1.79c-2.71,0-4.5,1.66-4.5,3.98
		c0,2.06,1.75,3.33,3.45,4.46l3.63,2.41c1.84,1.23,4.55,3.15,4.55,6.6C484.96,373.78,481.68,376.27,477.18,376.27z M496.09,362.72
		l-3.15,3.15v9.71h-2.58v-24.83h2.58v11.98l11.89-11.98h3.24l-10.14,10.14l7.43,11.02c1.05,1.53,1.79,2.23,2.71,2.23
		c0.74,0,1.35-0.44,1.66-0.74l0.96,0.96c-0.3,0.48-1.22,1.84-3.28,1.84c-2.05,0-3.15-1.36-4.37-3.15L496.09,362.72z M522.46,365.12
		v10.45h-2.58v-10.45l-8.09-14.38h2.93l6.43,12.15l6.43-12.15h2.93L522.46,365.12z"/>
</g>
</svg>
