<?xml version="1.0" encoding="utf-8"?>
<!-- Generator: Adobe Illustrator 24.1.2, SVG Export Plug-In . SVG Version: 6.00 Build 0)  -->
<svg version="1.1" id="Capa_1" xmlns="http://www.w3.org/2000/svg" xmlns:xlink="http://www.w3.org/1999/xlink" x="0px" y="0px"
	 viewBox="0 0 600 600" style="enable-background:new 0 0 600 600;" xml:space="preserve">
<style type="text/css">
	.st0{fill:#FFFFFF;}
	.st1{fill:#7F7F7F;}
</style>
<rect class="st0" width="600" height="600"/>
<g>
	<g>
		<g>
			<path class="st1" d="M217.37,418.82c6.44,6.01,14.5,7.6,21.16,7.6c7.75,0,14.73-2.57,14.73-2.57v-14.77c0,0-6.82,3.44-13.13,3.44
				c-4.03-0.01-8.28-1.07-11.59-4.72c-3.31-3.66-5.89-10.25-5.89-21.65c0-11.3,2.52-17.86,5.75-21.51c3.23-3.64,7.29-4.69,11.26-4.7
				c7.24,0,13.32,3.6,13.32,3.6v-14.2c0,0-6.97-2.3-14.68-2.3c-6.59,0-14.6,1.49-21.01,7.26c-6.39,5.76-10.85,15.68-10.85,31.67
				C206.43,402.55,210.93,412.82,217.37,418.82z"/>
			<path class="st1" d="M350.87,275.34h-15.76v2.34c-2.99-2.26-6.69-3.41-10.93-3.37c-6.14-0.05-11.16,2.9-14.11,8.01
				c-3.01,5.11-4.45,12.4-4.45,21.99c0.01,9.58,1.45,16.9,4.45,22.03c2.94,5.15,8.05,8.07,14.21,8.07c4.19,0,7.88-1.19,10.82-3.46
				v2.43h15.76L350.87,275.34L350.87,275.34z M333.75,318.09c-1.36,2.86-2.61,3.66-5.23,3.74c-2.65-0.08-3.87-0.86-5.24-3.69
				c-1.22-2.83-1.78-7.5-1.76-13.83c-0.02-6.34,0.5-11,1.72-13.79c1.34-2.79,2.54-3.54,5.29-3.63c2.73,0.09,3.94,0.84,5.29,3.63
				c1.21,2.79,1.72,7.44,1.71,13.79C335.52,310.58,334.98,315.26,333.75,318.09z"/>
			<polygon class="st1" points="166.87,333.98 183.72,333.98 183.72,250.02 166.87,252.1 166.87,295.23 154.95,295.23 
				154.95,253.56 138.11,255.63 138.11,295.23 130.51,295.23 133.69,308.73 138.11,308.73 138.11,333.98 154.94,333.98 
				154.94,308.73 166.87,308.73 			"/>
			<path class="st1" d="M240.26,333.36v-58.02H224.5v2.34c-3-2.26-6.68-3.41-10.92-3.37c-6.15-0.05-11.17,2.9-14.12,8.01
				c-3,5.11-4.44,12.4-4.46,21.99c0.01,9.58,1.45,16.9,4.46,22.03c2.94,5.15,8.07,8.07,14.22,8.07c4.18,0,7.88-1.19,10.82-3.46v2.43
				h15.76V333.36z M223.14,318.09c-1.37,2.86-2.62,3.66-5.24,3.74c-2.64-0.08-3.88-0.86-5.24-3.69c-1.22-2.83-1.78-7.5-1.76-13.83
				c-0.01-6.34,0.51-11,1.72-13.79c1.34-2.79,2.54-3.54,5.29-3.63c2.75,0.09,3.94,0.84,5.28,3.63c1.22,2.79,1.73,7.44,1.71,13.79
				C224.92,310.58,224.37,315.26,223.14,318.09z"/>
			<path class="st1" d="M447.27,277.68c-3-2.26-6.68-3.41-10.92-3.37c-6.16-0.05-11.17,2.9-14.12,8.01
				c-3.01,5.11-4.45,12.4-4.46,21.99c0.01,9.58,1.45,16.9,4.46,22.03c2.95,5.15,8.04,8.07,14.22,8.07c4.16,0,7.87-1.19,10.81-3.46
				v2.43h15.77v-58.02h-15.77v2.32H447.27z M445.91,318.09c-1.35,2.86-2.61,3.66-5.24,3.74c-2.64-0.08-3.87-0.86-5.23-3.69
				c-1.24-2.83-1.77-7.5-1.77-13.83c0-6.34,0.51-11,1.71-13.79c1.34-2.79,2.55-3.54,5.29-3.63c2.74,0.09,3.94,0.84,5.29,3.63
				c1.21,2.79,1.72,7.44,1.71,13.79C447.68,310.58,447.15,315.26,445.91,318.09z"/>
			<path class="st1" d="M406.52,289.98c0-4.77-1.15-8.58-3.89-11.28c-2.75-2.7-6.98-3.96-12.11-3.94
				c-4.63-0.03-8.61,1.15-11.74,3.37v-2.8h-15.63v58.03h15.76v-39.72c0-2.55,0.65-4.28,1.61-5.25s2.21-1.49,4.45-1.51
				c2.87,0.05,3.78,0.55,4.58,1.57c0.8,1.08,1.22,3.27,1.2,6.45v38.46h15.77V289.98z"/>
			<polygon class="st1" points="298.94,275.34 282.57,275.34 275.58,305.61 268.44,275.34 252.09,275.34 269.26,333.37 
				281.76,333.37 			"/>
			<polygon class="st1" points="264.93,425.16 280.92,425.16 280.92,346.71 264.93,348.97 			"/>
			<path class="st1" d="M363.4,423.7c2.61,1.59,5.91,2.43,9.58,2.43c6.42,0,11.84-2.96,14.67-8.04c2.92-5.08,4.08-12.11,4.09-21.29
				c-0.01-9.19-1.14-16.17-4.07-21.25c-2.84-5.08-8.3-8.09-14.73-8.08c-3.59,0-6.92,0.8-9.55,2.38v-23.13l-15.97,2.25v76.19h15.97
				v-1.46H363.4z M364.53,384.21c0.71-1.28,1.34-2,2.02-2.4c0.66-0.39,1.5-0.58,2.96-0.63c1.39,0.05,2.25,0.24,2.9,0.62
				c0.67,0.39,1.31,1.09,2.04,2.4c1.23,2.42,1.85,6.9,1.84,13.1c0,6.21-0.61,10.71-1.86,13.19c-0.73,1.28-1.35,1.99-2.02,2.37
				c-0.65,0.39-1.49,0.57-2.93,0.63c-1.43-0.06-2.27-0.24-2.93-0.64c-0.67-0.4-1.31-1.11-2.03-2.43c-1.24-2.45-1.85-7.02-1.84-13.12
				C362.67,391.19,363.27,386.68,364.53,384.21z"/>
			<path class="st1" d="M298.36,421.56c3.97,3.27,8.06,4.57,15.32,4.58c7.29,0,12.36-1.28,16.38-4.56c4.01-3.3,5.1-8.13,5.09-14.12
				v-39.11H320v35.39c0,3.85,0.04,10.14-5.77,10.14c-5.82,0-5.78-6.29-5.78-10.14c0-2.81,0-35.39,0-35.39h-15.58v39.11
				C292.86,413.43,294.38,418.26,298.36,421.56z"/>
			<path class="st1" d="M439.46,338.62c-0.11,0-0.21,0.01-0.32,0.01h-0.09c-2.84,0-5.69-0.77-8.35-2.07
				c0.17,2.66,0.27,5.34,0.27,8.04c0.1,70.36-57.13,127.46-127.83,127.57c-70.7,0.09-128.1-56.84-128.2-127.19
				c0-2.26,0.06-4.51,0.17-6.74h-8.64c-0.12,2.5-0.18,5.01-0.16,7.54c0.54,75.09,62.18,135.53,137.66,134.98
				c75.46-0.56,136.19-61.88,135.65-136.97C439.6,342.07,439.54,340.34,439.46,338.62z"/>
			<path class="st1" d="M292.39,217.87c0.01,0.1,0.02,0.2,0.04,0.3c0.25,1.68,1.1,3.34,1.1,3.8c0,0.34,0.05,0.62,0.1,0.97
				c0.15,1.19-0.22,3.36,0.31,5.01c0.08,0.25,0.24,0.35,0.26,0.62c0.01,0.25,0.29,1.21,0.28,1.46c-0.02,0.26-0.01,0.49-0.03,0.75
				c-0.04,0.47,0.05,1.45-0.01,1.78c-0.42,2.45,0.24,7.37,0.27,7.61c0.16,1.3,1.74,5.97,1.63,6.93c-0.04,0.28-0.08,0.53-0.12,0.81
				c-0.17,1-2.09,2.85-3.37,3.97c-0.21,0.19-1.31,1.11-1.28,1.41c0.01,0.11-0.09,0.31-0.09,0.45c0.03,0.63,0.21,0.93,1.04,1.11
				c0.41,0.09,1.01-0.16,1.39,0.03c0.26,0.13-0.12,0.55-0.18,0.69c-0.05,0.12-0.83,1.38-1.25,1.75c-0.22,0.22-0.34,0.62-0.56,0.86
				c-0.78,0.77-1.68,2.34-0.82,2.77c0.66,0.34,1.78,0.42,2.31,0.37c0.25-0.02,0.51-0.02,0.76-0.08c0.28-0.05,1.18-0.8,2.49-0.42
				c0.05,1.26-0.13,2.55-0.53,3.56c-0.17,0.45-0.46,1.63-0.56,2.13c-0.16,0.78,0.97,0.87,1.6,0.87c0.17,0,0.93,0.02,1.06-0.09
				c0.3-0.24,0.73-0.21,0.9-0.36c0.6-0.54,2.23-1.57,2.42-1.67s1.37-1.51,1.54-1.63c0.07-0.08,0.65-1.44,0.78-1.77
				c0.22,0.13,1.03,0.11,1.12,0.27c0.14,0.07,3.09,0.62,3.09,0.62c0.17,0.06,1.39-0.07,1.44-0.23c0.1-0.28,0.2-0.6,0.33-0.86
				c0.59-0.01,1.56-0.63,1.76-0.76c0.17-0.1,0.24-0.44,0.38-0.62c0.31-0.4-0.17-0.82-0.36-1.16c-0.4-0.74-0.32-0.9-0.36-0.92
				c-0.14-0.12,5.81-16.7,5.99-16.9c0.26,0.05,1.42,1.2,2.36,1.98c0.34,0.27,0.65,0.81,1.14,0.83c0.65,0.02,1.22-1.04,1.26-1.6
				c0.01-0.08-0.15-0.27-0.14-0.3c0.06-0.21,0.09-0.26-0.08-0.46c-0.84-1.01-2.71-2.7-3.45-3.6c0,0,5.53-15.41,5.65-15.64
				c0.18-0.35,0.72-1.88,1.2-3.21c1.48,0.26,2.85,0.55,3.69,0.73c0.05,0.05,0.1,0.1,0.16,0.14c0.24,0.22,0.47,0.16,0.69,0.05
				c38.53,8.16,70.66,33.57,87.81,67.73c0.72-2.48,1.63-4.72,2.79-6.69c0.57-1,1.22-1.93,1.94-2.78
				c-19.47-34.6-53.69-59.82-94.12-67.32c0.34-0.9,0.63-1.67,0.69-1.79c0.1-0.22,6.08-16.85,6.08-16.85s0.87,0.71,0.94,0.79
				c0.37,0.37,1.52,1.84,2.32,2.17c0.37,0.15,0.92-0.1,1.12-0.4c0.17-0.25,0.32-0.53,0.46-0.8c0.32-0.62-0.52-1.59-1.21-2.26
				c-0.17-0.18-1.43-1.4-2.09-2.08c-0.26-0.26-0.49-0.5-0.36-0.86c0.31-0.85,1.58-4.43,1.65-4.47c0.22-0.15,0.29-0.9,0.7-1.89
				c0.05-0.12,0.1-0.22,0.13-0.34c0.05-0.17,0.07-0.14,0.23-0.2c0.77-0.36,1.22-0.44,1.76-1.09c0.12-0.14,0.12-0.29,0.2-0.46
				c0.09-0.25,0.23-0.41,0.24-0.68c0-0.13,0-0.36-0.15-0.43c-0.15-0.07-0.28,0.08-0.41,0.13c-0.25,0.07-0.16-0.1-0.05-0.19
				c0.18-0.18,0.3-0.37,0.23-0.64c-0.09-0.39,0.03-0.56,0.23-0.87c0.36-0.4,0.45-1.02,0.21-1.18c-0.03-0.06-0.01-0.14-0.02-0.21
				c-0.07-0.18-0.09-0.95,0.06-1.33c0.02-0.06,0.02-0.12,0.08-0.16c0.08-0.05-0.01-0.16,0.06-0.22c0.09-0.1,0.19-1.02,0.4-0.93
				c0.2,0.08,0.35,0.21,0.56,0.25c0.28,0.05,1.3,0.11,1.47-0.07c0.09-0.1,0.05-0.32,0.12-0.36c0.14-0.02,0.23-0.21,0.34-0.26
				c0.15-0.08,0.32-0.22,0.37-0.38c0.16-0.42,0.75-1.4,0.72-1.96c-0.01-0.26,0.23-0.92-0.3-2.22c-0.06-0.18-0.3-0.44-0.22-0.61
				c0.09-0.17,0.41-0.73,0.31-1.17c0-0.18-0.3-0.82-0.86-1c-0.03-0.06-0.02-0.37,0.06-0.5c0.02-0.02,0.02-0.03,0.03-0.04
				c0.01,0,0.98-2.52,1.05-2.61c0.12,0.28,0.16,0.58,0.26,0.86c0.11,0.31,0.36,0.62,0.87,0.88c0.18,0.1,0.34,0.03,0.32,0.25
				c-0.02,0.19-0.04,0.36-0.03,0.54c0,0.2,0.11,0.38,0.13,0.57c0.03,0.17-0.01,0.35,0.03,0.51c0.02,0.13,0.11,0.23,0.13,0.35
				c0.07,0.36,0.31,0.67,0.47,0.98c0.35,0.64,1.34,1.13,2.47,0.65c0.13-0.06,0.2-0.09,0.33-0.14c0.05-0.02,0.1-0.06,0.15-0.1
				c0.25,0,0.38-0.2,0.41-0.25c0.1-0.11,0.1-0.27,0.19-0.38c0.08-0.1,0.13-0.2,0.2-0.29c0.1-0.11,0.26,0,0.37,0.02
				c0.55,0.1,1.16,0.29,1.73,0.12c0.47-0.14,0.09-0.73,0-1.03c-0.28-0.29-0.83-1.07-0.86-1.13c-0.04-0.07-0.12-0.05-0.15-0.11
				c0.03,0.04-0.01-0.14-0.03-0.15c0.02-0.02,0.07-0.02,0.07-0.06c0.04-0.13,0.13-0.25,0.19-0.37c0.44-0.92,0.46-1.66,0.13-2.2
				c-0.52-0.84-1.39-1.25-2.35-1.5c-0.39-0.1-1.22-0.12-1.36-0.11c-0.19,0.02-0.1-0.1-0.22-0.24c-0.24-0.32-0.5-0.8-0.91-0.92
				c-0.35-0.11-1.02-0.14-1.18,0.26c0,0-0.09,0.25-0.19,0.31c-0.1-0.1-0.21-0.1-0.27-0.06c0.11-0.38,1.22-3.68,1.36-3.93
				c0.1-0.22,0.47-0.01,0.7,0c0.52,0.02,1.01-0.21,1.2-0.76c0.07-0.22,0.1-0.45,0.03-0.68c0.25-0.18,0.54-0.28,0.79-0.44
				c0.11-0.06,0.35-0.3,0.41-0.44c0.07-0.13,0.32-0.25,0.42-0.36c0.17-0.22,0.34-0.45,0.52-0.67c0.77-0.96,0.81-1.96,0.07-2.64
				c-0.08-0.07-0.18-0.12-0.24-0.2c-0.11-0.11-0.13-0.05-0.25-0.12c-0.18-0.11-0.84-0.33-0.99-0.34c-0.38-0.06-0.21-0.3-0.17-0.57
				c0.12-0.99,0.32-1.96,0.4-2.95c0.02-0.25,0.16-1.05-0.32-0.88c-0.18,0.06-0.3,0.21-0.44,0.34c-0.17,0.18-0.39,0.2-0.53,0.41
				c-0.14,0.22-0.39,0.56-0.58,0.72c-0.21,0.4-0.41,0.81-0.54,1.25c-0.84-0.26-1.67-0.63-2.56-0.39c-0.98,0.26-1.97,1.57-1.45,3.63
				c0.07,0.27,0.13,0.48,0.29,0.71c0.12,0.16,0.27,0.3,0.33,0.5c-0.21,0.34-0.28,0.98-0.26,1.36c0.02,0.23,0.15,0.47,0.22,0.69
				c0.08,0.27,0.24,0.37,0.43,0.57c0.07,0.05,0.17,0.21,0.22,0.28c0.11,0.16-1.01,3.33-1.26,3.4c-0.13,0.04-0.15-0.22-0.18-0.29
				c-0.08-0.14,0.21-0.42,0.18-0.61c-0.07-0.59-0.47-1.09-0.77-1.18c-0.19-0.06-0.32-0.01-0.31-0.24c0.02-0.59-0.21-1.7-0.59-2.28
				c-0.14-0.21-0.35-0.39-0.45-0.61c-0.14-0.29-1.16-1.26-2.36-1.16c-0.24,0.02-0.43,0.1-0.69,0.07c-0.1-0.01-0.34-0.04-0.4,0.08
				c-0.02,0.08-0.4,0.24-0.49,0.3c-0.22,0.14-0.44,0.35-0.6,0.79c-0.13,0-0.28-0.03-0.41-0.07c-0.27-0.06-0.53-0.05-0.79-0.08
				c-0.2-0.03-1.43-0.5-1.33,0c0.06,0.35,0.28,0.66,0.41,0.99c0.09,0.27,0.8,1.31,0.99,1.49c0.19,0.17,0.02,0.41-0.07,0.61
				c-0.56,1.17-0.03,2.83,0.66,3.77c0.15,0.24,0.55,0.3,0.84,0.44c0.83,0.38,2.28-0.11,2.71-0.2c0.11,0.42,0.39,0.73,0.74,0.95
				c0.28,0.16,0.68,0.08,0.98,0.08c0.52,0,1.04-0.61,1.04-0.61s0.07,0.08,0.12,0.11c0,0.09-1.24,3.55-1.34,3.74
				c-0.36-0.1-1.36-0.14-1.79,0.5c-0.11,0.16-0.48,0.57-0.49,0.86c0,0.18,0,0.35-0.18,0.41c-0.22,0.06-0.34,0.25-0.52,0.35
				c-0.15,0.1-0.35,0.13-0.51,0.26c-0.61,0.51-1.06,1.24-1.15,1.9c-0.03,0.23-0.01,0.46-0.09,0.67c-0.22,0.64,0.06,1.75,0.82,2.65
				c0.19,0.22,0.44,0.61,0.68,0.7c0.24,0.08-0.29,1.14-0.34,1.36c-0.03,0.12,0,0.25-0.12,0.32c-0.09,0.05-0.21,0.06-0.31,0.11
				c-0.24,0.15-0.65,0.55-1.2,0.67c-0.23,0.05-0.18,0.24-0.23,0.43c-0.07,0.39-0.06,0.71,0.06,1.11c-0.19-0.01-0.38,0.03-0.53,0.14
				c-0.03,0.18-0.06,0.37-0.06,0.54c0,0.32,0.41,0.3,0.42,0.54c-1.12,0.28-1.89,0.86-2.39,1.51c-0.24,0.33-0.26,0.89-0.57,1.21
				c-0.15,0.17-0.44,0.43-0.58,0.61c-1.54-1.4-4.38-5.72-6.15-7.6c-0.12-0.13-0.12-0.28-0.2-0.43c-0.07-0.12-0.23-0.26-0.17-0.4
				c0.19-0.42,0.37-0.83,0.55-1.24c0.04-0.11,0.13-1.1-0.14-1.82c-0.24-0.66-0.55-0.97-1.27-1.13c-0.66-0.14-1.02-0.16-1.3-0.65
				c-0.95-1.66-2.38-3.47-2.9-4.01c-0.33-0.55-0.74-1.16-0.95-1.38c-0.37-0.41-0.14-1.07-0.48-1.51c-0.25-0.24-0.32-1.36-0.37-1.51
				c-0.13-0.32-1.12-1.56-1.53-1.73c-0.17-0.08-0.8-0.77-1.33-0.96c-0.28-0.11-3.87-1.09-5.93-2.29c-0.26-0.16-0.86-1.04-0.99-1.52
				c-0.14-0.49-0.26-0.98-0.28-1.22c-0.01-0.14,0.17-0.25,0.23-0.39c0.07-0.11,0.37-0.57,0.47-0.52c0.05-0.32,0.58-0.51,0.71-0.79
				c0.12-0.3,0.45-0.29,0.71-0.39c0.44-0.18,1.27-0.73,1.57-1.21c0.13-0.08,0.17-0.35,0.27-0.48c0.21-0.29,0.45-1.25,0.45-1.38
				c0.01-0.29,0.44-0.57,0.76-0.79c0.23-0.16,0.75-0.63,0.87-1.47c0.05-0.12,0.14-0.21,0.19-0.32c0.12-0.21,0.32-0.88,0.48-0.89
				c0.13-0.03,0.7-0.41,0.76-0.59c0.02-0.08,0.09-0.37,0.22-0.37c0.12-0.01,0.16-0.26,0.16-0.34c0-0.09,0.18-0.19,0.23-0.3
				c0.11-0.28,0.11-1.46-0.38-1.87c-0.17-0.14-0.25-0.35-0.45-0.46c-0.12-0.08-0.21-0.04-0.21-0.19c0-0.14-0.26-0.65-0.17-0.99
				c0.03-0.13-0.02-0.41,0.06-0.49c0.16-0.18,0.24-0.93,0.06-1.1c-0.05-0.04,0.05-0.13,0.06-0.17c0.05-0.24-0.04-0.45-0.13-0.67
				c-0.36-0.78-0.89-1.1-0.96-1.24c-0.06-0.14-0.23-0.16-0.34-0.27c-0.11-0.13-0.32-0.28-0.5-0.34c-0.26-0.1-0.49,0.04-0.78,0.03
				c-0.11,0-0.22,0.03-0.35,0.05c-0.71-0.69-1.5-1.04-1.48-1.34c0.02-0.22,0.04-0.51-0.02-0.73c-0.04-0.18-0.24-0.25-0.29-0.44
				c0-0.09-0.42-0.45-0.67-0.57c-0.17-0.07-0.42-0.08-0.52-0.24c-0.08-0.11-0.23-0.03-0.34-0.12c-0.26-0.18-0.6-0.19-1.23-0.02
				c-0.14,0.03-0.21,0.28-0.33,0.38c-0.08,0.09-0.18,0.11-0.23,0.24c-0.05,0.14-0.18,0.05-0.29,0.04c-0.3-0.03-0.58,0.11-0.88,0.05
				c-0.13-0.02-0.25-0.05-0.39-0.05c0-0.06-0.07-0.08-0.12-0.11c-0.53-0.26-0.57-0.4-0.65-0.44c-0.12-0.05-0.22-0.05-0.35-0.06
				c-0.38-0.02-1.18,0.31-1.48,0.61c-0.07,0.07-0.09,0.17-0.15,0.23c-0.33,0.38-0.14,1.1-0.19,1.35c-0.15,0.21-0.27,0.43-0.46,0.6
				c-0.14,0.1-1.01,0.59-1.22,1.1c-0.07,0.17-0.25,0.24-0.35,0.39c-0.11,0.18-0.12,0.32-0.28,0.46c-0.54,0.48-1.1,1.06-1,1.12
				c-0.16,0.15-0.45,0.44-0.42,0.45c-0.15,0.12-0.16,0.31-0.35,0.44c-0.01,0.11-0.21,0.76-0.21,0.76c-0.13,0-0.07,0.41-0.09,0.53
				c-0.06,0.35-0.7,1.15-0.87,1.39c-0.11,0.19-0.35,0.51-0.35,0.73c0,0.13-0.09,0.29-0.14,0.42c-0.09,0.26-0.19,1.28-0.04,1.42
				c-0.01,0.08-0.06,0.06-0.07,0.19c0,0.17,0.1,1.05-0.24,1.93c-0.14,0.35-0.16,0.79-0.02,1.13c0.19,0.45,0.5,0.66,0.83,0.99
				c0.14,0.15,0.33,0.18,0.47,0.3c0.2,0.18,0.36,0.31,0.58,0.44c0.6,0.37,1.71,1.1,1.92,1.3c0.31,1.04,0.06,3.6,0.05,3.78
				c-0.05,0.46-0.1,0.87-0.44,1.24c-0.14,0.17-0.51,0.44-0.81,0.55c-0.14,0.06-0.17,0.14-0.27,0.23c-0.35,0.32-1.29,0.74-1.54,0.82
				c-0.27,0.08-0.55,0.07-0.81,0.18c-0.4,0.22-1.66,0.43-1.82,0.51c-0.62,0.29-2.35,0.47-2.69,0.67c-0.11,0.07-0.26,0.15-0.35,0.23
				c-0.91,0.21-2.34,1.04-2.7,1.8c-0.25,0.56-0.98,1.21-1.19,1.4c-0.21,0.15-0.54,0.26-0.75,0.44c-1.49,1.34-6.26,3.18-7.57,4.16
				c0,0-0.34-0.4-0.63-0.83c-0.41-0.59-1.7-2.55-2.09-2.82c-0.41-0.28-1.12-0.11-1.53,0.11c-0.18,0.1-1.76,1.13-2.2,1.74
				c-0.11,0.15-0.34,0.31-0.27,0.51c0.07,0.22,0.76,1.46,0.89,1.65c0.13,0.18,1.74,2.26,2.29,3.29c0.09,0.17,0.07,0.3-0.14,0.53
				c-0.05,0.06-1.7,1.33-2.44,2.46c-0.16,0.23-0.33,0.79-0.36,0.87c-0.03,0.1-0.09,0.16-0.15,0.23c-0.29,0.47-0.08,1.41,0.02,1.7
				c1.97,5.91,4.25,9.12,5.91,11.44c1.36,1.9,3.03,3.97,3.26,4.23c0.23,0.26,0.58,0.4,0.79,0.68c0.81,1.03,2.25,2.16,2.41,2.24
				c0.12,0.08,0.28,0.06,0.41,0.13c0.14,0.04,1.57,0.63,1.64,0.76c0.27,0.42,1.4,0.62,1.7,0.66c-1.12,2.65-1.22,4.57-0.4,7.75
				c0.07,0.26,0.6,1.02,0.66,1.19c0.02,0.09-0.05,0.09-0.05,0.16c0,0.06,0.09,0.13,0.09,0.2c0.04,0.23,0.12,0.89,0.08,1.01
				c-0.03,0.1-0.12,2.78-0.1,4.31c-42.77,3.89-79.78,27.35-101.98,61.27v17.27C207.88,249.13,246.74,221.59,292.39,217.87z
				 M318.85,239.98c0.01-0.04,0.14-0.45,0.18-0.45v-0.05c0.07,0.13,0.23,0.24,0.35,0.36c0-0.01,0-0.01,0.01-0.03
				c0.01,0.04,0.04,0.06,0.06,0.09c0.07,0.07,0.17,0.12,0.23,0.19c0.05,0.06,0.1,0.12,0.15,0.18c0.07,0.06,0.15,0.1,0.2,0.16
				c0.08,0.07,0.11,0.17,0.2,0.24c0.09,0.09,0.18,0.17,0.26,0.26c0.29,0.28,0.55,0.59,0.81,0.88c0.23,0.25,0.6,0.62,0.57,0.97
				c-0.01,0.1-0.2,0.96-0.37,0.81c-0.21-0.22-0.62-0.35-0.78-0.61c-0.06-0.09-0.2-0.1-0.28-0.15c-0.12-0.07-0.23-0.23-0.33-0.32
				c0,0,0,0,0-0.01c-0.01,0-0.01,0-0.01-0.01c-0.11-0.07-0.24-0.23-0.33-0.33c-0.06-0.07-0.1-0.13-0.15-0.22
				c-0.11-0.08-0.18-0.14-0.21-0.24c0,0,0-0.01-0.01-0.02c-0.24-0.17-0.35-0.21-0.35-0.48c-0.07-0.12-0.07-0.34-0.07-0.48
				C318.86,240.67,318.81,240.1,318.85,239.98z M316.32,142.22L316.32,142.22C316.34,142.31,316.36,141.7,316.32,142.22
				c0.03-0.34,0.02-0.69,0.08-1.02c0.04-0.18,0.15-0.3,0.15-0.48c0.42,0.05,0.43,0.61,0.41,0.93c-0.02,0.19-0.12,0.36-0.28,0.47
				c-0.12,0.09-0.23,0.39-0.4,0.4c0-0.06-0.01-0.12-0.05-0.17C316.24,142.29,316.34,142.31,316.32,142.22z M290.5,210.95
				c0.38,2.31,1.19,5.14,1.65,6.18C291.69,216.1,290.88,213.26,290.5,210.95z M293.89,253.74c0,0-0.01,0-0.02,0.02
				c-0.21,0.1-0.54,0.16-0.77,0.11c-0.11-0.02-0.28-0.24-0.37-0.09c0.06-0.53,0.64-0.88,0.97-1.25c0.08-0.1,0.15-0.19,0.21-0.29
				c0.07-0.13,0.2-0.22,0.3-0.34c0.17-0.2,0.38-0.32,0.51-0.55c0.14-0.24,0.32-0.38,0.48-0.59c0.09-0.1,0.13-0.19,0.17-0.31
				c0.03-0.05,0.2-0.19,0.2-0.23c0,0.02,0.19-0.24,0.21-0.26c0.12-0.25,0.35-0.46,0.51-0.69c-0.1,0.41-0.17,0.82-0.26,1.23
				c-0.04,0.25-0.15,0.47-0.25,0.69c-0.09,0.16-0.21,0.31-0.27,0.48c-0.07,0.22-0.31,0.41-0.46,0.56c-0.17,0.18-0.28,0.37-0.4,0.58
				c-0.1,0.16-0.24,0.32-0.37,0.42C294.12,253.39,294.06,253.6,293.89,253.74z M296.56,259.35
				C296.6,258.64,296.1,259.37,296.56,259.35c-0.69,0.03-1.39-0.02-2.05,0.12c-0.23,0.04-0.43,0.04-0.61,0.16
				c-0.11,0.09-0.62,0.11-0.73,0.03c-0.16-0.12-0.23,0-0.23-0.23c0-0.29,0.15-0.47,0.23-0.72c0.04-0.13,0.15-0.2,0.23-0.31
				c0.06-0.14,0.11-0.3,0.16-0.45c0.1-0.21,0.34-0.37,0.4-0.58c0.06-0.2,0.15-0.31,0.24-0.5c0.06-0.1,0.17-0.18,0.21-0.27
				c0.07-0.14,0.1-0.3,0.17-0.43c0.27-0.38,0.53-0.76,0.79-1.14c0.68-0.95,1.26-1.92,1.83-2.94c0,0.01,0,0.02,0,0.02
				c0.06-0.21,0.14-0.4,0.21-0.59c0.03-0.08,0.08-0.14,0.11-0.22c0.07-0.16-0.03-0.33,0.03-0.49c0.14,0.2,0.06,0.67,0.06,0.91
				c-0.02,0.4-0.02,0.8-0.01,1.19c0.01,0.81,0.01,1.64-0.01,2.46c-0.02,0.69-0.06,1.41-0.33,2.07
				C297.03,258.07,296.6,258.66,296.56,259.35z M299.88,240.48c0.04-0.61,0.67-0.63,1.24-0.71c0.11-0.14,0.29-0.29,0.35-0.37
				c0.11-0.14,0.32-0.25,0.44-0.35c0.2-0.17,0.35-0.34,0.58-0.44c-0.02,0.31,0.09,0.63,0.13,0.93c0.06,0.35,0.09,0.69,0.09,1.05
				c0,0.35,0.09,0.7,0.09,1.05v1.86c0,0.64-0.18,1.3-0.12,1.93c0.01,0.15,0.09,0.29,0.08,0.45s-0.03,0.32-0.03,0.48
				c0.01,0.4-0.04,0.8-0.1,1.2c-0.04,0.28,0,0.68-0.12,0.94c-0.15,0.32-0.08,0.72-0.16,1.08c-0.05,0.29-0.18,0.59-0.25,0.87
				c-0.02,0.13-0.02,0.24-0.06,0.37c-0.07,0.19,0,0.3,0,0.49c-0.3,0-0.6,0.36-0.83,0.49c-0.29,0.18-0.61,0.34-0.94,0.43
				c-0.12,0.04-0.25,0.05-0.38,0.07c-0.15,0.04-0.3-0.12-0.44-0.06c-0.06,0.03-0.12-0.06-0.2-0.04c-0.07,0.01-0.27,0.01-0.34-0.04
				c-0.11-0.09-0.09,0.12-0.08-0.17c0-0.23,0.02-0.47,0.02-0.7c-0.01-0.17-0.01-0.35-0.04-0.51c-0.03-0.11-0.15-0.28-0.17-0.38
				c-0.06-0.34-0.19-0.66-0.23-1.01c-0.02-0.18-0.03-0.33-0.07-0.51c-0.05-0.18-0.17-0.35-0.15-0.53c0.02-0.35-0.13-0.63-0.12-0.97
				c0.02-0.35-0.09-0.79-0.17-1.13c-0.07-0.32-0.17-0.62-0.22-0.93c-0.02-0.14-0.09-0.22-0.1-0.37c-0.01-0.22,0.01-0.44-0.04-0.66
				c-0.08-0.33-0.04-0.76-0.19-1.04c-0.08-0.12-0.14-0.23-0.14-0.38c0.07-0.05-0.11-0.1-0.08-0.17c0.04-0.16-0.06-0.32-0.07-0.47
				c-0.02-0.2-0.01-0.4-0.01-0.6c0.01-0.38,0.04-0.78-0.08-1.15c0.11,0,0.21,0.04,0.3,0.08c0.15,0.05,0.31-0.01,0.46,0
				s1.05-0.2,1.14-0.08c0,0.49,0.15,1.03,0.19,1.47c0,0.32,0.05,0.69,0.1,1.01c0.03,0.17,0.13,0.28,0.13,0.47
				c0,0.09,0.02,0.18,0.03,0.27c0.15,0.45,0.31,0.9,0.44,1.33c0.03-0.99,0.09-2.02,0.15-3
				C299.97,241.49,299.86,240.95,299.88,240.48z M299,252.89L299,252.89L299,252.89L299,252.89L299,252.89L299,252.89L299,252.89
				C299,252.89,299,252.89,299,252.89C298.99,252.88,298.99,252.88,299,252.89c0-0.01,0-0.01,0-0.02c-0.05-0.2-0.13-0.35-0.14-0.57
				c0.22,0.13,0.44,0.17,0.67,0.26c0.14,0.05,0.28,0.11,0.43,0.16c0.16,0.05,0.28,0,0.44,0.02c0.29,0.03,0.69-0.16,0.96-0.32
				c0.34-0.19,0.58-0.42,0.74-0.77c-0.04,0.21-0.09,0.43-0.13,0.65c-0.03,0.14-0.05,0.28-0.07,0.43c-0.12,0.04-0.21,0.12-0.3,0.2
				c-0.36,0.3-0.83,0.53-1.27,0.68c-0.29,0.11-0.65,0.14-0.95,0.04c-0.1-0.03-0.23-0.06-0.34-0.06
				C299.02,253.37,299.06,253.13,299,252.89z M303.03,257.83c-0.01,0.01-0.02,0.21-0.03,0.27c-0.02,0.21-0.08,0.37-0.1,0.57
				c-0.01,0.14-0.05,0.36-0.11,0.47c-0.07,0.17-0.07,0.36-0.15,0.53c-0.06,0.16-0.17,0.34-0.24,0.48c-0.06,0.1-0.18,0.21-0.22,0.33
				c-0.02,0.09-0.18,0.6-0.27,0.59c0.13,0.22-0.13,0.39-0.12,0.6c0.01,0-0.07,0.44-0.05,0.41c-0.08,0.07-0.04,0.1-0.09,0.24
				c-0.06,0.22-0.16,0.38-0.17,0.62c0,0.29-0.13,0.55-0.13,0.81c-0.01,0.24-0.14,0.38-0.32,0.49c-0.15,0.1-0.28,0.43-0.49,0.42
				c-0.26-0.01-0.55,0.39-0.75,0.53c-0.16,0.11-0.4,0.2-0.5,0.35c-0.06,0.08-0.26,0.11-0.37,0.2c-0.09,0.09-0.2,0.14-0.32,0.2
				c-0.05,0.01-0.06,0.03-0.06,0.08c-0.02,0.09-0.12,0.05-0.2,0.1c-0.34,0.25-0.65,0.39-1.07,0.18c-0.11,0.01-0.22,0-0.31-0.04
				c-0.21-0.08-0.28-0.03-0.27-0.31c0-0.39,0-0.84,0.08-1.22c0.07-0.32,0.23-0.63,0.31-0.96c0.03-0.19,0.03-0.39,0.12-0.57
				c0.06-0.15-0.02-0.34,0.02-0.5c0.09-0.38,0.11-0.78,0.15-1.17c0.03-0.21,0-0.3,0.21-0.34c0.01-0.22,0.04-0.43,0.06-0.65
				c0.05-0.42,0.07-0.85,0.2-1.25c0.08-0.26,0.2-0.72,0.38-0.93c0.47,0.52,0.84-0.81,0.27-0.71c0.16-0.23,0.14-0.62,0.21-0.88
				c0.1-0.26,0.22-0.52,0.26-0.8c0.04-0.35-0.01-0.7,0-1.05c0.01-0.36,0.19-0.69,0.08-1.05c0.19,0.04,0.35,0.1,0.53,0.16
				c0.14,0.05,0.28,0.12,0.42,0.15c0.11,0.02,0.21-0.02,0.33-0.01c0.47,0.05,1.28-0.39,1.53-0.8c-0.01,0.18,0.05,0.78-0.12,0.87
				c-0.2,0.17-0.43,0.35-0.65,0.49c-0.29,0.17-0.54,0.27-0.87,0.31c-0.29,0.04-0.62-0.01-0.9,0.08c-0.03,0.25,0.43,0.39,0.61,0.43
				c0.35,0.08,0.6-0.04,0.92-0.13c0.17-0.03,0.2-0.11,0.35-0.2c0.11-0.07,0.25-0.11,0.34-0.19c0.1-0.1,0.11-0.24,0.21-0.34
				c0.05-0.04,0.2-0.15,0.2-0.22c0.03,0.01,0.15,0.02,0.15,0.02c-0.01,0.03-0.01,0.05-0.02,0.07c0.13,0.1,0.12,0.08,0.17,0.24
				c0.05,0.15,0.1,0.29,0.13,0.45c0.03,0.13-0.02,0.23-0.02,0.36c0.02,0.33-0.07,0.61-0.15,0.93c-0.04,0.19-0.04,0.19-0.17,0.33
				c-0.02,0.02-0.1,0.13-0.09,0.15c-0.05-0.02-0.31,0.18-0.36,0.22c-0.21,0.22,0.19,0.36,0.34,0.38c0.11,0.02,0.2,0.01,0.25-0.09
				c0.09-0.12,0.17-0.09,0.33-0.12c0.07-0.02,0.55-0.21,0.6-0.07C303.17,257.47,303.05,257.69,303.03,257.83z M304.31,241.76
				c-0.01,0.22-0.07,0.38-0.03,0.6c0.02,0.22-0.09,0.38-0.15,0.59c-0.14,0.44,0.08,0.97,0.06,1.43c-0.03,0.51-0.03,1.07-0.12,1.58
				c-0.05,0.24-0.11,0.48-0.12,0.71c-0.02,0.27,0.04,0.56-0.03,0.84c-0.12-0.35-0.08-0.73-0.03-1.07c0.04-0.42-0.01-0.78-0.02-1.19
				c-0.02-0.4,0.03-0.83,0.03-1.24c0-0.37,0-0.74,0.02-1.11c0.03-0.38-0.05-0.74-0.09-1.11c-0.03-0.17-0.17-0.9,0.01-1
				c-0.06,0.01-0.12-0.59-0.13-0.68c-0.03-0.16-0.02-0.32-0.02-0.49c0.01-0.23-0.08-0.35-0.12-0.56c-0.07-0.35-0.06-0.71-0.14-1.07
				c-0.07-0.26-0.13-0.48-0.16-0.76c-0.1-0.62-0.23-1.27-0.42-1.87c-0.02-0.09-0.16-0.64-0.25-0.65c-0.15-0.26-0.07-0.69-0.16-0.97
				c-0.07-0.22-0.12-0.48-0.15-0.72c0-0.05-0.17-0.36-0.17-0.2v0.31c0,0.71,0.12,1.43,0.11,2.14c0,0.27,0.1,0.5,0.11,0.74
				c0.01,0.14,0.05,0.26,0.06,0.4c0.02,0.16-0.06,0.1-0.12,0.25c-0.1,0.28-0.5,0.56-0.71,0.74c-0.07,0.05-0.24,0.23-0.42,0.39
				c-0.21,0.38-0.55,0.68-0.94,0.87c-0.48,0.23-1.15,0.31-1.7,0.32c-0.39,0.02-1.61,0.1-1.85-0.15c0.03-0.03,0.03-0.07,0.05-0.11
				c-0.03-0.01-0.05-0.04-0.07-0.12c-0.04-0.17-0.09-0.34-0.13-0.51c-0.06-0.26-0.07-0.52-0.16-0.76c-0.1-0.24-0.02-0.53,0-0.78
				c0.06-0.58,0.04-1.12-0.03-1.69c-0.08-0.53-0.11-1.07-0.15-1.6c-0.03-0.25-0.04-0.49-0.09-0.73c-0.07-0.29-0.03-0.59-0.08-0.88
				c-0.1-0.49,0-1-0.08-1.5c-0.03-0.22-0.2-0.48-0.29-0.68c-0.11-0.28-0.25-0.55-0.4-0.81c0.17-0.04,0.35,0.16,0.52,0.16h0.79
				c0.51-0.01,0.93-0.12,1.31-0.48c0.1-0.1,0.28-0.18,0.41-0.27c0.17-0.1,0.23-0.25,0.38-0.35c0.16-0.1,0.19-0.3,0.24-0.47
				c0.1-0.33-0.2-0.38-0.45-0.27c-0.12,0.06-0.63,0.52-0.78,0.37c-0.34,0.3-0.79,0.27-1.19,0.13c-0.36-0.14-0.83-0.47-1.07-0.77
				c-0.11-0.16-0.09-0.44-0.1-0.62c-0.02-0.31-0.02-0.61-0.04-0.91c-0.03-1.1-0.14-2.18-0.26-3.27c-0.14-1.14-0.4-2.26-0.6-3.39
				c-0.08-0.53-0.24-1.02-0.4-1.54c-0.05-0.18-0.14-0.34-0.2-0.52c-0.07-0.22-0.12-0.62-0.3-0.78c-0.09-0.09-0.16-0.36-0.19-0.47
				c-0.09-0.25-0.11-0.52-0.2-0.77c-0.16-0.47-0.37-0.91-0.51-1.38c-0.1-0.33-0.25-0.63-0.35-0.96c-0.12-0.4-0.21-0.8-0.33-1.2
				c-0.11-0.35-0.09-0.63-0.12-0.98c-0.05-0.37-0.19-0.72-0.24-1.09c-0.06-0.41-0.09-0.81-0.12-1.22c-0.02-0.41-0.12-0.84-0.15-1.27
				c-0.05-0.36,0.01-0.92-0.13-1.25c-0.04-0.11-0.24-0.58-0.02-0.61c0.25-0.02-0.04-0.53-0.11-0.65c-0.02-0.09,0.12-0.12,0.04-0.2
				c-0.05-0.23-0.09-0.46-0.16-0.69c-0.04-0.18-0.1-0.35-0.14-0.53c-0.03-0.08-0.05-0.15-0.08-0.24c-0.05-0.12,0.01-0.15,0-0.26
				c-0.02-0.1-0.09-0.19-0.07-0.32c0.02-0.21,0.1-0.39,0.12-0.6c0.01-0.15-0.03-0.29,0-0.44c0.03-0.16,0.14-0.25,0.16-0.42
				c0.02-0.27,0.22-0.57,0.3-0.82c0.03-0.09,0.04-0.17,0.09-0.25c0.08-0.16,0.07-0.28,0.12-0.44c0.09-0.2,0.15-0.43,0.42-0.36
				c-0.03,0.02-0.03,0.04,0,0.06c0.15,0,0.04,0.32-0.08,0.33c-0.04,0.09,0.1,0.06,0.11,0.12c0,0.07-0.07,0.47-0.11,0.52
				c-0.11,0.11-0.05,0.4-0.11,0.55c-0.07,0.21-0.05,0.33-0.08,0.54c-0.02,0.17-0.08,0.34-0.14,0.5c-0.04,0.22,0.02,0.43-0.03,0.64
				c-0.04,0.17,0.01,0.34-0.03,0.52c-0.05,0.16-0.1,0.37,0.06,0.51c0.11,0.08,0.25,0.11,0.38,0.11c0.1-0.09,0.05-0.32,0.07-0.45
				c0.07-0.34,0.17-0.69,0.33-1c0.07-0.18,0.25-0.83,0.44-0.77c0.04,0.01,0.25-0.21,0.27-0.27c-0.01-0.02-0.02-0.04-0.03-0.06
				c0-0.03,0.23-0.16,0.24-0.18c0.33-0.22,0.64-0.44,0.99-0.63c0.21-0.11,0.41-0.2,0.62-0.29c0.21,0.07,0.45,0.02,0.67,0.01
				c0.4-0.03,0.79,0.12,1.19,0.13c0.3,0.02,0.58,0.1,0.84,0.24c0.27,0.08,0.45,0.11,0.63,0.32c0.25,0.25,0.56,0.36,0.78,0.63
				c0.06,0.08,0.27,0.16,0.35,0.17c0.13,0.02,0.3,0.19,0.39,0.27c0.22,0.19,0.49,0.38,0.52,0.66c-0.28-0.27-0.51-0.58-0.88-0.72
				c-0.33-0.13-0.6-0.35-0.94-0.44c-0.13-0.03-0.17-0.11-0.29-0.14c-0.12-0.02-0.17-0.03-0.27-0.08c-0.24,0.02-0.5,0-0.73,0
				c-0.24,0-0.5-0.04-0.76-0.05c-0.31-0.01-0.85-0.22-1.12-0.02c-0.17,0-0.3,0.11-0.45,0.15c-0.1,0.04-0.28,0.17-0.35,0.17
				c-0.31,0.02-0.16,0.38-0.32,0.58c0.18-0.1,0.34-0.19,0.53-0.28c0.32-0.13,0.63-0.08,0.96-0.07c0.28,0.01,0.52,0.04,0.79,0.1
				c0.24,0.06,0.54,0.05,0.75,0.16c0.23,0.12,0.51,0.13,0.77,0.22c0.24,0.08,0.51,0.31,0.68,0.48c0.23,0.2,0.43,0.31,0.6,0.57
				c0.12,0.16,0.39,0.72,0.56,0.77c-0.08-0.02,0.14,0.36,0.13,0.36c0.2,0.17,0.33,0.43,0.45,0.66c0.06,0.1,0.17,0.32,0.21,0.42
				c0.18,0.35,0.23,0.78,0.38,1.14c0.1,0.23,0.15,0.76,0.31,0.9c0.01,0.07-0.07,0.1-0.05,0.2c0.02,0.1,0.02,0.22,0.03,0.32
				c0.04,0.24,0.09,0.51,0.07,0.75c-0.01,0.18,0.01,0.27,0.05,0.42c0-0.01-0.05,0.1-0.05,0.11c0,0.11,0.03,0.21,0.05,0.32
				c0.06,0.34,0,0.66,0.06,0.99c0.03,0.17,0.14,0.42,0.08,0.58c-0.09,0.23,0.12,0.51,0.16,0.72c0.23,1.09,0.15,2.23,0.09,3.34
				c-0.07,1.13-0.14,2.26-0.21,3.39c-0.03,0.47-0.23,0.96-0.26,1.45c0,0.14,0.01,0.28-0.09,0.39c-0.1,0.13,0.12,0.43,0.09,0.63
				c-0.12,0.46-0.09,0.95-0.15,1.41c-0.02,0.23-0.06,0.45-0.09,0.67c-0.04,0.3,0.05,0.51,0.07,0.78c0.04,0.29-0.02,0.57-0.06,0.84
				c-0.04,0.29,0,0.59,0.04,0.89c0.02,0.28-0.01,0.56-0.04,0.85c-0.04,0.32,0.04,0.62,0.08,0.94c0.08,0.51,0.06,1,0.22,1.5
				c0.07,0.22,0.15,0.43,0.21,0.65c0.03,0.09,0.09,0.14,0.14,0.22c0.1,0.1,0.07,0.29,0.11,0.41c0.08,0.27-0.21,0.52,0.12,0.34
				c0.2-0.11-0.04-0.35-0.08-0.5c-0.05-0.23-0.04-0.47-0.11-0.71c-0.01-0.09,0.07-0.12,0.06-0.21c-0.04-0.14-0.09-0.32-0.06-0.44
				c0.07-0.43-0.14-0.91-0.13-1.34c0.01-0.26,0.01-0.5-0.02-0.75c-0.03-0.28,0.01-0.49,0.03-0.77c0.07-0.51,0.06-1.04,0.12-1.55
				c0.08-0.62,0.2-1.23,0.31-1.84c0.09-0.59,0.2-1.18,0.3-1.77c0.05-0.3,0.1-0.6,0.14-0.9c0.01-0.12,0.05-0.26,0.05-0.39
				c0-0.12-0.06-0.18-0.03-0.31c0.2-1.07,0.25-2.14,0.29-3.24c0.02-0.46-0.02-0.94,0.02-1.41c0.01-0.5,0.06-1,0.02-1.49
				c-0.05-0.23,0.01-0.48,0-0.72c0-0.25,0.01-0.52-0.02-0.78c-0.04-0.38-0.08-0.78-0.08-1.16c-0.01-0.25-0.14-0.46-0.14-0.71
				c0-0.17-0.14-0.43-0.09-0.59c-0.11-0.26-0.09-0.5-0.12-0.78c-0.03-0.27-0.13-0.54-0.15-0.81c-0.04-0.56-0.13-1.3-0.4-1.75
				c-0.05-0.09-0.06-0.24-0.08-0.34c-0.04-0.14-0.12-0.25-0.18-0.39c-0.09-0.19-0.32-0.37-0.3-0.62c0,0.15,0.22,0.38,0.3,0.5
				c0.1,0.18,0.22,0.4,0.29,0.61c0.06,0.16,0.12,0.38,0.16,0.56c0.06,0.29,0.19,0.55,0.24,0.84c0.06,0.29,0.2,0.55,0.27,0.86
				c0.04,0.16,0.1,0.42,0.18,0.57c0.05,0.09,0.16,0.24,0.19,0.32c0.06,0.28,0.06,0.57,0.06,0.86c0,0.16,0.01,0.38,0.05,0.53
				c0.03,0.1,0.01,0.2,0.03,0.3c0.05,0.14,0.13,0.25,0.15,0.4c0.15,1.11,0.11,2.24,0.17,3.36c0.03,0.68,0.02,1.38-0.02,2.1
				c-0.03,0.56,0,1.11-0.04,1.65c-0.03,0.36-0.06,0.71-0.05,1.07c0.01,0.52-0.11,1.07-0.16,1.58c-0.08,0.62-0.08,1.23-0.1,1.85
				c-0.05,1.2-0.27,2.42-0.21,3.63c0.1,1.57,0.21,3.11,0.36,4.68c0.08,0.79,0.15,1.58,0.3,2.35c0.12,0.67,0.29,1.31,0.4,1.98
				c0.02,0.16,0,0.32,0.01,0.48c0,0.17,0.08,0.24,0.11,0.37c0.08,0.33,0.09,0.69,0.14,1.02c0.1,0.62,0.1,1.25,0.22,1.86
				c0.06,0.36,0.06,0.73,0.08,1.08c0.02,0.38,0.13,0.75,0.13,1.13C304.39,240.39,304.37,241.07,304.31,241.76z M297.84,196.35
				c-0.08-0.03-0.25,0.12-0.35,0.16c-0.25,0.08-0.51,0.17-0.77,0.25c-0.25,0.08-0.21-0.28-0.36-0.34c-0.12-0.06-0.15-0.46-0.29-0.5
				c-0.1-0.03-0.3-0.45-0.34-0.56c-0.09-0.18-0.2-0.47-0.37-0.58c-0.04-0.27-0.27-0.43-0.39-0.66c-0.07-0.12-0.09-0.27-0.16-0.38
				c-0.07-0.15-0.18-0.25-0.22-0.39c-0.05-0.21-0.22-0.34-0.2-0.57c0.13-0.06,0.51,0.07,0.66,0.13c0.08,0.04,0.18,0.08,0.28,0.05
				c0.11,0.1,0.27,0.16,0.42,0.2c0.26,0.07,0.54,0.24,0.72,0.43c0.19,0.17,0.25,0.45,0.38,0.65c0.15,0.2,0.27,0.4,0.4,0.61
				c0.17,0.27,0.33,0.54,0.48,0.82c0.09,0.16,0.16,0.31,0.24,0.47C298.06,196.37,297.92,196.23,297.84,196.35z M298.1,197.49
				c0.01,0,0.01-0.01,0.03-0.01h0.01c0.29-0.09,0.32,0,0.38,0.3c-0.24,0.15-0.28,0.29-0.6,0.28c-0.13-0.01-0.78-0.01-0.49-0.25
				C297.61,197.66,297.87,197.57,298.1,197.49z M303.92,196.47c0.09,0.13,0.16,0.28,0.21,0.42c0.1,0.31,0.11,0.69,0.27,0.97
				c-0.04,0.06-0.06,0.11-0.08,0.18c-0.03,0.18-0.07,0.11-0.22,0.18c-0.1,0.03-0.18,0.08-0.28,0.12c-0.12,0-0.2-0.02-0.31,0.04
				c-0.33,0.13-0.89-0.22-1.19-0.35c-0.17-0.08-0.37-0.1-0.54-0.2c-0.17-0.1-0.26-0.31-0.44-0.42c-0.23-0.1-0.4-0.39-0.59-0.57
				c-0.26-0.26-0.4-0.5-0.6-0.76c-0.19-0.24-0.28-0.53-0.44-0.79c-0.1-0.12-0.08-0.3-0.14-0.45c-0.08-0.2-0.13-0.41-0.12-0.63
				c0.39,0.18,0.82,0.27,1.23,0.35c0.22,0.04,0.44-0.06,0.67,0.01c0.25,0.05,0.46,0.09,0.71,0.09c0.16,0,0.54-0.07,0.66,0.05
				c0.12,0.14,0.21,0.32,0.32,0.48c0.27,0.39,0.55,0.79,0.88,1.14C303.94,196.46,303.75,196.23,303.92,196.47z M297.39,200.51
				c-0.12-0.01-0.22-0.05-0.34-0.05c0.02-0.07,0.22-0.04,0.3,0.02C297.33,200.48,297.31,200.5,297.39,200.51z M305.69,253.25
				C305.69,253.26,305.69,253.26,305.69,253.25c-0.06,0.14-0.11,0.27-0.2,0.35c-0.09-0.04-0.08-0.22-0.08-0.3
				c-0.2,0.16-0.43-0.72-0.43-0.84c0-0.07,0.02-0.14,0.02-0.2c-0.04,0-0.07,0-0.12-0.02c-0.2-1.24,1.05-1.87,0.98-3.17
				c-0.07-1.15-0.13-2.31-0.15-3.47c-0.03-0.22-0.04-0.45-0.04-0.67c0-0.04,0.01-0.06,0.01-0.09l-0.15-1.34
				c0.04,0.14,0.11,0.26,0.18,0.39c-0.02-0.2-0.04-0.45,0.03-0.54c0.02,0.26,0.04,0.55,0.2,0.79c0.04,0.09,0.1,0.11,0.14,0.22
				c0.01,0.04,0.03,0.08,0.05,0.12c0.35,0.44,0.77,0.86,0.98,1.38c1.06,0.06,1.39-0.19,1.55,0.91c0.05,0.32,0.22,0.87,0.09,1.23
				c-0.19,0.49-0.39,0.31-0.74,0.65c-0.41,0.38-0.33,0.89-0.38,1.36c0.03,0.16,0.06,0.3,0.09,0.45c0.03,0.12,0.15,0.27-0.04,0.24
				c-0.15-0.02-0.13-0.11-0.21-0.17c-0.04,0.06-0.07,0.11-0.11,0.16c-0.02,0.02-0.75,0.25-0.87,0.33c-0.11,0.07-0.21,0.13-0.27,0.2
				c0.11,0.05,0.16,0.15,0.27,0.13c0.09-0.01,0.25,0,0.22,0.14c-0.09,0.27-0.32,0.57-0.48,0.82
				C306.04,252.63,305.87,252.95,305.69,253.25z M308.03,258.01c-0.25-0.14-0.36-0.23-0.51-0.48c-0.02-0.04-0.06-0.08-0.11-0.08
				c0.01-0.05,0.01-0.09-0.02-0.12c-0.05-0.07-0.03-0.11-0.13-0.12c-0.08-0.3-0.33-0.57-0.47-0.83c-0.03-0.07-0.17-0.16-0.18-0.24
				c-0.01-0.05-0.03-0.1-0.09-0.15c-0.1-0.13-0.02-0.12,0.01-0.24c0.05-0.14,0.01-0.42,0.03-0.62c0.03-0.36,0.17-0.72,0.27-1.08
				c0.06-0.25,0.18-0.49,0.25-0.75c0.04-0.15-0.06-0.3,0.03-0.45c0.03-0.06,0.17-0.27,0.23-0.31c0.01,0,0.21,0.22,0.21,0.24
				c0.16,0.2,0.37,0.39,0.44,0.68c0.15,0.37,0.23,0.85,0.42,1.17c0.11,0.19,0.2,0.46,0.42,0.62c0.05,0.05,0.12,0.08,0.19,0.12
				c-0.04,0.08-0.07,0.16-0.07,0.26c0,0.1-0.05,0.25-0.08,0.36c-0.04,0.13-0.09,0.21-0.13,0.34c-0.05,0.12-0.07,0.21-0.14,0.35
				c-0.07,0.05-0.22,0.36-0.16,0.47c-0.14-0.03-0.14,0.31-0.18,0.44c-0.04,0.1-0.06,0.2-0.1,0.31
				C308.1,257.93,308.02,257.85,308.03,258.01z M309.25,250.48l-0.05-0.3c-0.01-0.06-0.03-0.15-0.06-0.24
				c-0.08-0.29-0.19-0.69-0.04-0.99c0.07-0.15,0.23-0.18,0.35-0.2c0.07-0.02,0.14-0.02,0.19-0.05c0.21-0.12,0.5-0.77,0.55-1.09
				c0.09-0.49,0.06-1.01,0.03-1.56c-0.02-0.52-0.04-1.05,0.02-1.57c0.07-0.5,0.22-0.91,0.39-1.3c0.07-0.19,0.06,0.56,0.12,0.38
				l0.29-2.1c0.21-0.95,0.42-0.95,0.68-1.73l0.66-1.41c0.15-0.51,0.27-1.3,0.18-2.01l-0.16-1.33c0.23-1.11,0.46-2.51,0.68-4.29
				c0.07-0.48,0.04-0.91,0.03-1.34c-0.01-0.53-0.03-1.03,0.08-1.56c0.13-0.58,0.36-1.04,0.57-1.49c0.17-0.36,0.34-0.73,0.46-1.14
				l0.31-2.56l0.83-4.53c2.29,0.22,4.57,0.5,6.83,0.83c-0.3,0.8-0.7,2-0.84,2.38c-1.69,4.41-11.62,32.38-11.62,32.38
				c-0.01,0.04-0.09,0.19-0.13,0.24c-0.07,0.1,0,0.16-0.04,0.23c0.05-0.08-0.17-0.03-0.17-0.03c-0.09-0.11-0.56-1.3-0.45-1.54
				c0.05-0.11,0.12-0.17,0.19-0.23c0.09-0.07,0.17-0.13,0.19-0.26C309.42,251.5,309.33,250.96,309.25,250.48z M317.23,202.76
				l-0.1-0.54l0.02-0.63c-0.09-0.66-0.22-1.56-0.36-2.2c-0.04-0.21,0.1-0.32,0.3-0.47l0.08-0.19c0.23-0.53,0.44-1.04,0.34-1.8
				c-0.14-0.99-0.43-1.89-0.72-2.77c-0.31-0.94-0.63-1.91-0.74-2.99c-0.01-0.16,0.09-0.51,0.24-1.03c0.09-0.3,0.18-0.59,0.21-0.76
				c0.37-2.25-0.39-3.87-1.12-5.44c-0.17-0.37-0.34-0.73-0.51-1.16c-0.77-1.86-1.63-4.28-1.58-6.47c0.04-2.13,1.26-4.89,1.26-4.89
				s2.45,3.78,2.52,3.98c0.28,0.74,0.8,1.52,1.58,1.82c0.12,0.03,0.24,0.07,0.36,0.1c0,0.11-0.01,0.21-0.02,0.32
				c-0.02,0.12,0.02,0.39,0.05,0.52c0.04,0.22,1.02,0.17,1.18,0.17c0.17,0,0.32-0.01,0.49-0.02c0.17-0.02,0.17-0.12,0.31,0.03
				c0.08,0.08,0.18,0.13,0.21,0.24c0.24,0.82,7.37,5.71,9.58,6.1c0.17,0.03,0.35,0.02,0.52,0.09c0.23,0.1,0.43,0.15,0.69,0.2
				c0.27,0.06,0.48,0.24,0.77,0.29c0.23,0.04,0.59-0.01,0.78,0.13c0.21,0.16,0.59,0.05,0.82,0c-0.74,2.18-1.5,4.34-2.33,6.49
				c-0.8,2.09-1.65,4.18-2.3,6.32c-0.21,0.7-0.54,1.37-0.78,2.06c-0.38,1.11-0.76,2.23-1.16,3.33c-0.4,1.1-0.83,2.2-1.22,3.3
				c-0.69,2.01-2.57,7.27-3.55,9.86c0.57-1.52,1.46-3.96,2.23-6.12c-2.95-0.48-5.93-0.87-8.94-1.17c-0.04,0.67,0.09,1.26,0.23,1.84
				c-0.16-0.64-0.31-1.3-0.22-2.07c0.07-0.6,0.25-1.03,0.44-1.45c0.11-0.25,0.21-0.49,0.29-0.76l0.21-1.35l0.25-0.6
				C317.6,204.62,317.37,203.5,317.23,202.76z M315.98,169.91c0-0.01,0-0.02,0-0.03c0.3-0.62,1.29-0.09,1.49,0.36
				c0.31,0.03,0.37,0.52,0.44,0.74c0.02,0.09,0.05,0.18,0.09,0.26c0.01,0.01,0.01,0.02,0.01,0.03c0.14,0.22,0.27,0.44,0.41,0.66
				c0.06,0.01,0.1,0.02,0.13,0.02c0.94,0.7,1.58,1.51,2.18,2.52c0.14,0.23,0.35,0.44,0.49,0.67c0.06-0.01,0.1-0.01,0.15,0.01
				c0.24,0.11,0.19,0.42,0.14,0.74c-0.04,0.4-0.36,0.69-0.7,0.84c-0.18,0.06-0.36,0.1-0.55,0.1c-0.09,0-0.17-0.01-0.26-0.03
				c-0.01,0-0.01-0.01-0.04-0.02c-1.38,0.36-2.01-1.23-2.39-2.79c-0.26-0.48-0.39-1.02-0.73-1.5c-0.14-0.19-0.31-0.38-0.48-0.59
				c-0.07-0.05-0.13-0.11-0.18-0.17c-0.03-0.06-0.08-0.13-0.12-0.21c-0.13-0.19-0.24-0.39-0.3-0.61
				C315.65,170.47,315.67,170.09,315.98,169.91z M323.03,216.78c-0.04,0.1-0.07,0.19-0.11,0.28
				C322.96,216.98,323,216.88,323.03,216.78z M322.91,217.1c-0.04,0.09-0.07,0.19-0.1,0.27
				C322.84,217.28,322.88,217.19,322.91,217.1z M322.52,218.09c-0.02,0.05-0.04,0.09-0.06,0.12c-0.01,0.02-0.02,0.04-0.03,0.06
				c0.01-0.02,0.02-0.04,0.03-0.06C322.47,218.19,322.49,218.15,322.52,218.09z M330.82,218.7c0.05-0.16,0.03-0.28-0.04-0.42
				C330.85,218.41,330.87,218.53,330.82,218.7z M330.34,219.82c0.15-0.22,0.27-0.55,0.38-0.83
				C330.61,219.26,330.49,219.6,330.34,219.82z M328.64,216.61c0.22,0.19,0.44,0.39,0.63,0.6c0,0.02,0.02,0.03,0.03,0.04
				c0.1,0.1,0.21,0.2,0.31,0.3c0.34,0.37,0.68,0.76,1.01,1.13c0.23,0.24-0.1,0.62-0.24,0.83c-0.05,0.06-0.1,0.36-0.19,0.34
				c-0.05-0.01-0.21-0.17-0.21-0.21c-0.04-0.04-0.09-0.09-0.13-0.13c-0.03-0.01-0.09-0.06-0.15-0.12c-0.18-0.13-0.38-0.24-0.51-0.42
				c-0.04-0.05-0.08-0.1-0.14-0.15c-0.04-0.03-0.06-0.05-0.09-0.08c-0.24-0.19-0.54-0.32-0.75-0.55c-0.12-0.08-0.2-0.18-0.28-0.29
				c-0.01-0.02-0.05-0.04-0.07-0.06c-0.16-0.1-0.26-0.28-0.38-0.42c-0.16-0.16-0.41-0.38-0.37-0.63c0.02-0.47,0.12-0.95,0.15-1.42
				c0.13,0.08,0.25,0.21,0.34,0.35c0,0,0,0,0,0.01c0,0,0,0,0-0.01c0.08,0.05,0.14,0.11,0.2,0.17c0.1,0.06,0.2,0.12,0.23,0.26
				C328.26,216.26,328.48,216.45,328.64,216.61z M336.09,191.42c0.04-0.23,0.15-0.48,0.13-0.7v0.01c0-0.01,0-0.01,0-0.02
				c0-0.01,0-0.02,0-0.02s0,0.01,0,0.02c-0.02-0.11-0.06-0.21-0.07-0.32c-0.01,0,0.21,0.12,0.21,0.12c0.11,0.07,0.18,0.2,0.26,0.3
				c0.04,0.01,0.08,0.03,0.08,0.03c0.07,0.04,0.11,0.11,0.17,0.17c0.14,0.13,0.3,0.23,0.43,0.38c0.09,0.1,0.2,0.21,0.3,0.31
				c0.01,0.01,0.03,0.02,0.04,0.04c0.24,0.24,0.49,0.48,0.71,0.74c0.04,0.08,0.1,0.14,0.16,0.2c0.02,0.01,0.04,0.04,0.05,0.05
				c0.06,0.06,0.11,0.12,0.19,0.19c0.04,0.05,0.11,0.09,0.15,0.15c0.32,0.34,0.77,0.79,0.66,1.28c-0.02,0.05-0.33,0.98-0.51,0.71
				c-0.04-0.06-0.15-0.1-0.2-0.16c-0.05-0.05-0.07-0.11-0.09-0.16c-0.01-0.01-0.02-0.01-0.03-0.03c-0.06-0.05-0.16-0.09-0.21-0.14
				c-0.11-0.11-0.1-0.23-0.23-0.31c-0.1-0.05-0.15-0.17-0.21-0.27c-0.36-0.27-0.73-0.53-1.07-0.83c-0.04-0.05-0.08-0.12-0.12-0.17
				c-0.07-0.05-0.15-0.11-0.22-0.17c-0.19-0.18-0.31-0.47-0.46-0.68c-0.07-0.11-0.12-0.18-0.12-0.31
				C336.1,191.69,336.07,191.55,336.09,191.42z M336.6,186.88c-0.1,0.41-0.28,0.79-0.45,1.15c-0.11,0.28-0.15,0.59-0.29,0.86
				c-0.07,0.1-0.13,0.17-0.16,0.29c-0.03,0.1-0.03,0.32-0.1,0.4c0,0-0.03-0.12-0.01-0.13c-0.06,0.04-0.09,0.28-0.11,0.34
				c-0.05,0.16-0.1,0.33-0.15,0.5c-0.11,0.36-0.29,0.67-0.39,1.02c-0.12,0.47-0.35,0.92-0.51,1.39c-0.19,0.55-0.45,1.11-0.6,1.68
				c-0.12,0.47-0.25,0.89-0.45,1.33c-0.2,0.49-0.33,0.97-0.51,1.48c-0.1,0.26-0.19,0.52-0.28,0.78c-0.05,0.18-0.12,0.31-0.18,0.49
				c-0.13,0.32-0.27,0.62-0.37,0.95c-0.07,0.4-0.25,0.82-0.4,1.17c-0.2,0.58-0.44,1.14-0.65,1.72c-0.44,1.2-0.89,2.41-1.33,3.61
				c-0.77,2.14-1.58,4.29-2.27,6.43c-0.09,0.28-0.18,0.55-0.28,0.82c-0.09,0.26-0.27,0.53-0.3,0.8c-0.02,0.16-0.13,0.37-0.18,0.52
				c-0.1,0.22-0.2,0.5-0.24,0.74c0,0.05-0.07,0.04-0.07,0.07c-0.05,0.05-0.03,0.16-0.07,0.22c-0.07,0.21-0.19,0.4-0.22,0.63
				c-0.03,0.22-0.19,0.41-0.24,0.64c-0.06,0.27-0.22,0.52-0.29,0.78c-0.33,1.04-0.73,2.08-1.12,3.09c-0.16,0.43-0.36,0.86-0.44,1.3
				c-0.02,0.11-0.06,0.08-0.11,0.17c-0.06,0.11-0.09,0.24-0.13,0.36c-0.03,0.09-0.1,0.36-0.18,0.42c-0.11,0.1-0.15,0.47-0.2,0.63
				c-0.09,0.22-0.18,0.43-0.25,0.66c-0.16,0.5-0.38,1-0.57,1.5c-0.42,1.1-0.83,2.21-1.21,3.33c-0.16,0.5-0.35,0.97-0.52,1.46
				c-0.11,0.26-0.18,0.52-0.27,0.78c-0.04,0.09-0.07,0.19-0.11,0.28c0,0.01-0.04,0.13-0.03,0.12c-0.13,0.41-0.32,0.79-0.45,1.2
				c-0.14,0.51-0.3,1.01-0.51,1.51c-0.22,0.5-0.41,1.02-0.57,1.53c-0.17,0.54-0.4,1.05-0.57,1.59c-0.21,0.67-0.47,1.34-0.71,2.02
				c-0.55,1.58-1.2,3.12-1.68,4.72c-0.12,0.15-0.23,0.55-0.29,0.77c-0.07,0.22-0.14,0.43-0.22,0.66c-0.05,0.36-0.34,0.76-0.44,1.13
				c-0.14,0.57-0.43,1.04-0.58,1.64c-0.13,0.52-0.45,0.97-0.55,1.5c-0.04,0.27-0.13,0.54-0.24,0.8c-0.08,0.16-0.12,0.42-0.22,0.56
				c-0.14,0.11-0.15,0.42-0.24,0.56c-0.09,0.26-0.2,0.5-0.29,0.75c-0.07,0.22-0.09,0.47-0.23,0.68c-0.04,0.09-0.23,0.53-0.17,0.51
				c-0.34,0.78-0.68,1.6-0.88,2.42c-0.04,0.16-0.14,0.31-0.2,0.47c-0.04,0.2-0.09,0.42-0.17,0.6c-0.14,0.31-0.32,0.64-0.45,0.96
				l0.07-0.06c0.01,0.34-0.25,0.71-0.35,1.04c-0.12,0.4-0.37,0.81-0.48,1.24c-0.05,0.23-0.14,0.48-0.23,0.69
				c-0.08,0.13-0.17,0.27-0.17,0.43c0,0.13-0.1,0.53-0.22,0.63c-0.01-0.05-0.39-0.17-0.47-0.21c-0.18-0.12-0.32-0.24-0.48-0.38
				c-0.02-0.02-0.02-0.04-0.03-0.06c-0.07-0.06-0.14-0.1-0.2-0.16c-0.18-0.17,0.06-0.54,0.12-0.77c0.09-0.31,0.22-0.59,0.33-0.89
				c0.12-0.31,0.14-0.65,0.28-0.95c0.54-1.07,0.87-2.26,1.29-3.38c-0.04,0.05-0.09,0.1-0.15,0.16c0.38-1.08,0.86-2.11,1.24-3.18
				c0.11-0.31,0.22-0.62,0.34-0.93c0.42-1.15,0.86-2.3,1.23-3.46c0.15-0.49,0.32-0.98,0.53-1.45c0.23-0.52,0.35-1.1,0.57-1.64
				c0.2-0.5,0.37-1.02,0.55-1.53c0.18-0.45,0.33-0.87,0.44-1.33c0.14-0.5,0.36-0.97,0.53-1.46c0.13-0.34,0.2-0.62,0.34-0.96
				c0.21-0.53,0.39-1.06,0.61-1.58c0.11-0.25,0.17-0.51,0.28-0.77c0.05-0.12,0.11-0.24,0.11-0.38c0-0.16,0.05-0.09,0.1-0.19
				c0.21-0.4,0.28-0.87,0.45-1.3c0.19-0.48,0.43-0.95,0.54-1.45c0.05-0.25,0.18-0.5,0.27-0.74c0.09-0.26,0.18-0.53,0.26-0.8
				c0.2-0.56,0.45-1.12,0.61-1.7c0.09-0.32,0.24-0.6,0.36-0.92c0.09-0.24,0.18-0.48,0.25-0.72c0.08-0.24,0.1-0.53,0.23-0.74
				c0.14-0.23,0.19-0.53,0.29-0.79c0.07-0.2,0.15-0.38,0.23-0.58c0.18-0.46,0.37-0.93,0.52-1.4c0.2-0.41,0.31-0.9,0.48-1.33
				c0.18-0.45,0.32-0.88,0.53-1.31c0.19-0.49,0.3-1.03,0.49-1.53c0.22-0.59,0.48-1.16,0.66-1.75c0.1-0.31,0.2-0.81,0.42-1.02
				c0.02-0.17,0.1-0.32,0.15-0.49c0.08-0.23,0.14-0.58,0.29-0.78c0.1-0.13,0.11-0.38,0.18-0.53c0.1-0.24,0.2-0.48,0.28-0.73
				c0.16-0.47,0.31-0.94,0.47-1.39c0.42-1.14,0.84-2.27,1.26-3.4c0.78-2.12,1.41-4.28,2.25-6.38c0.44-1.09,0.73-2.24,1.18-3.32
				c0.23-0.56,0.42-1.12,0.63-1.69c0.07-0.2,0.3-0.52,0.27-0.73c-0.02-0.16,0.26-0.35,0.23-0.47c-0.02-0.07-0.1,0-0.15-0.03
				c0-0.02,0.32-0.05,0.05-0.15c0.32-0.12,0.34-0.75,0.45-1.02c0.06-0.2,0.12-0.39,0.19-0.58c0.02-0.05,0.27-0.51,0.27-0.52
				c-0.12-0.15,0.11-0.24,0.09-0.46c-0.03-0.16,0.18-0.47,0.23-0.63c0.17-0.48,0.38-0.93,0.52-1.41c0.19-0.66,0.49-1.29,0.72-1.94
				c0.15-0.39,0.39-0.83,0.45-1.26c0.03-0.28,0.23-0.57,0.3-0.84c0.09-0.33,0.23-0.65,0.36-0.96c0.25-0.46,0.42-1.04,0.58-1.54
				c0.07-0.29,0.16-0.59,0.28-0.86c0.05-0.1,0.13-0.15,0.15-0.27s0.01-0.25,0.1-0.34c0.08-0.26,0.14-0.54,0.3-0.77
				c0.04-0.13,0.3-0.26,0.3-0.36c0.09,0.05,0.13,0.18,0.16,0.32c0.04-0.04,0.07-0.07,0.07-0.1c0.19,0.12,0.22,0.68,0.22,0.88
				c-0.01,0.14,0.11,0.36,0.12,0.51C336.49,186.44,336.62,186.83,336.6,186.88z M338.52,170.66c-0.03-0.16-0.08-0.33-0.12-0.47
				c-0.07-0.19-0.07-0.38-0.09-0.6c-0.01-0.23,0.02-0.46,0.05-0.68c0.02-0.1,0.01-0.2,0.03-0.29c0-0.07,0.06-0.02,0.05-0.12
				c-0.02-0.13,0.22-0.37,0.31-0.48c0.11-0.16,0.24-0.32,0.39-0.46c0.36-0.36,0.83-0.52,1.29-0.67c0.21-0.07,0.12-0.43,0.16-0.65
				c0.04-0.21,0.13-0.35,0.26-0.5c0.08-0.1,0.06-0.14,0.17-0.17c0.05-0.01,0.13-0.02,0.15-0.09c0.07-0.25,0.35-0.23,0.59-0.2
				c0.08,0.01,0.3,0.01,0.33,0.1c0,0,0,0.01,0,0.02l0.01,0.01c0.08,0,0.3,0,0.33,0.08c0.01,0.03,0.02,0.06,0.04,0.09
				c0.13-0.02,0.26-0.08,0.33-0.16c0.17-0.24,0.32-0.79,0.32-1.05c0-0.09,0.08-0.06,0.07-0.19c-0.02-0.12,0.03-0.23,0.06-0.33
				c0.06-0.15,0.15-0.29,0.16-0.42c0.02-0.11,0.1-0.42,0.18-0.49c0.13-0.11,0.08-0.4,0.15-0.56c0.02-0.03,0.04-0.12,0.1-0.09
				c0.01-0.12,0.04-0.24,0.09-0.36c0.04-0.11,0.09-0.22,0.12-0.33v-0.15c0.03-0.01,0.07-0.03,0.09-0.06
				c-0.02-0.02-0.04-0.04-0.06-0.05c0.06-0.04,0.09-0.09,0.09-0.16c0.03-0.12,0.03-0.25,0-0.36c-0.01-0.01-0.04-0.09-0.06-0.14
				c-0.04-0.02-0.07-0.07-0.12-0.11c-0.06,0.01-0.15,0.04-0.21,0c-0.11-0.07-0.23-0.19-0.3-0.28c-0.05-0.05-0.09-0.09-0.14-0.12
				c-0.06,0-0.13,0-0.2,0.01c-0.22,0.04-0.2,0.41-0.33,0.54c-0.17,0.16-0.3,0.47-0.58,0.39c-0.08-0.03-0.14-0.07-0.2-0.13
				c-0.03,0.02-0.09,0.02-0.14,0.01c-0.31-0.09-0.39-0.42-0.52-0.69c-0.07-0.14-0.14-0.25-0.24-0.32c-0.07,0-0.13,0-0.2,0.01
				c-0.48,0.09-0.9,0.1-1.38,0.05c-0.21-0.01-0.43-0.05-0.63-0.1c-0.05-0.01-0.1-0.06-0.15-0.07c-0.07-0.01-0.13-0.02-0.19-0.04
				c-0.18-0.06-0.32-0.19-0.5-0.21c-0.28-0.04-0.42-0.27-0.53-0.51c-0.05-0.12-0.11-0.24-0.18-0.34c-0.1-0.15-0.12-0.2-0.19-0.36
				c-0.08-0.19-0.08-0.35-0.11-0.54c-0.03-0.21,0-0.42-0.05-0.63c-0.03-0.19,0.06-0.37,0.07-0.55c0.02-0.17,0.02-0.37,0.15-0.48
				c0.04-0.13,0.23-0.79,0.02-0.82c-0.31-0.05-0.59-0.44-0.81-0.64c-0.17-0.15-0.3-0.27-0.43-0.43c-0.08-0.09-0.16-0.16-0.24-0.25
				c-0.01-0.02-0.06-0.11-0.09-0.16c0.02,0,0.05-0.01,0.06-0.02c0.02,0.01,0.02,0.04,0.02,0.05c0.03-0.01,0.07-0.03,0.09-0.05
				c0.07,0.01,0.16,0.02,0.22,0.04c0.17,0.02,0.33,0.04,0.5,0.06c0.39,0.05,0.78,0.09,1.15,0.19c0.13,0.04,0.27,0.08,0.41,0.06
				c0.24-0.03,0.23-0.15,0.24-0.33c0.03-0.25,0.23-0.41,0.27-0.63c0.05-0.21,0.01-0.19,0.21-0.28c0.17-0.07,0.34-0.16,0.53-0.16
				c0.16,0,0.28-0.01,0.44-0.02c0.14-0.01,0.25,0.06,0.38,0.11c0.15,0,0.28,0.11,0.43,0.15c0.32,0.1,0.59,0.31,0.82,0.54
				c0.12,0.12,0.24,0.26,0.35,0.39c0.05,0.06,0.11,0.11,0.17,0.17c0.02,0.06,0.01,0.2,0.09,0.22c0.17,0.05,0.34,0.66,0.38,0.81
				c0.12,0.37,0.22,0.8,0.22,1.19c-0.02,0.4,0.03,0.58,0.45,0.68c0.25,0.06,0.39,0.23,0.51,0.43c0.16,0.25,0.24,0.57,0.04,0.81
				c-0.06,0.08-0.14,0.16-0.14,0.26c-0.02,0.25,0.16,0.11,0.2,0.28c0.06,0.26,0.31,0.34,0.52,0.48c0.11,0.07,0.19,0.15,0.29,0.23
				c0.02,0,0.06,0.05,0.12,0.09c0.11-0.09,0.16-0.24,0.22-0.35c0.12-0.27,0.19-0.53,0.26-0.82c0.03-0.14,0.11-0.27,0.15-0.41
				c0.04-0.14,0.08-0.32,0.13-0.46c0.05-0.12,0.22-0.39,0.15-0.54c0.14,0.06,0.35-0.85,0.47-0.93c0.1-0.08,0.06-0.25,0.08-0.36
				c0.02-0.1,0.08-0.21,0.12-0.31c0.02-0.04,0.18-0.42,0.21-0.54c-0.12-0.03-0.24-0.07-0.33-0.11c-0.31-0.08-0.67-0.21-0.53-0.38
				c-0.43-0.22-0.2-1.38,0.04-1.7c0.14-0.22,0.2-0.35,0.13-0.61c-0.02-0.12-0.15-0.37-0.21-0.4c-0.16-0.08-0.24-0.65-0.3-0.82
				c-0.1-0.3-0.06-0.64-0.06-0.95c0-0.36-0.03-0.83,0.19-1.11c0.09-0.13,0.19-0.26,0.25-0.41c0.06-0.15,0.19-0.22,0.3-0.33
				c0.25-0.23,0.57-0.2,0.89-0.12c0.17,0.05,0.35,0.1,0.54,0.17c0.27,0.08,0.55,0.17,0.75,0.33c0.11,0.09,0.2,0.2,0.29,0.32
				c0.05,0.08,0.17,0.15,0.3,0.22c0.15-0.05,0.2-0.31,0.23-0.5c0.07-0.38,0.28-0.72,0.39-1.08c0.04-0.19,0.2-0.3,0.23-0.49
				c-0.01-0.05-0.01-0.1,0-0.15h0.06c0.14-0.12,0.12-0.33,0.29-0.41c0.09,0.19-0.02,0.38-0.06,0.57c-0.02,0.08-0.02,0.18-0.01,0.27
				c0.03-0.05,0.03-0.11,0.05-0.16v-0.15c0.02,0,0.04,0,0.07,0c0.15-0.11,0.12-0.33,0.3-0.41c0.09,0.18-0.01,0.38-0.06,0.57
				c-0.06,0.22,0.03,0.45-0.06,0.65c-0.09,0.24-0.02,0.45-0.07,0.68c-0.02,0.21-0.15,0.39-0.17,0.61c-0.03,0.21-0.03,0.44-0.12,0.64
				c-0.05,0.13,0.07,0.29,0.19,0.38c0.01,0,0.01,0.01,0.01,0.01c0.12,0.01,0.24,0.03,0.35,0.06c0.09,0.03,0.16,0.06,0.22,0.09
				c0.04,0.01,0.08,0.01,0.13,0.02c0.22,0.08,0.29,0.13,0.47,0.27c0.17,0.18,0.53,0.28,0.57,0.59c0.03,0.39-0.06,0.76-0.22,1.1
				c-0.08,0.17-0.18,0.31-0.24,0.46c-0.05,0.16-0.13,0.38-0.26,0.51c-0.18,0.15-0.21,0.27-0.35,0.46c-0.21,0.1-0.36,0.29-0.5,0.47
				c-0.21,0-0.34,0.17-0.51,0.25c-0.18,0.08-0.34,0.22-0.5,0.33c-0.19,0.13,0.12,0.32,0.15,0.45c0.03,0.14-0.02,0.33-0.06,0.45
				c-0.13,0.34-0.59,0.59-0.95,0.5c-0.07-0.02-0.13-0.06-0.18-0.11c-0.06,0-0.12,0.01-0.17,0c-0.14-0.03-0.21-0.14-0.3-0.24
				c-0.09,0.03-0.17,0.08-0.14,0.18c0.01,0.08-0.11,0.24-0.14,0.35c-0.07,0.21-0.17,0.43-0.23,0.64c-0.13,0.42-0.23,0.84-0.42,1.26
				c-0.2,0.44-0.43,0.91-0.57,1.37c-0.07,0.2-0.44,0.96-0.06,0.98c-0.08,0.17,0.23,0.25,0.36,0.32c0.11,0.05,0.22,0.18,0.33,0.27
				c0.02,0,0.03,0,0.03-0.01c0.12-0.05,0.15-0.1,0.1-0.21c-0.05-0.09,0.09-0.29,0.14-0.36c0.09-0.14,0.15-0.3,0.23-0.44
				c0.15,0.01,0.33-0.04,0.48,0.07c0.02,0.01,0.03,0.03,0.05,0.05c0.1-0.01,0.21,0,0.3,0.06c0.19,0.15,0.3,0.38,0.47,0.55
				c0.09,0.08,0.19,0.19,0.19,0.33c0.18-0.05,0.17,0.08,0.22,0.16c0.18,0.02,0.38-0.01,0.49,0c0.4,0.03,0.8,0.1,1.16,0.23
				c0.08,0.02,0.11,0.05,0.18,0.07c0.05,0.01,0.11,0.02,0.16,0.04c0.66,0.22,1.1,0.55,1.55,1.05c0.44,0.51,0.16,1.41-0.1,1.92
				c-0.11,0.24-0.21,0.36-0.38,0.55c-0.2,0.21,0.17,0.44,0.29,0.55c0.25,0.17,0.38,0.44,0.56,0.66c0.11,0.16,0.53,0.58,0.41,0.82
				c-0.07,0.02-0.08,0.01-0.07,0c-0.1,0-0.22-0.05-0.32-0.11c-0.02,0-0.03,0-0.02,0c-0.16,0-0.3-0.1-0.42-0.16
				c-0.13-0.05-0.32-0.06-0.41-0.15c-0.12-0.09-0.34-0.17-0.38-0.3c-0.02-0.08-0.05-0.15-0.08-0.19c-0.23,0.09-0.48,0.63-0.47,0.79
				c0.02,0.37-0.29,0.57-0.4,0.89c-0.18-0.16-0.3,0.01-0.46,0.12c-0.17,0.14-0.41,0.01-0.61-0.07c-0.12-0.02-0.26-0.09-0.38-0.13
				c-0.15-0.07-0.31-0.15-0.45-0.2c-0.14-0.05-0.26-0.2-0.39-0.23c-0.12-0.03-0.31-0.33-0.38-0.43c-0.08-0.11-0.17-0.17-0.22-0.29
				c-0.03-0.08-0.09-0.16-0.13-0.2c-0.12-0.12-0.09-0.28-0.12-0.44c-0.02-0.17-0.09-0.5-0.1-0.58c-0.09-0.06,0.05-0.1,0.06-0.14
				c-0.02-0.02-0.03-0.03-0.06-0.03c-0.01-0.09,0.06-0.23,0.05-0.33c-0.02-0.12-0.04-0.14-0.01-0.25c0.04-0.15,0.07-0.1,0.02-0.24
				c-0.04-0.13,0.02-0.32-0.07-0.43c-0.08-0.01-0.15-0.04-0.23-0.09c-0.17-0.02-0.28-0.03-0.43-0.19c-0.11-0.09-0.19-0.1-0.23-0.25
				c-0.03-0.15-0.09-0.27-0.12-0.42c-0.05-0.18-0.12-0.37-0.05-0.55c0.1-0.25-0.04-0.3-0.21-0.41c-0.14-0.13-0.34-0.32-0.55-0.45
				c-0.04,0-0.08-0.01-0.11-0.01c-0.23,0.03-0.13,0.21-0.29,0.3c-0.11,0.07-0.16,0.42-0.17,0.56c-0.02,0.39-0.34,0.72-0.39,1.1
				c-0.02,0.19-0.08,0.36-0.15,0.53c-0.04,0.08-0.09,0.15-0.12,0.24c-0.03,0.14,0.01,0.24-0.08,0.37c-0.15,0.21-0.13,0.46-0.27,0.66
				c-0.11,0.17-0.17,0.38-0.25,0.58c-0.05,0.14-0.17,0.3-0.06,0.43c0.1,0,0.22,0,0.32,0.09c0.02,0.01,0.02,0.01,0.02,0.02
				c0.11,0,0.21,0,0.32,0.09c0.24,0.19,0.26,0.31,0.31,0.59c0.04,0.23-0.03,0.38-0.07,0.58c-0.08,0.18-0.31,0.44-0.25,0.62
				c0.04,0.1,0.09,0.18,0.15,0.26c0.11,0.14,0.11,0.21,0.14,0.37c0.08,0.22,0.17,0.35,0.2,0.6c0.03,0.21,0.21,0.4,0.16,0.62
				c-0.06,0.22,0.05,0.48,0.03,0.72c-0.02,0.33-0.1,0.65-0.22,0.96c-0.17,0.43-0.4,0.86-0.67,1.24c-0.23,0.02-0.36,0.18-0.48,0.36
				c-0.25-0.03-0.35,0.19-0.61,0.15c-0.21-0.05-0.38-0.08-0.54-0.16c-0.19-0.04-0.36-0.09-0.53-0.22c-0.15-0.11-0.21-0.35-0.4-0.42
				c-0.06-0.02-0.25-0.33-0.26-0.4c-0.05-0.15-0.08-0.25-0.16-0.33c-0.2-0.01-0.4,0.05-0.61,0.02c-0.25-0.04-0.49-0.14-0.74-0.19
				c-0.09-0.01-0.2-0.04-0.27-0.05c-0.05-0.01-0.06-0.04-0.08-0.06c-0.09-0.02-0.19-0.04-0.28-0.05c-0.06-0.01-0.04-0.07-0.08-0.08
				c-0.05-0.01-0.23-0.17-0.26-0.2C338.71,171.37,338.57,170.98,338.52,170.66z M337.7,177.91c0.27-0.06,0.52-0.16,0.79-0.21
				c0.35-0.06,0.18-0.34-0.06-0.44c-0.22-0.07-0.49-0.06-0.68-0.22c-0.07-0.23,0.05-0.53-0.1-0.74c-0.09-0.14-0.1-0.07-0.05-0.27
				c0.02-0.07,0.12-0.24,0.18-0.28c0.18-0.17,0.53-0.13,0.71-0.31c0.15-0.12,0.06-0.09,0.25-0.1c0.13-0.01,0.17-0.22,0.24-0.32
				c0.08-0.12,0.11-0.18,0.18-0.33c0.06-0.14,0.14-0.33,0.24-0.45c0.04,0.16,0.14,0.27,0.17,0.43c0.01,0.07,0.33,0.02,0.33,0.09
				c0.04,0.1,0.16,0.25,0.16,0.37c0,0.07,0,0.16-0.08,0.19c-0.07,0.06-0.01,0.17-0.04,0.25c-0.04,0.11,0.05,0.37,0.14,0.47
				c0.09,0.07,0.16,0.13,0.24,0.21c0.03,0.07,0.05,0.23,0.11,0.29c0.09,0.06,0.19,0.33,0.21,0.47c0.03,0.25-0.05,0.48-0.21,0.67
				c0.04-0.1-0.27,0.05-0.07,0.07c-0.25-0.02-0.82-0.34-0.71,0.16c0.03,0.11,0.1,0.21,0.19,0.27c0.04,0.03,0.09,0.06,0.15,0.07
				c-0.01,0.13,0.01,0.23,0.03,0.35c0.08,0.32,0.07,0.62-0.27,0.78c-0.25,0.13-0.65,0.14-0.81,0.39c-0.35-0.07-0.7,0.04-1.03-0.01
				c-0.24-0.03,0.05-0.62,0.01-0.81c-0.07-0.26-0.35-0.41-0.52-0.59C337.15,178.09,337.45,177.96,337.7,177.91z M326.23,175.3
				c0.2,0.17,0.41,0.34,0.58,0.53c0.05,0.06,0.03,0.12,0.12,0.16c0.12,0.04,0.22,0.2,0.3,0.3c0.25,0.3,0.44,0.63,0.68,0.92
				c0.1,0.1,0.26,0.25,0.34,0.37c0.04,0.06,0.08,0.14,0.17,0.15c0.07,0.16,0.16,0.29,0.26,0.43c0.61,0.76,1.28,1.53,1.95,2.23
				c0.67,0.71,1.31,1.43,2.05,2.07c0.28,0.25,0.86,0.65,1.11,0.2c0.02-0.2-0.25-0.15-0.12-0.35c0.13-0.19,0.21-0.44,0.43-0.55
				c0.03-0.24,0.25-0.4,0.25-0.65c0-0.12,0.03-0.29,0.07-0.39c0.14-0.35,0.19-0.76,0.44-1.06c0.14-0.16,0.37-0.23,0.53-0.34
				c0.21-0.13,0.44-0.26,0.66-0.36c0.12-0.07,0.25-0.11,0.38-0.14c0.18-0.05,0.17,0.01,0.23,0.16c0.02,0.1,0.05,0.22,0.08,0.32
				c0.06,0.16-0.04,0.28-0.12,0.42c-0.1,0.22-0.06,0.09-0.2,0.04c-0.13-0.06-0.3-0.11-0.39,0.03c-0.17,0.23-0.13,0.62-0.12,0.88
				c0.01,0.15,0.01,0.3,0.01,0.44c-0.01,0.18,0.24,0.18,0.36,0.12c0.1-0.06,0.32,0.01,0.46-0.05c0.1-0.04,0.2-0.08,0.27-0.17
				c0.07-0.07,0.17-0.06,0.22-0.13c0.2-0.19,0.28-0.51,0.59-0.61c0.43-0.06,0.86-0.06,1.29-0.06h1.26c0,0.25-0.64,0.61-0.82,0.71
				c-0.42,0.25-0.87,0.43-1.3,0.63c-0.46,0.21-0.73,0.57-1.08,0.93c-0.36,0.38-0.68,0.79-1.06,1.18c-0.31,0.31-0.62,0.6-1,0.83
				c-0.3,0.2-0.86,0.38-1.22,0.29c-0.18-0.05-0.38-0.02-0.56-0.1c-0.27-0.13-0.52-0.12-0.81-0.16c-0.43-0.07-0.78-0.27-1.18-0.45
				c-0.19-0.08-0.39-0.15-0.57-0.25c-0.1-0.06-0.21-0.1-0.3-0.14c-0.15-0.05-0.18-0.1-0.29-0.18c-0.3-0.2-0.6-0.42-0.95-0.51
				c-0.3-0.1-0.89-0.24-1.17-0.42c-0.37-0.24-0.67-0.56-1.02-0.82c-0.18-0.13-0.35-0.25-0.51-0.39c-0.18-0.17-0.92-0.5-1.12-0.63
				c-0.37-0.23-0.5-0.63-0.8-0.94c-0.3-0.31-0.67-0.56-0.88-0.96c-0.1-0.05-0.2-0.11-0.28-0.19c-0.12-0.1-0.07-0.17-0.09-0.31
				c-0.01-0.04-0.09-0.4,0.03-0.39c-0.21-0.84,1.23-1.94,1.74-2.58c0.12-0.14,0.3-0.51,0.46-0.46
				C325.84,174.96,326.05,175.14,326.23,175.3z M325.83,170.74c-0.01-0.01-0.02-0.02-0.04-0.03c-0.01-0.03-0.02-0.08-0.04-0.12
				C325.78,170.64,325.81,170.69,325.83,170.74z M314.77,144.62c-0.12,0.29-0.27,0.59-0.43,0.86l0,0c0.02,0-0.01,0.05-0.12,0.21
				c0.05-0.07,0.08-0.14,0.12-0.21c-0.03,0.01-0.18,0.23-0.12,0.22l0,0c-0.1,0.02-0.04-0.11-0.12-0.11
				c-0.14,0.01-0.18-0.17-0.21-0.28c-0.03-0.18-0.02-0.37-0.02-0.55c0.01,0,0.01-0.01,0.01-0.02c0-0.07,0.01-0.16,0.01-0.2
				c0.05-0.23,0.2-0.45,0.29-0.67c0.07-0.19,0.13-0.38,0.21-0.56c0.08-0.17,0.1-0.46,0.2-0.62c0-0.11,0-0.22,0.03-0.32
				c0,0-0.51,0.51-0.65,0.56c-0.06,0.17-0.2,0.61-0.38,0.62c-0.23,0.01-0.56-0.96-0.58-1.11c-0.04-0.37,0.06-0.76,0.06-1.14
				c0-0.57,0.05-1.12,0.08-1.69c-0.02-0.06-0.02-0.11-0.03-0.17c-0.08,0.13-0.12,0.28-0.15,0.43c-0.02-0.01-0.04-0.02-0.06-0.02
				c-0.01,0.46,0.04,1.03-0.32,1.22c-0.15-0.26-0.25-0.45-0.5-0.65c-0.27-0.22-0.38-0.33-0.37-0.69c0-0.25-0.03-0.56,0.07-0.76
				c0-0.05,0-0.12,0-0.18c-0.01-0.19-0.02-0.39-0.06-0.57c-0.02-0.12-0.12-0.3-0.08-0.42c0.11-0.32-0.06-0.6-0.24-0.84
				c-0.04-0.06-0.02-0.19-0.12-0.2c-0.11,0.08-0.07,0.3-0.06,0.4c0,0.3-0.06,0.56-0.08,0.86c0,0.18,0,0.37-0.07,0.53
				c-0.02,0.07-0.06,0.13-0.11,0.17c0.01,0.12-0.03,0.23-0.08,0.34c-0.14-0.06-0.25-0.14-0.23-0.31c-0.13-0.02-0.38-0.22-0.42-0.35
				h-0.01c-0.13-0.08-0.29-0.14-0.4-0.26c-0.31-0.32-0.17-1.05-0.19-1.45c-0.01-0.35-0.09-0.73-0.11-1.08
				c-0.15-0.1-0.16-0.32-0.32-0.45c0.09,0.77,0.02,1.57-0.09,2.34c-0.11-0.01-0.21-0.07-0.26-0.18c-0.09-0.19-0.12-0.18-0.28-0.31
				c-0.2-0.39-0.42-0.78-0.59-1.19c-0.12-0.32-0.25-0.64-0.32-0.97c-0.1-0.48,0.11-0.22,0.41-0.18c0.14,0.04,0.29,0.02,0.44,0.07
				c0.2,0.07,0.36,0.2,0.56,0.28c0.07,0.02,0.27,0.06,0.35,0.06c0.16,0.01,0.27,0.1,0.42,0.14c0.51,0.12,1.31,0.59,1.32,1.15
				c0.1,0,0.07-0.16,0.11-0.23c0.26,0.15,0.43,0.41,0.69,0.57c0.06,0.12,0.5,0.54,0.48,0.63c-0.02,0.07,0.26,0.35,0.32,0.42
				c0.1,0.14,0.18,0.16,0.21,0.33c0.02,0.2,0.08,0.38,0.13,0.58c0.1-0.06,0.08-0.2,0.16-0.26c0.16,0.28,0.46,0.57,0.55,0.85
				c0.04,0.16,0.07,0.34,0.21,0.46c-0.01,0.23,0.16,0.41,0.14,0.6c-0.02,0.16,0.14,0.3,0.2,0.42c0.06,0.15,0.13,0.36,0.16,0.52
				c0.04,0.19,0.01,0.39,0.03,0.59c0,0.03,0.04,0.29,0.09,0.28c0.04-0.01,0.07-0.08,0.11-0.09c0.01,0,0.08,0.68,0.08,0.77
				c0,0.12,0.01,0.22,0.05,0.34c0.06,0.14-0.04,0.34-0.05,0.49c-0.02,0.13,0.06,0.2,0.09,0.32
				C314.92,144.21,314.85,144.42,314.77,144.62z M314.93,135.26c0.17,0.15,0.19,0.38,0.39,0.5c0.23,0.13,0.31,0.31,0.36,0.55
				c0.1,0.33,0.2,0.84-0.01,1.15c-0.18-0.06-0.28-0.28-0.35-0.43c-0.12-0.24-0.32-0.44-0.44-0.69c-0.11-0.21-0.25-0.38-0.38-0.57
				c-0.11-0.17-0.28-0.34-0.39-0.52C314.36,135.08,314.7,135.04,314.93,135.26z M309.05,131.77c-0.16-0.62,1.12-0.23,1.35-0.03
				c0.14,0.11,0.56,0.17,0.61,0.4c0.05,0.25,0.04,0.43,0.11,0.64c-0.25-0.05-0.4-0.22-0.64-0.28c-0.05-0.02-0.08-0.04-0.12-0.05
				c-0.11-0.05-0.12-0.12-0.21-0.16c-0.1-0.06-0.24,0.01-0.35-0.03c-0.11-0.04-0.18-0.17-0.29-0.19c-0.12-0.03-0.26,0-0.38,0
				C308.96,132.07,308.88,131.86,309.05,131.77z M308.86,132.63v0.03c0.35,0.08,0.66,0.18,0.64,0.25c0.05-0.11,0.41,0.08,0.49,0.11
				c0.14,0.04,0.22,0.1,0.33,0.12c0.17,0.02,0.22,0.13,0.37,0.17c0.14,0.03,0.17,0.12,0.27,0.17c0.2,0.13,0.46,0.27,0.63,0.45
				c0.22,0.25,0.43,0.42,0.7,0.61c0.12,0.1,0.24,0.2,0.36,0.3c0.06,0.06,0.16,0.21,0.22,0.25c0.51,0.38,0.97,0.87,1.38,1.35
				c-0.01,0.02-0.03,0.03-0.04,0.06c0.05,0.04,0.1,0.07,0.16,0.1c0.09,0.06,0.1,0.12,0.15,0.21c0.18,0.19,0.24,0.5,0.35,0.72
				c0.3,0.53,0.39,1.11,0.67,1.64c0.13,0.28,0.28,0.48,0.23,0.78c0.07,0.25,0.04,0.51,0.06,0.77c0.01,0.26-0.06,0.51-0.08,0.78
				c-0.02,0.17,0.02,0.34-0.02,0.52c-0.03,0.2-0.1,0.39-0.07,0.59c-0.13-0.06-0.22-0.63-0.23-0.76c-0.03-0.27-0.1-0.6-0.2-0.85
				c-0.02-0.07-0.02-0.12,0-0.18c-0.04-0.07-0.09-0.16-0.11-0.24c-0.09-0.2-0.16-0.4-0.23-0.61c-0.12-0.37-0.24-0.74-0.43-1.07
				c-0.36-0.59-0.7-1.15-1.08-1.73c-0.18-0.27-0.36-0.57-0.58-0.8c-0.08-0.08-0.17-0.15-0.21-0.23c-0.06-0.02-0.1-0.05-0.12-0.06
				c-0.59-0.32-1.1-0.71-1.66-1.06c-0.24-0.15-0.43-0.33-0.68-0.44c-0.23-0.1-0.47-0.21-0.7-0.32c-0.41-0.21-0.78-0.43-1.22-0.57
				c-0.5-0.16-1.09-0.33-1.6-0.39c-0.63-0.07-1.28-0.05-1.91-0.09c0.18-0.42,0.97-0.84,1.41-0.89
				C307.01,132.19,308,132.46,308.86,132.63z M307.05,135.59c-0.35,0-0.71-0.37-0.89-0.63c0-0.05-0.11-0.01-0.12-0.05
				c-0.03-0.1-0.08-0.2-0.11-0.31c-0.13-0.45,0.26-0.16,0.45-0.35c-0.1,0.09,0.01,0.01,0.01,0c0.03,0,0.23,0.03,0.25,0.04
				c0.09,0.06,0.2,0.05,0.3,0.04c0.18-0.02,0.22,0.1,0.4,0.12c-0.22,0.15-0.22,0.2-0.24,0.45
				C307.06,135.13,306.99,135.35,307.05,135.59z M305.11,131.48c0.16-0.03,0.38-0.1,0.52,0.02c0.12-0.01,0.39,0.21,0.39,0.35
				c-0.33,0.09-0.66,0.23-0.94,0.42c-0.11,0.08-0.24,0.12-0.38,0.15c-0.06,0.02-0.27,0.14-0.33,0.12c-0.01-0.07-0.01-0.12-0.01-0.2
				C304.43,131.85,304.61,131.62,305.11,131.48z M303.22,134.63c0.03-0.18,0.19-0.25,0.32-0.36c0.09-0.07,0.17-0.17,0.27-0.2
				c0.09-0.03,0.18-0.03,0.28-0.03c0.2-0.11,0.39-0.05,0.61,0c0.1,0,0.2,0.02,0.28,0.05c0.21,0.03,0.49,0.1,0.32,0.38
				c-0.01,0.21-0.03,0.42-0.28,0.45c-0.29,0.03-0.61,0-0.9-0.01c-0.24-0.02-0.46,0-0.68-0.08
				C303.32,134.79,303.19,134.78,303.22,134.63z M300.39,138.34c0.14,0.02,0.07-0.63,0.4-0.44c0.51,0.29-0.12,0.6-0.35,0.84
				C300.31,138.62,300.46,138.46,300.39,138.34z M298.8,144.01c0.03,0,0.09,0,0.02,0c0.2,0,0.53-0.08,0.59,0.2
				c-0.18,0-0.36,0.03-0.57,0.01C298.57,144.18,298.46,144.03,298.8,144.01z M299.15,143.25c0,0.01,0,0.01-0.01,0.03
				C299.15,143.26,299.15,143.25,299.15,143.25c0.15-0.22,0.37,0,0.53,0.06c0.17,0.07,0.45,0.14,0.56,0.32
				c0.08,0.16-0.61,0.05-0.68,0.05c-0.15-0.01-0.32,0.11-0.37-0.03c-0.05-0.11-0.09-0.26-0.04-0.38
				C299.13,143.3,299.12,143.33,299.15,143.25z M282.07,166.01c0.01-0.08,0.31-0.18,0.39-0.26c0.16-0.19,0.45-0.26,0.62-0.43
				c0.15-0.15,2.81-2,3.23-2.12c0.26-0.09,0.43-0.23,0.67-0.34c0.27-0.12,0.81-0.79,1.09-0.88c0.33-0.1,0.74-0.51,1.05-0.66
				c0.28-0.14,0.54-0.24,0.83-0.33c0.19-0.06,0.37-0.17,0.55-0.27c0.22-0.09,0.27,0.02,0.43,0.14c0.12,0.09,0.24,0.14,0.35,0.26
				c0.11,0.14,0.24,0.37,0.42,0.42c0.11-0.16-0.13-0.32-0.16-0.47c-0.04-0.17-0.14-0.36-0.15-0.53c0-0.09-0.08-0.14-0.1-0.24
				c0-0.14,0.08-0.27,0.16-0.37c0.06-0.15,0.12-0.35,0.16-0.52c0.09-0.32,0.36-0.56,0.56-0.81c0.09-0.11,0.35-0.24,0.47-0.29
				c0.12-0.13,0.4-0.13,0.48-0.27c0.11-0.14,0.32-0.19,0.5-0.2c0.1-0.02,0.39-0.06,0.45-0.13c0.39-0.24,0.94-0.1,1.34-0.38
				c0.45-0.32,0.61-0.4,1.14-0.48c0.14-0.1,0.47-0.2,0.64-0.22c0.16-0.01,0.47-0.03,0.61-0.14c1.06-0.14,2.06-0.67,2.98-1.2
				c0.86-0.51,1.41-1.27,1.79-2.18c0.09-0.24,0.21-0.45,0.23-0.71c-0.03-0.14,0.04-0.41,0.07-0.56c0-0.2-0.06-0.44-0.04-0.62
				c0.03-0.23,0.01-0.52,0-0.76c0-0.12-0.05-0.21-0.05-0.33c0.01-0.13,0.02-0.24,0.03-0.37c0-0.07-0.04-0.17-0.03-0.25
				c0.01-0.07,0.08-0.11,0.05-0.19c-0.07-0.16,0.19-0.29,0.31-0.32c0.18-0.05,0.32-0.24,0.5-0.3c0.13-0.04,0.23-0.2,0.35-0.33
				c0.02-0.03,0.11-0.13,0.19-0.16c0.08-0.03,0.23-0.17,0.31-0.23c0.11-0.08,0.31-0.35,0.43-0.36c0.12-0.02,0.28-0.26,0.22-0.39
				c-0.05-0.12-0.2-0.14-0.32-0.13c-0.15,0.01-0.31,0.06-0.45,0.12c-0.05,0.03-0.11,0.06-0.16,0.1c-0.06,0.06-0.23,0.05-0.33,0.11
				c-0.23,0.14-0.39,0.13-0.64,0.18c-0.23,0.05-0.44,0.2-0.68,0.17c-0.21-0.04-0.41-0.25-0.61-0.2c-0.01,0.01-0.27-0.12-0.3-0.14
				c-0.18-0.07-0.36-0.15-0.52-0.22c-0.48-0.19-0.98-0.4-1.47-0.61c-0.27-0.11-0.55-0.22-0.81-0.33c-0.63-0.26-0.49-0.64-0.57-0.64
				c-0.03-0.29,0.15-0.67,0.32-0.89c0.2-0.25,0.67-0.25,0.94-0.2c0.15,0.03,0.51-0.16,0.66-0.19c0.23-0.04,0.55-0.17,0.73-0.07
				c0.08,0.04,0.19,0.01,0.27,0c-0.01,0,0.19,0.05,0.14,0.08c0.11-0.05,0.12-0.41,0.14-0.58c-0.3,0.09-0.86-0.25-0.91-0.55
				c-0.02-0.19-0.19-0.24-0.32-0.33c-0.14-0.1-0.26-0.26-0.38-0.38c-0.21-0.22-0.56-0.27-0.79-0.18c-0.05-0.09-0.45-0.06-0.25-0.21
				c0.17-0.13,0.26-0.33,0.42-0.48c0.17-0.17,0.32-0.11,0.55-0.08c0.12,0.02,0.25,0.02,0.35,0.08c-0.01,0.11,0.07,0.2,0.16,0.26
				c0.17,0.11,0.29,0.2,0.5,0.16c0.13-0.02,0.34-0.21,0.32-0.36c-0.02-0.12,0.03-0.64-0.21-0.43c-0.21,0.19-0.25,0.19-0.42-0.04
				c-0.14-0.19-0.34-0.29-0.54-0.38c-0.22-0.11-0.41-0.31-0.66-0.31c0.06-0.03,0.04-0.14,0.04-0.21c-0.02-0.15,0.07-0.23,0.18-0.32
				c0.2-0.18,0.43-0.31,0.67-0.44c0.52-0.26,0.94-0.5,1.31-0.95c0.18-0.2,0.43-0.35,0.59-0.56c0.07-0.1-0.09-0.42-0.12-0.53
				c-0.08-0.26-0.27-0.48-0.43-0.7c-0.14-0.19-0.12-0.18-0.36-0.17c0.06-0.1,0.12-0.19,0.19-0.28c0.11-0.14,0.2-0.09,0.37-0.08
				c-0.07-0.04,0.23-0.4,0.27-0.46c0.12-0.15,0.18-0.21,0.36-0.26c-0.04-0.01-0.11-0.05-0.16-0.05c0.13-0.1,0.14-0.21,0.34-0.23
				c0.05,0,0.4-0.08,0.34-0.1c0.39,0.13,0.88,0.03,1.31,0.16c0.54,0.15,1.16,0.18,1.6,0.57c0.12,0.01,0.23-0.01,0.35,0
				c0.12,0.02,0.22,0.12,0.35,0.14c0.29,0.03,0.58,0.18,0.82,0.33c0.51,0.32,0.68,1.14,0.85,1.67c0.15,0.47,0.44,1.06,0.27,1.56
				c0.03,0.59-0.02,1.25-0.18,1.76c-0.08,0.26-0.14,0.53-0.24,0.79c-0.13,1.01-0.55,2.12-1.26,2.86c-0.09,0.16-0.18,0.29-0.33,0.43
				c-0.04,0.04-0.08,0.07-0.13,0.11c-0.01,0.03-0.02,0.06-0.03,0.08c-0.04,0.19-0.22,0.29-0.34,0.41c-0.1,0.1-0.02,0.12-0.14,0.19
				c-0.07,0.06-0.13,0.16-0.23,0.19c0.1,0.05,0.18-0.01,0.26-0.04c0.14-0.05,0.28,0.03,0.41,0.01c0.22-0.04,0.35-0.31,0.56-0.33
				c0.09,0,0.22-0.08,0.3-0.15c0.11-0.01,0.22-0.08,0.33-0.09c0.16-0.02,0.09,0.21,0.1,0.32c0.04,0.27,0.1,0.53,0.13,0.81
				c0.03,0.3,0.17,0.56,0.17,0.87c0,0.13,0.04,0.22,0.1,0.35c0.07,0.16,0.04,0.34,0.06,0.51c0.01,0.16,0.12,0.3,0.11,0.47
				c-0.01,0.13-0.05,0.27,0.04,0.39c0.08,0.09,0.2,0.1,0.3,0.07c0-0.15,0.01-0.3,0.02-0.41c0.01-0.22,0.02-0.44,0.02-0.66
				c0-0.29,0.02-0.57-0.07-0.84c-0.09-0.31-0.12-0.57-0.15-0.89c-0.05-0.67-0.02-1.37-0.02-2.04c0-0.35-0.02-0.71,0.08-1.04
				c0.11-0.32,0.19-0.66,0.33-0.97c0.06-0.12,0.12-0.25,0.15-0.4c0.03-0.11,0.01-0.26,0.07-0.37c-0.02,0.48,0.17,0.94,0.33,1.39
				c0.06,0.2,0.15,0.4,0.22,0.6c0.13,0.4,0.34,0.81,0.39,1.22c0.11,0.23,0.21,0.45,0.24,0.73c0.02,0.16,0.03,0.33,0.11,0.48
				c0.1,0.22,0.07,0.43,0.15,0.65c0.09-0.16,0.23-0.3,0.35-0.45c-0.02-0.22,0.02-0.44-0.02-0.67c-0.05-0.19-0.14-0.39-0.08-0.59
				c0.05-0.22,0.2,0,0.31,0.05c0.36,0.13,0.61,0.37,1.02,0.41c0.12,0.01,0.2-0.01,0.25-0.04c-0.32-0.1-0.61-0.37-0.86-0.58
				c-0.25-0.21-0.49-0.43-0.74-0.64c-0.11-0.11-0.21-0.22-0.27-0.37c-0.13-0.36-0.21-0.76-0.33-1.12c-0.08-0.2-0.08-0.41-0.1-0.62
				c-0.04-0.3-0.09-0.6-0.15-0.89c-0.09-0.41-0.05-0.84-0.05-1.27c0-0.28,0.04-0.52,0.07-0.77c0.03-0.19,0.04-0.38,0.06-0.56
				c0.04-0.04,0.27,0.22,0.31,0.25c0.28,0.28,0.5,0.57,0.77,0.85c0.13,0.15,0.45,0.42,0.48,0.65c0.18,0.14,0.33,0.28,0.43,0.53
				c0.07,0.14,0.12,0.27,0.17,0.41c0,0,0-0.01,0-0.02c0.24,0.35,0.35,0.77,0.56,1.13c0.06,0.12,0.14,0.27,0.14,0.41
				c0,0.22,0.16,0.32,0.21,0.5c0.14,0.39,0.2,0.8,0.36,1.19c0.09,0.22,0.06,0.43,0.07,0.66c0,0.23,0.08,0.35-0.21,0.36
				c-0.18,0.01-0.37-0.02-0.56,0.03c0,0.13,0.12,0.18,0.24,0.22c0.24,0.09,0.22,0.44,0.22,0.67c-0.01,0.35-0.11,0.72-0.21,1.06
				c-0.04,0.12-0.35,0.7-0.5,0.7c0.01-0.13-0.04-0.25-0.1-0.34c-0.1-0.15-0.08-0.39-0.12-0.57c-0.1-0.29-0.28-0.55-0.49-0.77
				c0,0.26,0.16,0.45,0.18,0.71c0.02,0.3,0.09,0.65-0.01,0.95c-0.04,0.14-0.08,0.5-0.26,0.55c-0.11,0.03-0.05,0.09-0.18,0.1
				c-0.15,0.02-0.3,0-0.45,0.03c0.01-0.04-0.12-0.12-0.14-0.18c-0.03-0.12,0-0.24-0.01-0.35c-0.05-0.19-0.08-0.19-0.08-0.41
				c-0.01-0.24-0.02-0.54-0.18-0.73c-0.13-0.15-0.28-0.24-0.45-0.4c0.03,0.38,0.14,0.76,0.1,1.15c-0.02,0.16-0.01,0.29,0.01,0.45
				c0.02,0.16-0.1,0.27-0.09,0.42c0.02,0.11-0.05,0.14-0.05,0.25c0.01,0.21-0.08,0.31-0.17,0.48c-0.18,0.25-0.33,0.71-0.63,0.82
				c-0.01-0.13-0.12-0.17-0.23-0.21c-0.16-0.04-0.51-0.28-0.65-0.35c0,0.13,0.14,1.08,0.16,1.23c0.02,0.17,0.11,0.29,0.12,0.45
				c0,0.14,0,0.35,0,0.44c0.07,0.3,0.15,0.61,0.24,0.9c0.12,0.43,0.34,0.82,0.34,1.28c0.01,0.52,0.98,0.86,1.47,1.12
				c2.34,1.24,4.32,1.74,4.39,1.78c0.28,0.15,0.57,0.27,0.84,0.4c0.09,0.03,1.49,0.86,1.77,1.01c0.05,0.21,0.39,0.62,0.54,0.75
				c0.13,0.1,0.15,0.28,0.22,0.41c0.1,0.16,0.17,0.33,0.25,0.49c0.03,0.34-0.09,0.5-0.27,0.68c-0.26,0.21-0.3,0.59-0.37,0.88
				c0.13,0.03,0.22-0.2,0.33-0.23c0.13-0.03,0.25-0.14,0.37-0.21c0.09,0.13,0.22,0.29,0.38,0.39c0.28,0.2,1.35,2.53,1.84,3.06
				c0.48,0.53,0.94,1.18,1.62,1.93c0.6,0.71,0.89,1.9,2.54,2.68v0.02c0.12,0.08,0.25,0.15,0.31,0.23c0.3,0.36,0.44,1.04,0.44,1.58
				c0.13,0.08,0.26,0.18,0.22,0.31c-0.05,0.22-0.32,0.48-0.44,0.69c-0.18,0.3-0.44,0.22-0.7,0.34c-0.2,0.08-0.62,0.3-0.81,0.2
				c-0.06-0.02-0.06-0.18-0.04-0.34c-0.33-0.11-0.62-0.41-0.82-0.77c-0.09-0.05-0.16-0.11-0.26-0.2c-0.19-0.16-0.29-0.3-0.39-0.53
				c-0.06-0.2-0.34-0.47-0.28-0.67c-0.04-0.02-0.23-0.17-0.26-0.16c-0.14,0.52,0.32,0.9,0.45,1.37c0.01,0,0.01,0.01,0.01,0.03
				c0.54,0.53,0.95,1.14,0.95,1.66c0.03-0.01,0.05-0.01,0.07,0c0.04-0.03,0.06-0.15,0.08-0.21c0.16,0.45,0.17,0.88-0.11,1.3
				c-0.27,0.38-0.76,0.68-1.18,0.34c-0.2-0.16-0.25-0.32-0.2-0.47c-0.01-0.02-0.03-0.02-0.05-0.03c-0.19-0.13-0.36-0.55-0.53-0.74
				c-0.08-0.08-0.17-0.16-0.26-0.24c-0.2-0.07-0.38-0.21-0.5-0.34c-0.05-0.06-0.09-0.12-0.13-0.18c-0.02-0.02-0.05-0.05-0.08-0.07
				l-0.01-0.03c-0.07-0.12-0.14-0.24-0.2-0.37c-0.3-0.25-0.63-0.47-0.85-0.66c-0.53-0.46-0.87-0.99-1.27-1.57
				c-0.28-0.41-0.56-0.79-0.72-1.23c-0.23-0.23-0.43-0.54-0.42-0.87c-0.01-0.35-0.08-0.92,0.09-1.24c0.05-0.11,0.11-0.26,0.21-0.36
				c-0.15-0.63-0.29-1.32-0.08-1.9c-0.04-0.15-0.11-0.39-0.13-0.44c0-0.02-0.01-0.05,0-0.05c0-0.02-0.01-0.04-0.02-0.06
				c-0.01-0.19,0.07-0.56,0.07-0.76c0.02-0.23-0.24,0.07-0.31,0.11l0,0c-0.04,0.06-0.1,0.13-0.16,0.2c0,0.01,0,0.01-0.01,0.02l0,0
				l0,0c0-0.01,0-0.01,0-0.02c0,0.01,0,0.01-0.01,0.02l-0.01,0.01l0,0c-0.01,0-0.01,0-0.01,0.01l0,0l-0.01,0.01
				c0-0.01,0-0.01,0.01-0.01c-0.01,0-0.02,0.01-0.02,0.02c0,0,0,0,0.01-0.01c-0.47,0.65-1.06,1.72-1.35,2.25
				c-0.11,0.26-0.25,0.51-0.33,0.78c-0.06,0.21-0.09,0.43-0.22,0.61c-0.11,0.17-0.16,0.3-0.22,0.5c-0.08,0.24-0.26,0.48-0.36,0.71
				c-0.07,0.2-0.16,0.39-0.23,0.57c-0.07,0.12-0.09,0.33-0.19,0.44c-0.05,0.06-0.19,0.28-0.2,0.35c0,0.16-0.26,0.47-0.34,0.63
				c-0.14,0.34-0.42,0.51-0.69,0.71c-0.48,0.36-0.97,0.59-1.53,0.8c-0.21,0.07-0.35,0.16-0.58,0.15c-0.18-0.01-0.45,0.03-0.62,0.06
				c-0.24,0.04-0.43,0.14-0.68,0.14c-0.27,0-0.53-0.04-0.79-0.06c-0.45-0.06-0.96-0.4-1.3-0.67c-0.18-0.15-0.39-0.26-0.56-0.42
				c-0.04-0.23-0.21-0.42-0.45-0.35c-0.09,0.02-0.18,0.08-0.08,0.17c0.06,0.06-0.02,0.13,0,0.21c0.06,0.2,0.2,0.42,0.29,0.62
				c0.23,0.44,0.52,0.86,0.94,1.14c0.37,0.27,0.83,0.41,1.22,0.65c0.08,0.05,0.14,0.15,0.23,0.18c0.1,0.03,0.21-0.01,0.31,0
				c0.29,0.04,0.53,0.23,0.83,0.24c0.56,0.04,1.14,0.06,1.69-0.01c0.22-0.03,0.42-0.04,0.63-0.15c0.14-0.07,0.41-0.19,0.59-0.18
				c0.02,0.48-0.19,0.9-0.19,1.36c0,0.22,0,0.39-0.04,0.61c-0.05,0.26,0.03,0.5,0.01,0.76c-0.01,0.2-0.12,0.37-0.11,0.57
				c0.01,0.24,0.06,0.49,0.08,0.74c0.02,0.22,0,0.43,0,0.66c0.01,0.26,0.14,0.48,0.16,0.73c0.02,0.23,0,0.47,0.05,0.69
				c0.04,0.17,0.15,0.33,0.2,0.51c0.06,0.21,0.01,0.44,0.1,0.64c0.08,0.2,0.22,0.38,0.28,0.6c0.14,0.45,0.38,0.88,0.6,1.31
				c0.17,0.34,0.4,0.7,0.47,1.08c-0.76,0.13-1.6,0.34-2.22,0.87c-0.61,0.54-1.05,1.32-1.36,2.05c-0.35,0.79-0.63,1.59-1.17,2.29
				c-0.35,0.46-1.05,0.78-1.26,1.36c0.38-0.14,0.74-0.32,1.09-0.52c0.28-0.16,0.3-0.48,0.71-0.51c0.62-0.55,0.98-1.22,1.35-1.95
				c0.15-0.32,0.24-0.76,0.51-1c0.11-0.1,0.22-0.09,0.31-0.2c0.13-0.16,0.27-0.32,0.43-0.47c0.24-0.27,0.5-0.55,0.83-0.75
				c0.19-0.11,0.38-0.15,0.6-0.16c0.07,0,0.16,0,0.26,0c0.19,0,0.24-0.1,0.28,0.11c0.05,0.33,0.26,0.66,0.38,0.98
				c0.13,0.38,0.27,0.76,0.38,1.16c0.11,0.39,0.15,0.77,0.19,1.18c0.02,0.15,0.07,0.31,0.08,0.47c0.02,0.21-0.08,0.36-0.05,0.55
				c0.04,0.31-0.04,0.65-0.13,0.93c-0.03,0.18-0.03,0.36-0.05,0.54c-0.04,0.18-0.18,0.4-0.16,0.59c0.02,0.35-0.21,0.71-0.31,1.02
				c-0.06,0.19-0.04,0.35,0.2,0.25c0.11-0.05,0.13-0.18,0.23-0.25c0.16,0.2,0.09,0.51,0.22,0.73c0.16,0.28,0.09,0.63,0.15,0.93
				c0.09,0.64,0.15,1.26,0.2,1.9c0.01,0.11,0.07,0.45-0.01,0.55c-0.08,0.09,0.03,0.59,0.03,0.72c-0.01,0.3-0.18,0.65-0.13,0.93
				c-0.09,0.11-0.28,0.44-0.41,0.47c0,0.09,0.15,0.06,0.2,0.06c-0.04,0.04-0.09,0.08-0.15,0.09c0,0.11-0.03,0.23-0.09,0.34
				c-0.07,0.16-0.13,0.32-0.21,0.48c-0.1,0.19-0.49,0.92-0.16,1c0.31,0.07,0.53-0.42,0.66-0.62c0.13-0.19,0.16,0.15,0.16,0.23
				c0.03,0.23,0.02,0.46,0,0.69c-0.05,0.8-0.17,1.63-0.07,2.44c0.06,0.5,0.03,1.02,0.06,1.53c0.01,0.51,0.01,1.02-0.03,1.54
				c-0.02,0.24,0,0.97-0.2,1.14c-0.12,0.08-0.04,0.33-0.13,0.46c-0.11,0.17-0.05,0.37-0.18,0.53c-0.01,0.02-0.01,0.05-0.02,0.07
				c-0.02,0.46,0,0.95-0.02,1.42h0.01c0.17,0.28,0.16,0.77,0.23,1.09c0.1,0.35,0.13,0.7,0.24,1.05c0.08,0.23,0.13,0.37,0.13,0.63
				c0,0.18,0,0.35-0.01,0.53c0,0.23-0.14,0.55-0.19,0.79c-0.1,0.24-0.1,0.5-0.22,0.73c-0.14,0.34-0.36,0.64-0.58,0.92
				c-0.05,0.08-0.32,0.38-0.18,0.44c0.13,0.06,0.29,0.01,0.42-0.02c0.05,0.16-0.13,0.46-0.17,0.63c-0.05,0.26-0.14,0.53-0.24,0.78
				c-0.13,0.48-0.2,1-0.27,1.5c-0.15,0.86-0.43,1.69-0.63,2.55c-0.06,0.26-0.17,0.51-0.2,0.77c0,0.18,0.01,0.36-0.06,0.53
				c-0.09,0.23-0.08,0.52-0.1,0.76c-0.03,0.3-0.1,0.59-0.14,0.9c-0.05,0.24-0.11,0.47-0.26,0.67c-0.04,0.11-0.09,0.23-0.1,0.35
				c-0.07,0.03-0.13,0.1-0.2,0.16c-0.06,0.07-0.12,0.12-0.21,0.14c-0.05,0.11-0.13,0.2-0.22,0.28c-0.21,0.2-0.39,0.42-0.58,0.63
				c0.24,0.28,0.42,0.46,0.42,1c0,0.63-0.08,1.41-0.2,2.14c0,0.01,0,0.01,0,0.01c-0.02,0.27-0.03,0.54-0.07,0.79
				c-0.11,0.53-0.05,1.06-0.15,1.59c-0.13,1.07-0.18,2.19-0.19,3.28c-0.02,0.85-0.08,1.83-0.62,2.53c0.02-0.01,0.03-0.01,0.04-0.02
				c-0.34,0.67-0.69,0.66-0.82,1.41c-0.09,0.53,0.03,1.12,0.01,1.68c-0.06,1.24-0.38,2.35-0.66,3.53c-0.13,0.54-0.28,0.79-0.43,0.87
				c-0.03,0.34-0.12,0.67-0.45,0.49c-0.22-0.14-0.28-0.49-0.46-0.66c-0.23-0.24-0.3-0.65-0.57-0.86c0.12-0.31-0.16-0.51-0.24-0.79
				c-0.12-0.46-0.34-0.9-0.48-1.36c-0.26-0.82-0.45-1.66-0.73-2.47c-0.14-0.41-0.13-0.82-0.2-1.25c-0.03-0.21-0.06-0.39-0.03-0.6
				c0.03-0.25-0.06-0.51-0.07-0.75c-0.04-0.5-0.03-1.01-0.02-1.51c0.01-0.53-0.08-1.11-0.03-1.63c0.04-0.01,0.07,0.02,0.1,0.08
				c-0.04-0.76-0.11-1.5-0.13-2.28c0.88,2.15,1.04,8.96,4.84,6.39c-0.28,0.09-0.62,0.05-0.82-0.14s-0.35-0.27-0.49-0.52
				c-0.16-0.27-0.33-0.53-0.46-0.81c-0.13-0.24-0.26-0.48-0.37-0.73c-0.1-0.22-0.09-0.5-0.24-0.69c-0.15-0.2-0.02-0.41-0.11-0.63
				c0.01-0.08-0.07-0.08-0.13-0.1c-0.12-0.03-0.14-0.19-0.19-0.29c-0.11-0.24-0.15-0.49-0.25-0.75c-0.05-0.14-0.16-0.28-0.21-0.44
				c-0.21-0.57-0.35-1.18-0.52-1.77c-0.16-0.53-0.14-1.05-0.32-1.57c-0.2-0.58-0.43-1.16-0.57-1.77c-0.22-0.97-0.11-1.99-0.28-2.96
				c-0.04-0.17-0.09-0.33-0.14-0.49c0.21,0.48,0.31,1.02,0.48,1.51c0.18,0.51,0.36,1.02,0.56,1.51c0.03-0.05,0.03-0.11-0.02-0.17
				c0.08-0.02,0.07,0.04,0.04,0.03c0.08,0.13,0.28,0.72,0.35,0.78c0.04,0.03,0.14,0.24,0.18,0.3c0.11,0.2,0.2,0.41,0.31,0.61
				c0.19,0.35,0.36,0.72,0.57,1.05c0.18,0.29,0.38,0.54,0.55,0.82c0.2,0.35,0.44,0.52,0.87,0.44c0.22-0.03,0.37-0.19,0.58-0.21
				c0.17-0.01,0.33-0.09,0.46-0.19c0.14-0.44,0.44-0.91,0.52-1.15c0.2-0.51,0.15-1.13,0.24-1.67c0.07-0.44,0.31-0.89,0.32-1.33
				c-0.09,0.1-0.19,0.2-0.26,0.32c-0.14,0.18-0.19,0.39-0.45,0.43c-0.04,0.1-0.07,0.19-0.09,0.3c-0.09,0.04-0.15,0.09-0.21,0.16
				c-0.15,0.14-0.26,0.32-0.45,0.43c-0.05,0.03-0.18,0.09-0.26,0.06c-0.06-0.03-0.05-0.12-0.11-0.13c-0.08-0.06-0.19,0.03-0.27-0.02
				c-0.08-0.11-0.14-0.2-0.22-0.29c-0.35-0.42-0.74-0.88-0.94-1.41c-0.05-0.13-0.11-0.28-0.19-0.41c-0.05-0.12-0.29-0.28-0.37-0.4
				c-0.26-0.4-0.37-0.89-0.46-1.35c-0.21-1.2-0.49-2.38-0.77-3.57c-0.51-2.15-1.37-4.27-1.37-6.52c0.15,1.29,0.86,2.58,1.54,3.65
				c-0.05-0.12-0.11-0.4,0-0.47c0.02-0.01,0.1,0.43,0.1,0.47c0,0.03,0.15,0.22,0.17,0.26c0.17,0.24,0.26,0.52,0.47,0.78
				c0.02,0.01,0.04,0.03,0.06,0.05c0.43,0.23,0.91,0.63,1.3,0.68c0.86,0.12,1.17-0.23,1.59-0.82c0.46-0.69,0.92-1.21,1.61-1.62
				c-0.08-0.01-0.18-0.01-0.27-0.01c-0.09,0.04-0.18,0.06-0.27,0.08c-0.48,0.07-1.02,0.02-1.48-0.16c-0.22-0.08-0.44-0.18-0.68-0.23
				c-0.19-0.19-0.4-0.24-0.62-0.4c-0.18-0.12-0.39-0.22-0.48-0.39c-0.12-0.24-0.26-0.46-0.38-0.69c-0.04-0.1-0.04-0.18-0.16-0.22
				c-0.11-0.04-0.13-0.18-0.21-0.27c-0.12-0.2-0.32-0.52-0.52-0.65c-0.04-0.06-0.03-0.16-0.04-0.25c-0.04-0.03-0.08-0.07-0.11-0.12
				c-0.03,0-0.04-0.01-0.06-0.01c-0.08,0.01-0.11,0.08-0.13-0.01c-0.02-0.07-0.08-0.13-0.01-0.18c0.01,0,0.03,0,0.05,0
				c-0.18-0.29-0.28-0.6-0.41-1.03c-0.15-0.51-0.25-1.05-0.35-1.6c0,0-0.01-0.01-0.01-0.02c-0.26-0.4-0.46-0.79-0.65-1.21
				c-0.18-0.44-0.36-0.89-0.58-1.31c-0.03-0.05-0.05-0.1-0.08-0.14c0.12,0.15,0.03-0.14-0.06-0.09c0.14-0.07,0.27,0.08,0.39,0.08
				c0.11,0.11,0.33,0.12,0.49,0.21c0.21,0.12,0.54,0.07,0.77,0.13c0.29,0.07,0.61,0.02,0.9,0c0.48-0.03,0.95-0.04,1.42-0.14
				c0.23-0.04,0.42,0.01,0.63-0.11c0.25-0.16,0.54-0.26,0.8-0.41c0.21-0.12,0.43-0.18,0.59-0.37c0.15-0.19,0.26-0.3,0.45-0.43
				c0.13-0.07,0.21-0.23,0.05-0.31c-0.2-0.08-0.46,0.04-0.65,0.08c-0.23,0.06-0.47,0.12-0.69,0.16c-0.25,0.05-0.55,0.12-0.79,0.1
				c-0.26-0.03-0.52-0.12-0.78-0.16c-0.29-0.05-0.62-0.06-0.9-0.21c-0.42-0.17-0.81-0.42-1.18-0.71c-0.12-0.09-0.24-0.17-0.37-0.23
				c-0.22-0.14-0.33-0.42-0.55-0.57c-0.18-0.12-0.28-0.27-0.41-0.44c-0.06-0.08-0.12-0.15-0.21-0.21c-0.12-0.07-0.11-0.12-0.2-0.24
				c-0.18-0.25-0.39-0.47-0.52-0.72c-0.03-0.06-0.4-0.63-0.16-0.47c0.18,0.12,0.38,0.23,0.58,0.3c0.15,0.06,0.4,0.24,0.48,0.39
				c0.07,0.02,0.15,0.05,0.23,0.08c-0.54-0.46-1-1-1.26-1.66c-0.21-0.53-0.68-1.32-0.6-1.89c0.29-0.13,0.81,0,1.14,0l1,0.33
				c0.14-0.01,0.28-0.01,0.42,0.03c0.18,0.03,0.35,0.09,0.52,0.08c0.26-0.01,0.44,0.06,0.69,0.09c0.19,0.03,0.38,0.04,0.58,0
				c0.12-0.02,0.45,0.08,0.51,0.04c0.27-0.2,0.65-0.19,0.99-0.26c0.43-0.1,0.9-0.21,1.31-0.38c0.16-0.06,0.35-0.13,0.47-0.26
				c0.13-0.11,0.36-0.07,0.5-0.15c0.18-0.1,0.31-0.21,0.5-0.28c0.21-0.06,0.41-0.16,0.61-0.25c0.18-0.09,0.61-0.24,0.65-0.47
				c0.04-0.16-0.01-0.3-0.12-0.4c-0.15-0.02-0.4,0.13-0.53,0.18c-0.14,0.06-0.31,0.17-0.45,0.24c-0.14,0.09-0.28,0.26-0.46,0.28
				c-0.17,0.02-0.27,0.18-0.44,0.21c-0.19,0.04-0.34,0.11-0.51,0.17c-0.33,0.14-0.7,0.3-1.06,0.35c-0.42,0.06-0.91,0.02-1.36,0.01
				c-0.23-0.01-0.46-0.02-0.71-0.05c-0.18-0.03-0.28-0.14-0.45-0.24c-0.44-0.24-0.91-0.46-1.37-0.68c0.01-0.02,0.19-0.05,0.25-0.05
				c0.2-0.04,0.39-0.09,0.6-0.08c0.4,0,0.82,0.2,1.23,0.02c0.11-0.04,0.22-0.11,0.33-0.16c0.19-0.09,0.44-0.04,0.65-0.13
				c0.45-0.21,0.91-0.47,1.39-0.6c0.02-0.02-0.09-0.04-0.12-0.03c0.02-0.05,0.61-0.28,0.68-0.34c0.15-0.08,0.25-0.23,0.41-0.31
				c0.16-0.09,0.33-0.18,0.48-0.3c0.13-0.11,0.15-0.15,0.32-0.23c0.13-0.07,0.19-0.21,0.3-0.33c0.14-0.16,0.33-0.31,0.49-0.46
				c0.12-0.09,0.22-0.18,0.33-0.28c0.02-0.04-0.01-0.11-0.03-0.08c0.08-0.19,0.37-0.33,0.51-0.45c0.21-0.17,0.37-0.38,0.4-0.65
				c0.18-0.2,0.37-0.39,0.5-0.63c0.16-0.26,0.41-0.43,0.5-0.74c0.07-0.19-0.01-0.46-0.27-0.45c-0.13,0.02-0.18,0.29-0.28,0.4
				c-0.34,0.38-0.67,0.81-1.2,0.91c-0.49,0.09-0.38-0.76-0.59-1c-0.17-0.18-0.26-0.37-0.55-0.33c-0.08,0.11,0.03,0.25,0.03,0.38
				c0,0.16-0.06,0.29-0.04,0.47c0.05,0.46-0.1,1.13-0.49,1.43c-0.2,0.16-0.45,0.28-0.71,0.28c-0.09-0.01-0.13-0.03-0.21-0.04
				c-0.05-0.07-0.04,0-0.12-0.06c0-0.1-0.05-0.15-0.14-0.21c-0.17-0.11-0.2-0.18-0.31-0.32c-0.17-0.21-0.32-0.51-0.51-0.67
				c-0.18-0.15-0.51-0.56-0.57-0.79c-0.03-0.12-0.14-0.2-0.22-0.29c-0.01-0.04-0.03-0.09-0.05-0.13c-0.09-0.08-0.03-0.07-0.07-0.2
				c-0.06-0.15-0.18-0.11-0.3-0.2c-0.01-0.06-0.04-0.11-0.09-0.15c-0.1-0.08-0.06-0.19-0.11-0.29c-0.08-0.13-0.18-0.37-0.3-0.48
				c-0.08-0.07-0.18-0.1-0.29-0.08c-0.25,0.04-0.05,0.17-0.07,0.31c-0.02,0.06-0.01,0.09,0.04,0.11c0.1,0.04,0.08,0.18,0.11,0.26
				c0.07,0.19,0.18,0.38,0.26,0.56c0.19,0.39,0.39,0.77,0.57,1.17c0.17,0.33,0.41,0.63,0.46,1.01c0.04,0.26,0.15,0.59,0.07,0.85
				c-0.06,0.28,0,0.56-0.07,0.84c-0.05,0.16-0.12,0.3-0.19,0.44c-0.23,0-0.47,0-0.7,0c-0.21-0.01-0.43-0.02-0.64-0.06
				c-0.14-0.15-0.19-0.11-0.38-0.14c-0.27-0.04-0.42-0.26-0.62-0.39c-0.05-0.03-0.07-0.06-0.07-0.11c-0.09-0.02-0.18-0.08-0.25-0.16
				c-0.13-0.1-0.21-0.23-0.35-0.32c0.02-0.03,0.05-0.04,0.09-0.03c-0.63-0.48-1.05-1.18-1.4-1.89c-0.12-0.25,0.26-0.35,0.45-0.49
				c0.32-0.2,0.63-0.36,0.9-0.62c-1.09,0.32-2.36,0.29-3.5,0.27c-0.86-0.02-1.9-0.05-2.64-0.55c-0.3-0.2-0.49-0.49-0.47-0.86
				c0.02-0.27,0.12-0.5,0.22-0.76c0.04-0.11,0.01-0.17-0.11-0.23c-0.1-0.04-0.12-0.08-0.23-0.16c-0.11-0.08-0.1-0.12-0.23-0.18
				c-0.11-0.05-0.22-0.08-0.34-0.11c-0.28-0.07-0.58-0.15-0.86-0.23c-0.43-0.14-1.03-0.33-1.24-0.76l0,0
				c-0.2-0.06-0.5,0.01-0.66-0.11c-0.07-0.05-0.02-0.18-0.12-0.19c-0.09-0.1-0.13-0.23-0.17-0.35c-0.02-0.06-0.05-0.13-0.08-0.21
				c-0.29-0.39-0.51-0.87-0.65-1.36c-0.01,0-0.01,0-0.01,0.01c-0.3-0.63-0.66-1.14-0.7-1.49c-0.07-0.41,0.22-0.61,0.25-0.93
				c0.05-0.73,0.97-3.7,1-4.12c0.15-2.77,0.27-3.21-0.22-6.1c-0.09-0.24-0.05-0.53-0.04-0.77c0.01-0.32-0.32-0.82-0.41-1.12
				c-0.07-0.27-0.03-0.59-0.04-0.88c-0.02-0.27-0.12-0.55-0.09-0.82c0.29,0.35,0.34,0.84,0.63,1.2c0.25,0.3,0.75,0.92,0.83,1.32
				c0.03,0.16,0.06,0.86,0.09,1.02c0.23,2.02,0.32,3.79,0.2,5.58l0.07-0.07c-0.04,0.05-0.06,0.12-0.08,0.19
				c-0.04,0.44-0.08,0.88-0.15,1.33c-0.03,0.69-0.03,1.4,0,2.08c0.05,0.89,0.26,1.72,0.5,2.57c0.15,0.55,0.53,1.05,0.88,1.55
				c0-0.02,0.03-0.02,0.06,0.01c0.35,0.28,0.63,0.66,0.99,0.94c0.19,0.15,0.41,0.29,0.59,0.47c0.09,0.11,0.19,0.22,0.35,0.19
				c-0.2-0.77-0.48-1.5-0.67-2.27c-0.19-0.8-0.28-1.62-0.31-2.45c-0.04-1.7,0.15-3.38,0.24-5.08c0.04-0.78,0-1.55,0.01-2.32
				c0.01-0.75,0.07-1.52-0.13-2.24c-0.05-0.19-0.33-0.24-0.5-0.34c-0.25-0.14-0.48-0.29-0.7-0.47c-0.31-0.25-0.8-0.67-0.74-1.12
				c0.57,0.28,1.02,0.79,1.66,0.95c-0.04-0.04-0.05-0.08-0.07-0.12c0.02-0.02,0.4,0.13,0.46,0.16c0.23,0.1,0.51,0.07,0.75,0.17
				c0.13,0.07,0.22,0.19,0.41,0.2c0.27,0.02,0.58-0.1,0.83-0.15c0.51-0.11,0.83-0.44,1.23-0.74c0.18-0.13,0.32-0.3,0.5-0.43
				c0.12-0.09,0.17-0.08,0.24-0.21c0.09-0.14,0.19-0.26,0.33-0.36c0.29-0.21,0.4-0.59,0.72-0.8c0.09-0.07,0.09-0.14,0.2-0.21
				c0.1-0.07,0.18-0.15,0.26-0.23c0.15-0.14,0.58-0.33,0.51-0.55c-0.12-0.5-0.86-0.07-1.18-0.09c-0.27-0.01-0.53,0.08-0.79,0.13
				c-0.14,0.03-0.29,0.04-0.42,0.04c-0.14,0.04-0.21,0.15-0.37,0.16c-0.43,0.03-0.81,0.29-1.24,0.35c-0.27,0.02-0.54-0.03-0.8-0.05
				c-0.27-0.03-0.54,0.04-0.81-0.02c-0.42-0.09-0.86-0.19-1.19-0.43c-0.45-0.32-0.97-0.54-1.41-0.87c-0.79-0.56-1.22-1.41-1.57-2.29
				c-0.17-0.44-0.34-0.89-0.48-1.35c-0.15-0.53-0.1-0.61-0.35-1.13c-0.09-0.18-0.32-0.63-0.37-0.8c-0.03-0.13-0.19-0.55-0.27-0.68
				c-0.09-0.15-0.21-0.28-0.33-0.4c-0.13-0.12-0.19-0.26-0.3-0.4c-0.01-0.01-0.24-0.31-0.29-0.14c-0.06,0.15,0.13,0.36,0.09,0.52
				c-0.02,0.27,0.02,0.54-0.1,0.79c-0.14,0.35-0.27,0.32-0.45,0.63c-0.23,0.38-0.92,1.01-1.31,1.21c-0.15,0.08-1.02,1.23-1.37,1.27
				c-0.53,0.47-0.92,0.59-1.46,1.04c-0.21,0.17-0.79,0.71-0.98,0.88c-0.07,0.09-0.28,0.14-0.33,0.21c-0.17,0.21-0.3,0.32-0.49,0.48
				c-0.3,0.23-0.51,0.3-0.85,0.46c-0.12,0.05-0.47,0.28-0.59,0.15c-0.1-0.12-0.21-0.34-0.24-0.5c-0.04-0.21-0.44-0.87-0.52-1.22
				c-0.04,0-0.08,0-0.13,0l0.13-0.04c0-0.04-0.01-0.09,0-0.11c0.04-0.18,0.12-0.45,0.28-0.55c0.01,0,0.02-0.01,0.03-0.02
				c0.16-0.54,0.67-0.57,0.94-1.13l0.29-0.42c-0.27,0.19-1.02,0.38-1.28,0.58c-0.07,0.04-0.14,0.07-0.19,0.12
				c-0.17,0.15-0.3,0.2-0.51,0.28c-0.3,0.08-0.93,0.08-1.05-0.33c-0.03-0.2-0.4-0.41-0.53-0.65
				C281.27,166.58,281.94,166.15,282.07,166.01z M287.18,174.42c0.24-0.13,0.62-0.42,0.77-0.65c0.13-0.2,0.65-0.48,0.68-0.72
				c0.01-0.11,0.19-0.31,0.26-0.41c0.11-0.17,0.17-0.26,0.24-0.46c0.05-0.16,2.74-2.86,3.4-3.43c0.19,0.14,0.16,0.45,0.21,0.68
				c0.05,0.28,0.1,0.57,0.15,0.86c0.1,0.53,0.31,0.99,0.39,1.5c0.03,0.28,0.11,0.54,0.1,0.83c-0.01,0.11,0.42,1.17,0.35,1.21
				c1.26,5.96-0.8,9.93-1.16,11.07c-0.43-0.67-0.26-0.21-0.68-0.89c-0.32-0.52-1.25-2.17-1.41-2.45c-0.05-0.08-0.34-0.59-0.43-0.69
				c-0.09-0.11-0.38-0.7-0.44-0.87c-0.13-0.34-1.2-2.27-1.35-2.57c-0.14-0.25-0.79-1.06-0.8-1.19c-0.01-0.14-0.39-0.56-0.44-0.66
				c-0.14-0.25-0.34-0.83-0.42-1C286.77,174.46,287,174.52,287.18,174.42z M286.43,173.27c-0.22,0.2-0.15-0.03-0.36-0.05
				c0-0.13-0.14-0.3-0.21-0.4c-0.1-0.14-0.53-0.29-0.55-0.47c-0.01-0.16,0.01-0.34,0.05-0.49c0.04-0.17,0.18-0.28,0.31-0.42
				c0.2-0.24,0.44-0.52,0.7-0.74c0.01-0.01,0.02-0.02,0.03-0.03c0.05-0.06,0.1-0.13,0.17-0.2c0.63-0.71,1.75-1.63,2.54-2.19
				c0.24-0.3,0.82-0.83,1.21-0.99c0.31-0.14,0.83-0.6,1.13-0.73c0.43-0.2,0.35,0.49,0.43,0.74c-0.09,0.11-0.18,0.25-0.27,0.38
				c-0.12,0.15-0.3,0.25-0.39,0.41c-0.15,0.27-0.38,0.56-0.6,0.79c-0.45,0.68-1.06,1.34-1.23,1.5c-0.49,0.46-1.31,1.19-1.77,1.68
				c-0.15,0.16-0.75,0.84-0.98,1.01C286.56,173.13,286.5,173.2,286.43,173.27z M276.69,165.36c0-0.05-0.01-0.09-0.03-0.13
				c-0.07-0.07-0.06,0.03-0.13-0.11c-0.06-0.14-0.2-0.14-0.13-0.27c-0.07,0.03-0.13-0.22-0.22-0.29c0-0.07-0.16-0.22-0.21-0.3
				c-0.06-0.11-0.12-0.3-0.21-0.38c-0.12-0.1-0.07,0.05-0.15-0.14c-0.06-0.12-0.15-0.23-0.19-0.35c-0.15-0.39,0.52-0.61,0.76-0.79
				c0.16-0.12,0.32-0.28,0.5-0.36c0.26-0.1,0.36-0.25,0.56,0.01c0.13,0.18,0.25,0.36,0.43,0.52c0.21,0.2,0.3,0.42,0.49,0.66
				c0.28,0.37,0.55,0.76,0.79,1.16c0.64,0.82,1.07,1.83,1.62,2.72c0.09,0.14,0.16,0.44,0.28,0.53c0.09,0.08,0.17,0.26,0.25,0.37
				c0.32,0.51,0.66,1.01,0.96,1.54c0.2,0.34,0.45,0.69,0.7,0.99c0.05,0.08,0.13,0.16,0.19,0.23c0.1,0.09,0.09,0.16,0.16,0.28
				c0.03,0.05,0.26,0.32,0.25,0.38c0-0.01,0.21,0.36,0.24,0.41c0.08,0.14,0.2,0.24,0.27,0.38c0.15,0.31,0.44,0.57,0.59,0.86
				c0.14,0.3,0.39,0.5,0.54,0.8c0.24,0.46,0.52,0.91,0.78,1.36c0.46,0.84,0.92,1.66,1.42,2.49c0.24,0.4,0.45,0.86,0.72,1.23
				c0.25,0.33,0.49,0.7,0.66,1.07c0.96,1.48,1.77,3.03,2.79,4.49c0.14,0.19,0.21,0.39,0.37,0.55c0.18,0.19,0.27,0.37,0.35,0.61
				c0.12,0.4,0.39,0.79,0.6,1.16c0.23,0.42,0.53,0.83,0.74,1.26c0.09,0.19,0.21,0.38,0.33,0.56c0.05,0.09,0.28,0.59-0.03,0.41
				c-0.3-0.18-0.74-0.17-1.07-0.05c-0.45,0.15-0.62,0.02-0.86-0.33c-0.15-0.23-0.32-0.52-0.51-0.73c-0.05-0.06-0.05-0.01-0.12-0.04
				c-0.04-0.06,0.02-0.11-0.07-0.14c-0.03-0.01-0.25-0.39-0.28-0.46c-0.29-0.66-0.88-1.19-1.17-1.86c-0.14-0.37-0.49-0.85-0.7-1.1
				c-0.11-0.14-0.11-0.3-0.24-0.45c-0.26-0.28-0.35-0.69-0.62-0.98c-0.16-0.15-0.25-0.38-0.33-0.58c-0.08-0.2-0.24-0.39-0.36-0.57
				c-0.14-0.21-0.3-0.41-0.44-0.62c-0.15-0.2-0.2-0.44-0.34-0.65c-0.25-0.36-0.54-0.72-0.75-1.11c-0.18-0.35-0.47-0.61-0.67-0.94
				c-0.09-0.17-0.15-0.37-0.27-0.54c-0.11-0.14-0.27-0.31-0.35-0.46c-0.22-0.48-0.51-0.93-0.81-1.38c-0.26-0.4-0.53-0.86-0.84-1.21
				c-0.2-0.36-0.49-0.74-0.65-1.13c-0.02-0.13-0.12-0.12-0.14-0.19c-0.04-0.2-0.25-0.44-0.35-0.62c-0.24-0.38-0.51-0.7-0.73-1.09
				c-0.45-0.77-0.99-1.48-1.5-2.21c-0.19-0.27-0.34-0.5-0.47-0.77c-0.09-0.18-0.24-0.29-0.36-0.45c-0.1-0.18-0.11-0.34-0.28-0.49
				c-0.19-0.18-0.2-0.47-0.41-0.61c-0.06-0.04,0.02-0.11-0.06-0.16c-0.11-0.05-0.12-0.12-0.18-0.23c-0.14-0.23-0.33-0.44-0.44-0.71
				c-0.01-0.12-0.1-0.1-0.12-0.21c-0.03-0.11-0.13-0.17-0.17-0.26C276.92,165.76,276.84,165.56,276.69,165.36z M291.03,189.77
				c-0.02,0-0.45,0.41-1.83-0.04c-0.9-0.29-0.86-0.54-1.34-0.74c-0.29-0.11-0.38-0.39-0.58-0.59c-0.41-0.42-2.05-3.93-2.26-4.56
				c-0.23-0.7-0.35-1.38-0.51-2.09c-0.14-0.63-0.39-1.22-0.54-1.82c-0.16-0.63-0.51-1.22-0.59-1.87c0.13-0.03,0.99,1.68,1.44,2.07
				c0.25,0.21,0.41,0.54,0.59,0.81c0.28,0.49,1.29,2.08,1.43,2.38c0.31,0.69,1.4,2.13,1.57,2.41c0.12,0.19,0.26,0.28,0.36,0.5
				c0.15,0.32,0.68,1.18,0.79,1.3c0.08,0.07,0.2,0.13,0.27,0.22c0.14,0.12,0.14,0.35,0.26,0.5c0.17,0.2,0.4,0.53,0.42,0.8
				C290.61,189.11,291.03,189.63,291.03,189.77z M290.16,194.05c-0.12-0.03-0.25-0.06-0.34-0.13c-0.1-0.07-0.25-0.03-0.37-0.07
				c-0.4-0.17-0.97-0.46-1.41-0.43c0.04-0.05-0.43-0.28-0.51-0.33c-0.35-0.17-0.67-0.41-1.01-0.58c-0.08-0.05-0.26-0.05-0.28-0.12
				c-0.02-0.07-0.2-0.16-0.27-0.2c-0.21-0.13-0.38-0.3-0.55-0.43c-0.05-0.05-0.19-0.16-0.23-0.25c-0.05-0.07-0.09-0.14-0.16-0.2
				l-0.06-0.06c0-0.08-0.03-0.1-0.1-0.08c-0.02-0.01-0.02-0.06-0.05-0.1c-0.07-0.08-0.14-0.16-0.21-0.24
				c-0.13-0.14-0.24-0.31-0.35-0.48c-0.13-0.19-0.38-0.3-0.48-0.56c-0.04-0.1-0.22-0.22-0.3-0.32c-0.01-0.01-0.01-0.03-0.02-0.04
				c-0.22-0.11-0.41-0.27-0.58-0.42c-0.59-0.5-1.05-1.02-1.48-1.67c-0.33-0.5-0.36-1.05-0.69-1.55c-0.42-0.63-0.86-1.36-1.35-1.91
				c-0.47-0.55-0.91-1.12-1.19-1.81c-0.5-1.24-1.14-2.35-1.57-3.63c-0.33-0.97-0.5-1.99-0.99-2.9c-0.02-0.01-0.05-0.03-0.07-0.05
				c-0.11-0.11-0.14-0.24-0.17-0.36v-0.01c-0.02-0.09-0.04-0.18-0.09-0.28c-0.08-0.23-0.11-0.43-0.15-0.68
				c-0.03-0.2,0.01-0.64,0.1-0.8c0.04-0.07,0.04-0.16,0.05-0.24c0.01,0,0.07-0.17,0.07-0.15c0.01-0.07,0.01-0.13,0-0.2
				c0.05-0.04,0.09-0.09,0.12-0.15c0.07-0.11,0.1-0.25,0.17-0.38c0.04-0.1,0.2-0.27,0.14-0.39c0.07-0.08,0.27-0.25,0.21-0.36
				c0.22-0.09,0.23-0.29,0.38-0.45c0.08-0.09,0.16-0.36,0.28-0.35c0.04-0.05-0.01-0.07,0.03-0.12c0.13-0.03,0.21-0.16,0.32-0.23
				c0.21-0.12,0.43-0.28,0.6-0.45c0.31,0.35,0.58,0.72,0.84,1.09c0.12,0.17,0.25,0.35,0.38,0.52c0.05,0.07,0.14,0.28,0.22,0.31
				c0.04,0.02,0.16,0.24,0.19,0.29c0.09,0.19,0.3,0.58,0.47,0.7c-0.14,0.05-0.35-0.07-0.48-0.11c-0.25-0.06-0.5-0.1-0.77-0.09
				c-0.22,0.01-0.44,0.01-0.66,0.03c-0.23,0.02-0.45,0.12-0.68,0.12c0.26,0.11,0.54,0.02,0.82,0.04c0.24,0.01,0.46,0.21,0.69,0.28
				c0.15,0.04,0.28,0.21,0.39,0.31c0.09,0.07,0.12,0.18,0.19,0.25c0.12,0.1,0.25,0.19,0.33,0.32c0.44,0.59,0.9,1.11,1.27,1.73
				c0.26,0.45,0.47,0.93,0.73,1.39c0.27,0.49,0.4,1.05,0.69,1.53c0.14,0.22,0.19,0.47,0.28,0.71c0.08,0.25,0.22,0.47,0.28,0.71
				c0.12,0.49,0.42,0.94,0.61,1.41c0.37,0.9,0.54,1.88,0.89,2.79c0.17,0.51,0.5,1,0.73,1.48c0.26,0.55,0.5,1.1,0.8,1.64
				c0.46,0.82,1.11,1.72,1.87,2.22c0.16,0.12,0.31,0.23,0.46,0.35c0.18,0.16,0.41,0.23,0.6,0.39c0.33,0.28,0.73,0.32,1.17,0.28
				c0.17-0.01,0.33,0.04,0.49,0.03c0.14-0.02,0.24-0.09,0.39-0.09c0.34,0,0.63-0.06,0.96-0.17c0.18-0.05,0.34-0.06,0.54-0.1
				c0.16-0.04,0.3-0.13,0.47-0.15c0.35-0.03,0.88,0.05,1.16,0.22c0.08,0.06,0.22,0.04,0.33,0.09c0.14,0.07,0.28,0.14,0.42,0.22
				c0.14,0.09,0.29,0.16,0.45,0.23c0.19,0.08,0.32,0.18,0.51,0.28c0.57,0.27,1.16,0.5,1.76,0.69c-0.02,0.05-0.05,0.11-0.06,0.15
				c0.04-0.03,0.06-0.02,0.06,0.03c-0.09-0.05-0.18,0.19-0.24,0.18c-0.13,0.05-0.22,0.18-0.35,0.21c-0.13,0.02-0.26-0.03-0.38-0.06
				c-0.09-0.02-0.15,0.01-0.24,0.04c-0.12,0.03-0.22-0.03-0.34-0.05c-0.08-0.02-0.65-0.08-0.65-0.1c-0.1-0.09,0.26-0.01-0.14-0.07
				c-0.17-0.04-0.36-0.04-0.52-0.12c-0.17-0.08-0.1,0.01-0.25-0.01c-0.13-0.02-0.25-0.1-0.38-0.12c-0.3-0.05-0.64-0.02-0.92,0.1
				c-0.18,0.08-0.56,0.25-0.67,0.43c-0.09,0.2,0.19,0.26,0.34,0.29c0.29,0.06,0.37,0.14,0.48,0.43c0.18,0.17,0.3,0.44,0.43,0.64
				c0.17,0.25,0.35,0.51,0.49,0.78c0.1,0.13,0.15,0.3,0.27,0.42c0.1,0.12,0.26,0.31,0.31,0.46c0.08,0.19-0.55,0.07-0.68,0.03
				c-0.29-0.11-0.67-0.12-0.98-0.2c-0.77-0.18-1.52-0.64-2.14-1.02c-0.03-0.01-0.03-0.01-0.03-0.01
				C290.56,194.16,290.38,194.1,290.16,194.05z"/>
			<path class="st1" d="M298.48,160.88c0.52-0.02,1.03-0.04,1.54-0.01c0.16,0.01,0.39,0.02,0.49,0.17c0.04,0.05,0.05,0.12,0.05,0.19
				c0.01,0.04,0.01,0.09,0,0.14c0.04,0.02,0.09,0.03,0.13,0.04c0.01,0.02-0.18,0.47-0.18,0.48c-0.06,0.47-0.2,0.9-0.42,1.32
				c-0.08,0.17-0.09,0.28-0.09,0.47c-0.01,0.25-0.14,0.48-0.13,0.73c-0.03,0.43,0.12,0.9,0.23,1.31c0.21,0.75,0.48,1.52,1.02,2.1
				c0.24,0.25,0.49,0.78,0.86,0.86c0.64,0.15-0.18-0.63-0.29-0.74c0.21,0.19,0.01-0.15,0,0l0,0c0.01-0.18-0.06-0.36-0.18-0.5
				c-0.13-0.2-0.18-0.3-0.26-0.52c-0.14-0.42-0.46-0.78-0.42-1.24c0.03-0.21-0.04-0.41-0.04-0.63c0-0.08,0.07-0.14,0.07-0.2
				c0.01-0.09-0.07-0.13-0.04-0.23c0.05-0.13-0.01-0.3,0.04-0.45c0.01-0.06,0-0.13,0.01-0.19s0.07-0.03,0.07-0.04
				c0.04-0.08-0.01-0.19,0.01-0.27c0-0.07,0.07-0.05,0.09-0.11c-0.08-0.1,0.11-0.3,0.13-0.41c0.04-0.21,0.15-0.38,0.26-0.56
				c0.05-0.09,0.09-0.18,0.13-0.28c0.04-0.13,0.13-0.12,0.17-0.22c0.18-0.41,0.6-0.77,1.01-0.99c0.09-0.12,0.33-0.25,0.5-0.32
				c0.2-0.08,0.46-0.14,0.66-0.14c0.31-0.01,0.7,0,1.01,0.05c0.14,0.02,0.26,0.1,0.4,0.13c0.08,0.03,0.17,0.04,0.24,0.03
				c0.11,0.01,0.15,0.11,0.25,0.15c0.34,0.09,0.59,0.3,0.9,0.43c0.23,0.1,0.38,0.39,0.62,0.44c0.36,0.08,0.13-0.44,0.03-0.58
				c-0.03-0.04-0.29-0.45-0.27-0.45c0.07-0.08,0.21-0.12,0.31-0.12c0.16,0.01,0.28-0.03,0.43-0.04c0.35-0.01,0.76,0.07,1.1,0.01
				c0.36-0.06,0.73,0.06,1.11,0.03c0.17-0.01,0.34-0.06,0.51-0.05c0.19,0.01,0.34,0.02,0.52-0.04c0.14-0.05,0.29-0.03,0.44-0.03
				c0.18,0,0.34-0.1,0.5-0.14c0.19-0.05,0.72-0.16,0.68-0.45c-0.02-0.36-0.44-0.1-0.6-0.09c-0.19,0.01-0.29,0.06-0.44,0.13
				c-0.16,0.08-0.34-0.01-0.5,0.03c-0.32,0.1-0.58,0.08-0.92,0.03c-0.22-0.03-0.38-0.03-0.6,0.01c-0.18,0.04-0.37-0.07-0.57-0.07
				c-0.43,0.01-0.72,0.02-1.15-0.12c-0.35-0.12-0.84-0.1-1.21-0.08c-0.2,0-0.39,0.05-0.59,0.04c-0.16,0-0.36-0.14-0.51-0.1
				c-0.2,0.05-0.21-0.12-0.38-0.1c-0.21,0.03-0.41,0.04-0.63,0.03c-0.52-0.01-1.02-0.02-1.53-0.04c-0.16,0-1.23-0.12-1.24-0.02
				c-0.12,0-0.27-0.04-0.4-0.05c-0.13,0-0.2-0.01-0.31-0.03c-0.4-0.08-1.04-0.1-1.44,0.01c-0.44,0.12-0.8,0.09-1.26,0.08
				c-0.24,0-0.48,0.03-0.7,0.07c-0.22,0.04-0.51,0.17-0.74,0.06c0-0.02,0.1-0.2,0.11-0.23c0.08-0.14,0.2-0.27,0.29-0.41
				c0.09-0.08,0.09-0.27,0.13-0.38c0.06-0.17,0.17-0.32,0.26-0.45c0.44-0.6,1.07-1.04,1.65-1.5c-0.26,0.06-0.58,0.08-0.8,0.21
				c-0.18,0.11-0.39,0.21-0.6,0.28c-0.44,0.18-0.68,0.37-1,0.71c-0.38,0.4-0.74,0.73-0.92,1.26c-0.08,0.24-0.14,0.48-0.25,0.7
				c-0.12,0.23-0.31,0.44-0.39,0.7C296.46,161.08,297.4,160.92,298.48,160.88z"/>
			<path class="st1" d="M305.44,140.06L305.44,140.06C305.45,139.86,305.44,139.99,305.44,140.06c0-0.3-0.27-0.54-0.43-0.77
				c-0.16-0.22-0.51-0.42-0.6-0.71c0.04,0,0.26,0.03,0.3,0.04c-0.04,0.07-0.01,0.08,0.11,0.02c0.07,0,0.14,0.01,0.21,0.05
				c0.3,0.13,0.61,0.23,0.78,0.51c-0.08-0.04-0.23-0.14-0.31-0.06c0.14,0.12,0.6,0.76,0.76,0.35c0.06-0.13,0.08-0.32,0.01-0.44
				c-0.06-0.14-0.27-0.22-0.27-0.4c-0.71-0.51-1.35-1.4-2.33-1.14c-0.23,0.06-1.07,0.16-0.93,0.57c0.06,0.23,1.01,0.11,0.49,0.44
				c-0.32,0.21-0.42,0.56-0.49,0.94c-0.04,0.28-0.02,0.81,0.35,0.85c-0.05-0.11,0.06-0.14,0.11-0.22c0.05-0.09-0.1-0.22-0.02-0.27
				c0.11,0.07,0.27,0.02,0.38,0.09c0.12,0.07,0.22,0.11,0.37,0.14C304.3,140.14,305.38,140.77,305.44,140.06z"/>
			<path class="st1" d="M311.42,192.97c0.04,0.11,0.05,0.48,0.26,0.39c0.08-0.03,0.12-0.1,0.13-0.17c0.02-0.14,0.11-0.15,0.16-0.3
				c0.13-0.46-0.05-1.12-0.28-1.56c0,0-0.08-0.12-0.08-0.13c-0.1-0.15-0.27-0.28-0.34-0.42c-0.08-0.11-0.13-0.17-0.25-0.25
				c-0.12-0.08-0.14-0.2-0.23-0.3c-0.03,0.25-0.07,0.49-0.08,0.73c-0.01,0.31,0.13,0.43,0.2,0.71
				C311,192.11,311.29,192.51,311.42,192.97z"/>
			<path class="st1" d="M306.63,168.56C306.54,168.61,306.83,168.56,306.63,168.56L306.63,168.56z"/>
			<path class="st1" d="M314.91,191.5C314.97,192.04,314.91,191.44,314.91,191.5L314.91,191.5z"/>
			<path class="st1" d="M299,252.89C299.01,252.93,299.02,252.96,299,252.89L299,252.89z"/>
			<path class="st1" d="M308.84,164.86c-0.05-0.23-0.03-0.44-0.11-0.66c-0.07-0.19-0.1-0.5-0.2-0.66c-0.08-0.11-0.09-0.41-0.26-0.43
				c-0.3-0.04-0.22,0.35-0.2,0.53c0.08,0.65,0.19,1.21,0.03,1.86c-0.07,0.25-0.15,0.5-0.24,0.75c-0.14-0.07,0,0.19-0.16,0.18
				c-0.02-0.08-0.02-0.15-0.02-0.23c-0.13,0.65-0.55,1.23-1.03,1.72c-0.3,0.32-0.62,0.6-1.04,0.71c-0.01,0-0.01,0.01-0.02,0.01
				c0,0.16,0.24,0.25,0.48,0.18c0.1-0.02,0.19-0.05,0.29-0.07s0.17-0.13,0.27-0.18c0.26,0,0.37-0.2,0.59-0.27
				c0.2-0.07,0.31-0.22,0.46-0.34c0.28-0.2,0.56-0.5,0.68-0.82c0.03-0.11,0.07-0.05,0.11-0.19c0.03-0.15,0.1-0.28,0.15-0.43
				c0.03-0.13,0.05-0.25,0.12-0.38c0.09-0.15,0.15-0.51,0.1-0.71C308.79,165.24,308.89,165.06,308.84,164.86z"/>
			<path class="st1" d="M313.97,191.3c-0.01,0.28-0.22,1.54,0.44,1.36c0.34-0.09,0.54-0.83,0.5-1.16c-0.01-0.04-0.02-0.07-0.05-0.08
				c0.03-0.05,0.04-0.1,0.02-0.15c-0.02-0.05-0.02-0.09,0-0.13c0.03-0.12-0.05,0-0.05-0.08c0-0.14-0.01-0.62-0.16-0.64
				c-0.18-0.38-0.18-0.91-0.52-1.19v-0.1c0-0.09-0.05,0.02-0.08-0.09c-0.01-0.08-0.09-0.17-0.07-0.25
				c-0.08-0.02-0.18-0.06-0.24-0.12c-0.22-0.15-0.34-0.4-0.53-0.6c0.13,0.57,0.14,1.25,0.39,1.77
				C313.84,190.28,313.98,190.82,313.97,191.3z"/>
			<path class="st1" d="M300.48,263.59c-0.12-0.19-0.35-0.38-0.49-0.56c-0.22-0.27-0.47-0.42-0.75-0.5
				c-0.44-0.12-0.86-0.14-1.32-0.09c-0.17,0.17-0.49,0.18-0.59,0.42c-0.16,0.37,0.73,0.16,0.94,0.16c0.37,0,0.79,0.01,1.14,0.14
				c0.14,0.05,0.31,0.09,0.4,0.2c0.04,0.06,0.24,0.17,0.24,0.23c0.01,0.05,0.05,0.07,0.11,0.08c0.14,0.04,0.08,0.07,0.17,0.13
				c0.12,0.08,0.12,0.17,0.27,0.16c0.02-0.11-0.07-0.27-0.11-0.36C300.45,263.54,300.47,263.57,300.48,263.59z"/>
			<path class="st1" d="M298.93,259.38c-0.02,0.36-0.15,0.96,0.03,1.14c0.41,0.38,0.47-0.31,0.53-0.61c0.03-0.19,0.13-0.3,0.21-0.46
				c0.1-0.21-0.01-0.45,0.05-0.67c0.11-0.4,0.37-0.72,0.48-1.13h-0.49c-0.28,0-0.22-0.05-0.28,0.19c-0.04,0.12-0.14,0.2-0.21,0.3
				c-0.09,0.12-0.09,0.29-0.14,0.42c-0.05,0.15-0.06,0.19-0.16,0.32c-0.06,0.11-0.14,0.27-0.02,0.34
				C298.9,259.22,298.92,259.34,298.93,259.38c0.01-0.05,0.01-0.1,0-0.14C298.95,259.41,298.94,259.41,298.93,259.38z"/>
			<path class="st1" d="M297.66,189.73h0.02c-0.01-0.01-0.02-0.03-0.02-0.04C297.65,189.7,297.66,189.72,297.66,189.73z"/>
			<path class="st1" d="M293.86,200.99c-0.1,0.05-0.03,0.07-0.06,0.15c0.05-0.1,0.1-0.2,0.16-0.28
				C293.9,200.89,293.87,200.93,293.86,200.99z"/>
			<path class="st1" d="M308.83,159c0.21,0.28,0.6,0.1,0.92,0.11c0.27,0,0.53,0.05,0.79,0.07c0.11,0.01,0.23,0.02,0.34,0.03
				c0.17,0,0.13-0.13,0.11-0.27c-0.04-0.24,0-0.38,0.03-0.6c0.02-0.1,0-0.2,0.02-0.31c0.01-0.08,0.07-0.12,0.09-0.19
				c0.04-0.12-0.17-0.89-0.27-0.82c-0.17,0.11-0.15,0.21-0.22,0.38c-0.03,0.08-0.11,0.12-0.13,0.19c-0.04,0.1,0,0.21-0.04,0.31
				c-0.03,0.12-0.12,0.27-0.24,0.33c-0.2,0.12-0.3,0.27-0.53,0.35c-0.19,0.06-0.36,0.05-0.57,0.04c-0.14,0-0.23,0.09-0.35,0.14
				C308.59,158.81,308.75,158.94,308.83,159z"/>
			<path class="st1" d="M341.4,157.48v-0.12c-0.02,0.01-0.04,0.01-0.06,0.02C341.36,157.41,341.38,157.44,341.4,157.48z"/>
			<path class="st1" d="M347.37,152.93h0.11c-0.01-0.02-0.01-0.04-0.02-0.06c0.4-0.24,0.93-0.36,1.28-0.69
				c0.47-0.43,0.25-1.2-0.24-1.46c-0.25-0.12-0.59-0.21-0.88-0.19c-0.42,0.03-0.4,0.14-0.41,0.55c0,0.58-0.05,1.28,0.25,1.79
				C347.43,152.9,347.39,152.9,347.37,152.93z"/>
			<path class="st1" d="M341.38,170.36c0.25,0.13,0.59,0.21,0.89,0.19c0.42-0.03,0.39-0.13,0.4-0.55c0.01-0.58,0.04-1.28-0.24-1.79
				c0.02-0.01,0.06-0.04,0.09-0.05h-0.11c0,0.01,0,0.04,0.01,0.05c-0.4,0.24-0.94,0.36-1.3,0.69
				C340.66,169.34,340.89,170.12,341.38,170.36z"/>
			<path class="st1" d="M339.19,156.34c-0.13,0.25-0.2,0.59-0.19,0.88c0.03,0.42,0.14,0.4,0.55,0.4c0.58,0.01,1.29,0.05,1.8-0.24
				c-0.25-0.4-0.37-0.93-0.69-1.29C340.22,155.62,339.43,155.86,339.19,156.34z"/>
			<path class="st1" d="M349.23,164.58c0.44,0.47,1.24,0.23,1.48-0.25c0.12-0.25,0.21-0.6,0.19-0.88c-0.04-0.42-0.15-0.4-0.55-0.4
				c-0.59-0.01-1.3-0.04-1.81,0.24c-0.01-0.03-0.03-0.06-0.05-0.09v0.11c0.01-0.01,0.03-0.01,0.05-0.02
				C348.79,163.69,348.92,164.22,349.23,164.58z"/>
			<path class="st1" d="M352.91,167.08C352.9,167.08,352.9,167.08,352.91,167.08L352.91,167.08L352.91,167.08L352.91,167.08z"/>
			<path class="st1" d="M476.45,279.5v-0.06c0.59-0.19,1.06-0.59,1.06-1.21c0-0.5-0.22-0.88-0.53-1.09
				c-0.34-0.26-0.78-0.41-1.75-0.41c-0.85,0-1.5,0.09-1.96,0.15V282h1.18v-2.03h0.56c0.66,0,0.97,0.25,1.07,0.78
				c0.15,0.63,0.25,1.07,0.4,1.25h1.25c-0.09-0.19-0.22-0.47-0.37-1.25C477.2,280.06,476.95,279.65,476.45,279.5z M475.05,279.13
				h-0.56v-1.47c0.12-0.04,0.34-0.06,0.65-0.06c0.74,0,1.09,0.31,1.09,0.78C476.23,278.91,475.7,279.13,475.05,279.13z"/>
			<path class="st1" d="M475.3,274.22c-2.96,0-5.31,2.25-5.31,5.12c0,2.87,2.35,5.15,5.29,5.15s5.24-2.28,5.24-5.15
				C480.51,276.47,478.2,274.22,475.3,274.22z M475.3,283.43c-2.28,0-4.01-1.81-4.01-4.09c0-2.25,1.73-4.09,3.94-4.09
				c2.28,0,3.96,1.84,3.96,4.12C479.2,281.62,477.51,283.46,475.3,283.43z"/>
		</g>
	</g>
</g>
</svg>
