<?xml version="1.0" encoding="utf-8"?>
<!-- Generator: Adobe Illustrator 24.1.2, SVG Export Plug-In . SVG Version: 6.00 Build 0)  -->
<svg version="1.1" id="Capa_1" xmlns="http://www.w3.org/2000/svg" xmlns:xlink="http://www.w3.org/1999/xlink" x="0px" y="0px"
	 viewBox="0 0 600 600" style="enable-background:new 0 0 600 600;" xml:space="preserve">
<style type="text/css">
	.st0{fill:#FFFFFF;}
	.st1{fill:#7F7F7F;}
</style>
<rect class="st0" width="600" height="600"/>
<g>
	<g>
		<path class="st1" d="M524.36,276.6c0.49,0.13,1.17-0.05,1.45-1.11c0.26-0.93-0.19-1.35-0.72-1.5l-0.51-0.14l-0.71,2.61
			L524.36,276.6z M520.76,278.57c0.76,0.12,0.82,0.1,0.99-0.45l1.1-4.01c0.15-0.56,0.1-0.61-0.61-0.89l0.15-0.52l3.7,1.01
			c1.05,0.29,1.87,1,1.55,2.16c-0.22,0.81-0.98,1.36-1.89,1.39l0.7,2.27c0.16,0.5,0.4,0.71,0.66,0.78l-0.14,0.53l-1.52-0.41
			c-0.33-0.1-0.5-0.37-0.63-0.9l-0.65-2.41l-0.43-0.12l-0.42,1.54c-0.16,0.56-0.1,0.62,0.6,0.9l-0.15,0.52l-3.13-0.86L520.76,278.57
			z M525.85,272.06c-2.66-0.73-5.2,0.78-5.94,3.47c-0.74,2.69,0.68,5.29,3.35,6.02c2.66,0.74,5.21-0.78,5.94-3.47
			C529.94,275.39,528.53,272.78,525.85,272.06 M526.25,270.61c3.42,0.94,5.43,4.46,4.48,7.89c-0.94,3.43-4.46,5.44-7.89,4.49
			c-3.43-0.94-5.44-4.46-4.49-7.89C519.3,271.67,522.83,269.66,526.25,270.61 M490.85,289.66c0.46,1.91,0.5,4.43,0.5,4.43
			s-0.07-1.19,0.84-4.15l7.83-23c1.99-5.93,1.92-10.24-0.72-13.62l0.1-0.19l18.98,7.06l-0.05,0.22c-3.95,1.15-6.98,4.43-8.97,10.4
			c-1.11,3.58-18.47,54.65-18.47,54.65l-9.57-3.62l-9.44-46.73c-0.48-1.91-0.5-4.42-0.5-4.42s0.07,1.19-0.84,4.15
			c-0.81,2.67-8.65,26.13-8.65,26.13c-1.75,6.22-1.52,10.51,0.98,13.79l-0.08,0.21l-20.29-5.96l0.03-0.22
			c4.13-1.16,7.64-4.29,9.56-10.25l12.85-40.34c1.97-6.6,1.46-12.62-2.13-16.08l0.08-0.21l18.7,5.43L490.85,289.66z M425.73,240.94
			c-9.16-2.01-15.27,9.08-18.42,23.41c-3.31,15.11-1.77,26.8,6.62,28.64c8,1.75,14.77-8.12,18.08-23.22
			C435.14,255.44,434.89,242.95,425.73,240.94 M448.11,273.33c-4.86,20.04-19.73,33.93-37.21,30.09
			c-19.05-4.18-24.91-22.18-19.96-42.62c4.88-20.19,18.69-32.91,36.48-29.92C448.52,234.42,452.86,253.76,448.11,273.33
			 M356.12,294.17c-8.94-0.27-9.9-2.8-14.96-3.96c-3.7-0.85-6.22,0.77-7.32,2.08l-0.22-0.03l1.07-24.74l0.21-0.03
			c1.83,4.8,7.02,11.44,13.03,14.81c5.47,3.05,11.01,1.78,13.84-1.81c2.45-3.13,3.08-8.91-0.8-12.86c-3.87-3.95-10-6.61-15.14-10.56
			c-10.39-7.99-9.71-18.77-6.46-24.77c4.54-8.37,14.05-11.78,22.54-10.95c5.17,0.5,7.49,1.83,11.1,2.98
			c3.62,1.15,6.82,0.46,7.49,0.09l0.22,0.04l-1.64,19.53l-0.22,0.01c-1.86-5.16-8.01-11.6-14.48-12.81
			c-5.67-1.05-8.81,0.96-10.21,3.3c-2.15,3.6-1.2,7.61,2.72,10.32c5.67,3.92,12.55,6.84,17.07,11.11
			c6.58,6.21,8.68,17.21,2.82,26.94C372.06,290.71,362.8,294.37,356.12,294.17 M323.65,220.53l-0.53,15.42l-0.22,0.02
			c-2.46-5.74-8.68-6.9-14.25-6.85l-12.07,0.12l-0.33,18.59l6.12,0.17c8.14,0.16,10.55-0.51,13.52-5.67l0.22,0.03l-0.77,22.09
			l-0.22,0.02c-2.69-5.74-8.71-6.13-14.27-6.07l-4.58-0.02l-0.48,20.52l12.61,0.25c8.14,0.16,12.22-2.09,14.85-6.8l0.22,0.05
			l-2.25,18.11c-14.9-0.5-31.99-0.59-45.32,0.02l-0.04-0.22c3.01-1.99,4.66-6.48,4.69-13.23l0.48-44.01
			c0.05-6.26-0.38-10.26-4.7-12.43l0.03-0.22C290.88,219.9,309.34,219.87,323.65,220.53 M242.31,222.67l21.42-1.65l0.04,0.22
			c-5.59,2.65-4.99,7.45-4.42,14.91l2.85,42.48c0.69,6.22,2.23,11.02,4.98,12.23l-0.02,0.22c0,0-4.99,0.3-11.88,0.85
			c-6.86,0.55-11.94,1.06-11.94,1.06l-0.05-0.22c2.52-1.69,4.65-6.93,4.18-13.37c0,0-1.85-27.63-2.04-29.94
			c-0.23-2.61,0.02-4.4,0.02-4.4s-0.34,1.94-1,4.17c-0.67,2.24-13.75,46.05-13.75,46.05l-0.34,0.02c0,0-19.44-36-21.18-38.89
			c-1.39-2.31-1.95-4.5-1.95-4.5s0.68,2.05,1.13,4.81c0.45,2.75,3.89,27.02,3.89,27.02c1.11,6.37,4.46,10.92,7.31,11.95l0.02,0.22
			l-18.8,3.07l-0.06-0.2c2.37-1.84,2.69-6.88,1.84-13.08l-5.69-42.12c-0.89-6.41-4.15-11.51-8.89-13.08l-0.01-0.22l21.34-3.65
			c0,0,17.82,32.33,20.95,37.25C232.14,257.73,242.31,222.67,242.31,222.67 M152.07,254.01l-1.81,26.11l12.97-3.61L152.07,254.01z
			 M183.63,302.7c-4.63,1.19-12.53,2.95-12.53,2.95l-0.06-0.21c1.84-1.7,3.84-5.7,0.96-11.22l-4.31-8.69l-18.17,4.92l-0.71,10.22
			c-0.03,6.13,3.16,8.77,5.61,9.3l0.05,0.22c0,0-5.82,1.8-10.36,3.09c-4.44,1.43-10.06,3.1-10.06,3.1l-0.07-0.22
			c1.76-1.5,3.68-6.61,4.05-12.56c1.02-15.87,2.51-39.58,3.85-50.2c0.65-5.1,0.02-9.94-3.92-11.29l-0.06-0.26
			c0,0,5.53-1.62,12.26-3.22c5.64-1.34,12.37-3.09,12.37-3.09l0.09,0.26c-2.61,3.47-0.61,7.13,1.86,11.7
			c2.34,4.35,22.24,40.81,23.92,43.83c2.93,5.05,4.8,7.08,7.81,8.43l0.03,0.22C196.25,300,188.32,301.69,183.63,302.7 M97.9,263.17
			c-1.06-3.99-4.46-6.04-6.77-6.19l-0.07-0.21c0,0,6.26-2.31,10.79-3.86c4.7-1.6,11.42-3.82,11.42-3.82l0.1,0.22
			c-1.73,1.56-2.49,4.86-1.51,8.72c0,0,8.61,33.8,9.85,38.27c1.23,4.47,2.93,6.97,5.25,7.28l0.08,0.21c-1.2,1.17-2.17,4.1-3.39,6.78
			c-1.24,2.72-3.84,10.98-13.89,14.9c-10.96,4.27-22.14,1.69-26.9-6.05c-3.11-5.04-2.42-11.98,2.57-14.82
			c4.33-2.46,9.02-0.89,10.81,2.69c1.73,3.47,0.58,7.19-0.83,8.42c-0.29,0.26,0,0.75,0.66,1.19c2.94,2,6.27,1.87,9.48,0.15
			c4.1-2.2,5.49-5.72,3.36-13.89C107.17,296.6,99.1,267.63,97.9,263.17"/>
	</g>
	<g>
		<path class="st1" d="M112.12,391.29v-29.71h7.2v29.71H112.12z"/>
		<path class="st1" d="M150.03,391.29c-0.71-1.08-0.83-2-1.08-5.08c-0.25-2.91-0.75-6.24-4.37-6.24h-7.74v11.32h-7.24v-29.71h15.52
			c5.28,0,11.44,1.42,11.44,8.28c0,4.12-2.21,6.49-5.28,7.41v0.17c3.95,1.62,4.79,5.78,5.08,9.49c0.12,1.62,0.12,3.16,1.16,4.37
			H150.03z M136.84,367.44v6.83h9.24c2.04,0,3.25-1.21,3.25-3.41c0-2.45-1.46-3.41-3.58-3.41H136.84z"/>
		<path class="st1" d="M165.68,391.29v-29.71h7.2v29.71H165.68z"/>
		<path class="st1" d="M199.85,370.44c-0.42-3.12-3.54-3.83-6.08-3.83c-1.54,0-5.66,0.25-5.66,3.08c0,1.87,1.75,2.54,3.16,2.87
			c1.83,0.42,6.58,1.12,8.78,1.62c4.49,1.04,6.99,3.37,6.99,8.07c0,7.41-6.28,9.78-12.36,9.78c-6.62,0-13.27-2.83-14.27-10.53h6.49
			c0.87,3.7,4.7,4.62,8.03,4.62c1.42,0,5.87-0.17,5.87-3.37c0-1.58-1.12-2.21-2.7-2.62c-2.41-0.62-6.08-0.92-9.11-1.79
			c-3.79-1.08-7.12-3.16-7.12-8.24c0-6.95,6.2-9.36,11.94-9.36c6.24,0,12.11,2.87,12.48,9.7H199.85z"/>
		<path class="st1" d="M232.69,391.29v-11.11h-11.07v11.11h-7.24v-29.71h7.24v12.15h11.07v-12.15h7.16v29.71H232.69z"/>
		<path class="st1" d="M289.33,391.29l-5.74-20.1h-0.17l-6.03,20.1h-8.24l-7.28-29.71h7.57l4.7,20.35h0.17l5.49-20.35h7.66
			l5.62,20.35h0.17l5.37-20.35h6.99l-8.11,29.71H289.33z"/>
		<path class="st1" d="M330.99,391.29v-11.11h-11.07v11.11h-7.24v-29.71h7.24v12.15h11.07v-12.15h7.16v29.71H330.99z"/>
		<path class="st1" d="M348.43,391.29v-29.71h7.2v29.71H348.43z"/>
		<path class="st1" d="M382.6,370.44c-0.42-3.12-3.54-3.83-6.08-3.83c-1.54,0-5.66,0.25-5.66,3.08c0,1.87,1.75,2.54,3.16,2.87
			c1.83,0.42,6.58,1.12,8.78,1.62c4.49,1.04,6.99,3.37,6.99,8.07c0,7.41-6.28,9.78-12.36,9.78c-6.62,0-13.27-2.83-14.27-10.53h6.49
			c0.87,3.7,4.7,4.62,8.03,4.62c1.42,0,5.87-0.17,5.87-3.37c0-1.58-1.12-2.21-2.7-2.62c-2.41-0.62-6.08-0.92-9.11-1.79
			c-3.79-1.08-7.12-3.16-7.12-8.24c0-6.95,6.2-9.36,11.94-9.36c6.24,0,12.11,2.87,12.48,9.7H382.6z"/>
		<path class="st1" d="M416.73,391.29l-8.03-13.44l-4.74,4.29v9.15h-7.24v-29.71h7.24v12.07l12.03-12.07h10.15l-12.48,11.28
			l11.15,18.43H416.73z"/>
		<path class="st1" d="M430.76,391.29v-29.71h23.76v6.08H438v5.45h13.36v5.83H438v6.28h16.56v6.08H430.76z"/>
		<path class="st1" d="M469.67,391.29v-12.28l-10.94-17.44h8.32l6.95,11.36l6.91-11.36h6.87l-10.9,17.44v12.28H469.67z"/>
	</g>
</g>
</svg>
