<?xml version="1.0" encoding="utf-8"?>
<!-- Generator: Adobe Illustrator 24.1.2, SVG Export Plug-In . SVG Version: 6.00 Build 0)  -->
<svg version="1.1" id="Capa_1" xmlns="http://www.w3.org/2000/svg" xmlns:xlink="http://www.w3.org/1999/xlink" x="0px" y="0px"
	 viewBox="0 0 600 600" style="enable-background:new 0 0 600 600;" xml:space="preserve">
<style type="text/css">
	.st0{fill:#A0A0A0;}
</style>
<g>
	<path class="st0" d="M241.44,105.46c-22.74,0-41.23,18.5-41.23,41.23v96.64c0,40.48,32.93,73.42,73.42,73.42h120.79
		c9.42,0,17.08-7.66,17.08-17.08V122.54c0-9.42-7.66-17.08-17.08-17.08H241.44z M218.3,243.33v-23.18h83.8l78.5,78.5H273.62
		C243.11,298.65,218.3,273.83,218.3,243.33z M393.4,285.86l-65.71-65.71h10.36c30.52,0,55.35,24.83,55.35,55.35V285.86z
		 M393.4,227.31c-5.67-6.51-12.46-12.02-20.08-16.21c7.62-4.19,14.41-9.7,20.08-16.21V227.31z M393.4,123.55v23.15
		c0,30.52-24.83,55.35-55.35,55.35H218.3v-55.36c0-12.76,10.38-23.14,23.14-23.14H393.4z"/>
	<g>
		<g>
			<path class="st0" d="M59.79,473.43h5.39l9.05,25.68h-5.42l-1.72-5.46h-9.27l-1.69,5.46h-5.28L59.79,473.43z M59.04,489.66h6.79
				l-2.3-7.4c-0.43-1.36-1.04-3.95-1.04-3.95h-0.07c0,0-0.65,2.59-1.08,3.95L59.04,489.66z"/>
			<path class="st0" d="M76.55,489.91c0-5.75,3.27-9.73,7.87-9.73c2.59,0,4.2,1.18,5.21,2.73h0.11v-9.48h4.89v25.68h-4.7v-2.41
				h-0.07c-1.08,1.76-2.91,2.94-5.49,2.94C79.71,499.65,76.55,495.88,76.55,489.91z M89.84,490.02c0-3.52-1.15-5.89-4.27-5.89
				c-2.69,0-4.06,2.37-4.06,5.78c0,3.56,1.4,5.64,3.92,5.64C88.33,495.55,89.84,493.4,89.84,490.02z"/>
			<path class="st0" d="M98.43,480.68h4.96l2.95,9.56c0.54,1.76,0.83,2.94,0.83,2.94h0.07c0,0,0.25-1.19,0.79-2.94l3.02-9.56h4.89
				l-6.43,18.43h-4.67L98.43,480.68z"/>
			<path class="st0" d="M118.31,489.88c0-5.46,3.7-9.7,9.09-9.7c5.93,0,9.09,4.52,9.09,11.1h-13.36c0.36,2.84,1.94,4.6,4.71,4.6
				c1.9,0,3.02-0.86,3.56-2.27h4.81c-0.68,3.27-3.59,6.03-8.33,6.03C121.76,499.65,118.31,495.37,118.31,489.88z M123.2,487.9h8.19
				c-0.14-2.34-1.69-3.95-3.92-3.95C124.88,483.95,123.63,485.5,123.2,487.9z"/>
			<path class="st0" d="M145.62,483.63h0.11c1.11-2.09,2.37-3.16,4.53-3.16c0.54,0,0.86,0.03,1.15,0.14v4.27h-0.11
				c-3.2-0.32-5.49,1.36-5.49,5.25v8.98h-4.89v-18.43h4.71V483.63z"/>
			<path class="st0" d="M154.79,480.68h2.55v-5.75h4.78v5.75h3.16v3.23h-3.16v9.77c0,1.36,0.75,1.83,1.83,1.83
				c0.61,0,1.44-0.04,1.44-0.04v3.59c0,0-1.11,0.07-3.05,0.07c-2.37,0-4.99-0.94-4.99-4.42v-10.81h-2.55V480.68z"/>
			<path class="st0" d="M169.96,473.43h4.89v4.38h-4.89V473.43z M169.96,480.68h4.89v18.43h-4.89V480.68z"/>
			<path class="st0" d="M179.01,493.15h4.53c0.32,2.12,1.83,3.05,4.02,3.05c2.16,0,3.38-0.83,3.38-2.12c0-1.76-2.33-1.94-4.85-2.44
				c-3.3-0.64-6.54-1.54-6.54-5.57c0-3.99,3.3-5.89,7.51-5.89c4.85,0,7.54,2.41,7.9,6.1h-4.42c-0.21-1.97-1.47-2.69-3.56-2.69
				c-1.9,0-3.16,0.72-3.16,2.05c0,1.58,2.44,1.72,5.07,2.26c3.09,0.64,6.5,1.51,6.5,5.82c0,3.7-3.16,5.93-7.76,5.93
				C182.28,499.65,179.3,497.06,179.01,493.15z"/>
			<path class="st0" d="M199.75,473.43h4.89v4.38h-4.89V473.43z M199.75,480.68h4.89v18.43h-4.89V480.68z"/>
			<path class="st0" d="M214.74,483.2h0.11c1.26-1.97,2.95-3.02,5.46-3.02c3.81,0,6.36,2.87,6.36,6.9v12.03h-4.89V487.8
				c0-1.97-1.15-3.38-3.2-3.38c-2.16,0-3.74,1.72-3.74,4.24v10.45h-4.89v-18.43h4.78V483.2z"/>
			<path class="st0" d="M231.34,499.65h4.85c0.39,1.15,1.44,2.05,3.7,2.05c2.77,0,4.09-1.33,4.09-3.84v-2.01h-0.11
				c-1.08,1.22-2.48,2.16-4.81,2.16c-4.1,0-8.12-3.23-8.12-8.8c0-5.5,3.3-9.02,7.98-9.02c2.3,0,3.99,0.9,5.1,2.44h0.07v-1.94h4.7
				v17.03c0,2.59-0.83,4.34-2.19,5.6c-1.54,1.44-3.91,2.08-6.64,2.08C234.94,505.4,231.85,503.24,231.34,499.65z M244.24,489.09
				c0-2.69-1.44-4.99-4.38-4.99c-2.48,0-4.13,1.94-4.13,5.03c0,3.13,1.65,4.96,4.17,4.96C242.98,494.08,244.24,491.82,244.24,489.09
				z"/>
			<path class="st0" d="M261.43,492.5c0-3.67,2.34-5.96,5.68-7.65c-1.47-1.79-2.16-3.23-2.16-5.32c0-3.34,2.66-5.93,6.64-5.93
				c3.88,0,6.72,2.37,6.72,5.89c0,3.16-1.83,4.74-4.6,6.17l3.41,4.42c0.5-1.29,0.86-2.77,1.01-4.17h4.35
				c-0.22,2.87-1.04,5.64-2.44,7.94l4.06,5.24h-5.96l-1.33-1.69c-1.9,1.4-4.24,2.23-6.82,2.23
				C264.34,499.65,261.43,496.52,261.43,492.5z M274.25,494.12l-4.7-6.15c-2.19,1.33-2.95,2.77-2.95,4.38
				c0,1.94,1.55,3.27,3.56,3.27C271.7,495.62,273.1,495.09,274.25,494.12z M271.52,482.91c1.69-1.01,2.16-2.12,2.16-3.34
				c0-1.26-0.93-2.05-2.01-2.05c-1.15,0-2.01,0.86-2.01,2.09C269.65,480.76,270.44,481.87,271.52,482.91z"/>
			<path class="st0" d="M315.29,495.66h-0.07c-1.76,2.94-4.17,3.99-7.22,3.99c-3.88,0-6.9-1.4-9.02-3.74
				c-2.12-2.37-3.34-5.67-3.34-9.55c0-4.27,1.51-8.01,4.2-10.49c2.08-1.9,4.81-2.95,8.26-2.95c6.46,0,10.17,3.56,10.99,8.59H314
				c-0.57-2.48-2.48-4.28-5.78-4.28c-4.85,0-7.26,4.02-7.26,9.13c0,5.24,2.77,9.09,7.18,9.09c3.99,0,6.61-2.98,6.61-5.82v-0.14
				h-6.18v-4.02h10.81v13.65h-3.92L315.29,495.66z"/>
			<path class="st0" d="M329.5,483.63h0.11c1.12-2.09,2.37-3.16,4.53-3.16c0.54,0,0.86,0.03,1.15,0.14v4.27h-0.11
				c-3.2-0.32-5.5,1.36-5.5,5.25v8.98h-4.89v-18.43h4.7V483.63z"/>
			<path class="st0" d="M350.05,497.06h-0.07c-0.94,1.4-2.27,2.48-5.43,2.48c-3.77,0-6.43-1.97-6.43-5.64c0-4.06,3.3-5.35,7.4-5.93
				c3.05-0.43,4.45-0.68,4.45-2.08c0-1.33-1.04-2.19-3.09-2.19c-2.3,0-3.41,0.83-3.56,2.59h-4.35c0.14-3.23,2.55-6.07,7.94-6.07
				c5.53,0,7.76,2.48,7.76,6.79v9.38c0,1.4,0.21,2.23,0.65,2.55v0.18h-4.71C350.34,498.75,350.16,497.89,350.05,497.06z
				 M350.09,492.61v-2.76c-0.86,0.5-2.19,0.79-3.41,1.08c-2.55,0.57-3.81,1.15-3.81,2.87s1.15,2.34,2.87,2.34
				C348.54,496.13,350.09,494.41,350.09,492.61z"/>
			<path class="st0" d="M359.94,480.68h4.7v2.3h0.11c1.18-1.62,2.91-2.8,5.42-2.8c4.89,0,8.01,3.99,8.01,9.73
				c0,5.96-3.23,9.73-7.97,9.73c-2.59,0-4.28-1.04-5.32-2.62h-0.07v8.12h-4.89V480.68z M373.23,490.06c0-3.49-1.22-5.93-4.24-5.93
				c-3.05,0-4.27,2.62-4.27,5.93c0,3.34,1.54,5.53,4.45,5.53C371.66,495.59,373.23,493.54,373.23,490.06z"/>
			<path class="st0" d="M387.51,483.09h0.11c1.33-1.94,2.84-2.91,5.35-2.91c3.81,0,6.36,2.87,6.36,6.9v12.03h-4.89V487.8
				c0-1.97-1.15-3.38-3.2-3.38c-2.16,0-3.74,1.72-3.74,4.24v10.45h-4.89v-25.68h4.89V483.09z"/>
			<path class="st0" d="M404.51,473.43h4.89v4.38h-4.89V473.43z M404.51,480.68h4.89v18.43h-4.89V480.68z"/>
			<path class="st0" d="M413.82,489.91c0-5.5,3.59-9.73,9.2-9.73c4.78,0,7.73,2.77,8.37,6.75h-4.78c-0.32-1.62-1.58-2.84-3.37-2.84
				c-2.95,0-4.45,2.26-4.45,5.82c0,3.49,1.4,5.82,4.38,5.82c1.97,0,3.38-1.04,3.7-3.12h4.71c-0.32,3.92-3.38,7.04-8.3,7.04
				C417.45,499.65,413.82,495.41,413.82,489.91z"/>
			<path class="st0" d="M444.44,473.43h10.02c6.86,0,11.28,5.53,11.28,13.11c0,4.17-1.4,7.83-4.1,10.09
				c-1.9,1.58-4.38,2.48-7.61,2.48h-9.59V473.43z M453.67,494.62c4.89,0,6.79-2.98,6.79-8.08c0-5.1-2.23-8.65-6.65-8.65h-4.17v16.74
				H453.67z"/>
			<path class="st0" d="M469.46,489.88c0-5.46,3.7-9.7,9.09-9.7c5.93,0,9.09,4.52,9.09,11.1h-13.36c0.36,2.84,1.94,4.6,4.7,4.6
				c1.9,0,3.02-0.86,3.56-2.27h4.82c-0.69,3.27-3.59,6.03-8.33,6.03C472.9,499.65,469.46,495.37,469.46,489.88z M474.34,487.9h8.19
				c-0.14-2.34-1.69-3.95-3.92-3.95C476.03,483.95,474.77,485.5,474.34,487.9z"/>
			<path class="st0" d="M490.92,493.15h4.53c0.32,2.12,1.83,3.05,4.02,3.05c2.15,0,3.37-0.83,3.37-2.12c0-1.76-2.34-1.94-4.85-2.44
				c-3.3-0.64-6.54-1.54-6.54-5.57c0-3.99,3.3-5.89,7.51-5.89c4.85,0,7.54,2.41,7.9,6.1h-4.42c-0.22-1.97-1.47-2.69-3.56-2.69
				c-1.9,0-3.16,0.72-3.16,2.05c0,1.58,2.44,1.72,5.06,2.26c3.09,0.64,6.5,1.51,6.5,5.82c0,3.7-3.16,5.93-7.76,5.93
				C494.18,499.65,491.2,497.06,490.92,493.15z"/>
			<path class="st0" d="M511.65,473.43h4.89v4.38h-4.89V473.43z M511.65,480.68h4.89v18.43h-4.89V480.68z"/>
			<path class="st0" d="M521.36,499.65h4.85c0.39,1.15,1.44,2.05,3.7,2.05c2.77,0,4.1-1.33,4.1-3.84v-2.01h-0.11
				c-1.08,1.22-2.48,2.16-4.81,2.16c-4.1,0-8.12-3.23-8.12-8.8c0-5.5,3.3-9.02,7.98-9.02c2.3,0,3.99,0.9,5.1,2.44h0.07v-1.94h4.7
				v17.03c0,2.59-0.83,4.34-2.19,5.6c-1.54,1.44-3.92,2.08-6.64,2.08C524.95,505.4,521.86,503.24,521.36,499.65z M534.25,489.09
				c0-2.69-1.44-4.99-4.38-4.99c-2.48,0-4.13,1.94-4.13,5.03c0,3.13,1.65,4.96,4.17,4.96C532.99,494.08,534.25,491.82,534.25,489.09
				z"/>
			<path class="st0" d="M548.92,483.2h0.11c1.26-1.97,2.95-3.02,5.46-3.02c3.81,0,6.36,2.87,6.36,6.9v12.03h-4.89V487.8
				c0-1.97-1.15-3.38-3.2-3.38c-2.16,0-3.74,1.72-3.74,4.24v10.45h-4.89v-18.43h4.78V483.2z"/>
		</g>
	</g>
	<g>
		<path class="st0" d="M50.85,342.39h43.82c28.45,0,47.56,20.55,47.56,52.01c0,18.11-6.32,32.62-17.82,41.38
			c-8.05,6.03-18.39,9.34-31.32,9.34H50.85V342.39z M91.22,423.71c16.67,0,25.29-10.49,25.29-29.31c0-18.68-9.05-30.75-25-30.75
			H76.28v60.06H91.22z"/>
		<path class="st0" d="M144.66,420.99h24.57v24.14h-24.57V420.99z"/>
		<path class="st0" d="M180.86,342.39H230c20.4,0,35.92,10.49,35.92,29.6c0,11.93-5.89,20.69-17.82,24.86v0.43
			c8.91,3.02,13.51,8.62,14.94,18.82c2.15,13.51,0.72,26.44,4.31,27.73v1.29h-24.71c-2.73-1.58-2.3-13.65-3.88-23.85
			c-1.29-9.48-6.18-14.66-17.1-14.66h-15.38v38.51h0c-14.05,0-25.43-11.39-25.43-25.43V342.39z M225.4,387.79
			c10.06,0,15.23-4.74,15.23-12.5c0-7.47-4.89-12.79-14.66-12.79h-19.69v25.29H225.4z"/>
		<path class="st0" d="M275.24,419.83v-48.28h23.28v43.4c0,8.05,3.59,12.5,11.06,12.5c8.05,0,12.93-6.03,12.93-14.8v-41.09h23.42
			v73.57h-22.41l0,0c0-3.57-3.96-5.7-6.94-3.74c-4.38,2.9-10.2,5.89-15.48,5.89C284.15,447.28,275.24,436.22,275.24,419.83z"/>
		<path class="st0" d="M352.68,421.27h22.13c0.86,7.33,5.75,10.92,13.51,10.92c7.04,0,11.49-2.58,11.49-7.33
			c0-6.61-8.91-7.33-18.68-9.05c-12.79-2.15-26.44-5.6-26.44-22.84c0-15.52,14.37-23.57,31.75-23.57c20.83,0,32.04,9.05,33.19,23.57
			h-21.55c-0.86-6.61-5.32-8.62-11.78-8.62c-5.75,0-10.2,2.15-10.2,6.75c0,5.17,8.34,5.89,17.68,7.61
			c12.93,2.15,28.16,5.46,28.16,24.28c0,16.09-14.22,24.43-33.48,24.43C366.9,447.42,353.39,437.51,352.68,421.27z"/>
		<path class="st0" d="M425.8,421.27h22.13c0.86,7.33,5.75,10.92,13.51,10.92c7.04,0,11.49-2.58,11.49-7.33
			c0-6.61-8.91-7.33-18.68-9.05c-12.79-2.15-26.44-5.6-26.44-22.84c0-15.52,14.37-23.57,31.75-23.57c20.83,0,32.04,9.05,33.19,23.57
			H471.2c-0.86-6.61-5.32-8.62-11.78-8.62c-5.75,0-10.2,2.15-10.2,6.75c0,5.17,8.34,5.89,17.68,7.61
			c12.93,2.15,28.16,5.46,28.16,24.28c0,16.09-14.22,24.43-33.48,24.43C440.02,447.42,426.52,437.51,425.8,421.27z"/>
		<path class="st0" d="M536.27,420.99h24.57v24.14h-24.57V420.99z"/>
		<g>
			<path class="st0" d="M502.66,445.12L502.66,445.12c12.94,0,23.42-10.49,23.42-23.42v-50.15h-23.42V445.12z"/>
			<rect x="502.08" y="342.39" class="st0" width="24.57" height="18.97"/>
		</g>
	</g>
</g>
</svg>
