<?xml version="1.0" encoding="utf-8"?>
<!-- Generator: Adobe Illustrator 24.1.2, SVG Export Plug-In . SVG Version: 6.00 Build 0)  -->
<svg version="1.1" id="Capa_1" xmlns="http://www.w3.org/2000/svg" xmlns:xlink="http://www.w3.org/1999/xlink" x="0px" y="0px"
	 viewBox="0 0 600 600" style="enable-background:new 0 0 600 600;" xml:space="preserve">
<style type="text/css">
	.st0{fill:#A0A0A0;}
	.st1{opacity:0.5;}
</style>
<g>
	<path class="st0" d="M241.4,105.5c-22.7,0-41.2,18.5-41.2,41.2v96.6c0,40.5,32.9,73.4,73.4,73.4h120.8c9.4,0,17.1-7.7,17.1-17.1
		V122.5c0-9.4-7.7-17.1-17.1-17.1L241.4,105.5L241.4,105.5z M218.3,243.3v-23.2h83.8l78.5,78.5h-107
		C243.1,298.6,218.3,273.8,218.3,243.3z M393.4,285.9l-65.7-65.7H338c30.5,0,55.4,24.8,55.4,55.4V285.9z M393.4,227.3
		c-5.7-6.5-12.5-12-20.1-16.2c7.6-4.2,14.4-9.7,20.1-16.2V227.3z M393.4,123.6v23.1c0,30.5-24.8,55.3-55.4,55.3H218.3v-55.4
		c0-12.8,10.4-23.1,23.1-23.1L393.4,123.6L393.4,123.6z"/>
	<g>
		<g>
			<path class="st0" d="M59.8,473.4h5.4l9.1,25.7h-5.4l-1.7-5.5h-9.3l-1.7,5.5h-5.3L59.8,473.4z M59,489.7h6.8l-2.3-7.4
				c-0.4-1.4-1-4-1-4h-0.1c0,0-0.7,2.6-1.1,4L59,489.7z"/>
			<path class="st0" d="M76.6,489.9c0-5.8,3.3-9.7,7.9-9.7c2.6,0,4.2,1.2,5.2,2.7h0.1v-9.5h4.9v25.7H90v-2.4h-0.1
				c-1.1,1.8-2.9,2.9-5.5,2.9C79.7,499.6,76.6,495.9,76.6,489.9z M89.8,490c0-3.5-1.2-5.9-4.3-5.9c-2.7,0-4.1,2.4-4.1,5.8
				c0,3.6,1.4,5.6,3.9,5.6C88.3,495.5,89.8,493.4,89.8,490z"/>
			<path class="st0" d="M98.4,480.7h5l2.9,9.6c0.5,1.8,0.8,2.9,0.8,2.9h0.1c0,0,0.3-1.2,0.8-2.9l3-9.6h4.9l-6.4,18.4h-4.7
				L98.4,480.7z"/>
			<path class="st0" d="M118.3,489.9c0-5.5,3.7-9.7,9.1-9.7c5.9,0,9.1,4.5,9.1,11.1h-13.4c0.4,2.8,1.9,4.6,4.7,4.6
				c1.9,0,3-0.9,3.6-2.3h4.8c-0.7,3.3-3.6,6-8.3,6C121.8,499.6,118.3,495.4,118.3,489.9z M123.2,487.9h8.2c-0.1-2.3-1.7-4-3.9-4
				C124.9,484,123.6,485.5,123.2,487.9z"/>
			<path class="st0" d="M145.6,483.6h0.1c1.1-2.1,2.4-3.2,4.5-3.2c0.5,0,0.9,0,1.1,0.1v4.3h-0.1c-3.2-0.3-5.5,1.4-5.5,5.3v9h-4.9
				v-18.4h4.7L145.6,483.6L145.6,483.6z"/>
			<path class="st0" d="M154.8,480.7h2.6v-5.8h4.8v5.8h3.2v3.2h-3.2v9.8c0,1.4,0.8,1.8,1.8,1.8c0.6,0,1.4,0,1.4,0v3.6
				c0,0-1.1,0.1-3.1,0.1c-2.4,0-5-0.9-5-4.4V484h-2.6L154.8,480.7L154.8,480.7z"/>
			<path class="st0" d="M170,473.4h4.9v4.4H170V473.4z M170,480.7h4.9v18.4H170V480.7z"/>
			<path class="st0" d="M179,493.1h4.5c0.3,2.1,1.8,3,4,3s3.4-0.8,3.4-2.1c0-1.8-2.3-1.9-4.9-2.4c-3.3-0.6-6.5-1.5-6.5-5.6
				c0-4,3.3-5.9,7.5-5.9c4.9,0,7.5,2.4,7.9,6.1h-4.4c-0.2-2-1.5-2.7-3.6-2.7c-1.9,0-3.2,0.7-3.2,2c0,1.6,2.4,1.7,5.1,2.3
				c3.1,0.6,6.5,1.5,6.5,5.8c0,3.7-3.2,5.9-7.8,5.9C182.3,499.6,179.3,497.1,179,493.1z"/>
			<path class="st0" d="M199.8,473.4h4.9v4.4h-4.9V473.4z M199.8,480.7h4.9v18.4h-4.9V480.7z"/>
			<path class="st0" d="M214.7,483.2h0.1c1.3-2,2.9-3,5.5-3c3.8,0,6.4,2.9,6.4,6.9v12h-4.9v-11.3c0-2-1.1-3.4-3.2-3.4
				c-2.2,0-3.7,1.7-3.7,4.2v10.5H210v-18.4h4.8L214.7,483.2L214.7,483.2z"/>
			<path class="st0" d="M231.3,499.6h4.9c0.4,1.1,1.4,2,3.7,2c2.8,0,4.1-1.3,4.1-3.8v-2h-0.1c-1.1,1.2-2.5,2.2-4.8,2.2
				c-4.1,0-8.1-3.2-8.1-8.8c0-5.5,3.3-9,8-9c2.3,0,4,0.9,5.1,2.4h0.1v-1.9h4.7v17c0,2.6-0.8,4.3-2.2,5.6c-1.5,1.4-3.9,2.1-6.6,2.1
				C234.9,505.4,231.9,503.2,231.3,499.6z M244.2,489.1c0-2.7-1.4-5-4.4-5c-2.5,0-4.1,1.9-4.1,5s1.6,5,4.2,5
				C243,494.1,244.2,491.8,244.2,489.1z"/>
			<path class="st0" d="M261.4,492.5c0-3.7,2.3-6,5.7-7.6c-1.5-1.8-2.2-3.2-2.2-5.3c0-3.3,2.7-5.9,6.6-5.9s6.7,2.4,6.7,5.9
				c0,3.2-1.8,4.7-4.6,6.2l3.4,4.4c0.5-1.3,0.9-2.8,1-4.2h4.4c-0.2,2.9-1,5.6-2.4,7.9l4.1,5.2h-6l-1.3-1.7c-1.9,1.4-4.2,2.2-6.8,2.2
				C264.3,499.6,261.4,496.5,261.4,492.5z M274.3,494.1l-4.7-6.1c-2.2,1.3-3,2.8-3,4.4c0,1.9,1.5,3.3,3.6,3.3
				C271.7,495.6,273.1,495.1,274.3,494.1z M271.5,482.9c1.7-1,2.2-2.1,2.2-3.3c0-1.3-0.9-2-2-2s-2,0.9-2,2.1
				C269.6,480.8,270.4,481.9,271.5,482.9z"/>
			<path class="st0" d="M315.3,495.7L315.3,495.7c-1.8,2.9-4.2,4-7.3,4c-3.9,0-6.9-1.4-9-3.7c-2.1-2.4-3.3-5.7-3.3-9.5
				c0-4.3,1.5-8,4.2-10.5c2.1-1.9,4.8-3,8.3-3c6.5,0,10.2,3.6,11,8.6H314c-0.6-2.5-2.5-4.3-5.8-4.3c-4.9,0-7.3,4-7.3,9.1
				c0,5.2,2.8,9.1,7.2,9.1c4,0,6.6-3,6.6-5.8v-0.1h-6.2v-4h10.8v13.6h-3.9L315.3,495.7z"/>
			<path class="st0" d="M329.5,483.6h0.1c1.1-2.1,2.4-3.2,4.5-3.2c0.5,0,0.9,0,1.1,0.1v4.3h-0.1c-3.2-0.3-5.5,1.4-5.5,5.3v9h-4.9
				v-18.4h4.7L329.5,483.6L329.5,483.6z"/>
			<path class="st0" d="M350,497.1L350,497.1c-1,1.4-2.3,2.5-5.5,2.5c-3.8,0-6.4-2-6.4-5.6c0-4.1,3.3-5.4,7.4-5.9
				c3-0.4,4.5-0.7,4.5-2.1c0-1.3-1-2.2-3.1-2.2c-2.3,0-3.4,0.8-3.6,2.6H339c0.1-3.2,2.5-6.1,7.9-6.1c5.5,0,7.8,2.5,7.8,6.8v9.4
				c0,1.4,0.2,2.2,0.6,2.5v0.2h-4.7C350.3,498.8,350.2,497.9,350,497.1z M350.1,492.6v-2.8c-0.9,0.5-2.2,0.8-3.4,1.1
				c-2.5,0.6-3.8,1.1-3.8,2.9s1.1,2.3,2.9,2.3C348.5,496.1,350.1,494.4,350.1,492.6z"/>
			<path class="st0" d="M359.9,480.7h4.7v2.3h0.1c1.2-1.6,2.9-2.8,5.4-2.8c4.9,0,8,4,8,9.7c0,6-3.2,9.7-8,9.7c-2.6,0-4.3-1-5.3-2.6
				h-0.1v8.1h-4.9L359.9,480.7L359.9,480.7z M373.2,490.1c0-3.5-1.2-5.9-4.2-5.9s-4.3,2.6-4.3,5.9s1.5,5.5,4.5,5.5
				C371.7,495.6,373.2,493.5,373.2,490.1z"/>
			<path class="st0" d="M387.5,483.1h0.1c1.3-1.9,2.8-2.9,5.4-2.9c3.8,0,6.4,2.9,6.4,6.9v12h-4.9v-11.3c0-2-1.1-3.4-3.2-3.4
				c-2.2,0-3.7,1.7-3.7,4.2v10.5h-4.9v-25.7h4.9L387.5,483.1L387.5,483.1z"/>
			<path class="st0" d="M404.5,473.4h4.9v4.4h-4.9V473.4z M404.5,480.7h4.9v18.4h-4.9V480.7z"/>
			<path class="st0" d="M413.8,489.9c0-5.5,3.6-9.7,9.2-9.7c4.8,0,7.7,2.8,8.4,6.8h-4.8c-0.3-1.6-1.6-2.8-3.4-2.8
				c-3,0-4.5,2.3-4.5,5.8s1.4,5.8,4.4,5.8c2,0,3.4-1,3.7-3.1h4.7c-0.3,3.9-3.4,7-8.3,7C417.5,499.6,413.8,495.4,413.8,489.9z"/>
			<path class="st0" d="M444.4,473.4h10c6.9,0,11.3,5.5,11.3,13.1c0,4.2-1.4,7.8-4.1,10.1c-1.9,1.6-4.4,2.5-7.6,2.5h-9.6
				L444.4,473.4L444.4,473.4z M453.7,494.6c4.9,0,6.8-3,6.8-8.1s-2.2-8.6-6.6-8.6h-4.2v16.7H453.7L453.7,494.6z"/>
			<path class="st0" d="M469.5,489.9c0-5.5,3.7-9.7,9.1-9.7c5.9,0,9.1,4.5,9.1,11.1h-13.4c0.4,2.8,1.9,4.6,4.7,4.6
				c1.9,0,3-0.9,3.6-2.3h4.8c-0.7,3.3-3.6,6-8.3,6C472.9,499.6,469.5,495.4,469.5,489.9z M474.3,487.9h8.2c-0.1-2.3-1.7-4-3.9-4
				C476,484,474.8,485.5,474.3,487.9z"/>
			<path class="st0" d="M490.9,493.1h4.5c0.3,2.1,1.8,3,4,3c2.1,0,3.4-0.8,3.4-2.1c0-1.8-2.3-1.9-4.9-2.4c-3.3-0.6-6.5-1.5-6.5-5.6
				c0-4,3.3-5.9,7.5-5.9c4.9,0,7.5,2.4,7.9,6.1h-4.4c-0.2-2-1.5-2.7-3.6-2.7c-1.9,0-3.2,0.7-3.2,2c0,1.6,2.4,1.7,5.1,2.3
				c3.1,0.6,6.5,1.5,6.5,5.8c0,3.7-3.2,5.9-7.8,5.9C494.2,499.6,491.2,497.1,490.9,493.1z"/>
			<path class="st0" d="M511.6,473.4h4.9v4.4h-4.9V473.4L511.6,473.4z M511.6,480.7h4.9v18.4h-4.9V480.7L511.6,480.7z"/>
			<path class="st0" d="M521.4,499.6h4.8c0.4,1.1,1.4,2,3.7,2c2.8,0,4.1-1.3,4.1-3.8v-2h-0.1c-1.1,1.2-2.5,2.2-4.8,2.2
				c-4.1,0-8.1-3.2-8.1-8.8c0-5.5,3.3-9,8-9c2.3,0,4,0.9,5.1,2.4h0.1v-1.9h4.7v17c0,2.6-0.8,4.3-2.2,5.6c-1.5,1.4-3.9,2.1-6.6,2.1
				C525,505.4,521.9,503.2,521.4,499.6z M534.3,489.1c0-2.7-1.4-5-4.4-5c-2.5,0-4.1,1.9-4.1,5s1.7,5,4.2,5
				C533,494.1,534.3,491.8,534.3,489.1z"/>
			<path class="st0" d="M548.9,483.2L548.9,483.2c1.4-2,3.1-3,5.6-3c3.8,0,6.4,2.9,6.4,6.9v12H556v-11.3c0-2-1.2-3.4-3.2-3.4
				c-2.2,0-3.7,1.7-3.7,4.2v10.5h-4.9v-18.4h4.8L548.9,483.2L548.9,483.2z"/>
		</g>
	</g>
	<g>
		<path class="st0" d="M50.8,342.4h43.8c28.4,0,47.6,20.5,47.6,52c0,18.1-6.3,32.6-17.8,41.4c-8.1,6-18.4,9.3-31.3,9.3H50.8V342.4z
			 M91.2,423.7c16.7,0,25.3-10.5,25.3-29.3c0-18.7-9.1-30.8-25-30.8H76.3v60.1L91.2,423.7L91.2,423.7z"/>
		<path class="st0" d="M144.7,421h24.6v24.1h-24.6V421z"/>
		<path class="st0" d="M180.9,342.4H230c20.4,0,35.9,10.5,35.9,29.6c0,11.9-5.9,20.7-17.8,24.9v0.4c8.9,3,13.5,8.6,14.9,18.8
			c2.1,13.5,0.7,26.4,4.3,27.7v1.3h-24.7c-2.7-1.6-2.3-13.6-3.9-23.9c-1.3-9.5-6.2-14.7-17.1-14.7h-15.4V445l0,0
			c-14.1,0-25.4-11.4-25.4-25.4L180.9,342.4L180.9,342.4z M225.4,387.8c10.1,0,15.2-4.7,15.2-12.5c0-7.5-4.9-12.8-14.7-12.8h-19.7
			v25.3H225.4z"/>
		<path class="st0" d="M275.2,419.8v-48.3h23.3v43.4c0,8,3.6,12.5,11.1,12.5c8,0,12.9-6,12.9-14.8v-41.1h23.4v73.6h-22.4l0,0
			c0-3.6-4-5.7-6.9-3.7c-4.4,2.9-10.2,5.9-15.5,5.9C284.1,447.3,275.2,436.2,275.2,419.8z"/>
		<path class="st0" d="M352.7,421.3h22.1c0.9,7.3,5.8,10.9,13.5,10.9c7,0,11.5-2.6,11.5-7.3c0-6.6-8.9-7.3-18.7-9
			c-12.8-2.1-26.4-5.6-26.4-22.8c0-15.5,14.4-23.6,31.8-23.6c20.8,0,32,9,33.2,23.6h-21.5c-0.9-6.6-5.3-8.6-11.8-8.6
			c-5.8,0-10.2,2.1-10.2,6.8c0,5.2,8.3,5.9,17.7,7.6c12.9,2.1,28.2,5.5,28.2,24.3c0,16.1-14.2,24.4-33.5,24.4
			C366.9,447.4,353.4,437.5,352.7,421.3z"/>
		<path class="st0" d="M425.8,421.3h22.1c0.9,7.3,5.8,10.9,13.5,10.9c7,0,11.5-2.6,11.5-7.3c0-6.6-8.9-7.3-18.7-9
			c-12.8-2.1-26.4-5.6-26.4-22.8c0-15.5,14.4-23.6,31.8-23.6c20.8,0,32,9,33.2,23.6h-21.5c-0.9-6.6-5.3-8.6-11.8-8.6
			c-5.8,0-10.2,2.1-10.2,6.8c0,5.2,8.3,5.9,17.7,7.6c12.9,2.1,28.2,5.5,28.2,24.3c0,16.1-14.2,24.4-33.5,24.4
			C440,447.4,426.5,437.5,425.8,421.3z"/>
		<path class="st0" d="M536.3,421h24.6v24.1h-24.6V421z"/>
		<g>
			<path class="st0" d="M502.7,445.1L502.7,445.1c12.9,0,23.4-10.5,23.4-23.4v-50.1h-23.4L502.7,445.1L502.7,445.1z"/>
			<rect x="502.1" y="342.4" class="st0" width="24.6" height="19"/>
		</g>
	</g>
</g>
<g class="st1">
	<path d="M241.4,105.5c-22.7,0-41.2,18.5-41.2,41.2v96.6c0,40.5,32.9,73.4,73.4,73.4h120.8c9.4,0,17.1-7.7,17.1-17.1V122.5
		c0-9.4-7.7-17.1-17.1-17.1L241.4,105.5L241.4,105.5z M218.3,243.3v-23.2h83.8l78.5,78.5h-107C243.1,298.6,218.3,273.8,218.3,243.3z
		 M393.4,285.9l-65.7-65.7H338c30.5,0,55.4,24.8,55.4,55.4V285.9z M393.4,227.3c-5.7-6.5-12.5-12-20.1-16.2
		c7.6-4.2,14.4-9.7,20.1-16.2V227.3z M393.4,123.6v23.1c0,30.5-24.8,55.3-55.4,55.3H218.3v-55.4c0-12.8,10.4-23.1,23.1-23.1
		L393.4,123.6L393.4,123.6z"/>
	<g>
		<g>
			<path d="M59.8,473.4h5.4l9.1,25.7h-5.4l-1.7-5.5h-9.3l-1.7,5.5h-5.3L59.8,473.4z M59,489.7h6.8l-2.3-7.4c-0.4-1.4-1-4-1-4h-0.1
				c0,0-0.7,2.6-1.1,4L59,489.7z"/>
			<path d="M76.6,489.9c0-5.8,3.3-9.7,7.9-9.7c2.6,0,4.2,1.2,5.2,2.7h0.1v-9.5h4.9v25.7H90v-2.4h-0.1c-1.1,1.8-2.9,2.9-5.5,2.9
				C79.7,499.6,76.6,495.9,76.6,489.9z M89.8,490c0-3.5-1.2-5.9-4.3-5.9c-2.7,0-4.1,2.4-4.1,5.8c0,3.6,1.4,5.6,3.9,5.6
				C88.3,495.5,89.8,493.4,89.8,490z"/>
			<path d="M98.4,480.7h5l2.9,9.6c0.5,1.8,0.8,2.9,0.8,2.9h0.1c0,0,0.3-1.2,0.8-2.9l3-9.6h4.9l-6.4,18.4h-4.7L98.4,480.7z"/>
			<path d="M118.3,489.9c0-5.5,3.7-9.7,9.1-9.7c5.9,0,9.1,4.5,9.1,11.1h-13.4c0.4,2.8,1.9,4.6,4.7,4.6c1.9,0,3-0.9,3.6-2.3h4.8
				c-0.7,3.3-3.6,6-8.3,6C121.8,499.6,118.3,495.4,118.3,489.9z M123.2,487.9h8.2c-0.1-2.3-1.7-4-3.9-4
				C124.9,484,123.6,485.5,123.2,487.9z"/>
			<path d="M145.6,483.6h0.1c1.1-2.1,2.4-3.2,4.5-3.2c0.5,0,0.9,0,1.1,0.1v4.3h-0.1c-3.2-0.3-5.5,1.4-5.5,5.3v9h-4.9v-18.4h4.7
				L145.6,483.6L145.6,483.6z"/>
			<path d="M154.8,480.7h2.6v-5.8h4.8v5.8h3.2v3.2h-3.2v9.8c0,1.4,0.8,1.8,1.8,1.8c0.6,0,1.4,0,1.4,0v3.6c0,0-1.1,0.1-3.1,0.1
				c-2.4,0-5-0.9-5-4.4V484h-2.6L154.8,480.7L154.8,480.7z"/>
			<path d="M170,473.4h4.9v4.4H170V473.4z M170,480.7h4.9v18.4H170V480.7z"/>
			<path d="M179,493.1h4.5c0.3,2.1,1.8,3,4,3s3.4-0.8,3.4-2.1c0-1.8-2.3-1.9-4.9-2.4c-3.3-0.6-6.5-1.5-6.5-5.6c0-4,3.3-5.9,7.5-5.9
				c4.9,0,7.5,2.4,7.9,6.1h-4.4c-0.2-2-1.5-2.7-3.6-2.7c-1.9,0-3.2,0.7-3.2,2c0,1.6,2.4,1.7,5.1,2.3c3.1,0.6,6.5,1.5,6.5,5.8
				c0,3.7-3.2,5.9-7.8,5.9C182.3,499.6,179.3,497.1,179,493.1z"/>
			<path d="M199.8,473.4h4.9v4.4h-4.9V473.4z M199.8,480.7h4.9v18.4h-4.9V480.7z"/>
			<path d="M214.7,483.2h0.1c1.3-2,2.9-3,5.5-3c3.8,0,6.4,2.9,6.4,6.9v12h-4.9v-11.3c0-2-1.1-3.4-3.2-3.4c-2.2,0-3.7,1.7-3.7,4.2
				v10.5H210v-18.4h4.8L214.7,483.2L214.7,483.2z"/>
			<path d="M231.3,499.6h4.9c0.4,1.1,1.4,2,3.7,2c2.8,0,4.1-1.3,4.1-3.8v-2h-0.1c-1.1,1.2-2.5,2.2-4.8,2.2c-4.1,0-8.1-3.2-8.1-8.8
				c0-5.5,3.3-9,8-9c2.3,0,4,0.9,5.1,2.4h0.1v-1.9h4.7v17c0,2.6-0.8,4.3-2.2,5.6c-1.5,1.4-3.9,2.1-6.6,2.1
				C234.9,505.4,231.9,503.2,231.3,499.6z M244.2,489.1c0-2.7-1.4-5-4.4-5c-2.5,0-4.1,1.9-4.1,5s1.6,5,4.2,5
				C243,494.1,244.2,491.8,244.2,489.1z"/>
			<path d="M261.4,492.5c0-3.7,2.3-6,5.7-7.6c-1.5-1.8-2.2-3.2-2.2-5.3c0-3.3,2.7-5.9,6.6-5.9s6.7,2.4,6.7,5.9
				c0,3.2-1.8,4.7-4.6,6.2l3.4,4.4c0.5-1.3,0.9-2.8,1-4.2h4.4c-0.2,2.9-1,5.6-2.4,7.9l4.1,5.2h-6l-1.3-1.7c-1.9,1.4-4.2,2.2-6.8,2.2
				C264.3,499.6,261.4,496.5,261.4,492.5z M274.3,494.1l-4.7-6.1c-2.2,1.3-3,2.8-3,4.4c0,1.9,1.5,3.3,3.6,3.3
				C271.7,495.6,273.1,495.1,274.3,494.1z M271.5,482.9c1.7-1,2.2-2.1,2.2-3.3c0-1.3-0.9-2-2-2s-2,0.9-2,2.1
				C269.6,480.8,270.4,481.9,271.5,482.9z"/>
			<path d="M315.3,495.7L315.3,495.7c-1.8,2.9-4.2,4-7.3,4c-3.9,0-6.9-1.4-9-3.7c-2.1-2.4-3.3-5.7-3.3-9.5c0-4.3,1.5-8,4.2-10.5
				c2.1-1.9,4.8-3,8.3-3c6.5,0,10.2,3.6,11,8.6H314c-0.6-2.5-2.5-4.3-5.8-4.3c-4.9,0-7.3,4-7.3,9.1c0,5.2,2.8,9.1,7.2,9.1
				c4,0,6.6-3,6.6-5.8v-0.1h-6.2v-4h10.8v13.6h-3.9L315.3,495.7z"/>
			<path d="M329.5,483.6h0.1c1.1-2.1,2.4-3.2,4.5-3.2c0.5,0,0.9,0,1.1,0.1v4.3h-0.1c-3.2-0.3-5.5,1.4-5.5,5.3v9h-4.9v-18.4h4.7
				L329.5,483.6L329.5,483.6z"/>
			<path d="M350,497.1L350,497.1c-1,1.4-2.3,2.5-5.5,2.5c-3.8,0-6.4-2-6.4-5.6c0-4.1,3.3-5.4,7.4-5.9c3-0.4,4.5-0.7,4.5-2.1
				c0-1.3-1-2.2-3.1-2.2c-2.3,0-3.4,0.8-3.6,2.6H339c0.1-3.2,2.5-6.1,7.9-6.1c5.5,0,7.8,2.5,7.8,6.8v9.4c0,1.4,0.2,2.2,0.6,2.5v0.2
				h-4.7C350.3,498.8,350.2,497.9,350,497.1z M350.1,492.6v-2.8c-0.9,0.5-2.2,0.8-3.4,1.1c-2.5,0.6-3.8,1.1-3.8,2.9s1.1,2.3,2.9,2.3
				C348.5,496.1,350.1,494.4,350.1,492.6z"/>
			<path d="M359.9,480.7h4.7v2.3h0.1c1.2-1.6,2.9-2.8,5.4-2.8c4.9,0,8,4,8,9.7c0,6-3.2,9.7-8,9.7c-2.6,0-4.3-1-5.3-2.6h-0.1v8.1
				h-4.9L359.9,480.7L359.9,480.7z M373.2,490.1c0-3.5-1.2-5.9-4.2-5.9s-4.3,2.6-4.3,5.9s1.5,5.5,4.5,5.5
				C371.7,495.6,373.2,493.5,373.2,490.1z"/>
			<path d="M387.5,483.1h0.1c1.3-1.9,2.8-2.9,5.4-2.9c3.8,0,6.4,2.9,6.4,6.9v12h-4.9v-11.3c0-2-1.1-3.4-3.2-3.4
				c-2.2,0-3.7,1.7-3.7,4.2v10.5h-4.9v-25.7h4.9L387.5,483.1L387.5,483.1z"/>
			<path d="M404.5,473.4h4.9v4.4h-4.9V473.4z M404.5,480.7h4.9v18.4h-4.9V480.7z"/>
			<path d="M413.8,489.9c0-5.5,3.6-9.7,9.2-9.7c4.8,0,7.7,2.8,8.4,6.8h-4.8c-0.3-1.6-1.6-2.8-3.4-2.8c-3,0-4.5,2.3-4.5,5.8
				s1.4,5.8,4.4,5.8c2,0,3.4-1,3.7-3.1h4.7c-0.3,3.9-3.4,7-8.3,7C417.5,499.6,413.8,495.4,413.8,489.9z"/>
			<path d="M444.4,473.4h10c6.9,0,11.3,5.5,11.3,13.1c0,4.2-1.4,7.8-4.1,10.1c-1.9,1.6-4.4,2.5-7.6,2.5h-9.6L444.4,473.4
				L444.4,473.4z M453.7,494.6c4.9,0,6.8-3,6.8-8.1s-2.2-8.6-6.6-8.6h-4.2v16.7H453.7L453.7,494.6z"/>
			<path d="M469.5,489.9c0-5.5,3.7-9.7,9.1-9.7c5.9,0,9.1,4.5,9.1,11.1h-13.4c0.4,2.8,1.9,4.6,4.7,4.6c1.9,0,3-0.9,3.6-2.3h4.8
				c-0.7,3.3-3.6,6-8.3,6C472.9,499.6,469.5,495.4,469.5,489.9z M474.3,487.9h8.2c-0.1-2.3-1.7-4-3.9-4
				C476,484,474.8,485.5,474.3,487.9z"/>
			<path d="M490.9,493.1h4.5c0.3,2.1,1.8,3,4,3c2.1,0,3.4-0.8,3.4-2.1c0-1.8-2.3-1.9-4.9-2.4c-3.3-0.6-6.5-1.5-6.5-5.6
				c0-4,3.3-5.9,7.5-5.9c4.9,0,7.5,2.4,7.9,6.1h-4.4c-0.2-2-1.5-2.7-3.6-2.7c-1.9,0-3.2,0.7-3.2,2c0,1.6,2.4,1.7,5.1,2.3
				c3.1,0.6,6.5,1.5,6.5,5.8c0,3.7-3.2,5.9-7.8,5.9C494.2,499.6,491.2,497.1,490.9,493.1z"/>
			<path d="M511.6,473.4h4.9v4.4h-4.9V473.4L511.6,473.4z M511.6,480.7h4.9v18.4h-4.9V480.7L511.6,480.7z"/>
			<path d="M521.4,499.6h4.8c0.4,1.1,1.4,2,3.7,2c2.8,0,4.1-1.3,4.1-3.8v-2h-0.1c-1.1,1.2-2.5,2.2-4.8,2.2c-4.1,0-8.1-3.2-8.1-8.8
				c0-5.5,3.3-9,8-9c2.3,0,4,0.9,5.1,2.4h0.1v-1.9h4.7v17c0,2.6-0.8,4.3-2.2,5.6c-1.5,1.4-3.9,2.1-6.6,2.1
				C525,505.4,521.9,503.2,521.4,499.6z M534.3,489.1c0-2.7-1.4-5-4.4-5c-2.5,0-4.1,1.9-4.1,5s1.7,5,4.2,5
				C533,494.1,534.3,491.8,534.3,489.1z"/>
			<path d="M548.9,483.2L548.9,483.2c1.4-2,3.1-3,5.6-3c3.8,0,6.4,2.9,6.4,6.9v12H556v-11.3c0-2-1.2-3.4-3.2-3.4
				c-2.2,0-3.7,1.7-3.7,4.2v10.5h-4.9v-18.4h4.8L548.9,483.2L548.9,483.2z"/>
		</g>
	</g>
	<g>
		<path d="M50.8,342.4h43.8c28.4,0,47.6,20.5,47.6,52c0,18.1-6.3,32.6-17.8,41.4c-8.1,6-18.4,9.3-31.3,9.3H50.8V342.4z M91.2,423.7
			c16.7,0,25.3-10.5,25.3-29.3c0-18.7-9.1-30.8-25-30.8H76.3v60.1L91.2,423.7L91.2,423.7z"/>
		<path d="M144.7,421h24.6v24.1h-24.6V421z"/>
		<path d="M180.9,342.4H230c20.4,0,35.9,10.5,35.9,29.6c0,11.9-5.9,20.7-17.8,24.9v0.4c8.9,3,13.5,8.6,14.9,18.8
			c2.1,13.5,0.7,26.4,4.3,27.7v1.3h-24.7c-2.7-1.6-2.3-13.6-3.9-23.9c-1.3-9.5-6.2-14.7-17.1-14.7h-15.4V445l0,0
			c-14.1,0-25.4-11.4-25.4-25.4L180.9,342.4L180.9,342.4z M225.4,387.8c10.1,0,15.2-4.7,15.2-12.5c0-7.5-4.9-12.8-14.7-12.8h-19.7
			v25.3H225.4z"/>
		<path d="M275.2,419.8v-48.3h23.3v43.4c0,8,3.6,12.5,11.1,12.5c8,0,12.9-6,12.9-14.8v-41.1h23.4v73.6h-22.4l0,0
			c0-3.6-4-5.7-6.9-3.7c-4.4,2.9-10.2,5.9-15.5,5.9C284.1,447.3,275.2,436.2,275.2,419.8z"/>
		<path d="M352.7,421.3h22.1c0.9,7.3,5.8,10.9,13.5,10.9c7,0,11.5-2.6,11.5-7.3c0-6.6-8.9-7.3-18.7-9c-12.8-2.1-26.4-5.6-26.4-22.8
			c0-15.5,14.4-23.6,31.8-23.6c20.8,0,32,9,33.2,23.6h-21.5c-0.9-6.6-5.3-8.6-11.8-8.6c-5.8,0-10.2,2.1-10.2,6.8
			c0,5.2,8.3,5.9,17.7,7.6c12.9,2.1,28.2,5.5,28.2,24.3c0,16.1-14.2,24.4-33.5,24.4C366.9,447.4,353.4,437.5,352.7,421.3z"/>
		<path d="M425.8,421.3h22.1c0.9,7.3,5.8,10.9,13.5,10.9c7,0,11.5-2.6,11.5-7.3c0-6.6-8.9-7.3-18.7-9c-12.8-2.1-26.4-5.6-26.4-22.8
			c0-15.5,14.4-23.6,31.8-23.6c20.8,0,32,9,33.2,23.6h-21.5c-0.9-6.6-5.3-8.6-11.8-8.6c-5.8,0-10.2,2.1-10.2,6.8
			c0,5.2,8.3,5.9,17.7,7.6c12.9,2.1,28.2,5.5,28.2,24.3c0,16.1-14.2,24.4-33.5,24.4C440,447.4,426.5,437.5,425.8,421.3z"/>
		<path d="M536.3,421h24.6v24.1h-24.6V421z"/>
		<g>
			<path d="M502.7,445.1L502.7,445.1c12.9,0,23.4-10.5,23.4-23.4v-50.1h-23.4L502.7,445.1L502.7,445.1z"/>
			<rect x="502.1" y="342.4" width="24.6" height="19"/>
		</g>
	</g>
</g>
</svg>
