<?xml version="1.0" encoding="utf-8"?>
<!-- Generator: Adobe Illustrator 24.1.2, SVG Export Plug-In . SVG Version: 6.00 Build 0)  -->
<svg version="1.1" id="Capa_1" xmlns="http://www.w3.org/2000/svg" xmlns:xlink="http://www.w3.org/1999/xlink" x="0px" y="0px"
	 viewBox="0 0 600 600" style="enable-background:new 0 0 600 600;" xml:space="preserve">
<style type="text/css">
	.st0{fill:#FFFFFF;}
	.st1{fill:#7F7F7F;}
</style>
<rect class="st0" width="600" height="600"/>
<g>
	<g>
		<path class="st1" d="M192.71,341.96c-1.14-0.08-3.32-0.25-4.15,0.65c-2.34,2.52-4.68,5.02-7.02,7.54
			c-0.69,0.75,2.11,1.1,2.44,1.13c1.14,0.08,3.32,0.26,4.15-0.64c2.35-2.52,4.69-5.02,7.02-7.54
			C195.84,342.35,193.03,342,192.71,341.96z"/>
		<path class="st1" d="M504.23,339.52c-0.8-2.91-1.4-3-12.29-3c-10.89,0-33.41,0-33.93,0c-9.92,0-13.64,1.99-18.5,3.98
			c-3,1.23-4.88,2.46-9.3,3.03h-32.05v6.22h31.97c4.79,0.52,6.85,1.78,10.09,3.04c5.08,1.99,9.02,3.98,18.95,3.98
			c0.52,0,23.04,0,33.94,0c10.89,0,11.48-0.08,11.95-2.99C505.76,349.36,505.45,343.93,504.23,339.52z M443.92,342.8
			c0.51-0.4,1.05-0.72,1.62-0.96c0.56-0.24,1.16-0.39,1.79-0.42c12.82,0.35,25.55,0.76,38.3,2.12h-42.53
			C443.36,343.28,443.63,343.04,443.92,342.8z M502.81,353.31c-0.04,0.28-0.15,0.49-0.29,0.63c-0.26,0.26-0.64,0.35-1.11,0.39
			c-0.6,0.06-1.35,0.1-2.22,0.13c-0.87,0.03-1.86,0.04-2.91,0.04c-1.06,0.01-2.17,0.01-3.3,0.01h-8.48h-8.48h-8.49h-8.48
			c-2.14,0-3.98-0.1-5.6-0.26c-1.63-0.17-3.04-0.42-4.31-0.71c-0.38-0.09-0.76-0.19-1.12-0.28c0.62,0.06,1.24,0.11,1.86,0.15
			c1.4,0.08,2.81,0.11,4.2,0.12c1.4,0,2.81-0.02,4.2-0.03c2.17-0.01,4.34-0.03,6.5-0.04c2.17-0.02,4.33-0.03,6.49-0.04
			c9.23-0.08,18.45-0.19,27.66-0.45c0.58-0.02,1.18-0.14,1.58-0.51c0.07-0.06,0.13-0.12,0.19-0.2c0.22-0.31,0.31-0.69,0.37-1.08
			c0.51-2.76,0.73-5.59,0.6-8.43c-0.04-0.72-0.09-1.43-0.18-2.13c-0.05-0.44-0.07-1-0.19-1.52c0.38,0.19,0.63,0.52,0.74,0.9
			c0.28,1,0.51,2.09,0.68,3.21c0.17,1.12,0.29,2.28,0.36,3.45c0.06,1.16,0.08,2.32,0.03,3.44
			C503.07,351.22,502.96,352.31,502.81,353.31z"/>
		<path class="st1" d="M174.77,342.08c-1.14-0.09-3.32-0.26-4.15,0.65c-2.31,2.47-4.6,4.94-6.92,7.42c-0.68,0.74,2.12,1.1,2.44,1.13
			c1.14,0.09,3.32,0.26,4.15-0.64c2.3-2.48,4.6-4.95,6.92-7.42C177.91,342.47,175.1,342.1,174.77,342.08z"/>
		<path class="st1" d="M165.81,342.14c-1.14-0.09-3.32-0.26-4.14,0.64c-2.28,2.45-4.58,4.92-6.86,7.37
			c-0.69,0.74,2.12,1.1,2.44,1.13c1.15,0.09,3.32,0.26,4.15-0.64c2.29-2.46,4.58-4.92,6.87-7.37
			C168.95,342.52,166.14,342.16,165.81,342.14z"/>
		<path class="st1" d="M156.18,341.76c-1.01,0.12-2.65,0.33-2.6,1.23c0.05,1.31,0.15,2.62,0.2,3.91c-0.61-1.48-1.08-2.54-1.4-3.3
			c0,0-0.01-0.04-0.01-0.05H127.1l0.08,1.19c-2.79-1.31-7.85-2.2-11.76-2.2c-5.65,0-10.12,1.87-9.99,4.17
			c0.12,2.3,4.83,4.17,10.46,4.17c3.91,0,8.87-0.9,11.5-2.2l0.07,1.1h26.02c0.06-0.2,0.19-0.41,0.37-0.62l6.34-6.78
			C159.61,341.84,156.44,341.72,156.18,341.76z"/>
		<path class="st1" d="M183.74,342.02c-1.14-0.09-3.31-0.26-4.14,0.64c-2.33,2.5-4.65,4.99-6.97,7.48c-0.69,0.75,2.11,1.1,2.44,1.13
			c1.14,0.08,3.32,0.26,4.14-0.64c2.33-2.5,4.65-4.99,6.98-7.48C186.87,342.4,184.07,342.05,183.74,342.02z"/>
		<path class="st1" d="M204.1,343.04c0.69-0.74-2.12-1.11-2.44-1.14c-1.14-0.09-3.32-0.25-4.14,0.65c-2.36,2.52-4.73,5.06-7.08,7.59
			c-0.68,0.74,2.12,1.1,2.44,1.13c1.14,0.08,3.32,0.26,4.15-0.64C199.39,348.09,201.75,345.57,204.1,343.04z"/>
		<path class="st1" d="M210.63,341.84c-1.14-0.08-3.32-0.26-4.15,0.64c-2.37,2.55-4.76,5.1-7.13,7.65c-0.69,0.74,2.11,1.1,2.44,1.13
			c1.14,0.08,3.32,0.25,4.15-0.64c2.37-2.56,4.76-5.1,7.13-7.65C213.76,342.24,210.95,341.87,210.63,341.84z"/>
		<path class="st1" d="M216.99,343.54h-2.41c-0.07,0.14-0.16,0.29-0.3,0.44l-5.97,6.41c-0.03,0.06-0.04,0.12-0.07,0.2
			c-0.36,0.75,3.3,0.88,3.57,0.84c0.96-0.14,2.58-0.36,2.54-1.24c-0.04-1-0.12-2-0.16-2.98c0.33,0.67,0.97,1.96,0.97,1.96
			c0.08,0.2,0.15,0.42,0.21,0.61H217L216.99,343.54L216.99,343.54z"/>
		<g>
			<path class="st1" d="M269.53,352.17h-9.37v-9.71h20.61v20.39c-4.37,3.61-10.06,6.52-20.54,6.52c-13.87,0-25.39-9.98-25.39-24.2
				s11.52-24.14,25.11-24.14c8.33,0,14.84,3.13,18.94,8.4l-8.81,7.63c-2.36-3.05-5.69-5.06-10.4-5.06c-7.7,0-11.93,5.75-11.93,13.17
				c0,7.42,4.3,13.6,12.63,13.6c4.58,0,7.14-0.91,9.16-1.87L269.53,352.17L269.53,352.17z"/>
			<path class="st1" d="M301.26,321.59h12.62v47.16h-12.62V321.59z"/>
			<path class="st1" d="M348.09,345.23v23.52h-11.87v-47.79c0-0.42,0.21-0.76,0.97-0.13l29.63,24.42v-23.65h11.86v47.86
				c0,0.55-0.2,0.76-0.97,0.13L348.09,345.23z"/>
		</g>
		<g>
			<path class="st1" d="M207.47,419.3c0-9.12,4.04-15.17,7.92-19.04l2.76,2.27c-3.51,4.18-5.88,9.3-5.88,16.77
				c0,7.48,2.36,12.59,5.88,16.77l-2.76,2.27C211.52,434.47,207.47,428.46,207.47,419.3z"/>
			<path class="st1" d="M232.53,401.99h8.1v30.25h-8.1V401.99z"/>
			<path class="st1" d="M263.14,408.8h-8.01v-6.81h24.11v6.81h-8.01v23.45h-8.1V408.8z"/>
			<path class="st1" d="M306.65,428.6h-10.54l-1.51,3.64h-7.92l14.73-30.78c0.13-0.31,0.4-0.31,0.53,0l14.68,30.78h-8.36
				L306.65,428.6z M298.59,422.73h5.48l-2.76-6.41L298.59,422.73z"/>
			<path class="st1" d="M330.1,401.99h8.1v23.44h12.85v6.81H330.1L330.1,401.99L330.1,401.99z"/>
			<path class="st1" d="M358.13,401.99h8.9l5.96,11.08l5.96-11.08h8.5l-10.54,18.33v11.92h-8.1v-11.7L358.13,401.99z"/>
			<path class="st1" d="M398.76,436.07c3.51-4.18,5.88-9.3,5.88-16.77s-2.36-12.59-5.88-16.77l2.76-2.27
				c3.88,3.87,7.92,9.88,7.92,19.04c0,9.12-4.04,15.17-7.92,19.04L398.76,436.07z"/>
		</g>
	</g>
	<path class="st1" d="M206.69,257.71h-25.53l-1.59-28.89l-15.05,17.44c-0.98,0.99-1.88,1.16-2.49,1.16c-0.86,0-1.7-0.36-2.36-1.02
		l-15.96-17.86l-1.61,29.16h-25.39l4.69-80.64c0.29-2.16,1.71-3.02,2.99-3.02c0.68,0,1.72,0.25,2.67,1.42l34.91,39.19l34.45-39.28
		c0.87-1.09,1.89-1.33,2.6-1.33c1.27,0,2.68,0.86,2.97,2.79L206.69,257.71z M196.17,185.14c-0.25-0.09-0.52-0.01-0.7,0.19
		l-33.48,38.19l-34.08-38.27c-0.18-0.2-0.45-0.27-0.7-0.19c-0.25,0.09-0.42,0.31-0.44,0.58l-3.82,65.52
		c-0.01,0.18,0.05,0.36,0.18,0.49c0.12,0.13,0.29,0.2,0.47,0.2h12.34c0.35,0,0.63-0.27,0.65-0.61l2.04-37.16l22.87,25.58
		c0.12,0.14,0.31,0.22,0.49,0.21c0.19,0,0.36-0.08,0.49-0.22l22.14-25.65l2.05,37.24c0.02,0.35,0.3,0.61,0.65,0.61h12.45
		c0.18,0,0.35-0.07,0.47-0.2c0.12-0.13,0.19-0.3,0.18-0.49l-3.81-65.44C196.6,185.45,196.42,185.23,196.17,185.14z"/>
	<path class="st1" d="M252.81,228.23h-6.05l3-7.08L252.81,228.23z M253.73,175.63c-0.58-1.34-1.75-2.18-3.08-2.18
		c-1.32,0-2.51,0.84-3.04,2.08l-39.31,82.18h26.06l3.85-9.3h23.43l4.09,9.3h27.15L253.73,175.63z M282.54,251.84h-12.56
		c-0.26,0-0.49-0.15-0.6-0.39l-3.91-8.92l-31.17,0.01l-3.68,8.9c-0.1,0.24-0.34,0.4-0.6,0.4h-11.37c-0.22,0-0.44-0.12-0.55-0.3
		c-0.12-0.19-0.13-0.43-0.04-0.63l32-66.89c0.11-0.22,0.34-0.37,0.59-0.37l0,0c0.25,0,0.48,0.14,0.59,0.37l31.9,66.89
		c0.1,0.2,0.08,0.44-0.04,0.63C282.98,251.72,282.77,251.84,282.54,251.84z M237.9,234.1h23.81l-12-27.87L237.9,234.1z"/>
	<path class="st1" d="M353.25,235.16v22.55h-58.59v-82.28h25.85l-0.01,59.73H353.25L353.25,235.16z M346.73,241.01h-32.1v-59.07
		c0-0.36-0.29-0.65-0.65-0.65h-12.81c-0.36,0-0.65,0.29-0.65,0.65v69.25c0,0.36,0.29,0.65,0.65,0.65h45.56
		c0.36,0,0.65-0.29,0.65-0.65v-9.53C347.38,241.31,347.09,241.01,346.73,241.01z"/>
	<path class="st1" d="M416.85,197.98h-31.73v10.44h28l-0.01,22.55h-27.99v26.75h-25.86l0.01-82.3h57.58V197.98z M410.34,181.28
		h-44.56c-0.36,0-0.65,0.29-0.65,0.65v69.27c0,0.36,0.29,0.65,0.65,0.65l12.81,0.01l0,0c0.17,0,0.34-0.07,0.46-0.19
		c0.12-0.12,0.19-0.28,0.19-0.46l0.01-26.1h27.34c0.36,0,0.65-0.29,0.65-0.65v-9.53c0-0.17-0.07-0.34-0.19-0.46
		c-0.12-0.12-0.28-0.19-0.46-0.19h-27.34v-22.16h31.08c0.36,0,0.65-0.29,0.65-0.65l0.01-9.53c0-0.17-0.07-0.34-0.19-0.46
		C410.68,181.34,410.51,181.28,410.34,181.28z"/>
	<path class="st1" d="M502.88,175.43l-28.77,49.99v32.29l-25.84-0.01v-31.71l-29.1-50.58h28.74l13.63,25.34l13.63-25.33
		L502.88,175.43z M492.17,181.61c-0.12-0.2-0.33-0.33-0.56-0.33h-12.56c-0.24,0-0.46,0.13-0.58,0.35l-16.95,31.49l-16.95-31.5
		c-0.12-0.21-0.34-0.35-0.58-0.35h-13.57c-0.23,0-0.44,0.12-0.56,0.33c-0.12,0.2-0.12,0.45,0,0.65l24.26,42.17v26.77
		c0,0.36,0.29,0.65,0.65,0.65h12.81c0.36,0,0.65-0.29,0.65-0.65l0.01-27.33l23.93-41.6C492.29,182.06,492.29,181.82,492.17,181.61z"
		/>
	<g>
		<g>
			<path class="st1" d="M259.05,284.24c0-6.01,4.6-10.44,10.43-10.44c3.77,0,6.04,1.34,7.72,3.23l-2.2,2.09
				c-1.23-1.34-2.63-2.42-5.59-2.42c-4.12,0-7.03,3.23-7.03,7.54c0,4.3,2.92,7.54,7.56,7.54c2.21,0,3.77-0.51,4.93-1.29v-4.09h-5.44
				v-2.84h8.4v8.46c-1.7,1.4-4.06,2.66-7.89,2.66C263.68,294.68,259.05,290.26,259.05,284.24z"/>
			<path class="st1" d="M305.39,296.23c1.11,0,2-0.71,2.48-1.19l2.04,2.06c-0.99,1.14-2.48,2.03-4.36,2.03
				c-2.87,0-4.78-1.73-6.52-3.41c-1.2-1.13-2.28-2.09-3.68-2.09c-1.56,0-2.57,0.68-3.32,1.62L290,293.3c0.6-0.8,1.44-1.52,2.63-1.95
				c-1.77-1.77-2.87-4.24-2.87-7.15c0-6.01,4.67-10.41,10.49-10.41c5.83,0,10.5,4.4,10.5,10.41c0,5.49-3.88,9.41-9.03,10.04
				C302.98,295.54,303.8,296.23,305.39,296.23z M307.43,284.21c0-4.3-2.96-7.5-7.17-7.5c-4.2,0-7.17,3.2-7.17,7.5
				c0,4.3,2.97,7.39,7.17,7.39C304.47,291.6,307.43,288.52,307.43,284.21z"/>
			<path class="st1" d="M322.62,274.08h5.73c6.64,0,10.7,4.15,10.7,10.16c0,6.01-4.04,10.17-10.7,10.17h-5.73V274.08z
				 M328.18,291.57c5.26,0,7.56-3.02,7.56-7.32s-2.3-7.32-7.56-7.32h-2.36v14.65L328.18,291.57L328.18,291.57z"/>
			<path class="st1" d="M350.71,274.08h3.2v20.33h-3.2V274.08z"/>
		</g>
		<g>
			<path class="st1" d="M282.3,292.75c0-1.26,1.01-2.16,2.16-2.16c1.14,0,2.15,0.89,2.15,2.16c0,1.26-1.02,2.16-2.15,2.16
				C283.31,294.9,282.3,294.02,282.3,292.75z"/>
			<path class="st1" d="M313.62,292.75c0-1.26,1.02-2.16,2.16-2.16s2.16,0.89,2.16,2.16c0,1.26-1.02,2.16-2.16,2.16
				C314.63,294.9,313.62,294.02,313.62,292.75z"/>
			<path class="st1" d="M341.57,292.75c0-1.26,1.02-2.16,2.16-2.16c1.14,0,2.16,0.89,2.16,2.16c0,1.26-1.01,2.16-2.16,2.16
				C342.59,294.9,341.57,294.02,341.57,292.75z"/>
			<path class="st1" d="M358.62,292.75c0-1.26,1.01-2.16,2.16-2.16c1.14,0,2.16,0.89,2.16,2.16c0,1.26-1.02,2.16-2.16,2.16
				C359.63,294.9,358.62,294.02,358.62,292.75z"/>
		</g>
	</g>
	<g>
		<path class="st1" d="M480.49,252.97c0-3.03,2.36-5.24,5.27-5.24c2.93,0,5.34,2.2,5.34,5.24c0,3-2.41,5.21-5.34,5.21
			C482.86,258.18,480.49,255.97,480.49,252.97z M490.1,252.97c0-2.6-1.84-4.37-4.34-4.37c-2.47,0-4.27,1.77-4.27,4.37
			c0,2.53,1.8,4.27,4.27,4.27C488.27,257.24,490.1,255.5,490.1,252.97z M485,255.87h-1.24v-5.94h2.1c1.47,0,2.34,0.8,2.34,1.96
			c0,0.87-0.47,1.43-1.16,1.71l1.33,2.27h-1.33l-1.2-2.07H485L485,255.87L485,255.87z M485.8,252.84c0.74,0,1.14-0.3,1.14-0.93
			c0-0.67-0.4-0.93-1.14-0.93H485v1.87H485.8z"/>
	</g>
</g>
</svg>
